%
M48
M72
T01C0.01181
T02C0.02756
T03C0.03200
T04C0.03543
T05C0.03937
T06C0.04331
T07C0.12598
%
T01
X7400Y153250
X16400Y203250
X44400Y191250
X52400Y244250
X55400Y254250
X75400Y215250
X78400Y213250
X67400Y196250
X81400Y278250
X85400Y278250
X113400Y264250
X17400Y296250
T02
X25022Y292589
X25022Y284715
X25022Y276841
X25022Y261093
X25022Y253219
X25022Y245344
X25022Y229596
X25022Y221722
X25022Y308337
X25022Y316211
X25022Y324085
X25022Y339833
X25022Y347707
X25022Y355581
X25022Y363455
X25022Y79990
X25022Y72116
X25022Y56368
X25022Y48494
X25022Y40620
T03
X41400Y41250
X41400Y51250
X52113Y86250
X52113Y96250
X61400Y106250
X71400Y106250
X71400Y76250
X66400Y61250
X61400Y76250
X76400Y61250
X81400Y76250
X86400Y61250
X91400Y76250
X96400Y61250
X101400Y76250
X106400Y51250
X106400Y41250
X96400Y31250
X86400Y31250
X76400Y31250
X66400Y31250
X41400Y101250
X41400Y121250
X41400Y131250
X41400Y161250
X41400Y176250
X31400Y176250
X31400Y161250
X21400Y161250
X21400Y176250
X11400Y176250
X11400Y161250
X11400Y131250
X11400Y121250
X11400Y101250
X21400Y101250
X21400Y121250
X21400Y131250
X31400Y131250
X31400Y121250
X31400Y101250
X31400Y206250
X21400Y206250
X11400Y206250
X41400Y206250
X41400Y216250
X41400Y236250
X41400Y281250
X41400Y291250
X41400Y301250
X41400Y311250
X41400Y321250
X41400Y341250
X41400Y361250
X61400Y366250
X61400Y351250
X61400Y336250
X61400Y321250
X71400Y321250
X71400Y336250
X71400Y351250
X71400Y366250
X91400Y346250
X91400Y336250
X91400Y326250
X91400Y316250
X121400Y316250
X121400Y326250
X121400Y336250
X121400Y346250
X121400Y106250
X111400Y106250
X111400Y76250
X121400Y76250
X101400Y106250
X91400Y106250
X81400Y106250
T04
X56400Y61250
X56400Y31250
T05
X61400Y121250
X121400Y121250
X121400Y301250
X61400Y301250
T06
X61400Y291250
X61400Y281250
X61400Y271250
X61400Y261250
X61400Y251250
X61400Y241250
X61400Y231250
X61400Y221250
X61400Y211250
X61400Y201250
X61400Y191250
X61400Y181250
X61400Y171250
X61400Y161250
X61400Y151250
X61400Y141250
X61400Y131250
X121400Y131250
X121400Y141250
X121400Y151250
X121400Y161250
X121400Y171250
X121400Y181250
X121400Y191250
X121400Y201250
X121400Y211250
X121400Y221250
X121400Y231250
X121400Y241250
X121400Y251250
X121400Y261250
X121400Y271250
X121400Y281250
X121400Y291250
T07
X13211Y13061
X119510Y13061
X119510Y383140
X13211Y383140
M30
