G75*
%MOIN*%
%OFA0B0*%
%FSLAX25Y25*%
%IPPOS*%
%LPD*%
%AMOC8*
5,1,8,0,0,1.08239X$1,22.5*
%
%ADD10C,0.13398*%
%ADD11C,0.04737*%
%ADD12OC8,0.05600*%
%ADD13C,0.08200*%
%ADD14C,0.07099*%
%ADD15C,0.05600*%
%ADD16C,0.08400*%
D10*
X0013211Y0013061D03*
X0119510Y0013061D03*
X0119510Y0383140D03*
X0013211Y0383140D03*
D11*
X0061400Y0301250D03*
X0121400Y0301250D03*
X0121400Y0121250D03*
X0061400Y0121250D03*
D12*
X0052113Y0096250D03*
X0052113Y0086250D03*
X0041400Y0101250D03*
X0041400Y0121250D03*
X0031400Y0121250D03*
X0031400Y0101250D03*
X0021400Y0101250D03*
X0021400Y0121250D03*
X0011400Y0121250D03*
X0011400Y0101250D03*
X0041400Y0051250D03*
X0041400Y0041250D03*
X0041400Y0216250D03*
X0041400Y0236250D03*
X0061400Y0321250D03*
X0061400Y0336250D03*
X0061400Y0351250D03*
X0061400Y0366250D03*
X0071400Y0366250D03*
X0071400Y0351250D03*
X0071400Y0336250D03*
X0071400Y0321250D03*
X0041400Y0341250D03*
X0041400Y0361250D03*
X0106400Y0051250D03*
X0106400Y0041250D03*
D13*
X0056400Y0031250D03*
X0056400Y0061250D03*
D14*
X0025022Y0056368D03*
X0025022Y0048494D03*
X0025022Y0040620D03*
X0025022Y0072116D03*
X0025022Y0079990D03*
X0025022Y0221722D03*
X0025022Y0229596D03*
X0025022Y0245344D03*
X0025022Y0253219D03*
X0025022Y0261093D03*
X0025022Y0276841D03*
X0025022Y0284715D03*
X0025022Y0292589D03*
X0025022Y0308337D03*
X0025022Y0316211D03*
X0025022Y0324085D03*
X0025022Y0339833D03*
X0025022Y0347707D03*
X0025022Y0355581D03*
X0025022Y0363455D03*
D15*
X0039000Y0321250D02*
X0043800Y0321250D01*
X0043800Y0311250D02*
X0039000Y0311250D01*
X0039000Y0301250D02*
X0043800Y0301250D01*
X0043800Y0291250D02*
X0039000Y0291250D01*
X0039000Y0281250D02*
X0043800Y0281250D01*
X0041400Y0208650D02*
X0041400Y0203850D01*
X0041400Y0178650D02*
X0041400Y0173850D01*
X0041400Y0163650D02*
X0041400Y0158850D01*
X0041400Y0133650D02*
X0041400Y0128850D01*
X0031400Y0128850D02*
X0031400Y0133650D01*
X0021400Y0133650D02*
X0021400Y0128850D01*
X0011400Y0128850D02*
X0011400Y0133650D01*
X0011400Y0158850D02*
X0011400Y0163650D01*
X0011400Y0173850D02*
X0011400Y0178650D01*
X0011400Y0203850D02*
X0011400Y0208650D01*
X0021400Y0208650D02*
X0021400Y0203850D01*
X0021400Y0178650D02*
X0021400Y0173850D01*
X0021400Y0163650D02*
X0021400Y0158850D01*
X0031400Y0158850D02*
X0031400Y0163650D01*
X0031400Y0173850D02*
X0031400Y0178650D01*
X0031400Y0203850D02*
X0031400Y0208650D01*
X0061400Y0108650D02*
X0061400Y0103850D01*
X0071400Y0103850D02*
X0071400Y0108650D01*
X0081400Y0108650D02*
X0081400Y0103850D01*
X0091400Y0103850D02*
X0091400Y0108650D01*
X0101400Y0108650D02*
X0101400Y0103850D01*
X0101400Y0078650D02*
X0101400Y0073850D01*
X0096400Y0066050D02*
X0096400Y0061250D01*
X0091400Y0073850D02*
X0091400Y0078650D01*
X0086400Y0066050D02*
X0086400Y0061250D01*
X0081400Y0073850D02*
X0081400Y0078650D01*
X0076400Y0066050D02*
X0076400Y0061250D01*
X0071400Y0073850D02*
X0071400Y0078650D01*
X0066400Y0066050D02*
X0066400Y0061250D01*
X0061400Y0073850D02*
X0061400Y0078650D01*
X0066400Y0031250D02*
X0066400Y0026450D01*
X0076400Y0026450D02*
X0076400Y0031250D01*
X0086400Y0031250D02*
X0086400Y0026450D01*
X0096400Y0026450D02*
X0096400Y0031250D01*
X0111400Y0073850D02*
X0111400Y0078650D01*
X0121400Y0078650D02*
X0121400Y0073850D01*
X0121400Y0103850D02*
X0121400Y0108650D01*
X0111400Y0108650D02*
X0111400Y0103850D01*
X0119000Y0316250D02*
X0123800Y0316250D01*
X0123800Y0326250D02*
X0119000Y0326250D01*
X0119000Y0336250D02*
X0123800Y0336250D01*
X0123800Y0346250D02*
X0119000Y0346250D01*
X0093800Y0346250D02*
X0089000Y0346250D01*
X0089000Y0336250D02*
X0093800Y0336250D01*
X0093800Y0326250D02*
X0089000Y0326250D01*
X0089000Y0316250D02*
X0093800Y0316250D01*
D16*
X0121400Y0291250D03*
X0121400Y0281250D03*
X0121400Y0271250D03*
X0121400Y0261250D03*
X0121400Y0251250D03*
X0121400Y0241250D03*
X0121400Y0231250D03*
X0121400Y0221250D03*
X0121400Y0211250D03*
X0121400Y0201250D03*
X0121400Y0191250D03*
X0121400Y0181250D03*
X0121400Y0171250D03*
X0121400Y0161250D03*
X0121400Y0151250D03*
X0121400Y0141250D03*
X0121400Y0131250D03*
X0061400Y0131250D03*
X0061400Y0141250D03*
X0061400Y0151250D03*
X0061400Y0161250D03*
X0061400Y0171250D03*
X0061400Y0181250D03*
X0061400Y0191250D03*
X0061400Y0201250D03*
X0061400Y0211250D03*
X0061400Y0221250D03*
X0061400Y0231250D03*
X0061400Y0241250D03*
X0061400Y0251250D03*
X0061400Y0261250D03*
X0061400Y0271250D03*
X0061400Y0281250D03*
X0061400Y0291250D03*
M02*
