G75*
%MOIN*%
%OFA0B0*%
%FSLAX25Y25*%
%IPPOS*%
%LPD*%
%AMOC8*
5,1,8,0,0,1.08239X$1,22.5*
%
%ADD10C,0.00000*%
D10*
X0001400Y0001250D02*
X0001400Y0394951D01*
X0131321Y0394951D01*
X0131321Y0001250D01*
X0001400Y0001250D01*
X0006912Y0013061D02*
X0006914Y0013219D01*
X0006920Y0013377D01*
X0006930Y0013535D01*
X0006944Y0013693D01*
X0006962Y0013850D01*
X0006983Y0014007D01*
X0007009Y0014163D01*
X0007039Y0014319D01*
X0007072Y0014474D01*
X0007110Y0014627D01*
X0007151Y0014780D01*
X0007196Y0014932D01*
X0007245Y0015083D01*
X0007298Y0015232D01*
X0007354Y0015380D01*
X0007414Y0015526D01*
X0007478Y0015671D01*
X0007546Y0015814D01*
X0007617Y0015956D01*
X0007691Y0016096D01*
X0007769Y0016233D01*
X0007851Y0016369D01*
X0007935Y0016503D01*
X0008024Y0016634D01*
X0008115Y0016763D01*
X0008210Y0016890D01*
X0008307Y0017015D01*
X0008408Y0017137D01*
X0008512Y0017256D01*
X0008619Y0017373D01*
X0008729Y0017487D01*
X0008842Y0017598D01*
X0008957Y0017707D01*
X0009075Y0017812D01*
X0009196Y0017914D01*
X0009319Y0018014D01*
X0009445Y0018110D01*
X0009573Y0018203D01*
X0009703Y0018293D01*
X0009836Y0018379D01*
X0009971Y0018463D01*
X0010107Y0018542D01*
X0010246Y0018619D01*
X0010387Y0018691D01*
X0010529Y0018761D01*
X0010673Y0018826D01*
X0010819Y0018888D01*
X0010966Y0018946D01*
X0011115Y0019001D01*
X0011265Y0019052D01*
X0011416Y0019099D01*
X0011568Y0019142D01*
X0011721Y0019181D01*
X0011876Y0019217D01*
X0012031Y0019248D01*
X0012187Y0019276D01*
X0012343Y0019300D01*
X0012500Y0019320D01*
X0012658Y0019336D01*
X0012815Y0019348D01*
X0012974Y0019356D01*
X0013132Y0019360D01*
X0013290Y0019360D01*
X0013448Y0019356D01*
X0013607Y0019348D01*
X0013764Y0019336D01*
X0013922Y0019320D01*
X0014079Y0019300D01*
X0014235Y0019276D01*
X0014391Y0019248D01*
X0014546Y0019217D01*
X0014701Y0019181D01*
X0014854Y0019142D01*
X0015006Y0019099D01*
X0015157Y0019052D01*
X0015307Y0019001D01*
X0015456Y0018946D01*
X0015603Y0018888D01*
X0015749Y0018826D01*
X0015893Y0018761D01*
X0016035Y0018691D01*
X0016176Y0018619D01*
X0016315Y0018542D01*
X0016451Y0018463D01*
X0016586Y0018379D01*
X0016719Y0018293D01*
X0016849Y0018203D01*
X0016977Y0018110D01*
X0017103Y0018014D01*
X0017226Y0017914D01*
X0017347Y0017812D01*
X0017465Y0017707D01*
X0017580Y0017598D01*
X0017693Y0017487D01*
X0017803Y0017373D01*
X0017910Y0017256D01*
X0018014Y0017137D01*
X0018115Y0017015D01*
X0018212Y0016890D01*
X0018307Y0016763D01*
X0018398Y0016634D01*
X0018487Y0016503D01*
X0018571Y0016369D01*
X0018653Y0016233D01*
X0018731Y0016096D01*
X0018805Y0015956D01*
X0018876Y0015814D01*
X0018944Y0015671D01*
X0019008Y0015526D01*
X0019068Y0015380D01*
X0019124Y0015232D01*
X0019177Y0015083D01*
X0019226Y0014932D01*
X0019271Y0014780D01*
X0019312Y0014627D01*
X0019350Y0014474D01*
X0019383Y0014319D01*
X0019413Y0014163D01*
X0019439Y0014007D01*
X0019460Y0013850D01*
X0019478Y0013693D01*
X0019492Y0013535D01*
X0019502Y0013377D01*
X0019508Y0013219D01*
X0019510Y0013061D01*
X0019508Y0012903D01*
X0019502Y0012745D01*
X0019492Y0012587D01*
X0019478Y0012429D01*
X0019460Y0012272D01*
X0019439Y0012115D01*
X0019413Y0011959D01*
X0019383Y0011803D01*
X0019350Y0011648D01*
X0019312Y0011495D01*
X0019271Y0011342D01*
X0019226Y0011190D01*
X0019177Y0011039D01*
X0019124Y0010890D01*
X0019068Y0010742D01*
X0019008Y0010596D01*
X0018944Y0010451D01*
X0018876Y0010308D01*
X0018805Y0010166D01*
X0018731Y0010026D01*
X0018653Y0009889D01*
X0018571Y0009753D01*
X0018487Y0009619D01*
X0018398Y0009488D01*
X0018307Y0009359D01*
X0018212Y0009232D01*
X0018115Y0009107D01*
X0018014Y0008985D01*
X0017910Y0008866D01*
X0017803Y0008749D01*
X0017693Y0008635D01*
X0017580Y0008524D01*
X0017465Y0008415D01*
X0017347Y0008310D01*
X0017226Y0008208D01*
X0017103Y0008108D01*
X0016977Y0008012D01*
X0016849Y0007919D01*
X0016719Y0007829D01*
X0016586Y0007743D01*
X0016451Y0007659D01*
X0016315Y0007580D01*
X0016176Y0007503D01*
X0016035Y0007431D01*
X0015893Y0007361D01*
X0015749Y0007296D01*
X0015603Y0007234D01*
X0015456Y0007176D01*
X0015307Y0007121D01*
X0015157Y0007070D01*
X0015006Y0007023D01*
X0014854Y0006980D01*
X0014701Y0006941D01*
X0014546Y0006905D01*
X0014391Y0006874D01*
X0014235Y0006846D01*
X0014079Y0006822D01*
X0013922Y0006802D01*
X0013764Y0006786D01*
X0013607Y0006774D01*
X0013448Y0006766D01*
X0013290Y0006762D01*
X0013132Y0006762D01*
X0012974Y0006766D01*
X0012815Y0006774D01*
X0012658Y0006786D01*
X0012500Y0006802D01*
X0012343Y0006822D01*
X0012187Y0006846D01*
X0012031Y0006874D01*
X0011876Y0006905D01*
X0011721Y0006941D01*
X0011568Y0006980D01*
X0011416Y0007023D01*
X0011265Y0007070D01*
X0011115Y0007121D01*
X0010966Y0007176D01*
X0010819Y0007234D01*
X0010673Y0007296D01*
X0010529Y0007361D01*
X0010387Y0007431D01*
X0010246Y0007503D01*
X0010107Y0007580D01*
X0009971Y0007659D01*
X0009836Y0007743D01*
X0009703Y0007829D01*
X0009573Y0007919D01*
X0009445Y0008012D01*
X0009319Y0008108D01*
X0009196Y0008208D01*
X0009075Y0008310D01*
X0008957Y0008415D01*
X0008842Y0008524D01*
X0008729Y0008635D01*
X0008619Y0008749D01*
X0008512Y0008866D01*
X0008408Y0008985D01*
X0008307Y0009107D01*
X0008210Y0009232D01*
X0008115Y0009359D01*
X0008024Y0009488D01*
X0007935Y0009619D01*
X0007851Y0009753D01*
X0007769Y0009889D01*
X0007691Y0010026D01*
X0007617Y0010166D01*
X0007546Y0010308D01*
X0007478Y0010451D01*
X0007414Y0010596D01*
X0007354Y0010742D01*
X0007298Y0010890D01*
X0007245Y0011039D01*
X0007196Y0011190D01*
X0007151Y0011342D01*
X0007110Y0011495D01*
X0007072Y0011648D01*
X0007039Y0011803D01*
X0007009Y0011959D01*
X0006983Y0012115D01*
X0006962Y0012272D01*
X0006944Y0012429D01*
X0006930Y0012587D01*
X0006920Y0012745D01*
X0006914Y0012903D01*
X0006912Y0013061D01*
X0059431Y0121250D02*
X0059433Y0121338D01*
X0059439Y0121426D01*
X0059449Y0121514D01*
X0059463Y0121602D01*
X0059480Y0121688D01*
X0059502Y0121774D01*
X0059527Y0121858D01*
X0059557Y0121942D01*
X0059589Y0122024D01*
X0059626Y0122104D01*
X0059666Y0122183D01*
X0059710Y0122260D01*
X0059757Y0122335D01*
X0059807Y0122407D01*
X0059861Y0122478D01*
X0059917Y0122545D01*
X0059977Y0122611D01*
X0060039Y0122673D01*
X0060105Y0122733D01*
X0060172Y0122789D01*
X0060243Y0122843D01*
X0060315Y0122893D01*
X0060390Y0122940D01*
X0060467Y0122984D01*
X0060546Y0123024D01*
X0060626Y0123061D01*
X0060708Y0123093D01*
X0060792Y0123123D01*
X0060876Y0123148D01*
X0060962Y0123170D01*
X0061048Y0123187D01*
X0061136Y0123201D01*
X0061224Y0123211D01*
X0061312Y0123217D01*
X0061400Y0123219D01*
X0061488Y0123217D01*
X0061576Y0123211D01*
X0061664Y0123201D01*
X0061752Y0123187D01*
X0061838Y0123170D01*
X0061924Y0123148D01*
X0062008Y0123123D01*
X0062092Y0123093D01*
X0062174Y0123061D01*
X0062254Y0123024D01*
X0062333Y0122984D01*
X0062410Y0122940D01*
X0062485Y0122893D01*
X0062557Y0122843D01*
X0062628Y0122789D01*
X0062695Y0122733D01*
X0062761Y0122673D01*
X0062823Y0122611D01*
X0062883Y0122545D01*
X0062939Y0122478D01*
X0062993Y0122407D01*
X0063043Y0122335D01*
X0063090Y0122260D01*
X0063134Y0122183D01*
X0063174Y0122104D01*
X0063211Y0122024D01*
X0063243Y0121942D01*
X0063273Y0121858D01*
X0063298Y0121774D01*
X0063320Y0121688D01*
X0063337Y0121602D01*
X0063351Y0121514D01*
X0063361Y0121426D01*
X0063367Y0121338D01*
X0063369Y0121250D01*
X0063367Y0121162D01*
X0063361Y0121074D01*
X0063351Y0120986D01*
X0063337Y0120898D01*
X0063320Y0120812D01*
X0063298Y0120726D01*
X0063273Y0120642D01*
X0063243Y0120558D01*
X0063211Y0120476D01*
X0063174Y0120396D01*
X0063134Y0120317D01*
X0063090Y0120240D01*
X0063043Y0120165D01*
X0062993Y0120093D01*
X0062939Y0120022D01*
X0062883Y0119955D01*
X0062823Y0119889D01*
X0062761Y0119827D01*
X0062695Y0119767D01*
X0062628Y0119711D01*
X0062557Y0119657D01*
X0062485Y0119607D01*
X0062410Y0119560D01*
X0062333Y0119516D01*
X0062254Y0119476D01*
X0062174Y0119439D01*
X0062092Y0119407D01*
X0062008Y0119377D01*
X0061924Y0119352D01*
X0061838Y0119330D01*
X0061752Y0119313D01*
X0061664Y0119299D01*
X0061576Y0119289D01*
X0061488Y0119283D01*
X0061400Y0119281D01*
X0061312Y0119283D01*
X0061224Y0119289D01*
X0061136Y0119299D01*
X0061048Y0119313D01*
X0060962Y0119330D01*
X0060876Y0119352D01*
X0060792Y0119377D01*
X0060708Y0119407D01*
X0060626Y0119439D01*
X0060546Y0119476D01*
X0060467Y0119516D01*
X0060390Y0119560D01*
X0060315Y0119607D01*
X0060243Y0119657D01*
X0060172Y0119711D01*
X0060105Y0119767D01*
X0060039Y0119827D01*
X0059977Y0119889D01*
X0059917Y0119955D01*
X0059861Y0120022D01*
X0059807Y0120093D01*
X0059757Y0120165D01*
X0059710Y0120240D01*
X0059666Y0120317D01*
X0059626Y0120396D01*
X0059589Y0120476D01*
X0059557Y0120558D01*
X0059527Y0120642D01*
X0059502Y0120726D01*
X0059480Y0120812D01*
X0059463Y0120898D01*
X0059449Y0120986D01*
X0059439Y0121074D01*
X0059433Y0121162D01*
X0059431Y0121250D01*
X0113211Y0013061D02*
X0113213Y0013219D01*
X0113219Y0013377D01*
X0113229Y0013535D01*
X0113243Y0013693D01*
X0113261Y0013850D01*
X0113282Y0014007D01*
X0113308Y0014163D01*
X0113338Y0014319D01*
X0113371Y0014474D01*
X0113409Y0014627D01*
X0113450Y0014780D01*
X0113495Y0014932D01*
X0113544Y0015083D01*
X0113597Y0015232D01*
X0113653Y0015380D01*
X0113713Y0015526D01*
X0113777Y0015671D01*
X0113845Y0015814D01*
X0113916Y0015956D01*
X0113990Y0016096D01*
X0114068Y0016233D01*
X0114150Y0016369D01*
X0114234Y0016503D01*
X0114323Y0016634D01*
X0114414Y0016763D01*
X0114509Y0016890D01*
X0114606Y0017015D01*
X0114707Y0017137D01*
X0114811Y0017256D01*
X0114918Y0017373D01*
X0115028Y0017487D01*
X0115141Y0017598D01*
X0115256Y0017707D01*
X0115374Y0017812D01*
X0115495Y0017914D01*
X0115618Y0018014D01*
X0115744Y0018110D01*
X0115872Y0018203D01*
X0116002Y0018293D01*
X0116135Y0018379D01*
X0116270Y0018463D01*
X0116406Y0018542D01*
X0116545Y0018619D01*
X0116686Y0018691D01*
X0116828Y0018761D01*
X0116972Y0018826D01*
X0117118Y0018888D01*
X0117265Y0018946D01*
X0117414Y0019001D01*
X0117564Y0019052D01*
X0117715Y0019099D01*
X0117867Y0019142D01*
X0118020Y0019181D01*
X0118175Y0019217D01*
X0118330Y0019248D01*
X0118486Y0019276D01*
X0118642Y0019300D01*
X0118799Y0019320D01*
X0118957Y0019336D01*
X0119114Y0019348D01*
X0119273Y0019356D01*
X0119431Y0019360D01*
X0119589Y0019360D01*
X0119747Y0019356D01*
X0119906Y0019348D01*
X0120063Y0019336D01*
X0120221Y0019320D01*
X0120378Y0019300D01*
X0120534Y0019276D01*
X0120690Y0019248D01*
X0120845Y0019217D01*
X0121000Y0019181D01*
X0121153Y0019142D01*
X0121305Y0019099D01*
X0121456Y0019052D01*
X0121606Y0019001D01*
X0121755Y0018946D01*
X0121902Y0018888D01*
X0122048Y0018826D01*
X0122192Y0018761D01*
X0122334Y0018691D01*
X0122475Y0018619D01*
X0122614Y0018542D01*
X0122750Y0018463D01*
X0122885Y0018379D01*
X0123018Y0018293D01*
X0123148Y0018203D01*
X0123276Y0018110D01*
X0123402Y0018014D01*
X0123525Y0017914D01*
X0123646Y0017812D01*
X0123764Y0017707D01*
X0123879Y0017598D01*
X0123992Y0017487D01*
X0124102Y0017373D01*
X0124209Y0017256D01*
X0124313Y0017137D01*
X0124414Y0017015D01*
X0124511Y0016890D01*
X0124606Y0016763D01*
X0124697Y0016634D01*
X0124786Y0016503D01*
X0124870Y0016369D01*
X0124952Y0016233D01*
X0125030Y0016096D01*
X0125104Y0015956D01*
X0125175Y0015814D01*
X0125243Y0015671D01*
X0125307Y0015526D01*
X0125367Y0015380D01*
X0125423Y0015232D01*
X0125476Y0015083D01*
X0125525Y0014932D01*
X0125570Y0014780D01*
X0125611Y0014627D01*
X0125649Y0014474D01*
X0125682Y0014319D01*
X0125712Y0014163D01*
X0125738Y0014007D01*
X0125759Y0013850D01*
X0125777Y0013693D01*
X0125791Y0013535D01*
X0125801Y0013377D01*
X0125807Y0013219D01*
X0125809Y0013061D01*
X0125807Y0012903D01*
X0125801Y0012745D01*
X0125791Y0012587D01*
X0125777Y0012429D01*
X0125759Y0012272D01*
X0125738Y0012115D01*
X0125712Y0011959D01*
X0125682Y0011803D01*
X0125649Y0011648D01*
X0125611Y0011495D01*
X0125570Y0011342D01*
X0125525Y0011190D01*
X0125476Y0011039D01*
X0125423Y0010890D01*
X0125367Y0010742D01*
X0125307Y0010596D01*
X0125243Y0010451D01*
X0125175Y0010308D01*
X0125104Y0010166D01*
X0125030Y0010026D01*
X0124952Y0009889D01*
X0124870Y0009753D01*
X0124786Y0009619D01*
X0124697Y0009488D01*
X0124606Y0009359D01*
X0124511Y0009232D01*
X0124414Y0009107D01*
X0124313Y0008985D01*
X0124209Y0008866D01*
X0124102Y0008749D01*
X0123992Y0008635D01*
X0123879Y0008524D01*
X0123764Y0008415D01*
X0123646Y0008310D01*
X0123525Y0008208D01*
X0123402Y0008108D01*
X0123276Y0008012D01*
X0123148Y0007919D01*
X0123018Y0007829D01*
X0122885Y0007743D01*
X0122750Y0007659D01*
X0122614Y0007580D01*
X0122475Y0007503D01*
X0122334Y0007431D01*
X0122192Y0007361D01*
X0122048Y0007296D01*
X0121902Y0007234D01*
X0121755Y0007176D01*
X0121606Y0007121D01*
X0121456Y0007070D01*
X0121305Y0007023D01*
X0121153Y0006980D01*
X0121000Y0006941D01*
X0120845Y0006905D01*
X0120690Y0006874D01*
X0120534Y0006846D01*
X0120378Y0006822D01*
X0120221Y0006802D01*
X0120063Y0006786D01*
X0119906Y0006774D01*
X0119747Y0006766D01*
X0119589Y0006762D01*
X0119431Y0006762D01*
X0119273Y0006766D01*
X0119114Y0006774D01*
X0118957Y0006786D01*
X0118799Y0006802D01*
X0118642Y0006822D01*
X0118486Y0006846D01*
X0118330Y0006874D01*
X0118175Y0006905D01*
X0118020Y0006941D01*
X0117867Y0006980D01*
X0117715Y0007023D01*
X0117564Y0007070D01*
X0117414Y0007121D01*
X0117265Y0007176D01*
X0117118Y0007234D01*
X0116972Y0007296D01*
X0116828Y0007361D01*
X0116686Y0007431D01*
X0116545Y0007503D01*
X0116406Y0007580D01*
X0116270Y0007659D01*
X0116135Y0007743D01*
X0116002Y0007829D01*
X0115872Y0007919D01*
X0115744Y0008012D01*
X0115618Y0008108D01*
X0115495Y0008208D01*
X0115374Y0008310D01*
X0115256Y0008415D01*
X0115141Y0008524D01*
X0115028Y0008635D01*
X0114918Y0008749D01*
X0114811Y0008866D01*
X0114707Y0008985D01*
X0114606Y0009107D01*
X0114509Y0009232D01*
X0114414Y0009359D01*
X0114323Y0009488D01*
X0114234Y0009619D01*
X0114150Y0009753D01*
X0114068Y0009889D01*
X0113990Y0010026D01*
X0113916Y0010166D01*
X0113845Y0010308D01*
X0113777Y0010451D01*
X0113713Y0010596D01*
X0113653Y0010742D01*
X0113597Y0010890D01*
X0113544Y0011039D01*
X0113495Y0011190D01*
X0113450Y0011342D01*
X0113409Y0011495D01*
X0113371Y0011648D01*
X0113338Y0011803D01*
X0113308Y0011959D01*
X0113282Y0012115D01*
X0113261Y0012272D01*
X0113243Y0012429D01*
X0113229Y0012587D01*
X0113219Y0012745D01*
X0113213Y0012903D01*
X0113211Y0013061D01*
X0119431Y0121250D02*
X0119433Y0121338D01*
X0119439Y0121426D01*
X0119449Y0121514D01*
X0119463Y0121602D01*
X0119480Y0121688D01*
X0119502Y0121774D01*
X0119527Y0121858D01*
X0119557Y0121942D01*
X0119589Y0122024D01*
X0119626Y0122104D01*
X0119666Y0122183D01*
X0119710Y0122260D01*
X0119757Y0122335D01*
X0119807Y0122407D01*
X0119861Y0122478D01*
X0119917Y0122545D01*
X0119977Y0122611D01*
X0120039Y0122673D01*
X0120105Y0122733D01*
X0120172Y0122789D01*
X0120243Y0122843D01*
X0120315Y0122893D01*
X0120390Y0122940D01*
X0120467Y0122984D01*
X0120546Y0123024D01*
X0120626Y0123061D01*
X0120708Y0123093D01*
X0120792Y0123123D01*
X0120876Y0123148D01*
X0120962Y0123170D01*
X0121048Y0123187D01*
X0121136Y0123201D01*
X0121224Y0123211D01*
X0121312Y0123217D01*
X0121400Y0123219D01*
X0121488Y0123217D01*
X0121576Y0123211D01*
X0121664Y0123201D01*
X0121752Y0123187D01*
X0121838Y0123170D01*
X0121924Y0123148D01*
X0122008Y0123123D01*
X0122092Y0123093D01*
X0122174Y0123061D01*
X0122254Y0123024D01*
X0122333Y0122984D01*
X0122410Y0122940D01*
X0122485Y0122893D01*
X0122557Y0122843D01*
X0122628Y0122789D01*
X0122695Y0122733D01*
X0122761Y0122673D01*
X0122823Y0122611D01*
X0122883Y0122545D01*
X0122939Y0122478D01*
X0122993Y0122407D01*
X0123043Y0122335D01*
X0123090Y0122260D01*
X0123134Y0122183D01*
X0123174Y0122104D01*
X0123211Y0122024D01*
X0123243Y0121942D01*
X0123273Y0121858D01*
X0123298Y0121774D01*
X0123320Y0121688D01*
X0123337Y0121602D01*
X0123351Y0121514D01*
X0123361Y0121426D01*
X0123367Y0121338D01*
X0123369Y0121250D01*
X0123367Y0121162D01*
X0123361Y0121074D01*
X0123351Y0120986D01*
X0123337Y0120898D01*
X0123320Y0120812D01*
X0123298Y0120726D01*
X0123273Y0120642D01*
X0123243Y0120558D01*
X0123211Y0120476D01*
X0123174Y0120396D01*
X0123134Y0120317D01*
X0123090Y0120240D01*
X0123043Y0120165D01*
X0122993Y0120093D01*
X0122939Y0120022D01*
X0122883Y0119955D01*
X0122823Y0119889D01*
X0122761Y0119827D01*
X0122695Y0119767D01*
X0122628Y0119711D01*
X0122557Y0119657D01*
X0122485Y0119607D01*
X0122410Y0119560D01*
X0122333Y0119516D01*
X0122254Y0119476D01*
X0122174Y0119439D01*
X0122092Y0119407D01*
X0122008Y0119377D01*
X0121924Y0119352D01*
X0121838Y0119330D01*
X0121752Y0119313D01*
X0121664Y0119299D01*
X0121576Y0119289D01*
X0121488Y0119283D01*
X0121400Y0119281D01*
X0121312Y0119283D01*
X0121224Y0119289D01*
X0121136Y0119299D01*
X0121048Y0119313D01*
X0120962Y0119330D01*
X0120876Y0119352D01*
X0120792Y0119377D01*
X0120708Y0119407D01*
X0120626Y0119439D01*
X0120546Y0119476D01*
X0120467Y0119516D01*
X0120390Y0119560D01*
X0120315Y0119607D01*
X0120243Y0119657D01*
X0120172Y0119711D01*
X0120105Y0119767D01*
X0120039Y0119827D01*
X0119977Y0119889D01*
X0119917Y0119955D01*
X0119861Y0120022D01*
X0119807Y0120093D01*
X0119757Y0120165D01*
X0119710Y0120240D01*
X0119666Y0120317D01*
X0119626Y0120396D01*
X0119589Y0120476D01*
X0119557Y0120558D01*
X0119527Y0120642D01*
X0119502Y0120726D01*
X0119480Y0120812D01*
X0119463Y0120898D01*
X0119449Y0120986D01*
X0119439Y0121074D01*
X0119433Y0121162D01*
X0119431Y0121250D01*
X0119431Y0301250D02*
X0119433Y0301338D01*
X0119439Y0301426D01*
X0119449Y0301514D01*
X0119463Y0301602D01*
X0119480Y0301688D01*
X0119502Y0301774D01*
X0119527Y0301858D01*
X0119557Y0301942D01*
X0119589Y0302024D01*
X0119626Y0302104D01*
X0119666Y0302183D01*
X0119710Y0302260D01*
X0119757Y0302335D01*
X0119807Y0302407D01*
X0119861Y0302478D01*
X0119917Y0302545D01*
X0119977Y0302611D01*
X0120039Y0302673D01*
X0120105Y0302733D01*
X0120172Y0302789D01*
X0120243Y0302843D01*
X0120315Y0302893D01*
X0120390Y0302940D01*
X0120467Y0302984D01*
X0120546Y0303024D01*
X0120626Y0303061D01*
X0120708Y0303093D01*
X0120792Y0303123D01*
X0120876Y0303148D01*
X0120962Y0303170D01*
X0121048Y0303187D01*
X0121136Y0303201D01*
X0121224Y0303211D01*
X0121312Y0303217D01*
X0121400Y0303219D01*
X0121488Y0303217D01*
X0121576Y0303211D01*
X0121664Y0303201D01*
X0121752Y0303187D01*
X0121838Y0303170D01*
X0121924Y0303148D01*
X0122008Y0303123D01*
X0122092Y0303093D01*
X0122174Y0303061D01*
X0122254Y0303024D01*
X0122333Y0302984D01*
X0122410Y0302940D01*
X0122485Y0302893D01*
X0122557Y0302843D01*
X0122628Y0302789D01*
X0122695Y0302733D01*
X0122761Y0302673D01*
X0122823Y0302611D01*
X0122883Y0302545D01*
X0122939Y0302478D01*
X0122993Y0302407D01*
X0123043Y0302335D01*
X0123090Y0302260D01*
X0123134Y0302183D01*
X0123174Y0302104D01*
X0123211Y0302024D01*
X0123243Y0301942D01*
X0123273Y0301858D01*
X0123298Y0301774D01*
X0123320Y0301688D01*
X0123337Y0301602D01*
X0123351Y0301514D01*
X0123361Y0301426D01*
X0123367Y0301338D01*
X0123369Y0301250D01*
X0123367Y0301162D01*
X0123361Y0301074D01*
X0123351Y0300986D01*
X0123337Y0300898D01*
X0123320Y0300812D01*
X0123298Y0300726D01*
X0123273Y0300642D01*
X0123243Y0300558D01*
X0123211Y0300476D01*
X0123174Y0300396D01*
X0123134Y0300317D01*
X0123090Y0300240D01*
X0123043Y0300165D01*
X0122993Y0300093D01*
X0122939Y0300022D01*
X0122883Y0299955D01*
X0122823Y0299889D01*
X0122761Y0299827D01*
X0122695Y0299767D01*
X0122628Y0299711D01*
X0122557Y0299657D01*
X0122485Y0299607D01*
X0122410Y0299560D01*
X0122333Y0299516D01*
X0122254Y0299476D01*
X0122174Y0299439D01*
X0122092Y0299407D01*
X0122008Y0299377D01*
X0121924Y0299352D01*
X0121838Y0299330D01*
X0121752Y0299313D01*
X0121664Y0299299D01*
X0121576Y0299289D01*
X0121488Y0299283D01*
X0121400Y0299281D01*
X0121312Y0299283D01*
X0121224Y0299289D01*
X0121136Y0299299D01*
X0121048Y0299313D01*
X0120962Y0299330D01*
X0120876Y0299352D01*
X0120792Y0299377D01*
X0120708Y0299407D01*
X0120626Y0299439D01*
X0120546Y0299476D01*
X0120467Y0299516D01*
X0120390Y0299560D01*
X0120315Y0299607D01*
X0120243Y0299657D01*
X0120172Y0299711D01*
X0120105Y0299767D01*
X0120039Y0299827D01*
X0119977Y0299889D01*
X0119917Y0299955D01*
X0119861Y0300022D01*
X0119807Y0300093D01*
X0119757Y0300165D01*
X0119710Y0300240D01*
X0119666Y0300317D01*
X0119626Y0300396D01*
X0119589Y0300476D01*
X0119557Y0300558D01*
X0119527Y0300642D01*
X0119502Y0300726D01*
X0119480Y0300812D01*
X0119463Y0300898D01*
X0119449Y0300986D01*
X0119439Y0301074D01*
X0119433Y0301162D01*
X0119431Y0301250D01*
X0113211Y0383140D02*
X0113213Y0383298D01*
X0113219Y0383456D01*
X0113229Y0383614D01*
X0113243Y0383772D01*
X0113261Y0383929D01*
X0113282Y0384086D01*
X0113308Y0384242D01*
X0113338Y0384398D01*
X0113371Y0384553D01*
X0113409Y0384706D01*
X0113450Y0384859D01*
X0113495Y0385011D01*
X0113544Y0385162D01*
X0113597Y0385311D01*
X0113653Y0385459D01*
X0113713Y0385605D01*
X0113777Y0385750D01*
X0113845Y0385893D01*
X0113916Y0386035D01*
X0113990Y0386175D01*
X0114068Y0386312D01*
X0114150Y0386448D01*
X0114234Y0386582D01*
X0114323Y0386713D01*
X0114414Y0386842D01*
X0114509Y0386969D01*
X0114606Y0387094D01*
X0114707Y0387216D01*
X0114811Y0387335D01*
X0114918Y0387452D01*
X0115028Y0387566D01*
X0115141Y0387677D01*
X0115256Y0387786D01*
X0115374Y0387891D01*
X0115495Y0387993D01*
X0115618Y0388093D01*
X0115744Y0388189D01*
X0115872Y0388282D01*
X0116002Y0388372D01*
X0116135Y0388458D01*
X0116270Y0388542D01*
X0116406Y0388621D01*
X0116545Y0388698D01*
X0116686Y0388770D01*
X0116828Y0388840D01*
X0116972Y0388905D01*
X0117118Y0388967D01*
X0117265Y0389025D01*
X0117414Y0389080D01*
X0117564Y0389131D01*
X0117715Y0389178D01*
X0117867Y0389221D01*
X0118020Y0389260D01*
X0118175Y0389296D01*
X0118330Y0389327D01*
X0118486Y0389355D01*
X0118642Y0389379D01*
X0118799Y0389399D01*
X0118957Y0389415D01*
X0119114Y0389427D01*
X0119273Y0389435D01*
X0119431Y0389439D01*
X0119589Y0389439D01*
X0119747Y0389435D01*
X0119906Y0389427D01*
X0120063Y0389415D01*
X0120221Y0389399D01*
X0120378Y0389379D01*
X0120534Y0389355D01*
X0120690Y0389327D01*
X0120845Y0389296D01*
X0121000Y0389260D01*
X0121153Y0389221D01*
X0121305Y0389178D01*
X0121456Y0389131D01*
X0121606Y0389080D01*
X0121755Y0389025D01*
X0121902Y0388967D01*
X0122048Y0388905D01*
X0122192Y0388840D01*
X0122334Y0388770D01*
X0122475Y0388698D01*
X0122614Y0388621D01*
X0122750Y0388542D01*
X0122885Y0388458D01*
X0123018Y0388372D01*
X0123148Y0388282D01*
X0123276Y0388189D01*
X0123402Y0388093D01*
X0123525Y0387993D01*
X0123646Y0387891D01*
X0123764Y0387786D01*
X0123879Y0387677D01*
X0123992Y0387566D01*
X0124102Y0387452D01*
X0124209Y0387335D01*
X0124313Y0387216D01*
X0124414Y0387094D01*
X0124511Y0386969D01*
X0124606Y0386842D01*
X0124697Y0386713D01*
X0124786Y0386582D01*
X0124870Y0386448D01*
X0124952Y0386312D01*
X0125030Y0386175D01*
X0125104Y0386035D01*
X0125175Y0385893D01*
X0125243Y0385750D01*
X0125307Y0385605D01*
X0125367Y0385459D01*
X0125423Y0385311D01*
X0125476Y0385162D01*
X0125525Y0385011D01*
X0125570Y0384859D01*
X0125611Y0384706D01*
X0125649Y0384553D01*
X0125682Y0384398D01*
X0125712Y0384242D01*
X0125738Y0384086D01*
X0125759Y0383929D01*
X0125777Y0383772D01*
X0125791Y0383614D01*
X0125801Y0383456D01*
X0125807Y0383298D01*
X0125809Y0383140D01*
X0125807Y0382982D01*
X0125801Y0382824D01*
X0125791Y0382666D01*
X0125777Y0382508D01*
X0125759Y0382351D01*
X0125738Y0382194D01*
X0125712Y0382038D01*
X0125682Y0381882D01*
X0125649Y0381727D01*
X0125611Y0381574D01*
X0125570Y0381421D01*
X0125525Y0381269D01*
X0125476Y0381118D01*
X0125423Y0380969D01*
X0125367Y0380821D01*
X0125307Y0380675D01*
X0125243Y0380530D01*
X0125175Y0380387D01*
X0125104Y0380245D01*
X0125030Y0380105D01*
X0124952Y0379968D01*
X0124870Y0379832D01*
X0124786Y0379698D01*
X0124697Y0379567D01*
X0124606Y0379438D01*
X0124511Y0379311D01*
X0124414Y0379186D01*
X0124313Y0379064D01*
X0124209Y0378945D01*
X0124102Y0378828D01*
X0123992Y0378714D01*
X0123879Y0378603D01*
X0123764Y0378494D01*
X0123646Y0378389D01*
X0123525Y0378287D01*
X0123402Y0378187D01*
X0123276Y0378091D01*
X0123148Y0377998D01*
X0123018Y0377908D01*
X0122885Y0377822D01*
X0122750Y0377738D01*
X0122614Y0377659D01*
X0122475Y0377582D01*
X0122334Y0377510D01*
X0122192Y0377440D01*
X0122048Y0377375D01*
X0121902Y0377313D01*
X0121755Y0377255D01*
X0121606Y0377200D01*
X0121456Y0377149D01*
X0121305Y0377102D01*
X0121153Y0377059D01*
X0121000Y0377020D01*
X0120845Y0376984D01*
X0120690Y0376953D01*
X0120534Y0376925D01*
X0120378Y0376901D01*
X0120221Y0376881D01*
X0120063Y0376865D01*
X0119906Y0376853D01*
X0119747Y0376845D01*
X0119589Y0376841D01*
X0119431Y0376841D01*
X0119273Y0376845D01*
X0119114Y0376853D01*
X0118957Y0376865D01*
X0118799Y0376881D01*
X0118642Y0376901D01*
X0118486Y0376925D01*
X0118330Y0376953D01*
X0118175Y0376984D01*
X0118020Y0377020D01*
X0117867Y0377059D01*
X0117715Y0377102D01*
X0117564Y0377149D01*
X0117414Y0377200D01*
X0117265Y0377255D01*
X0117118Y0377313D01*
X0116972Y0377375D01*
X0116828Y0377440D01*
X0116686Y0377510D01*
X0116545Y0377582D01*
X0116406Y0377659D01*
X0116270Y0377738D01*
X0116135Y0377822D01*
X0116002Y0377908D01*
X0115872Y0377998D01*
X0115744Y0378091D01*
X0115618Y0378187D01*
X0115495Y0378287D01*
X0115374Y0378389D01*
X0115256Y0378494D01*
X0115141Y0378603D01*
X0115028Y0378714D01*
X0114918Y0378828D01*
X0114811Y0378945D01*
X0114707Y0379064D01*
X0114606Y0379186D01*
X0114509Y0379311D01*
X0114414Y0379438D01*
X0114323Y0379567D01*
X0114234Y0379698D01*
X0114150Y0379832D01*
X0114068Y0379968D01*
X0113990Y0380105D01*
X0113916Y0380245D01*
X0113845Y0380387D01*
X0113777Y0380530D01*
X0113713Y0380675D01*
X0113653Y0380821D01*
X0113597Y0380969D01*
X0113544Y0381118D01*
X0113495Y0381269D01*
X0113450Y0381421D01*
X0113409Y0381574D01*
X0113371Y0381727D01*
X0113338Y0381882D01*
X0113308Y0382038D01*
X0113282Y0382194D01*
X0113261Y0382351D01*
X0113243Y0382508D01*
X0113229Y0382666D01*
X0113219Y0382824D01*
X0113213Y0382982D01*
X0113211Y0383140D01*
X0059431Y0301250D02*
X0059433Y0301338D01*
X0059439Y0301426D01*
X0059449Y0301514D01*
X0059463Y0301602D01*
X0059480Y0301688D01*
X0059502Y0301774D01*
X0059527Y0301858D01*
X0059557Y0301942D01*
X0059589Y0302024D01*
X0059626Y0302104D01*
X0059666Y0302183D01*
X0059710Y0302260D01*
X0059757Y0302335D01*
X0059807Y0302407D01*
X0059861Y0302478D01*
X0059917Y0302545D01*
X0059977Y0302611D01*
X0060039Y0302673D01*
X0060105Y0302733D01*
X0060172Y0302789D01*
X0060243Y0302843D01*
X0060315Y0302893D01*
X0060390Y0302940D01*
X0060467Y0302984D01*
X0060546Y0303024D01*
X0060626Y0303061D01*
X0060708Y0303093D01*
X0060792Y0303123D01*
X0060876Y0303148D01*
X0060962Y0303170D01*
X0061048Y0303187D01*
X0061136Y0303201D01*
X0061224Y0303211D01*
X0061312Y0303217D01*
X0061400Y0303219D01*
X0061488Y0303217D01*
X0061576Y0303211D01*
X0061664Y0303201D01*
X0061752Y0303187D01*
X0061838Y0303170D01*
X0061924Y0303148D01*
X0062008Y0303123D01*
X0062092Y0303093D01*
X0062174Y0303061D01*
X0062254Y0303024D01*
X0062333Y0302984D01*
X0062410Y0302940D01*
X0062485Y0302893D01*
X0062557Y0302843D01*
X0062628Y0302789D01*
X0062695Y0302733D01*
X0062761Y0302673D01*
X0062823Y0302611D01*
X0062883Y0302545D01*
X0062939Y0302478D01*
X0062993Y0302407D01*
X0063043Y0302335D01*
X0063090Y0302260D01*
X0063134Y0302183D01*
X0063174Y0302104D01*
X0063211Y0302024D01*
X0063243Y0301942D01*
X0063273Y0301858D01*
X0063298Y0301774D01*
X0063320Y0301688D01*
X0063337Y0301602D01*
X0063351Y0301514D01*
X0063361Y0301426D01*
X0063367Y0301338D01*
X0063369Y0301250D01*
X0063367Y0301162D01*
X0063361Y0301074D01*
X0063351Y0300986D01*
X0063337Y0300898D01*
X0063320Y0300812D01*
X0063298Y0300726D01*
X0063273Y0300642D01*
X0063243Y0300558D01*
X0063211Y0300476D01*
X0063174Y0300396D01*
X0063134Y0300317D01*
X0063090Y0300240D01*
X0063043Y0300165D01*
X0062993Y0300093D01*
X0062939Y0300022D01*
X0062883Y0299955D01*
X0062823Y0299889D01*
X0062761Y0299827D01*
X0062695Y0299767D01*
X0062628Y0299711D01*
X0062557Y0299657D01*
X0062485Y0299607D01*
X0062410Y0299560D01*
X0062333Y0299516D01*
X0062254Y0299476D01*
X0062174Y0299439D01*
X0062092Y0299407D01*
X0062008Y0299377D01*
X0061924Y0299352D01*
X0061838Y0299330D01*
X0061752Y0299313D01*
X0061664Y0299299D01*
X0061576Y0299289D01*
X0061488Y0299283D01*
X0061400Y0299281D01*
X0061312Y0299283D01*
X0061224Y0299289D01*
X0061136Y0299299D01*
X0061048Y0299313D01*
X0060962Y0299330D01*
X0060876Y0299352D01*
X0060792Y0299377D01*
X0060708Y0299407D01*
X0060626Y0299439D01*
X0060546Y0299476D01*
X0060467Y0299516D01*
X0060390Y0299560D01*
X0060315Y0299607D01*
X0060243Y0299657D01*
X0060172Y0299711D01*
X0060105Y0299767D01*
X0060039Y0299827D01*
X0059977Y0299889D01*
X0059917Y0299955D01*
X0059861Y0300022D01*
X0059807Y0300093D01*
X0059757Y0300165D01*
X0059710Y0300240D01*
X0059666Y0300317D01*
X0059626Y0300396D01*
X0059589Y0300476D01*
X0059557Y0300558D01*
X0059527Y0300642D01*
X0059502Y0300726D01*
X0059480Y0300812D01*
X0059463Y0300898D01*
X0059449Y0300986D01*
X0059439Y0301074D01*
X0059433Y0301162D01*
X0059431Y0301250D01*
X0006912Y0383140D02*
X0006914Y0383298D01*
X0006920Y0383456D01*
X0006930Y0383614D01*
X0006944Y0383772D01*
X0006962Y0383929D01*
X0006983Y0384086D01*
X0007009Y0384242D01*
X0007039Y0384398D01*
X0007072Y0384553D01*
X0007110Y0384706D01*
X0007151Y0384859D01*
X0007196Y0385011D01*
X0007245Y0385162D01*
X0007298Y0385311D01*
X0007354Y0385459D01*
X0007414Y0385605D01*
X0007478Y0385750D01*
X0007546Y0385893D01*
X0007617Y0386035D01*
X0007691Y0386175D01*
X0007769Y0386312D01*
X0007851Y0386448D01*
X0007935Y0386582D01*
X0008024Y0386713D01*
X0008115Y0386842D01*
X0008210Y0386969D01*
X0008307Y0387094D01*
X0008408Y0387216D01*
X0008512Y0387335D01*
X0008619Y0387452D01*
X0008729Y0387566D01*
X0008842Y0387677D01*
X0008957Y0387786D01*
X0009075Y0387891D01*
X0009196Y0387993D01*
X0009319Y0388093D01*
X0009445Y0388189D01*
X0009573Y0388282D01*
X0009703Y0388372D01*
X0009836Y0388458D01*
X0009971Y0388542D01*
X0010107Y0388621D01*
X0010246Y0388698D01*
X0010387Y0388770D01*
X0010529Y0388840D01*
X0010673Y0388905D01*
X0010819Y0388967D01*
X0010966Y0389025D01*
X0011115Y0389080D01*
X0011265Y0389131D01*
X0011416Y0389178D01*
X0011568Y0389221D01*
X0011721Y0389260D01*
X0011876Y0389296D01*
X0012031Y0389327D01*
X0012187Y0389355D01*
X0012343Y0389379D01*
X0012500Y0389399D01*
X0012658Y0389415D01*
X0012815Y0389427D01*
X0012974Y0389435D01*
X0013132Y0389439D01*
X0013290Y0389439D01*
X0013448Y0389435D01*
X0013607Y0389427D01*
X0013764Y0389415D01*
X0013922Y0389399D01*
X0014079Y0389379D01*
X0014235Y0389355D01*
X0014391Y0389327D01*
X0014546Y0389296D01*
X0014701Y0389260D01*
X0014854Y0389221D01*
X0015006Y0389178D01*
X0015157Y0389131D01*
X0015307Y0389080D01*
X0015456Y0389025D01*
X0015603Y0388967D01*
X0015749Y0388905D01*
X0015893Y0388840D01*
X0016035Y0388770D01*
X0016176Y0388698D01*
X0016315Y0388621D01*
X0016451Y0388542D01*
X0016586Y0388458D01*
X0016719Y0388372D01*
X0016849Y0388282D01*
X0016977Y0388189D01*
X0017103Y0388093D01*
X0017226Y0387993D01*
X0017347Y0387891D01*
X0017465Y0387786D01*
X0017580Y0387677D01*
X0017693Y0387566D01*
X0017803Y0387452D01*
X0017910Y0387335D01*
X0018014Y0387216D01*
X0018115Y0387094D01*
X0018212Y0386969D01*
X0018307Y0386842D01*
X0018398Y0386713D01*
X0018487Y0386582D01*
X0018571Y0386448D01*
X0018653Y0386312D01*
X0018731Y0386175D01*
X0018805Y0386035D01*
X0018876Y0385893D01*
X0018944Y0385750D01*
X0019008Y0385605D01*
X0019068Y0385459D01*
X0019124Y0385311D01*
X0019177Y0385162D01*
X0019226Y0385011D01*
X0019271Y0384859D01*
X0019312Y0384706D01*
X0019350Y0384553D01*
X0019383Y0384398D01*
X0019413Y0384242D01*
X0019439Y0384086D01*
X0019460Y0383929D01*
X0019478Y0383772D01*
X0019492Y0383614D01*
X0019502Y0383456D01*
X0019508Y0383298D01*
X0019510Y0383140D01*
X0019508Y0382982D01*
X0019502Y0382824D01*
X0019492Y0382666D01*
X0019478Y0382508D01*
X0019460Y0382351D01*
X0019439Y0382194D01*
X0019413Y0382038D01*
X0019383Y0381882D01*
X0019350Y0381727D01*
X0019312Y0381574D01*
X0019271Y0381421D01*
X0019226Y0381269D01*
X0019177Y0381118D01*
X0019124Y0380969D01*
X0019068Y0380821D01*
X0019008Y0380675D01*
X0018944Y0380530D01*
X0018876Y0380387D01*
X0018805Y0380245D01*
X0018731Y0380105D01*
X0018653Y0379968D01*
X0018571Y0379832D01*
X0018487Y0379698D01*
X0018398Y0379567D01*
X0018307Y0379438D01*
X0018212Y0379311D01*
X0018115Y0379186D01*
X0018014Y0379064D01*
X0017910Y0378945D01*
X0017803Y0378828D01*
X0017693Y0378714D01*
X0017580Y0378603D01*
X0017465Y0378494D01*
X0017347Y0378389D01*
X0017226Y0378287D01*
X0017103Y0378187D01*
X0016977Y0378091D01*
X0016849Y0377998D01*
X0016719Y0377908D01*
X0016586Y0377822D01*
X0016451Y0377738D01*
X0016315Y0377659D01*
X0016176Y0377582D01*
X0016035Y0377510D01*
X0015893Y0377440D01*
X0015749Y0377375D01*
X0015603Y0377313D01*
X0015456Y0377255D01*
X0015307Y0377200D01*
X0015157Y0377149D01*
X0015006Y0377102D01*
X0014854Y0377059D01*
X0014701Y0377020D01*
X0014546Y0376984D01*
X0014391Y0376953D01*
X0014235Y0376925D01*
X0014079Y0376901D01*
X0013922Y0376881D01*
X0013764Y0376865D01*
X0013607Y0376853D01*
X0013448Y0376845D01*
X0013290Y0376841D01*
X0013132Y0376841D01*
X0012974Y0376845D01*
X0012815Y0376853D01*
X0012658Y0376865D01*
X0012500Y0376881D01*
X0012343Y0376901D01*
X0012187Y0376925D01*
X0012031Y0376953D01*
X0011876Y0376984D01*
X0011721Y0377020D01*
X0011568Y0377059D01*
X0011416Y0377102D01*
X0011265Y0377149D01*
X0011115Y0377200D01*
X0010966Y0377255D01*
X0010819Y0377313D01*
X0010673Y0377375D01*
X0010529Y0377440D01*
X0010387Y0377510D01*
X0010246Y0377582D01*
X0010107Y0377659D01*
X0009971Y0377738D01*
X0009836Y0377822D01*
X0009703Y0377908D01*
X0009573Y0377998D01*
X0009445Y0378091D01*
X0009319Y0378187D01*
X0009196Y0378287D01*
X0009075Y0378389D01*
X0008957Y0378494D01*
X0008842Y0378603D01*
X0008729Y0378714D01*
X0008619Y0378828D01*
X0008512Y0378945D01*
X0008408Y0379064D01*
X0008307Y0379186D01*
X0008210Y0379311D01*
X0008115Y0379438D01*
X0008024Y0379567D01*
X0007935Y0379698D01*
X0007851Y0379832D01*
X0007769Y0379968D01*
X0007691Y0380105D01*
X0007617Y0380245D01*
X0007546Y0380387D01*
X0007478Y0380530D01*
X0007414Y0380675D01*
X0007354Y0380821D01*
X0007298Y0380969D01*
X0007245Y0381118D01*
X0007196Y0381269D01*
X0007151Y0381421D01*
X0007110Y0381574D01*
X0007072Y0381727D01*
X0007039Y0381882D01*
X0007009Y0382038D01*
X0006983Y0382194D01*
X0006962Y0382351D01*
X0006944Y0382508D01*
X0006930Y0382666D01*
X0006920Y0382824D01*
X0006914Y0382982D01*
X0006912Y0383140D01*
M02*
