%
M48
M72
T01C0.01181
T02C0.02756
T03C0.03200
T04C0.03543
T05C0.03937
T06C0.04331
T07C0.12598
%
T01
X55400Y104250
X75400Y92250
X108400Y144250
X115400Y133250
T02
X143132Y245344
X143132Y253219
X143132Y268967
X143132Y276841
X143132Y284715
X25022Y284715
X25022Y276841
X25022Y268967
X25022Y261093
X25022Y245344
X25022Y237470
X25022Y229596
X25022Y213848
X25022Y205974
X25022Y198100
X25022Y79990
X25022Y72116
X25022Y56368
X25022Y48494
X25022Y40620
T03
X41400Y41250
X41400Y51250
X41400Y66250
X51400Y56250
X61400Y56250
X71400Y56250
X71400Y36250
X61400Y36250
X51400Y36250
X61400Y76250
X71400Y76250
X81400Y76250
X91400Y76250
X91400Y61250
X101400Y61250
X101400Y76250
X111400Y76250
X111400Y61250
X121400Y61250
X121400Y76250
X132113Y86250
X132113Y96250
X136400Y106250
X136400Y116250
X136400Y126250
X136400Y136250
X136400Y146250
X136400Y166250
X146400Y166250
X146400Y186250
X136400Y186250
X136400Y206250
X146400Y206250
X146400Y226250
X136400Y226250
X121400Y106250
X111400Y106250
X101400Y106250
X91400Y106250
X81400Y106250
X71400Y106250
X61400Y106250
X41400Y96250
X41400Y86250
X31400Y96250
X21400Y96250
X11400Y96250
X11400Y126250
X21400Y126250
X31400Y126250
X41400Y126250
X41400Y146250
X31400Y146250
X21400Y146250
X11400Y146250
X11400Y176250
X21400Y176250
X31400Y176250
X41400Y176250
X41400Y186250
X41400Y206250
X41400Y266250
X41400Y286250
X131400Y51250
X131400Y41250
X121400Y31250
X111400Y31250
X101400Y31250
X91400Y31250
T04
X81400Y31250
X81400Y61250
T05
X61400Y121250
X121400Y121250
X121400Y301250
X61400Y301250
T06
X61400Y291250
X61400Y281250
X61400Y271250
X61400Y261250
X61400Y251250
X61400Y241250
X61400Y231250
X61400Y221250
X61400Y211250
X61400Y201250
X61400Y191250
X61400Y181250
X61400Y171250
X61400Y161250
X61400Y151250
X61400Y141250
X61400Y131250
X121400Y131250
X121400Y141250
X121400Y151250
X121400Y161250
X121400Y171250
X121400Y181250
X121400Y191250
X121400Y201250
X121400Y211250
X121400Y221250
X121400Y231250
X121400Y241250
X121400Y251250
X121400Y261250
X121400Y271250
X121400Y281250
X121400Y291250
T07
X13211Y13061
X154943Y13061
X154943Y312274
X13211Y312274
M30
