G75*
%MOIN*%
%OFA0B0*%
%FSLAX25Y25*%
%IPPOS*%
%LPD*%
%AMOC8*
5,1,8,0,0,1.08239X$1,22.5*
%
%ADD10C,0.13398*%
%ADD11C,0.04737*%
%ADD12OC8,0.05600*%
%ADD13C,0.08200*%
%ADD14C,0.07099*%
%ADD15C,0.05600*%
%ADD16C,0.08400*%
D10*
X0013211Y0013061D03*
X0154943Y0013061D03*
X0154943Y0312274D03*
X0013211Y0312274D03*
D11*
X0061400Y0301250D03*
X0121400Y0301250D03*
X0121400Y0121250D03*
X0061400Y0121250D03*
D12*
X0041400Y0086250D03*
X0041400Y0066250D03*
X0041400Y0051250D03*
X0041400Y0041250D03*
X0051400Y0036250D03*
X0061400Y0036250D03*
X0071400Y0036250D03*
X0071400Y0056250D03*
X0061400Y0056250D03*
X0051400Y0056250D03*
X0041400Y0186250D03*
X0041400Y0206250D03*
X0041400Y0266250D03*
X0041400Y0286250D03*
X0136400Y0226250D03*
X0146400Y0226250D03*
X0146400Y0206250D03*
X0136400Y0206250D03*
X0136400Y0186250D03*
X0146400Y0186250D03*
X0146400Y0166250D03*
X0136400Y0166250D03*
X0132113Y0096250D03*
X0132113Y0086250D03*
X0131400Y0051250D03*
X0131400Y0041250D03*
D13*
X0081400Y0031250D03*
X0081400Y0061250D03*
D14*
X0025022Y0056368D03*
X0025022Y0048494D03*
X0025022Y0040620D03*
X0025022Y0072116D03*
X0025022Y0079990D03*
X0025022Y0198100D03*
X0025022Y0205974D03*
X0025022Y0213848D03*
X0025022Y0229596D03*
X0025022Y0237470D03*
X0025022Y0245344D03*
X0025022Y0261093D03*
X0025022Y0268967D03*
X0025022Y0276841D03*
X0025022Y0284715D03*
X0143132Y0284715D03*
X0143132Y0276841D03*
X0143132Y0268967D03*
X0143132Y0253219D03*
X0143132Y0245344D03*
D15*
X0138800Y0146250D02*
X0134000Y0146250D01*
X0134000Y0136250D02*
X0138800Y0136250D01*
X0138800Y0126250D02*
X0134000Y0126250D01*
X0134000Y0116250D02*
X0138800Y0116250D01*
X0138800Y0106250D02*
X0134000Y0106250D01*
X0121400Y0103850D02*
X0121400Y0108650D01*
X0111400Y0108650D02*
X0111400Y0103850D01*
X0101400Y0103850D02*
X0101400Y0108650D01*
X0091400Y0108650D02*
X0091400Y0103850D01*
X0081400Y0103850D02*
X0081400Y0108650D01*
X0071400Y0108650D02*
X0071400Y0103850D01*
X0061400Y0103850D02*
X0061400Y0108650D01*
X0061400Y0078650D02*
X0061400Y0073850D01*
X0071400Y0073850D02*
X0071400Y0078650D01*
X0081400Y0078650D02*
X0081400Y0073850D01*
X0091400Y0073850D02*
X0091400Y0078650D01*
X0091400Y0066050D02*
X0091400Y0061250D01*
X0101400Y0061250D02*
X0101400Y0066050D01*
X0101400Y0073850D02*
X0101400Y0078650D01*
X0111400Y0078650D02*
X0111400Y0073850D01*
X0111400Y0066050D02*
X0111400Y0061250D01*
X0121400Y0061250D02*
X0121400Y0066050D01*
X0121400Y0073850D02*
X0121400Y0078650D01*
X0121400Y0031250D02*
X0121400Y0026450D01*
X0111400Y0026450D02*
X0111400Y0031250D01*
X0101400Y0031250D02*
X0101400Y0026450D01*
X0091400Y0026450D02*
X0091400Y0031250D01*
X0041400Y0093850D02*
X0041400Y0098650D01*
X0031400Y0098650D02*
X0031400Y0093850D01*
X0021400Y0093850D02*
X0021400Y0098650D01*
X0011400Y0098650D02*
X0011400Y0093850D01*
X0011400Y0123850D02*
X0011400Y0128650D01*
X0011400Y0143850D02*
X0011400Y0148650D01*
X0021400Y0148650D02*
X0021400Y0143850D01*
X0021400Y0128650D02*
X0021400Y0123850D01*
X0031400Y0123850D02*
X0031400Y0128650D01*
X0031400Y0143850D02*
X0031400Y0148650D01*
X0041400Y0148650D02*
X0041400Y0143850D01*
X0041400Y0128650D02*
X0041400Y0123850D01*
X0041400Y0173850D02*
X0041400Y0178650D01*
X0031400Y0178650D02*
X0031400Y0173850D01*
X0021400Y0173850D02*
X0021400Y0178650D01*
X0011400Y0178650D02*
X0011400Y0173850D01*
D16*
X0061400Y0171250D03*
X0061400Y0181250D03*
X0061400Y0191250D03*
X0061400Y0201250D03*
X0061400Y0211250D03*
X0061400Y0221250D03*
X0061400Y0231250D03*
X0061400Y0241250D03*
X0061400Y0251250D03*
X0061400Y0261250D03*
X0061400Y0271250D03*
X0061400Y0281250D03*
X0061400Y0291250D03*
X0121400Y0291250D03*
X0121400Y0281250D03*
X0121400Y0271250D03*
X0121400Y0261250D03*
X0121400Y0251250D03*
X0121400Y0241250D03*
X0121400Y0231250D03*
X0121400Y0221250D03*
X0121400Y0211250D03*
X0121400Y0201250D03*
X0121400Y0191250D03*
X0121400Y0181250D03*
X0121400Y0171250D03*
X0121400Y0161250D03*
X0121400Y0151250D03*
X0121400Y0141250D03*
X0121400Y0131250D03*
X0061400Y0131250D03*
X0061400Y0141250D03*
X0061400Y0151250D03*
X0061400Y0161250D03*
M02*
