G75*
%MOIN*%
%OFA0B0*%
%FSLAX25Y25*%
%IPPOS*%
%LPD*%
%AMOC8*
5,1,8,0,0,1.08239X$1,22.5*
%
%ADD10C,0.00300*%
%ADD11C,0.00600*%
%ADD12C,0.01000*%
%ADD13C,0.00200*%
%ADD14C,0.00800*%
%ADD15C,0.00500*%
D10*
X0087691Y0120606D02*
X0087691Y0122700D01*
X0089302Y0122700D02*
X0089302Y0120606D01*
X0089303Y0120606D02*
X0089301Y0120551D01*
X0089295Y0120496D01*
X0089286Y0120442D01*
X0089273Y0120389D01*
X0089256Y0120336D01*
X0089236Y0120285D01*
X0089213Y0120235D01*
X0089186Y0120187D01*
X0089155Y0120141D01*
X0089122Y0120097D01*
X0089086Y0120056D01*
X0089047Y0120017D01*
X0089006Y0119981D01*
X0088962Y0119948D01*
X0088916Y0119917D01*
X0088868Y0119890D01*
X0088818Y0119867D01*
X0088767Y0119847D01*
X0088714Y0119830D01*
X0088661Y0119817D01*
X0088607Y0119808D01*
X0088552Y0119802D01*
X0088497Y0119800D01*
X0088442Y0119802D01*
X0088387Y0119808D01*
X0088333Y0119817D01*
X0088280Y0119830D01*
X0088227Y0119847D01*
X0088176Y0119867D01*
X0088126Y0119890D01*
X0088078Y0119917D01*
X0088032Y0119948D01*
X0087988Y0119981D01*
X0087947Y0120017D01*
X0087908Y0120056D01*
X0087872Y0120097D01*
X0087839Y0120141D01*
X0087808Y0120187D01*
X0087781Y0120235D01*
X0087758Y0120285D01*
X0087738Y0120336D01*
X0087721Y0120389D01*
X0087708Y0120442D01*
X0087699Y0120496D01*
X0087693Y0120551D01*
X0087691Y0120606D01*
X0090974Y0121492D02*
X0091860Y0121008D01*
X0091538Y0119800D02*
X0091466Y0119802D01*
X0091395Y0119808D01*
X0091324Y0119817D01*
X0091254Y0119830D01*
X0091184Y0119847D01*
X0091115Y0119867D01*
X0091048Y0119891D01*
X0090982Y0119919D01*
X0090917Y0119950D01*
X0090854Y0119984D01*
X0090793Y0120022D01*
X0090734Y0120063D01*
X0090678Y0120106D01*
X0090623Y0120153D01*
X0090572Y0120203D01*
X0091861Y0121008D02*
X0091901Y0120982D01*
X0091940Y0120953D01*
X0091977Y0120921D01*
X0092011Y0120886D01*
X0092042Y0120849D01*
X0092071Y0120810D01*
X0092097Y0120769D01*
X0092119Y0120726D01*
X0092138Y0120681D01*
X0092154Y0120635D01*
X0092167Y0120589D01*
X0092176Y0120541D01*
X0092181Y0120493D01*
X0092183Y0120444D01*
X0092182Y0120444D02*
X0092180Y0120396D01*
X0092175Y0120348D01*
X0092166Y0120301D01*
X0092153Y0120254D01*
X0092137Y0120209D01*
X0092118Y0120165D01*
X0092096Y0120122D01*
X0092070Y0120081D01*
X0092041Y0120042D01*
X0092010Y0120006D01*
X0091976Y0119972D01*
X0091940Y0119941D01*
X0091901Y0119912D01*
X0091860Y0119886D01*
X0091817Y0119864D01*
X0091773Y0119845D01*
X0091728Y0119829D01*
X0091681Y0119816D01*
X0091634Y0119807D01*
X0091586Y0119802D01*
X0091538Y0119800D01*
X0092021Y0122458D02*
X0091968Y0122496D01*
X0091913Y0122530D01*
X0091857Y0122562D01*
X0091798Y0122591D01*
X0091739Y0122616D01*
X0091678Y0122638D01*
X0091616Y0122657D01*
X0091553Y0122672D01*
X0091490Y0122684D01*
X0091425Y0122693D01*
X0091361Y0122698D01*
X0091296Y0122700D01*
X0091248Y0122698D01*
X0091200Y0122693D01*
X0091153Y0122684D01*
X0091106Y0122671D01*
X0091061Y0122655D01*
X0091017Y0122636D01*
X0090974Y0122614D01*
X0090933Y0122588D01*
X0090894Y0122560D01*
X0090858Y0122528D01*
X0090824Y0122494D01*
X0090793Y0122458D01*
X0090764Y0122419D01*
X0090738Y0122378D01*
X0090716Y0122335D01*
X0090697Y0122291D01*
X0090681Y0122246D01*
X0090668Y0122199D01*
X0090659Y0122152D01*
X0090654Y0122104D01*
X0090652Y0122056D01*
X0090651Y0122056D02*
X0090653Y0122007D01*
X0090658Y0121959D01*
X0090667Y0121911D01*
X0090680Y0121865D01*
X0090696Y0121819D01*
X0090715Y0121774D01*
X0090737Y0121731D01*
X0090763Y0121690D01*
X0090792Y0121651D01*
X0090823Y0121614D01*
X0090857Y0121579D01*
X0090894Y0121547D01*
X0090933Y0121518D01*
X0090973Y0121492D01*
X0093498Y0121411D02*
X0094303Y0121411D01*
X0094303Y0121412D02*
X0094352Y0121414D01*
X0094401Y0121420D01*
X0094450Y0121429D01*
X0094497Y0121442D01*
X0094544Y0121459D01*
X0094589Y0121479D01*
X0094632Y0121502D01*
X0094674Y0121529D01*
X0094713Y0121559D01*
X0094750Y0121592D01*
X0094784Y0121628D01*
X0094815Y0121666D01*
X0094844Y0121706D01*
X0094869Y0121748D01*
X0094891Y0121793D01*
X0094909Y0121838D01*
X0094924Y0121885D01*
X0094935Y0121933D01*
X0094943Y0121982D01*
X0094947Y0122031D01*
X0094947Y0122081D01*
X0094943Y0122130D01*
X0094935Y0122179D01*
X0094924Y0122227D01*
X0094909Y0122274D01*
X0094891Y0122319D01*
X0094869Y0122364D01*
X0094844Y0122406D01*
X0094815Y0122446D01*
X0094784Y0122484D01*
X0094750Y0122520D01*
X0094713Y0122553D01*
X0094674Y0122583D01*
X0094632Y0122610D01*
X0094589Y0122633D01*
X0094544Y0122653D01*
X0094497Y0122670D01*
X0094450Y0122683D01*
X0094401Y0122692D01*
X0094352Y0122698D01*
X0094303Y0122700D01*
X0093498Y0122700D01*
X0093498Y0119800D01*
X0094303Y0119800D01*
X0094358Y0119802D01*
X0094413Y0119808D01*
X0094467Y0119817D01*
X0094520Y0119830D01*
X0094573Y0119847D01*
X0094624Y0119867D01*
X0094674Y0119890D01*
X0094722Y0119917D01*
X0094768Y0119948D01*
X0094812Y0119981D01*
X0094853Y0120017D01*
X0094892Y0120056D01*
X0094928Y0120097D01*
X0094961Y0120141D01*
X0094992Y0120187D01*
X0095019Y0120235D01*
X0095042Y0120285D01*
X0095062Y0120336D01*
X0095079Y0120389D01*
X0095092Y0120442D01*
X0095101Y0120496D01*
X0095107Y0120551D01*
X0095109Y0120606D01*
X0095107Y0120661D01*
X0095101Y0120716D01*
X0095092Y0120770D01*
X0095079Y0120823D01*
X0095062Y0120876D01*
X0095042Y0120927D01*
X0095019Y0120977D01*
X0094992Y0121025D01*
X0094961Y0121071D01*
X0094928Y0121115D01*
X0094892Y0121156D01*
X0094853Y0121195D01*
X0094812Y0121231D01*
X0094768Y0121264D01*
X0094722Y0121295D01*
X0094674Y0121322D01*
X0094624Y0121345D01*
X0094573Y0121365D01*
X0094520Y0121382D01*
X0094467Y0121395D01*
X0094413Y0121404D01*
X0094358Y0121410D01*
X0094303Y0121412D01*
X0066010Y0378749D02*
X0065188Y0378749D01*
X0066010Y0378749D02*
X0066058Y0378751D01*
X0066107Y0378757D01*
X0066154Y0378766D01*
X0066201Y0378779D01*
X0066246Y0378796D01*
X0066290Y0378816D01*
X0066332Y0378840D01*
X0066373Y0378867D01*
X0066411Y0378897D01*
X0066446Y0378930D01*
X0066479Y0378965D01*
X0066509Y0379003D01*
X0066536Y0379044D01*
X0066560Y0379086D01*
X0066580Y0379130D01*
X0066597Y0379175D01*
X0066610Y0379222D01*
X0066619Y0379269D01*
X0066625Y0379318D01*
X0066627Y0379366D01*
X0066627Y0382449D01*
X0065599Y0382449D01*
X0065599Y0382450D02*
X0065551Y0382448D01*
X0065502Y0382442D01*
X0065455Y0382433D01*
X0065408Y0382420D01*
X0065363Y0382403D01*
X0065319Y0382383D01*
X0065277Y0382359D01*
X0065236Y0382332D01*
X0065198Y0382302D01*
X0065163Y0382269D01*
X0065130Y0382234D01*
X0065100Y0382196D01*
X0065073Y0382155D01*
X0065049Y0382113D01*
X0065029Y0382069D01*
X0065012Y0382024D01*
X0064999Y0381977D01*
X0064990Y0381930D01*
X0064984Y0381881D01*
X0064982Y0381833D01*
X0064983Y0381833D02*
X0064983Y0380599D01*
X0064982Y0380599D02*
X0064984Y0380551D01*
X0064990Y0380502D01*
X0064999Y0380455D01*
X0065012Y0380408D01*
X0065029Y0380363D01*
X0065049Y0380319D01*
X0065073Y0380277D01*
X0065100Y0380236D01*
X0065130Y0380198D01*
X0065163Y0380163D01*
X0065198Y0380130D01*
X0065236Y0380100D01*
X0065277Y0380073D01*
X0065319Y0380049D01*
X0065363Y0380029D01*
X0065408Y0380012D01*
X0065455Y0379999D01*
X0065502Y0379990D01*
X0065551Y0379984D01*
X0065599Y0379982D01*
X0065599Y0379983D02*
X0066627Y0379983D01*
X0068361Y0379983D02*
X0068361Y0382449D01*
X0069388Y0382449D01*
X0069388Y0382450D02*
X0069436Y0382448D01*
X0069485Y0382442D01*
X0069532Y0382433D01*
X0069579Y0382420D01*
X0069624Y0382403D01*
X0069668Y0382383D01*
X0069710Y0382359D01*
X0069751Y0382332D01*
X0069789Y0382302D01*
X0069824Y0382269D01*
X0069857Y0382234D01*
X0069887Y0382196D01*
X0069914Y0382155D01*
X0069938Y0382113D01*
X0069958Y0382069D01*
X0069975Y0382024D01*
X0069988Y0381977D01*
X0069997Y0381930D01*
X0070003Y0381881D01*
X0070005Y0381833D01*
X0070005Y0379983D01*
X0067726Y0385983D02*
X0067520Y0385983D01*
X0067520Y0386188D01*
X0067726Y0386188D01*
X0067726Y0385983D01*
X0069321Y0386805D02*
X0070965Y0388860D01*
X0070863Y0389169D02*
X0070844Y0389218D01*
X0070822Y0389265D01*
X0070797Y0389311D01*
X0070769Y0389355D01*
X0070737Y0389397D01*
X0070703Y0389437D01*
X0070666Y0389475D01*
X0070627Y0389509D01*
X0070585Y0389541D01*
X0070542Y0389570D01*
X0070496Y0389596D01*
X0070449Y0389619D01*
X0070400Y0389638D01*
X0070350Y0389654D01*
X0070299Y0389667D01*
X0070248Y0389676D01*
X0070195Y0389681D01*
X0070143Y0389683D01*
X0070091Y0389681D01*
X0070038Y0389676D01*
X0069987Y0389667D01*
X0069936Y0389654D01*
X0069886Y0389638D01*
X0069837Y0389619D01*
X0069790Y0389596D01*
X0069744Y0389570D01*
X0069701Y0389541D01*
X0069659Y0389509D01*
X0069620Y0389475D01*
X0069583Y0389437D01*
X0069549Y0389397D01*
X0069517Y0389355D01*
X0069489Y0389311D01*
X0069464Y0389265D01*
X0069442Y0389218D01*
X0069423Y0389169D01*
X0070862Y0389169D02*
X0070907Y0389073D01*
X0070948Y0388975D01*
X0070986Y0388875D01*
X0071021Y0388775D01*
X0071052Y0388673D01*
X0071080Y0388570D01*
X0071103Y0388467D01*
X0071124Y0388362D01*
X0071140Y0388257D01*
X0071153Y0388152D01*
X0071163Y0388046D01*
X0071168Y0387939D01*
X0071170Y0387833D01*
X0069115Y0387833D02*
X0069117Y0387939D01*
X0069122Y0388046D01*
X0069132Y0388152D01*
X0069145Y0388257D01*
X0069161Y0388362D01*
X0069182Y0388467D01*
X0069205Y0388570D01*
X0069233Y0388673D01*
X0069264Y0388775D01*
X0069299Y0388875D01*
X0069337Y0388975D01*
X0069378Y0389073D01*
X0069423Y0389169D01*
X0071170Y0387833D02*
X0071168Y0387727D01*
X0071163Y0387620D01*
X0071153Y0387514D01*
X0071140Y0387409D01*
X0071124Y0387304D01*
X0071103Y0387199D01*
X0071080Y0387096D01*
X0071052Y0386993D01*
X0071021Y0386891D01*
X0070986Y0386791D01*
X0070948Y0386691D01*
X0070907Y0386593D01*
X0070862Y0386497D01*
X0070863Y0386496D02*
X0070844Y0386447D01*
X0070822Y0386400D01*
X0070797Y0386354D01*
X0070769Y0386310D01*
X0070737Y0386268D01*
X0070703Y0386228D01*
X0070666Y0386190D01*
X0070627Y0386156D01*
X0070585Y0386124D01*
X0070542Y0386095D01*
X0070496Y0386069D01*
X0070449Y0386046D01*
X0070400Y0386027D01*
X0070350Y0386011D01*
X0070299Y0385998D01*
X0070248Y0385989D01*
X0070195Y0385984D01*
X0070143Y0385982D01*
X0070091Y0385984D01*
X0070038Y0385989D01*
X0069987Y0385998D01*
X0069936Y0386011D01*
X0069886Y0386027D01*
X0069837Y0386046D01*
X0069790Y0386069D01*
X0069744Y0386095D01*
X0069701Y0386124D01*
X0069659Y0386156D01*
X0069620Y0386190D01*
X0069583Y0386228D01*
X0069549Y0386268D01*
X0069517Y0386310D01*
X0069489Y0386354D01*
X0069464Y0386400D01*
X0069442Y0386447D01*
X0069423Y0386496D01*
X0069423Y0386497D02*
X0069378Y0386593D01*
X0069337Y0386691D01*
X0069299Y0386791D01*
X0069264Y0386891D01*
X0069233Y0386993D01*
X0069205Y0387096D01*
X0069182Y0387199D01*
X0069161Y0387304D01*
X0069145Y0387409D01*
X0069132Y0387514D01*
X0069122Y0387620D01*
X0069117Y0387727D01*
X0069115Y0387833D01*
X0072560Y0386188D02*
X0072766Y0386188D01*
X0072766Y0385983D01*
X0072560Y0385983D01*
X0072560Y0386188D01*
X0075902Y0386497D02*
X0075947Y0386593D01*
X0075988Y0386691D01*
X0076026Y0386791D01*
X0076061Y0386891D01*
X0076092Y0386993D01*
X0076120Y0387096D01*
X0076143Y0387199D01*
X0076164Y0387304D01*
X0076180Y0387409D01*
X0076193Y0387514D01*
X0076203Y0387620D01*
X0076208Y0387727D01*
X0076210Y0387833D01*
X0074155Y0387833D02*
X0074157Y0387939D01*
X0074162Y0388046D01*
X0074172Y0388152D01*
X0074185Y0388257D01*
X0074201Y0388362D01*
X0074222Y0388467D01*
X0074245Y0388570D01*
X0074273Y0388673D01*
X0074304Y0388775D01*
X0074339Y0388875D01*
X0074377Y0388975D01*
X0074418Y0389073D01*
X0074463Y0389169D01*
X0075183Y0389683D02*
X0075235Y0389681D01*
X0075288Y0389676D01*
X0075339Y0389667D01*
X0075390Y0389654D01*
X0075440Y0389638D01*
X0075489Y0389619D01*
X0075536Y0389596D01*
X0075582Y0389570D01*
X0075625Y0389541D01*
X0075667Y0389509D01*
X0075706Y0389475D01*
X0075743Y0389437D01*
X0075777Y0389397D01*
X0075809Y0389355D01*
X0075837Y0389311D01*
X0075862Y0389265D01*
X0075884Y0389218D01*
X0075903Y0389169D01*
X0076005Y0388860D02*
X0074361Y0386805D01*
X0075183Y0385982D02*
X0075235Y0385984D01*
X0075288Y0385989D01*
X0075339Y0385998D01*
X0075390Y0386011D01*
X0075440Y0386027D01*
X0075489Y0386046D01*
X0075536Y0386069D01*
X0075582Y0386095D01*
X0075625Y0386124D01*
X0075667Y0386156D01*
X0075706Y0386190D01*
X0075743Y0386228D01*
X0075777Y0386268D01*
X0075809Y0386310D01*
X0075837Y0386354D01*
X0075862Y0386400D01*
X0075884Y0386447D01*
X0075903Y0386496D01*
X0075183Y0385982D02*
X0075131Y0385984D01*
X0075078Y0385989D01*
X0075027Y0385998D01*
X0074976Y0386011D01*
X0074926Y0386027D01*
X0074877Y0386046D01*
X0074830Y0386069D01*
X0074784Y0386095D01*
X0074741Y0386124D01*
X0074699Y0386156D01*
X0074660Y0386190D01*
X0074623Y0386228D01*
X0074589Y0386268D01*
X0074557Y0386310D01*
X0074529Y0386354D01*
X0074504Y0386400D01*
X0074482Y0386447D01*
X0074463Y0386496D01*
X0076210Y0387833D02*
X0076208Y0387939D01*
X0076203Y0388046D01*
X0076193Y0388152D01*
X0076180Y0388257D01*
X0076164Y0388362D01*
X0076143Y0388467D01*
X0076120Y0388570D01*
X0076092Y0388673D01*
X0076061Y0388775D01*
X0076026Y0388875D01*
X0075988Y0388975D01*
X0075947Y0389073D01*
X0075902Y0389169D01*
X0075183Y0389683D02*
X0075131Y0389681D01*
X0075078Y0389676D01*
X0075027Y0389667D01*
X0074976Y0389654D01*
X0074926Y0389638D01*
X0074877Y0389619D01*
X0074830Y0389596D01*
X0074784Y0389570D01*
X0074741Y0389541D01*
X0074699Y0389509D01*
X0074660Y0389475D01*
X0074623Y0389437D01*
X0074589Y0389397D01*
X0074557Y0389355D01*
X0074529Y0389311D01*
X0074504Y0389265D01*
X0074482Y0389218D01*
X0074463Y0389169D01*
X0074155Y0387833D02*
X0074157Y0387727D01*
X0074162Y0387620D01*
X0074172Y0387514D01*
X0074185Y0387409D01*
X0074201Y0387304D01*
X0074222Y0387199D01*
X0074245Y0387096D01*
X0074273Y0386993D01*
X0074304Y0386891D01*
X0074339Y0386791D01*
X0074377Y0386691D01*
X0074418Y0386593D01*
X0074463Y0386497D01*
X0066131Y0385983D02*
X0064075Y0385983D01*
X0065103Y0385983D02*
X0065103Y0389683D01*
X0064075Y0388860D01*
X0063646Y0383683D02*
X0063440Y0383683D01*
X0063440Y0383477D01*
X0063646Y0383477D01*
X0063646Y0383683D01*
X0063543Y0382449D02*
X0063543Y0379983D01*
X0061571Y0379983D02*
X0061616Y0379984D01*
X0061661Y0379989D01*
X0061705Y0379998D01*
X0061748Y0380010D01*
X0061790Y0380026D01*
X0061830Y0380046D01*
X0061869Y0380069D01*
X0061905Y0380094D01*
X0061939Y0380123D01*
X0061971Y0380155D01*
X0062000Y0380189D01*
X0062026Y0380226D01*
X0062049Y0380264D01*
X0062068Y0380305D01*
X0062084Y0380347D01*
X0062097Y0380390D01*
X0062106Y0380434D01*
X0062111Y0380478D01*
X0062112Y0380523D01*
X0062109Y0380568D01*
X0062103Y0380612D01*
X0062093Y0380656D01*
X0062080Y0380698D01*
X0062063Y0380740D01*
X0062042Y0380780D01*
X0062018Y0380818D01*
X0061992Y0380853D01*
X0061962Y0380887D01*
X0061929Y0380918D01*
X0061894Y0380946D01*
X0061857Y0380971D01*
X0061818Y0380992D01*
X0061777Y0381011D01*
X0061777Y0381010D02*
X0060749Y0381422D01*
X0060749Y0381421D02*
X0060708Y0381440D01*
X0060669Y0381461D01*
X0060632Y0381486D01*
X0060597Y0381514D01*
X0060564Y0381545D01*
X0060534Y0381579D01*
X0060508Y0381614D01*
X0060484Y0381652D01*
X0060463Y0381692D01*
X0060446Y0381734D01*
X0060433Y0381776D01*
X0060423Y0381820D01*
X0060417Y0381864D01*
X0060414Y0381909D01*
X0060415Y0381954D01*
X0060420Y0381998D01*
X0060429Y0382042D01*
X0060442Y0382085D01*
X0060458Y0382127D01*
X0060477Y0382168D01*
X0060500Y0382206D01*
X0060526Y0382243D01*
X0060555Y0382277D01*
X0060587Y0382309D01*
X0060621Y0382338D01*
X0060657Y0382363D01*
X0060696Y0382386D01*
X0060736Y0382406D01*
X0060778Y0382422D01*
X0060821Y0382434D01*
X0060865Y0382443D01*
X0060910Y0382448D01*
X0060955Y0382449D01*
X0060441Y0380188D02*
X0060550Y0380151D01*
X0060660Y0380117D01*
X0060772Y0380087D01*
X0060884Y0380061D01*
X0060997Y0380038D01*
X0061111Y0380019D01*
X0061226Y0380004D01*
X0061341Y0379993D01*
X0061456Y0379986D01*
X0061571Y0379982D01*
X0061879Y0382243D02*
X0061791Y0382281D01*
X0061702Y0382314D01*
X0061612Y0382344D01*
X0061520Y0382371D01*
X0061427Y0382393D01*
X0061334Y0382412D01*
X0061240Y0382427D01*
X0061145Y0382438D01*
X0061050Y0382445D01*
X0060954Y0382449D01*
X0058965Y0381627D02*
X0058965Y0381216D01*
X0057321Y0381216D01*
X0057321Y0381627D02*
X0057321Y0380599D01*
X0057320Y0380599D02*
X0057322Y0380551D01*
X0057328Y0380502D01*
X0057337Y0380455D01*
X0057350Y0380408D01*
X0057367Y0380363D01*
X0057387Y0380319D01*
X0057411Y0380277D01*
X0057438Y0380236D01*
X0057468Y0380198D01*
X0057501Y0380163D01*
X0057536Y0380130D01*
X0057574Y0380100D01*
X0057615Y0380073D01*
X0057657Y0380049D01*
X0057701Y0380029D01*
X0057746Y0380012D01*
X0057793Y0379999D01*
X0057840Y0379990D01*
X0057889Y0379984D01*
X0057937Y0379982D01*
X0057937Y0379983D02*
X0058965Y0379983D01*
X0058965Y0381627D02*
X0058963Y0381683D01*
X0058957Y0381739D01*
X0058948Y0381794D01*
X0058935Y0381849D01*
X0058918Y0381902D01*
X0058897Y0381954D01*
X0058873Y0382005D01*
X0058845Y0382054D01*
X0058815Y0382101D01*
X0058781Y0382146D01*
X0058744Y0382188D01*
X0058704Y0382228D01*
X0058662Y0382265D01*
X0058617Y0382299D01*
X0058570Y0382329D01*
X0058521Y0382357D01*
X0058470Y0382381D01*
X0058418Y0382402D01*
X0058365Y0382419D01*
X0058310Y0382432D01*
X0058255Y0382441D01*
X0058199Y0382447D01*
X0058143Y0382449D01*
X0058087Y0382447D01*
X0058031Y0382441D01*
X0057976Y0382432D01*
X0057921Y0382419D01*
X0057868Y0382402D01*
X0057816Y0382381D01*
X0057765Y0382357D01*
X0057716Y0382329D01*
X0057669Y0382299D01*
X0057624Y0382265D01*
X0057582Y0382228D01*
X0057542Y0382188D01*
X0057505Y0382146D01*
X0057471Y0382101D01*
X0057441Y0382054D01*
X0057413Y0382005D01*
X0057389Y0381954D01*
X0057368Y0381902D01*
X0057351Y0381849D01*
X0057338Y0381794D01*
X0057329Y0381739D01*
X0057323Y0381683D01*
X0057321Y0381627D01*
X0055691Y0381010D02*
X0055691Y0382655D01*
X0055689Y0382717D01*
X0055684Y0382779D01*
X0055674Y0382840D01*
X0055661Y0382901D01*
X0055644Y0382961D01*
X0055624Y0383020D01*
X0055600Y0383077D01*
X0055573Y0383133D01*
X0055543Y0383187D01*
X0055509Y0383239D01*
X0055472Y0383289D01*
X0055432Y0383337D01*
X0055390Y0383382D01*
X0055345Y0383424D01*
X0055297Y0383464D01*
X0055247Y0383501D01*
X0055195Y0383535D01*
X0055141Y0383565D01*
X0055085Y0383592D01*
X0055028Y0383616D01*
X0054969Y0383636D01*
X0054909Y0383653D01*
X0054848Y0383666D01*
X0054787Y0383676D01*
X0054725Y0383681D01*
X0054663Y0383683D01*
X0053635Y0383683D01*
X0053635Y0379983D01*
X0054663Y0379983D01*
X0054663Y0379982D02*
X0054725Y0379984D01*
X0054787Y0379989D01*
X0054848Y0379999D01*
X0054909Y0380012D01*
X0054969Y0380029D01*
X0055028Y0380049D01*
X0055085Y0380073D01*
X0055141Y0380100D01*
X0055195Y0380130D01*
X0055247Y0380164D01*
X0055297Y0380201D01*
X0055345Y0380241D01*
X0055390Y0380283D01*
X0055432Y0380328D01*
X0055472Y0380376D01*
X0055509Y0380426D01*
X0055543Y0380478D01*
X0055573Y0380532D01*
X0055600Y0380588D01*
X0055624Y0380645D01*
X0055644Y0380704D01*
X0055661Y0380764D01*
X0055674Y0380825D01*
X0055684Y0380886D01*
X0055689Y0380948D01*
X0055691Y0381010D01*
X0056241Y0385572D02*
X0057885Y0390094D01*
X0060765Y0390094D02*
X0059121Y0385572D01*
X0053361Y0385572D02*
X0055005Y0390094D01*
X0050085Y0387627D02*
X0050085Y0387216D01*
X0048441Y0387216D01*
X0048441Y0387627D02*
X0048441Y0386599D01*
X0048440Y0386599D02*
X0048442Y0386551D01*
X0048448Y0386502D01*
X0048457Y0386455D01*
X0048470Y0386408D01*
X0048487Y0386363D01*
X0048507Y0386319D01*
X0048531Y0386277D01*
X0048558Y0386236D01*
X0048588Y0386198D01*
X0048621Y0386163D01*
X0048656Y0386130D01*
X0048694Y0386100D01*
X0048735Y0386073D01*
X0048777Y0386049D01*
X0048821Y0386029D01*
X0048866Y0386012D01*
X0048913Y0385999D01*
X0048960Y0385990D01*
X0049009Y0385984D01*
X0049057Y0385982D01*
X0049057Y0385983D02*
X0050085Y0385983D01*
X0050085Y0387627D02*
X0050083Y0387683D01*
X0050077Y0387739D01*
X0050068Y0387794D01*
X0050055Y0387849D01*
X0050038Y0387902D01*
X0050017Y0387954D01*
X0049993Y0388005D01*
X0049965Y0388054D01*
X0049935Y0388101D01*
X0049901Y0388146D01*
X0049864Y0388188D01*
X0049824Y0388228D01*
X0049782Y0388265D01*
X0049737Y0388299D01*
X0049690Y0388329D01*
X0049641Y0388357D01*
X0049590Y0388381D01*
X0049538Y0388402D01*
X0049485Y0388419D01*
X0049430Y0388432D01*
X0049375Y0388441D01*
X0049319Y0388447D01*
X0049263Y0388449D01*
X0049207Y0388447D01*
X0049151Y0388441D01*
X0049096Y0388432D01*
X0049041Y0388419D01*
X0048988Y0388402D01*
X0048936Y0388381D01*
X0048885Y0388357D01*
X0048836Y0388329D01*
X0048789Y0388299D01*
X0048744Y0388265D01*
X0048702Y0388228D01*
X0048662Y0388188D01*
X0048625Y0388146D01*
X0048591Y0388101D01*
X0048561Y0388054D01*
X0048533Y0388005D01*
X0048509Y0387954D01*
X0048488Y0387902D01*
X0048471Y0387849D01*
X0048458Y0387794D01*
X0048449Y0387739D01*
X0048443Y0387683D01*
X0048441Y0387627D01*
X0047187Y0385982D02*
X0047139Y0385984D01*
X0047090Y0385990D01*
X0047043Y0385999D01*
X0046996Y0386012D01*
X0046951Y0386029D01*
X0046907Y0386049D01*
X0046865Y0386073D01*
X0046824Y0386100D01*
X0046786Y0386130D01*
X0046751Y0386163D01*
X0046718Y0386198D01*
X0046688Y0386236D01*
X0046661Y0386277D01*
X0046637Y0386319D01*
X0046617Y0386363D01*
X0046600Y0386408D01*
X0046587Y0386455D01*
X0046578Y0386502D01*
X0046572Y0386551D01*
X0046570Y0386599D01*
X0046570Y0389683D01*
X0045063Y0387833D02*
X0045063Y0386599D01*
X0045064Y0386599D02*
X0045062Y0386551D01*
X0045056Y0386502D01*
X0045047Y0386455D01*
X0045034Y0386408D01*
X0045017Y0386363D01*
X0044997Y0386319D01*
X0044973Y0386277D01*
X0044946Y0386236D01*
X0044916Y0386198D01*
X0044883Y0386163D01*
X0044848Y0386130D01*
X0044810Y0386100D01*
X0044769Y0386073D01*
X0044727Y0386049D01*
X0044683Y0386029D01*
X0044638Y0386012D01*
X0044591Y0385999D01*
X0044544Y0385990D01*
X0044495Y0385984D01*
X0044447Y0385982D01*
X0044447Y0385983D02*
X0043419Y0385983D01*
X0043419Y0384749D02*
X0043419Y0388449D01*
X0044447Y0388449D01*
X0044447Y0388450D02*
X0044495Y0388448D01*
X0044544Y0388442D01*
X0044591Y0388433D01*
X0044638Y0388420D01*
X0044683Y0388403D01*
X0044727Y0388383D01*
X0044769Y0388359D01*
X0044810Y0388332D01*
X0044848Y0388302D01*
X0044883Y0388269D01*
X0044916Y0388234D01*
X0044946Y0388196D01*
X0044973Y0388155D01*
X0044997Y0388113D01*
X0045017Y0388069D01*
X0045034Y0388024D01*
X0045047Y0387977D01*
X0045056Y0387930D01*
X0045062Y0387881D01*
X0045064Y0387833D01*
X0044447Y0382449D02*
X0043419Y0382449D01*
X0043419Y0378749D01*
X0043419Y0379983D02*
X0044447Y0379983D01*
X0044447Y0379982D02*
X0044495Y0379984D01*
X0044544Y0379990D01*
X0044591Y0379999D01*
X0044638Y0380012D01*
X0044683Y0380029D01*
X0044727Y0380049D01*
X0044769Y0380073D01*
X0044810Y0380100D01*
X0044848Y0380130D01*
X0044883Y0380163D01*
X0044916Y0380198D01*
X0044946Y0380236D01*
X0044973Y0380277D01*
X0044997Y0380319D01*
X0045017Y0380363D01*
X0045034Y0380408D01*
X0045047Y0380455D01*
X0045056Y0380502D01*
X0045062Y0380551D01*
X0045064Y0380599D01*
X0045063Y0380599D02*
X0045063Y0381833D01*
X0045064Y0381833D02*
X0045062Y0381881D01*
X0045056Y0381930D01*
X0045047Y0381977D01*
X0045034Y0382024D01*
X0045017Y0382069D01*
X0044997Y0382113D01*
X0044973Y0382155D01*
X0044946Y0382196D01*
X0044916Y0382234D01*
X0044883Y0382269D01*
X0044848Y0382302D01*
X0044810Y0382332D01*
X0044769Y0382359D01*
X0044727Y0382383D01*
X0044683Y0382403D01*
X0044638Y0382420D01*
X0044591Y0382433D01*
X0044544Y0382442D01*
X0044495Y0382448D01*
X0044447Y0382450D01*
X0046570Y0383683D02*
X0046570Y0380599D01*
X0046572Y0380551D01*
X0046578Y0380502D01*
X0046587Y0380455D01*
X0046600Y0380408D01*
X0046617Y0380363D01*
X0046637Y0380319D01*
X0046661Y0380277D01*
X0046688Y0380236D01*
X0046718Y0380198D01*
X0046751Y0380163D01*
X0046786Y0380130D01*
X0046824Y0380100D01*
X0046865Y0380073D01*
X0046907Y0380049D01*
X0046951Y0380029D01*
X0046996Y0380012D01*
X0047043Y0379999D01*
X0047090Y0379990D01*
X0047139Y0379984D01*
X0047187Y0379982D01*
X0048441Y0380599D02*
X0048441Y0381627D01*
X0048441Y0381216D02*
X0050085Y0381216D01*
X0050085Y0381627D01*
X0050083Y0381683D01*
X0050077Y0381739D01*
X0050068Y0381794D01*
X0050055Y0381849D01*
X0050038Y0381902D01*
X0050017Y0381954D01*
X0049993Y0382005D01*
X0049965Y0382054D01*
X0049935Y0382101D01*
X0049901Y0382146D01*
X0049864Y0382188D01*
X0049824Y0382228D01*
X0049782Y0382265D01*
X0049737Y0382299D01*
X0049690Y0382329D01*
X0049641Y0382357D01*
X0049590Y0382381D01*
X0049538Y0382402D01*
X0049485Y0382419D01*
X0049430Y0382432D01*
X0049375Y0382441D01*
X0049319Y0382447D01*
X0049263Y0382449D01*
X0049207Y0382447D01*
X0049151Y0382441D01*
X0049096Y0382432D01*
X0049041Y0382419D01*
X0048988Y0382402D01*
X0048936Y0382381D01*
X0048885Y0382357D01*
X0048836Y0382329D01*
X0048789Y0382299D01*
X0048744Y0382265D01*
X0048702Y0382228D01*
X0048662Y0382188D01*
X0048625Y0382146D01*
X0048591Y0382101D01*
X0048561Y0382054D01*
X0048533Y0382005D01*
X0048509Y0381954D01*
X0048488Y0381902D01*
X0048471Y0381849D01*
X0048458Y0381794D01*
X0048449Y0381739D01*
X0048443Y0381683D01*
X0048441Y0381627D01*
X0048440Y0380599D02*
X0048442Y0380551D01*
X0048448Y0380502D01*
X0048457Y0380455D01*
X0048470Y0380408D01*
X0048487Y0380363D01*
X0048507Y0380319D01*
X0048531Y0380277D01*
X0048558Y0380236D01*
X0048588Y0380198D01*
X0048621Y0380163D01*
X0048656Y0380130D01*
X0048694Y0380100D01*
X0048735Y0380073D01*
X0048777Y0380049D01*
X0048821Y0380029D01*
X0048866Y0380012D01*
X0048913Y0379999D01*
X0048960Y0379990D01*
X0049009Y0379984D01*
X0049057Y0379982D01*
X0049057Y0379983D02*
X0050085Y0379983D01*
X0041823Y0380599D02*
X0041823Y0381833D01*
X0041824Y0381833D02*
X0041822Y0381881D01*
X0041816Y0381930D01*
X0041807Y0381977D01*
X0041794Y0382024D01*
X0041777Y0382069D01*
X0041757Y0382113D01*
X0041733Y0382155D01*
X0041706Y0382196D01*
X0041676Y0382234D01*
X0041643Y0382269D01*
X0041608Y0382302D01*
X0041570Y0382332D01*
X0041529Y0382359D01*
X0041487Y0382383D01*
X0041443Y0382403D01*
X0041398Y0382420D01*
X0041351Y0382433D01*
X0041304Y0382442D01*
X0041255Y0382448D01*
X0041207Y0382450D01*
X0041207Y0382449D02*
X0040179Y0382449D01*
X0040179Y0378749D01*
X0040179Y0379983D02*
X0041207Y0379983D01*
X0041207Y0379982D02*
X0041255Y0379984D01*
X0041304Y0379990D01*
X0041351Y0379999D01*
X0041398Y0380012D01*
X0041443Y0380029D01*
X0041487Y0380049D01*
X0041529Y0380073D01*
X0041570Y0380100D01*
X0041608Y0380130D01*
X0041643Y0380163D01*
X0041676Y0380198D01*
X0041706Y0380236D01*
X0041733Y0380277D01*
X0041757Y0380319D01*
X0041777Y0380363D01*
X0041794Y0380408D01*
X0041807Y0380455D01*
X0041816Y0380502D01*
X0041822Y0380551D01*
X0041824Y0380599D01*
X0040179Y0384749D02*
X0040179Y0388449D01*
X0041207Y0388449D01*
X0041207Y0388450D02*
X0041255Y0388448D01*
X0041304Y0388442D01*
X0041351Y0388433D01*
X0041398Y0388420D01*
X0041443Y0388403D01*
X0041487Y0388383D01*
X0041529Y0388359D01*
X0041570Y0388332D01*
X0041608Y0388302D01*
X0041643Y0388269D01*
X0041676Y0388234D01*
X0041706Y0388196D01*
X0041733Y0388155D01*
X0041757Y0388113D01*
X0041777Y0388069D01*
X0041794Y0388024D01*
X0041807Y0387977D01*
X0041816Y0387930D01*
X0041822Y0387881D01*
X0041824Y0387833D01*
X0041823Y0387833D02*
X0041823Y0386599D01*
X0041824Y0386599D02*
X0041822Y0386551D01*
X0041816Y0386502D01*
X0041807Y0386455D01*
X0041794Y0386408D01*
X0041777Y0386363D01*
X0041757Y0386319D01*
X0041733Y0386277D01*
X0041706Y0386236D01*
X0041676Y0386198D01*
X0041643Y0386163D01*
X0041608Y0386130D01*
X0041570Y0386100D01*
X0041529Y0386073D01*
X0041487Y0386049D01*
X0041443Y0386029D01*
X0041398Y0386012D01*
X0041351Y0385999D01*
X0041304Y0385990D01*
X0041255Y0385984D01*
X0041207Y0385982D01*
X0041207Y0385983D02*
X0040179Y0385983D01*
X0038427Y0385983D02*
X0038427Y0387833D01*
X0038427Y0387422D02*
X0037502Y0387422D01*
X0038428Y0387833D02*
X0038426Y0387881D01*
X0038420Y0387930D01*
X0038411Y0387977D01*
X0038398Y0388024D01*
X0038381Y0388069D01*
X0038361Y0388113D01*
X0038337Y0388155D01*
X0038310Y0388196D01*
X0038280Y0388234D01*
X0038247Y0388269D01*
X0038212Y0388302D01*
X0038174Y0388332D01*
X0038133Y0388359D01*
X0038091Y0388383D01*
X0038047Y0388403D01*
X0038002Y0388420D01*
X0037955Y0388433D01*
X0037908Y0388442D01*
X0037859Y0388448D01*
X0037811Y0388450D01*
X0037811Y0388449D02*
X0036988Y0388449D01*
X0037502Y0387421D02*
X0037450Y0387419D01*
X0037397Y0387413D01*
X0037346Y0387404D01*
X0037295Y0387391D01*
X0037245Y0387374D01*
X0037197Y0387353D01*
X0037150Y0387329D01*
X0037105Y0387302D01*
X0037063Y0387271D01*
X0037022Y0387237D01*
X0036984Y0387201D01*
X0036949Y0387162D01*
X0036917Y0387120D01*
X0036888Y0387077D01*
X0036863Y0387031D01*
X0036840Y0386983D01*
X0036822Y0386934D01*
X0036806Y0386884D01*
X0036795Y0386833D01*
X0036787Y0386781D01*
X0036783Y0386728D01*
X0036783Y0386676D01*
X0036787Y0386623D01*
X0036795Y0386571D01*
X0036806Y0386520D01*
X0036822Y0386470D01*
X0036840Y0386421D01*
X0036863Y0386373D01*
X0036888Y0386327D01*
X0036917Y0386284D01*
X0036949Y0386242D01*
X0036984Y0386203D01*
X0037022Y0386167D01*
X0037063Y0386133D01*
X0037105Y0386102D01*
X0037150Y0386075D01*
X0037197Y0386051D01*
X0037245Y0386030D01*
X0037295Y0386013D01*
X0037346Y0386000D01*
X0037397Y0385991D01*
X0037450Y0385985D01*
X0037502Y0385983D01*
X0038427Y0385983D01*
X0037811Y0382449D02*
X0036988Y0382449D01*
X0037811Y0382450D02*
X0037859Y0382448D01*
X0037908Y0382442D01*
X0037955Y0382433D01*
X0038002Y0382420D01*
X0038047Y0382403D01*
X0038091Y0382383D01*
X0038133Y0382359D01*
X0038174Y0382332D01*
X0038212Y0382302D01*
X0038247Y0382269D01*
X0038280Y0382234D01*
X0038310Y0382196D01*
X0038337Y0382155D01*
X0038361Y0382113D01*
X0038381Y0382069D01*
X0038398Y0382024D01*
X0038411Y0381977D01*
X0038420Y0381930D01*
X0038426Y0381881D01*
X0038428Y0381833D01*
X0038427Y0381833D02*
X0038427Y0379983D01*
X0037502Y0379983D01*
X0037450Y0379985D01*
X0037397Y0379991D01*
X0037346Y0380000D01*
X0037295Y0380013D01*
X0037245Y0380030D01*
X0037197Y0380051D01*
X0037150Y0380075D01*
X0037105Y0380102D01*
X0037063Y0380133D01*
X0037022Y0380167D01*
X0036984Y0380203D01*
X0036949Y0380242D01*
X0036917Y0380284D01*
X0036888Y0380327D01*
X0036863Y0380373D01*
X0036840Y0380421D01*
X0036822Y0380470D01*
X0036806Y0380520D01*
X0036795Y0380571D01*
X0036787Y0380623D01*
X0036783Y0380676D01*
X0036783Y0380728D01*
X0036787Y0380781D01*
X0036795Y0380833D01*
X0036806Y0380884D01*
X0036822Y0380934D01*
X0036840Y0380983D01*
X0036863Y0381031D01*
X0036888Y0381077D01*
X0036917Y0381120D01*
X0036949Y0381162D01*
X0036984Y0381201D01*
X0037022Y0381237D01*
X0037063Y0381271D01*
X0037105Y0381302D01*
X0037150Y0381329D01*
X0037197Y0381353D01*
X0037245Y0381374D01*
X0037295Y0381391D01*
X0037346Y0381404D01*
X0037397Y0381413D01*
X0037450Y0381419D01*
X0037502Y0381421D01*
X0037502Y0381422D02*
X0038427Y0381422D01*
X0035325Y0381627D02*
X0035325Y0381216D01*
X0033681Y0381216D01*
X0033681Y0381627D02*
X0033681Y0380599D01*
X0033683Y0380551D01*
X0033689Y0380502D01*
X0033698Y0380455D01*
X0033711Y0380408D01*
X0033728Y0380363D01*
X0033748Y0380319D01*
X0033772Y0380277D01*
X0033799Y0380236D01*
X0033829Y0380198D01*
X0033862Y0380163D01*
X0033897Y0380130D01*
X0033935Y0380100D01*
X0033976Y0380073D01*
X0034018Y0380049D01*
X0034062Y0380029D01*
X0034107Y0380012D01*
X0034154Y0379999D01*
X0034201Y0379990D01*
X0034250Y0379984D01*
X0034298Y0379982D01*
X0034298Y0379983D02*
X0035325Y0379983D01*
X0035325Y0381627D02*
X0035323Y0381683D01*
X0035317Y0381739D01*
X0035308Y0381794D01*
X0035295Y0381849D01*
X0035278Y0381902D01*
X0035257Y0381954D01*
X0035233Y0382005D01*
X0035205Y0382054D01*
X0035175Y0382101D01*
X0035141Y0382146D01*
X0035104Y0382188D01*
X0035064Y0382228D01*
X0035022Y0382265D01*
X0034977Y0382299D01*
X0034930Y0382329D01*
X0034881Y0382357D01*
X0034830Y0382381D01*
X0034778Y0382402D01*
X0034725Y0382419D01*
X0034670Y0382432D01*
X0034615Y0382441D01*
X0034559Y0382447D01*
X0034503Y0382449D01*
X0034447Y0382447D01*
X0034391Y0382441D01*
X0034336Y0382432D01*
X0034281Y0382419D01*
X0034228Y0382402D01*
X0034176Y0382381D01*
X0034125Y0382357D01*
X0034076Y0382329D01*
X0034029Y0382299D01*
X0033984Y0382265D01*
X0033942Y0382228D01*
X0033902Y0382188D01*
X0033865Y0382146D01*
X0033831Y0382101D01*
X0033801Y0382054D01*
X0033773Y0382005D01*
X0033749Y0381954D01*
X0033728Y0381902D01*
X0033711Y0381849D01*
X0033698Y0381794D01*
X0033689Y0381739D01*
X0033683Y0381683D01*
X0033681Y0381627D01*
X0032085Y0381833D02*
X0032085Y0379983D01*
X0032086Y0381833D02*
X0032084Y0381881D01*
X0032078Y0381930D01*
X0032069Y0381977D01*
X0032056Y0382024D01*
X0032039Y0382069D01*
X0032019Y0382113D01*
X0031995Y0382155D01*
X0031968Y0382196D01*
X0031938Y0382234D01*
X0031905Y0382269D01*
X0031870Y0382302D01*
X0031832Y0382332D01*
X0031791Y0382359D01*
X0031749Y0382383D01*
X0031705Y0382403D01*
X0031660Y0382420D01*
X0031613Y0382433D01*
X0031566Y0382442D01*
X0031517Y0382448D01*
X0031469Y0382450D01*
X0031469Y0382449D02*
X0030441Y0382449D01*
X0030441Y0379983D01*
X0028863Y0379983D02*
X0028863Y0382449D01*
X0028966Y0383477D02*
X0028760Y0383477D01*
X0028760Y0383683D01*
X0028966Y0383683D01*
X0028966Y0383477D01*
X0026515Y0383683D02*
X0025487Y0383683D01*
X0025487Y0379983D01*
X0025487Y0381627D02*
X0026515Y0381627D01*
X0026578Y0381629D01*
X0026641Y0381635D01*
X0026704Y0381645D01*
X0026766Y0381658D01*
X0026827Y0381675D01*
X0026886Y0381696D01*
X0026945Y0381721D01*
X0027001Y0381749D01*
X0027056Y0381781D01*
X0027109Y0381816D01*
X0027159Y0381854D01*
X0027208Y0381895D01*
X0027253Y0381939D01*
X0027296Y0381986D01*
X0027335Y0382035D01*
X0027372Y0382087D01*
X0027405Y0382141D01*
X0027435Y0382197D01*
X0027462Y0382254D01*
X0027485Y0382313D01*
X0027504Y0382374D01*
X0027519Y0382435D01*
X0027531Y0382497D01*
X0027539Y0382560D01*
X0027543Y0382623D01*
X0027543Y0382687D01*
X0027539Y0382750D01*
X0027531Y0382813D01*
X0027519Y0382875D01*
X0027504Y0382936D01*
X0027485Y0382997D01*
X0027462Y0383056D01*
X0027435Y0383113D01*
X0027405Y0383169D01*
X0027372Y0383223D01*
X0027335Y0383275D01*
X0027296Y0383324D01*
X0027253Y0383371D01*
X0027208Y0383415D01*
X0027159Y0383456D01*
X0027109Y0383494D01*
X0027056Y0383529D01*
X0027001Y0383561D01*
X0026945Y0383589D01*
X0026886Y0383614D01*
X0026827Y0383635D01*
X0026766Y0383652D01*
X0026704Y0383665D01*
X0026641Y0383675D01*
X0026578Y0383681D01*
X0026515Y0383683D01*
X0025487Y0385983D02*
X0025487Y0389683D01*
X0026515Y0389683D01*
X0026578Y0389681D01*
X0026641Y0389675D01*
X0026704Y0389665D01*
X0026766Y0389652D01*
X0026827Y0389635D01*
X0026886Y0389614D01*
X0026945Y0389589D01*
X0027001Y0389561D01*
X0027056Y0389529D01*
X0027109Y0389494D01*
X0027159Y0389456D01*
X0027208Y0389415D01*
X0027253Y0389371D01*
X0027296Y0389324D01*
X0027335Y0389275D01*
X0027372Y0389223D01*
X0027405Y0389169D01*
X0027435Y0389113D01*
X0027462Y0389056D01*
X0027485Y0388997D01*
X0027504Y0388936D01*
X0027519Y0388875D01*
X0027531Y0388813D01*
X0027539Y0388750D01*
X0027543Y0388687D01*
X0027543Y0388623D01*
X0027539Y0388560D01*
X0027531Y0388497D01*
X0027519Y0388435D01*
X0027504Y0388374D01*
X0027485Y0388313D01*
X0027462Y0388254D01*
X0027435Y0388197D01*
X0027405Y0388141D01*
X0027372Y0388087D01*
X0027335Y0388035D01*
X0027296Y0387986D01*
X0027253Y0387939D01*
X0027208Y0387895D01*
X0027159Y0387854D01*
X0027109Y0387816D01*
X0027056Y0387781D01*
X0027001Y0387749D01*
X0026945Y0387721D01*
X0026886Y0387696D01*
X0026827Y0387675D01*
X0026766Y0387658D01*
X0026704Y0387645D01*
X0026641Y0387635D01*
X0026578Y0387629D01*
X0026515Y0387627D01*
X0025487Y0387627D01*
X0028863Y0388449D02*
X0028863Y0385983D01*
X0030441Y0385983D02*
X0030441Y0388449D01*
X0031469Y0388449D01*
X0031469Y0388450D02*
X0031517Y0388448D01*
X0031566Y0388442D01*
X0031613Y0388433D01*
X0031660Y0388420D01*
X0031705Y0388403D01*
X0031749Y0388383D01*
X0031791Y0388359D01*
X0031832Y0388332D01*
X0031870Y0388302D01*
X0031905Y0388269D01*
X0031938Y0388234D01*
X0031968Y0388196D01*
X0031995Y0388155D01*
X0032019Y0388113D01*
X0032039Y0388069D01*
X0032056Y0388024D01*
X0032069Y0387977D01*
X0032078Y0387930D01*
X0032084Y0387881D01*
X0032086Y0387833D01*
X0032085Y0387833D02*
X0032085Y0385983D01*
X0033681Y0386599D02*
X0033681Y0387627D01*
X0033681Y0387216D02*
X0035325Y0387216D01*
X0035325Y0387627D01*
X0035323Y0387683D01*
X0035317Y0387739D01*
X0035308Y0387794D01*
X0035295Y0387849D01*
X0035278Y0387902D01*
X0035257Y0387954D01*
X0035233Y0388005D01*
X0035205Y0388054D01*
X0035175Y0388101D01*
X0035141Y0388146D01*
X0035104Y0388188D01*
X0035064Y0388228D01*
X0035022Y0388265D01*
X0034977Y0388299D01*
X0034930Y0388329D01*
X0034881Y0388357D01*
X0034830Y0388381D01*
X0034778Y0388402D01*
X0034725Y0388419D01*
X0034670Y0388432D01*
X0034615Y0388441D01*
X0034559Y0388447D01*
X0034503Y0388449D01*
X0034447Y0388447D01*
X0034391Y0388441D01*
X0034336Y0388432D01*
X0034281Y0388419D01*
X0034228Y0388402D01*
X0034176Y0388381D01*
X0034125Y0388357D01*
X0034076Y0388329D01*
X0034029Y0388299D01*
X0033984Y0388265D01*
X0033942Y0388228D01*
X0033902Y0388188D01*
X0033865Y0388146D01*
X0033831Y0388101D01*
X0033801Y0388054D01*
X0033773Y0388005D01*
X0033749Y0387954D01*
X0033728Y0387902D01*
X0033711Y0387849D01*
X0033698Y0387794D01*
X0033689Y0387739D01*
X0033683Y0387683D01*
X0033681Y0387627D01*
X0033681Y0386599D02*
X0033683Y0386551D01*
X0033689Y0386502D01*
X0033698Y0386455D01*
X0033711Y0386408D01*
X0033728Y0386363D01*
X0033748Y0386319D01*
X0033772Y0386277D01*
X0033799Y0386236D01*
X0033829Y0386198D01*
X0033862Y0386163D01*
X0033897Y0386130D01*
X0033935Y0386100D01*
X0033976Y0386073D01*
X0034018Y0386049D01*
X0034062Y0386029D01*
X0034107Y0386012D01*
X0034154Y0385999D01*
X0034201Y0385990D01*
X0034250Y0385984D01*
X0034298Y0385982D01*
X0034298Y0385983D02*
X0035325Y0385983D01*
X0028966Y0389477D02*
X0028760Y0389477D01*
X0028760Y0389683D01*
X0028966Y0389683D01*
X0028966Y0389477D01*
D11*
X0037900Y0357250D02*
X0037900Y0356250D01*
X0038400Y0355750D01*
X0038400Y0346750D01*
X0037900Y0346250D01*
X0037900Y0345250D01*
X0037902Y0345190D01*
X0037907Y0345129D01*
X0037916Y0345070D01*
X0037929Y0345011D01*
X0037945Y0344952D01*
X0037965Y0344895D01*
X0037988Y0344840D01*
X0038015Y0344785D01*
X0038044Y0344733D01*
X0038077Y0344682D01*
X0038113Y0344633D01*
X0038151Y0344587D01*
X0038193Y0344543D01*
X0038237Y0344501D01*
X0038283Y0344463D01*
X0038332Y0344427D01*
X0038383Y0344394D01*
X0038435Y0344365D01*
X0038490Y0344338D01*
X0038545Y0344315D01*
X0038602Y0344295D01*
X0038661Y0344279D01*
X0038720Y0344266D01*
X0038779Y0344257D01*
X0038840Y0344252D01*
X0038900Y0344250D01*
X0043900Y0344250D02*
X0043960Y0344252D01*
X0044021Y0344257D01*
X0044080Y0344266D01*
X0044139Y0344279D01*
X0044198Y0344295D01*
X0044255Y0344315D01*
X0044310Y0344338D01*
X0044365Y0344365D01*
X0044417Y0344394D01*
X0044468Y0344427D01*
X0044517Y0344463D01*
X0044563Y0344501D01*
X0044607Y0344543D01*
X0044649Y0344587D01*
X0044687Y0344633D01*
X0044723Y0344682D01*
X0044756Y0344733D01*
X0044785Y0344785D01*
X0044812Y0344840D01*
X0044835Y0344895D01*
X0044855Y0344952D01*
X0044871Y0345011D01*
X0044884Y0345070D01*
X0044893Y0345129D01*
X0044898Y0345190D01*
X0044900Y0345250D01*
X0044900Y0346250D01*
X0044400Y0346750D01*
X0044400Y0355750D01*
X0044900Y0356250D01*
X0044900Y0357250D01*
X0044898Y0357310D01*
X0044893Y0357371D01*
X0044884Y0357430D01*
X0044871Y0357489D01*
X0044855Y0357548D01*
X0044835Y0357605D01*
X0044812Y0357660D01*
X0044785Y0357715D01*
X0044756Y0357767D01*
X0044723Y0357818D01*
X0044687Y0357867D01*
X0044649Y0357913D01*
X0044607Y0357957D01*
X0044563Y0357999D01*
X0044517Y0358037D01*
X0044468Y0358073D01*
X0044417Y0358106D01*
X0044365Y0358135D01*
X0044310Y0358162D01*
X0044255Y0358185D01*
X0044198Y0358205D01*
X0044139Y0358221D01*
X0044080Y0358234D01*
X0044021Y0358243D01*
X0043960Y0358248D01*
X0043900Y0358250D01*
X0038900Y0358250D02*
X0038840Y0358248D01*
X0038779Y0358243D01*
X0038720Y0358234D01*
X0038661Y0358221D01*
X0038602Y0358205D01*
X0038545Y0358185D01*
X0038490Y0358162D01*
X0038435Y0358135D01*
X0038383Y0358106D01*
X0038332Y0358073D01*
X0038283Y0358037D01*
X0038237Y0357999D01*
X0038193Y0357957D01*
X0038151Y0357913D01*
X0038113Y0357867D01*
X0038077Y0357818D01*
X0038044Y0357767D01*
X0038015Y0357715D01*
X0037988Y0357660D01*
X0037965Y0357605D01*
X0037945Y0357548D01*
X0037929Y0357489D01*
X0037916Y0357430D01*
X0037907Y0357371D01*
X0037902Y0357310D01*
X0037900Y0357250D01*
X0036400Y0326250D02*
X0036400Y0286250D01*
X0036400Y0276250D01*
X0038900Y0278750D01*
X0038900Y0283750D02*
X0036400Y0286250D01*
X0046400Y0286250D01*
X0046400Y0326250D01*
X0036400Y0326250D01*
X0046400Y0286250D02*
X0046400Y0276250D01*
X0043900Y0278750D01*
X0043900Y0283750D02*
X0046400Y0286250D01*
X0046400Y0276250D02*
X0036400Y0276250D01*
X0031596Y0261741D02*
X0031596Y0260296D01*
X0031596Y0261019D02*
X0034196Y0261019D01*
X0033474Y0258957D02*
X0031596Y0258957D01*
X0031596Y0257512D02*
X0033474Y0257512D01*
X0033474Y0257513D02*
X0033527Y0257515D01*
X0033579Y0257521D01*
X0033631Y0257530D01*
X0033682Y0257544D01*
X0033732Y0257561D01*
X0033780Y0257581D01*
X0033827Y0257605D01*
X0033872Y0257633D01*
X0033915Y0257664D01*
X0033956Y0257697D01*
X0033994Y0257734D01*
X0034029Y0257773D01*
X0034061Y0257815D01*
X0034090Y0257859D01*
X0034116Y0257905D01*
X0034138Y0257953D01*
X0034157Y0258002D01*
X0034173Y0258052D01*
X0034184Y0258104D01*
X0034192Y0258156D01*
X0034196Y0258209D01*
X0034196Y0258261D01*
X0034192Y0258314D01*
X0034184Y0258366D01*
X0034173Y0258418D01*
X0034157Y0258468D01*
X0034138Y0258517D01*
X0034116Y0258565D01*
X0034090Y0258611D01*
X0034061Y0258655D01*
X0034029Y0258697D01*
X0033994Y0258736D01*
X0033956Y0258773D01*
X0033915Y0258806D01*
X0033872Y0258837D01*
X0033827Y0258865D01*
X0033780Y0258889D01*
X0033732Y0258909D01*
X0033682Y0258926D01*
X0033631Y0258940D01*
X0033579Y0258949D01*
X0033527Y0258955D01*
X0033474Y0258957D01*
X0033474Y0255981D02*
X0032318Y0255981D01*
X0032265Y0255979D01*
X0032213Y0255973D01*
X0032161Y0255964D01*
X0032110Y0255950D01*
X0032060Y0255933D01*
X0032012Y0255913D01*
X0031965Y0255889D01*
X0031920Y0255861D01*
X0031877Y0255830D01*
X0031836Y0255797D01*
X0031798Y0255760D01*
X0031763Y0255721D01*
X0031731Y0255679D01*
X0031702Y0255635D01*
X0031676Y0255589D01*
X0031654Y0255541D01*
X0031635Y0255492D01*
X0031619Y0255442D01*
X0031608Y0255390D01*
X0031600Y0255338D01*
X0031596Y0255285D01*
X0031596Y0255233D01*
X0031600Y0255180D01*
X0031608Y0255128D01*
X0031619Y0255076D01*
X0031635Y0255026D01*
X0031654Y0254977D01*
X0031676Y0254929D01*
X0031702Y0254883D01*
X0031731Y0254839D01*
X0031763Y0254797D01*
X0031798Y0254758D01*
X0031836Y0254721D01*
X0031877Y0254688D01*
X0031920Y0254657D01*
X0031965Y0254629D01*
X0032012Y0254605D01*
X0032060Y0254585D01*
X0032110Y0254568D01*
X0032161Y0254554D01*
X0032213Y0254545D01*
X0032265Y0254539D01*
X0032318Y0254537D01*
X0033474Y0254537D01*
X0033527Y0254539D01*
X0033579Y0254545D01*
X0033631Y0254554D01*
X0033682Y0254568D01*
X0033732Y0254585D01*
X0033780Y0254605D01*
X0033827Y0254629D01*
X0033872Y0254657D01*
X0033915Y0254688D01*
X0033956Y0254721D01*
X0033994Y0254758D01*
X0034029Y0254797D01*
X0034061Y0254839D01*
X0034090Y0254883D01*
X0034116Y0254929D01*
X0034138Y0254977D01*
X0034157Y0255026D01*
X0034173Y0255076D01*
X0034184Y0255128D01*
X0034192Y0255180D01*
X0034196Y0255233D01*
X0034196Y0255285D01*
X0034192Y0255338D01*
X0034184Y0255390D01*
X0034173Y0255442D01*
X0034157Y0255492D01*
X0034138Y0255541D01*
X0034116Y0255589D01*
X0034090Y0255635D01*
X0034061Y0255679D01*
X0034029Y0255721D01*
X0033994Y0255760D01*
X0033956Y0255797D01*
X0033915Y0255830D01*
X0033872Y0255861D01*
X0033827Y0255889D01*
X0033780Y0255913D01*
X0033732Y0255933D01*
X0033682Y0255950D01*
X0033631Y0255964D01*
X0033579Y0255973D01*
X0033527Y0255979D01*
X0033474Y0255981D01*
X0034196Y0253244D02*
X0034196Y0252666D01*
X0034196Y0252955D02*
X0031596Y0252955D01*
X0031596Y0252666D02*
X0031596Y0253244D01*
X0032318Y0251277D02*
X0033474Y0251277D01*
X0033526Y0251275D01*
X0033577Y0251270D01*
X0033627Y0251261D01*
X0033677Y0251248D01*
X0033726Y0251231D01*
X0033774Y0251212D01*
X0033820Y0251189D01*
X0033864Y0251162D01*
X0033907Y0251133D01*
X0033947Y0251101D01*
X0033985Y0251066D01*
X0034020Y0251028D01*
X0034052Y0250988D01*
X0034081Y0250945D01*
X0034108Y0250901D01*
X0034131Y0250855D01*
X0034150Y0250807D01*
X0034167Y0250758D01*
X0034180Y0250708D01*
X0034189Y0250658D01*
X0034194Y0250607D01*
X0034196Y0250555D01*
X0034196Y0249833D01*
X0031596Y0249833D01*
X0031596Y0250555D01*
X0031598Y0250607D01*
X0031603Y0250658D01*
X0031613Y0250708D01*
X0031625Y0250758D01*
X0031642Y0250807D01*
X0031661Y0250855D01*
X0031684Y0250901D01*
X0031711Y0250945D01*
X0031740Y0250988D01*
X0031772Y0251028D01*
X0031807Y0251066D01*
X0031845Y0251101D01*
X0031885Y0251133D01*
X0031928Y0251162D01*
X0031972Y0251189D01*
X0032018Y0251212D01*
X0032066Y0251231D01*
X0032115Y0251248D01*
X0032165Y0251261D01*
X0032215Y0251270D01*
X0032267Y0251275D01*
X0032318Y0251277D01*
X0031596Y0248444D02*
X0031596Y0247866D01*
X0031596Y0248155D02*
X0034196Y0248155D01*
X0034196Y0247866D02*
X0034196Y0248444D01*
X0034196Y0246429D02*
X0031596Y0246429D01*
X0033041Y0245563D01*
X0031596Y0244696D01*
X0034196Y0244696D01*
X0034196Y0232214D02*
X0031596Y0232214D01*
X0031596Y0230769D02*
X0034196Y0232214D01*
X0034196Y0230769D02*
X0031596Y0230769D01*
X0031596Y0229381D02*
X0031596Y0228803D01*
X0031596Y0229092D02*
X0034196Y0229092D01*
X0034196Y0228803D02*
X0034196Y0229381D01*
X0034196Y0227653D02*
X0034196Y0227075D01*
X0034196Y0227364D02*
X0031596Y0227364D01*
X0031596Y0227075D02*
X0031596Y0227653D01*
X0032318Y0225686D02*
X0033474Y0225686D01*
X0033526Y0225684D01*
X0033577Y0225679D01*
X0033627Y0225670D01*
X0033677Y0225657D01*
X0033726Y0225640D01*
X0033774Y0225621D01*
X0033820Y0225598D01*
X0033864Y0225571D01*
X0033907Y0225542D01*
X0033947Y0225510D01*
X0033985Y0225475D01*
X0034020Y0225437D01*
X0034052Y0225397D01*
X0034081Y0225354D01*
X0034108Y0225310D01*
X0034131Y0225264D01*
X0034150Y0225216D01*
X0034167Y0225167D01*
X0034180Y0225117D01*
X0034189Y0225067D01*
X0034194Y0225016D01*
X0034196Y0224964D01*
X0034196Y0224241D01*
X0031596Y0224241D01*
X0031596Y0224964D01*
X0031598Y0225016D01*
X0031603Y0225067D01*
X0031613Y0225117D01*
X0031625Y0225167D01*
X0031642Y0225216D01*
X0031661Y0225264D01*
X0031684Y0225310D01*
X0031711Y0225354D01*
X0031740Y0225397D01*
X0031772Y0225437D01*
X0031807Y0225475D01*
X0031845Y0225510D01*
X0031885Y0225542D01*
X0031928Y0225571D01*
X0031972Y0225598D01*
X0032018Y0225621D01*
X0032066Y0225640D01*
X0032115Y0225657D01*
X0032165Y0225670D01*
X0032215Y0225679D01*
X0032267Y0225684D01*
X0032318Y0225686D01*
X0031596Y0222853D02*
X0031596Y0222275D01*
X0031596Y0222564D02*
X0034196Y0222564D01*
X0034196Y0222275D02*
X0034196Y0222853D01*
X0034196Y0220838D02*
X0031596Y0220838D01*
X0033041Y0219972D01*
X0031596Y0219105D01*
X0034196Y0219105D01*
X0037900Y0220250D02*
X0037900Y0221250D01*
X0038400Y0221750D01*
X0038400Y0230750D01*
X0037900Y0231250D01*
X0037900Y0232250D01*
X0037902Y0232310D01*
X0037907Y0232371D01*
X0037916Y0232430D01*
X0037929Y0232489D01*
X0037945Y0232548D01*
X0037965Y0232605D01*
X0037988Y0232660D01*
X0038015Y0232715D01*
X0038044Y0232767D01*
X0038077Y0232818D01*
X0038113Y0232867D01*
X0038151Y0232913D01*
X0038193Y0232957D01*
X0038237Y0232999D01*
X0038283Y0233037D01*
X0038332Y0233073D01*
X0038383Y0233106D01*
X0038435Y0233135D01*
X0038490Y0233162D01*
X0038545Y0233185D01*
X0038602Y0233205D01*
X0038661Y0233221D01*
X0038720Y0233234D01*
X0038779Y0233243D01*
X0038840Y0233248D01*
X0038900Y0233250D01*
X0037900Y0220250D02*
X0037902Y0220190D01*
X0037907Y0220129D01*
X0037916Y0220070D01*
X0037929Y0220011D01*
X0037945Y0219952D01*
X0037965Y0219895D01*
X0037988Y0219840D01*
X0038015Y0219785D01*
X0038044Y0219733D01*
X0038077Y0219682D01*
X0038113Y0219633D01*
X0038151Y0219587D01*
X0038193Y0219543D01*
X0038237Y0219501D01*
X0038283Y0219463D01*
X0038332Y0219427D01*
X0038383Y0219394D01*
X0038435Y0219365D01*
X0038490Y0219338D01*
X0038545Y0219315D01*
X0038602Y0219295D01*
X0038661Y0219279D01*
X0038720Y0219266D01*
X0038779Y0219257D01*
X0038840Y0219252D01*
X0038900Y0219250D01*
X0043900Y0219250D02*
X0043960Y0219252D01*
X0044021Y0219257D01*
X0044080Y0219266D01*
X0044139Y0219279D01*
X0044198Y0219295D01*
X0044255Y0219315D01*
X0044310Y0219338D01*
X0044365Y0219365D01*
X0044417Y0219394D01*
X0044468Y0219427D01*
X0044517Y0219463D01*
X0044563Y0219501D01*
X0044607Y0219543D01*
X0044649Y0219587D01*
X0044687Y0219633D01*
X0044723Y0219682D01*
X0044756Y0219733D01*
X0044785Y0219785D01*
X0044812Y0219840D01*
X0044835Y0219895D01*
X0044855Y0219952D01*
X0044871Y0220011D01*
X0044884Y0220070D01*
X0044893Y0220129D01*
X0044898Y0220190D01*
X0044900Y0220250D01*
X0044900Y0221250D01*
X0044400Y0221750D01*
X0044400Y0230750D01*
X0044900Y0231250D01*
X0044900Y0232250D01*
X0044898Y0232310D01*
X0044893Y0232371D01*
X0044884Y0232430D01*
X0044871Y0232489D01*
X0044855Y0232548D01*
X0044835Y0232605D01*
X0044812Y0232660D01*
X0044785Y0232715D01*
X0044756Y0232767D01*
X0044723Y0232818D01*
X0044687Y0232867D01*
X0044649Y0232913D01*
X0044607Y0232957D01*
X0044563Y0232999D01*
X0044517Y0233037D01*
X0044468Y0233073D01*
X0044417Y0233106D01*
X0044365Y0233135D01*
X0044310Y0233162D01*
X0044255Y0233185D01*
X0044198Y0233205D01*
X0044139Y0233221D01*
X0044080Y0233234D01*
X0044021Y0233243D01*
X0043960Y0233248D01*
X0043900Y0233250D01*
X0046400Y0202750D02*
X0046400Y0179750D01*
X0006400Y0179750D01*
X0006400Y0187250D01*
X0006526Y0187252D01*
X0006651Y0187258D01*
X0006776Y0187268D01*
X0006901Y0187282D01*
X0007026Y0187299D01*
X0007150Y0187321D01*
X0007273Y0187346D01*
X0007395Y0187376D01*
X0007516Y0187409D01*
X0007636Y0187446D01*
X0007755Y0187486D01*
X0007872Y0187531D01*
X0007989Y0187579D01*
X0008103Y0187631D01*
X0008216Y0187686D01*
X0008327Y0187745D01*
X0008436Y0187807D01*
X0008543Y0187873D01*
X0008648Y0187942D01*
X0008751Y0188014D01*
X0008852Y0188089D01*
X0008950Y0188168D01*
X0009045Y0188250D01*
X0009138Y0188334D01*
X0009228Y0188422D01*
X0009316Y0188512D01*
X0009400Y0188605D01*
X0009482Y0188700D01*
X0009561Y0188798D01*
X0009636Y0188899D01*
X0009708Y0189002D01*
X0009777Y0189107D01*
X0009843Y0189214D01*
X0009905Y0189323D01*
X0009964Y0189434D01*
X0010019Y0189547D01*
X0010071Y0189661D01*
X0010119Y0189778D01*
X0010164Y0189895D01*
X0010204Y0190014D01*
X0010241Y0190134D01*
X0010274Y0190255D01*
X0010304Y0190377D01*
X0010329Y0190500D01*
X0010351Y0190624D01*
X0010368Y0190749D01*
X0010382Y0190874D01*
X0010392Y0190999D01*
X0010398Y0191124D01*
X0010400Y0191250D01*
X0010398Y0191376D01*
X0010392Y0191501D01*
X0010382Y0191626D01*
X0010368Y0191751D01*
X0010351Y0191876D01*
X0010329Y0192000D01*
X0010304Y0192123D01*
X0010274Y0192245D01*
X0010241Y0192366D01*
X0010204Y0192486D01*
X0010164Y0192605D01*
X0010119Y0192722D01*
X0010071Y0192839D01*
X0010019Y0192953D01*
X0009964Y0193066D01*
X0009905Y0193177D01*
X0009843Y0193286D01*
X0009777Y0193393D01*
X0009708Y0193498D01*
X0009636Y0193601D01*
X0009561Y0193702D01*
X0009482Y0193800D01*
X0009400Y0193895D01*
X0009316Y0193988D01*
X0009228Y0194078D01*
X0009138Y0194166D01*
X0009045Y0194250D01*
X0008950Y0194332D01*
X0008852Y0194411D01*
X0008751Y0194486D01*
X0008648Y0194558D01*
X0008543Y0194627D01*
X0008436Y0194693D01*
X0008327Y0194755D01*
X0008216Y0194814D01*
X0008103Y0194869D01*
X0007989Y0194921D01*
X0007872Y0194969D01*
X0007755Y0195014D01*
X0007636Y0195054D01*
X0007516Y0195091D01*
X0007395Y0195124D01*
X0007273Y0195154D01*
X0007150Y0195179D01*
X0007026Y0195201D01*
X0006901Y0195218D01*
X0006776Y0195232D01*
X0006651Y0195242D01*
X0006526Y0195248D01*
X0006400Y0195250D01*
X0006400Y0202750D01*
X0046400Y0202750D01*
X0046400Y0157750D02*
X0046400Y0134750D01*
X0006400Y0134750D01*
X0006400Y0142250D01*
X0006526Y0142252D01*
X0006651Y0142258D01*
X0006776Y0142268D01*
X0006901Y0142282D01*
X0007026Y0142299D01*
X0007150Y0142321D01*
X0007273Y0142346D01*
X0007395Y0142376D01*
X0007516Y0142409D01*
X0007636Y0142446D01*
X0007755Y0142486D01*
X0007872Y0142531D01*
X0007989Y0142579D01*
X0008103Y0142631D01*
X0008216Y0142686D01*
X0008327Y0142745D01*
X0008436Y0142807D01*
X0008543Y0142873D01*
X0008648Y0142942D01*
X0008751Y0143014D01*
X0008852Y0143089D01*
X0008950Y0143168D01*
X0009045Y0143250D01*
X0009138Y0143334D01*
X0009228Y0143422D01*
X0009316Y0143512D01*
X0009400Y0143605D01*
X0009482Y0143700D01*
X0009561Y0143798D01*
X0009636Y0143899D01*
X0009708Y0144002D01*
X0009777Y0144107D01*
X0009843Y0144214D01*
X0009905Y0144323D01*
X0009964Y0144434D01*
X0010019Y0144547D01*
X0010071Y0144661D01*
X0010119Y0144778D01*
X0010164Y0144895D01*
X0010204Y0145014D01*
X0010241Y0145134D01*
X0010274Y0145255D01*
X0010304Y0145377D01*
X0010329Y0145500D01*
X0010351Y0145624D01*
X0010368Y0145749D01*
X0010382Y0145874D01*
X0010392Y0145999D01*
X0010398Y0146124D01*
X0010400Y0146250D01*
X0010398Y0146376D01*
X0010392Y0146501D01*
X0010382Y0146626D01*
X0010368Y0146751D01*
X0010351Y0146876D01*
X0010329Y0147000D01*
X0010304Y0147123D01*
X0010274Y0147245D01*
X0010241Y0147366D01*
X0010204Y0147486D01*
X0010164Y0147605D01*
X0010119Y0147722D01*
X0010071Y0147839D01*
X0010019Y0147953D01*
X0009964Y0148066D01*
X0009905Y0148177D01*
X0009843Y0148286D01*
X0009777Y0148393D01*
X0009708Y0148498D01*
X0009636Y0148601D01*
X0009561Y0148702D01*
X0009482Y0148800D01*
X0009400Y0148895D01*
X0009316Y0148988D01*
X0009228Y0149078D01*
X0009138Y0149166D01*
X0009045Y0149250D01*
X0008950Y0149332D01*
X0008852Y0149411D01*
X0008751Y0149486D01*
X0008648Y0149558D01*
X0008543Y0149627D01*
X0008436Y0149693D01*
X0008327Y0149755D01*
X0008216Y0149814D01*
X0008103Y0149869D01*
X0007989Y0149921D01*
X0007872Y0149969D01*
X0007755Y0150014D01*
X0007636Y0150054D01*
X0007516Y0150091D01*
X0007395Y0150124D01*
X0007273Y0150154D01*
X0007150Y0150179D01*
X0007026Y0150201D01*
X0006901Y0150218D01*
X0006776Y0150232D01*
X0006651Y0150242D01*
X0006526Y0150248D01*
X0006400Y0150250D01*
X0006400Y0157750D01*
X0046400Y0157750D01*
X0044900Y0117250D02*
X0044900Y0116250D01*
X0044400Y0115750D01*
X0044400Y0106750D01*
X0044900Y0106250D01*
X0044900Y0105250D01*
X0044898Y0105190D01*
X0044893Y0105129D01*
X0044884Y0105070D01*
X0044871Y0105011D01*
X0044855Y0104952D01*
X0044835Y0104895D01*
X0044812Y0104840D01*
X0044785Y0104785D01*
X0044756Y0104733D01*
X0044723Y0104682D01*
X0044687Y0104633D01*
X0044649Y0104587D01*
X0044607Y0104543D01*
X0044563Y0104501D01*
X0044517Y0104463D01*
X0044468Y0104427D01*
X0044417Y0104394D01*
X0044365Y0104365D01*
X0044310Y0104338D01*
X0044255Y0104315D01*
X0044198Y0104295D01*
X0044139Y0104279D01*
X0044080Y0104266D01*
X0044021Y0104257D01*
X0043960Y0104252D01*
X0043900Y0104250D01*
X0047113Y0099750D02*
X0047113Y0082750D01*
X0047115Y0082690D01*
X0047120Y0082629D01*
X0047129Y0082570D01*
X0047142Y0082511D01*
X0047158Y0082452D01*
X0047178Y0082395D01*
X0047201Y0082340D01*
X0047228Y0082285D01*
X0047257Y0082233D01*
X0047290Y0082182D01*
X0047326Y0082133D01*
X0047364Y0082087D01*
X0047406Y0082043D01*
X0047450Y0082001D01*
X0047496Y0081963D01*
X0047545Y0081927D01*
X0047596Y0081894D01*
X0047648Y0081865D01*
X0047703Y0081838D01*
X0047758Y0081815D01*
X0047815Y0081795D01*
X0047874Y0081779D01*
X0047933Y0081766D01*
X0047992Y0081757D01*
X0048053Y0081752D01*
X0048113Y0081750D01*
X0056113Y0081750D01*
X0056173Y0081752D01*
X0056234Y0081757D01*
X0056293Y0081766D01*
X0056352Y0081779D01*
X0056411Y0081795D01*
X0056468Y0081815D01*
X0056523Y0081838D01*
X0056578Y0081865D01*
X0056630Y0081894D01*
X0056681Y0081927D01*
X0056730Y0081963D01*
X0056776Y0082001D01*
X0056820Y0082043D01*
X0056862Y0082087D01*
X0056900Y0082133D01*
X0056936Y0082182D01*
X0056969Y0082233D01*
X0056998Y0082285D01*
X0057025Y0082340D01*
X0057048Y0082395D01*
X0057068Y0082452D01*
X0057084Y0082511D01*
X0057097Y0082570D01*
X0057106Y0082629D01*
X0057111Y0082690D01*
X0057113Y0082750D01*
X0057113Y0099750D01*
X0057111Y0099810D01*
X0057106Y0099871D01*
X0057097Y0099930D01*
X0057084Y0099989D01*
X0057068Y0100048D01*
X0057048Y0100105D01*
X0057025Y0100160D01*
X0056998Y0100215D01*
X0056969Y0100267D01*
X0056936Y0100318D01*
X0056900Y0100367D01*
X0056862Y0100413D01*
X0056820Y0100457D01*
X0056776Y0100499D01*
X0056730Y0100537D01*
X0056681Y0100573D01*
X0056630Y0100606D01*
X0056578Y0100635D01*
X0056523Y0100662D01*
X0056468Y0100685D01*
X0056411Y0100705D01*
X0056352Y0100721D01*
X0056293Y0100734D01*
X0056234Y0100743D01*
X0056173Y0100748D01*
X0056113Y0100750D01*
X0048113Y0100750D01*
X0048053Y0100748D01*
X0047992Y0100743D01*
X0047933Y0100734D01*
X0047874Y0100721D01*
X0047815Y0100705D01*
X0047758Y0100685D01*
X0047703Y0100662D01*
X0047648Y0100635D01*
X0047596Y0100606D01*
X0047545Y0100573D01*
X0047496Y0100537D01*
X0047450Y0100499D01*
X0047406Y0100457D01*
X0047364Y0100413D01*
X0047326Y0100367D01*
X0047290Y0100318D01*
X0047257Y0100267D01*
X0047228Y0100215D01*
X0047201Y0100160D01*
X0047178Y0100105D01*
X0047158Y0100048D01*
X0047142Y0099989D01*
X0047129Y0099930D01*
X0047120Y0099871D01*
X0047115Y0099810D01*
X0047113Y0099750D01*
X0052113Y0092750D02*
X0052113Y0092250D01*
X0052113Y0090250D02*
X0052113Y0089750D01*
X0056400Y0087250D02*
X0056526Y0087252D01*
X0056651Y0087258D01*
X0056776Y0087268D01*
X0056901Y0087282D01*
X0057026Y0087299D01*
X0057150Y0087321D01*
X0057273Y0087346D01*
X0057395Y0087376D01*
X0057516Y0087409D01*
X0057636Y0087446D01*
X0057755Y0087486D01*
X0057872Y0087531D01*
X0057989Y0087579D01*
X0058103Y0087631D01*
X0058216Y0087686D01*
X0058327Y0087745D01*
X0058436Y0087807D01*
X0058543Y0087873D01*
X0058648Y0087942D01*
X0058751Y0088014D01*
X0058852Y0088089D01*
X0058950Y0088168D01*
X0059045Y0088250D01*
X0059138Y0088334D01*
X0059228Y0088422D01*
X0059316Y0088512D01*
X0059400Y0088605D01*
X0059482Y0088700D01*
X0059561Y0088798D01*
X0059636Y0088899D01*
X0059708Y0089002D01*
X0059777Y0089107D01*
X0059843Y0089214D01*
X0059905Y0089323D01*
X0059964Y0089434D01*
X0060019Y0089547D01*
X0060071Y0089661D01*
X0060119Y0089778D01*
X0060164Y0089895D01*
X0060204Y0090014D01*
X0060241Y0090134D01*
X0060274Y0090255D01*
X0060304Y0090377D01*
X0060329Y0090500D01*
X0060351Y0090624D01*
X0060368Y0090749D01*
X0060382Y0090874D01*
X0060392Y0090999D01*
X0060398Y0091124D01*
X0060400Y0091250D01*
X0060398Y0091376D01*
X0060392Y0091501D01*
X0060382Y0091626D01*
X0060368Y0091751D01*
X0060351Y0091876D01*
X0060329Y0092000D01*
X0060304Y0092123D01*
X0060274Y0092245D01*
X0060241Y0092366D01*
X0060204Y0092486D01*
X0060164Y0092605D01*
X0060119Y0092722D01*
X0060071Y0092839D01*
X0060019Y0092953D01*
X0059964Y0093066D01*
X0059905Y0093177D01*
X0059843Y0093286D01*
X0059777Y0093393D01*
X0059708Y0093498D01*
X0059636Y0093601D01*
X0059561Y0093702D01*
X0059482Y0093800D01*
X0059400Y0093895D01*
X0059316Y0093988D01*
X0059228Y0094078D01*
X0059138Y0094166D01*
X0059045Y0094250D01*
X0058950Y0094332D01*
X0058852Y0094411D01*
X0058751Y0094486D01*
X0058648Y0094558D01*
X0058543Y0094627D01*
X0058436Y0094693D01*
X0058327Y0094755D01*
X0058216Y0094814D01*
X0058103Y0094869D01*
X0057989Y0094921D01*
X0057872Y0094969D01*
X0057755Y0095014D01*
X0057636Y0095054D01*
X0057516Y0095091D01*
X0057395Y0095124D01*
X0057273Y0095154D01*
X0057150Y0095179D01*
X0057026Y0095201D01*
X0056901Y0095218D01*
X0056776Y0095232D01*
X0056651Y0095242D01*
X0056526Y0095248D01*
X0056400Y0095250D01*
X0056400Y0102750D01*
X0126400Y0102750D01*
X0126400Y0079750D01*
X0056400Y0079750D01*
X0056400Y0087250D01*
X0061400Y0057750D02*
X0061400Y0050250D01*
X0061526Y0050248D01*
X0061651Y0050242D01*
X0061776Y0050232D01*
X0061901Y0050218D01*
X0062026Y0050201D01*
X0062150Y0050179D01*
X0062273Y0050154D01*
X0062395Y0050124D01*
X0062516Y0050091D01*
X0062636Y0050054D01*
X0062755Y0050014D01*
X0062872Y0049969D01*
X0062989Y0049921D01*
X0063103Y0049869D01*
X0063216Y0049814D01*
X0063327Y0049755D01*
X0063436Y0049693D01*
X0063543Y0049627D01*
X0063648Y0049558D01*
X0063751Y0049486D01*
X0063852Y0049411D01*
X0063950Y0049332D01*
X0064045Y0049250D01*
X0064138Y0049166D01*
X0064228Y0049078D01*
X0064316Y0048988D01*
X0064400Y0048895D01*
X0064482Y0048800D01*
X0064561Y0048702D01*
X0064636Y0048601D01*
X0064708Y0048498D01*
X0064777Y0048393D01*
X0064843Y0048286D01*
X0064905Y0048177D01*
X0064964Y0048066D01*
X0065019Y0047953D01*
X0065071Y0047839D01*
X0065119Y0047722D01*
X0065164Y0047605D01*
X0065204Y0047486D01*
X0065241Y0047366D01*
X0065274Y0047245D01*
X0065304Y0047123D01*
X0065329Y0047000D01*
X0065351Y0046876D01*
X0065368Y0046751D01*
X0065382Y0046626D01*
X0065392Y0046501D01*
X0065398Y0046376D01*
X0065400Y0046250D01*
X0065398Y0046124D01*
X0065392Y0045999D01*
X0065382Y0045874D01*
X0065368Y0045749D01*
X0065351Y0045624D01*
X0065329Y0045500D01*
X0065304Y0045377D01*
X0065274Y0045255D01*
X0065241Y0045134D01*
X0065204Y0045014D01*
X0065164Y0044895D01*
X0065119Y0044778D01*
X0065071Y0044661D01*
X0065019Y0044547D01*
X0064964Y0044434D01*
X0064905Y0044323D01*
X0064843Y0044214D01*
X0064777Y0044107D01*
X0064708Y0044002D01*
X0064636Y0043899D01*
X0064561Y0043798D01*
X0064482Y0043700D01*
X0064400Y0043605D01*
X0064316Y0043512D01*
X0064228Y0043422D01*
X0064138Y0043334D01*
X0064045Y0043250D01*
X0063950Y0043168D01*
X0063852Y0043089D01*
X0063751Y0043014D01*
X0063648Y0042942D01*
X0063543Y0042873D01*
X0063436Y0042807D01*
X0063327Y0042745D01*
X0063216Y0042686D01*
X0063103Y0042631D01*
X0062989Y0042579D01*
X0062872Y0042531D01*
X0062755Y0042486D01*
X0062636Y0042446D01*
X0062516Y0042409D01*
X0062395Y0042376D01*
X0062273Y0042346D01*
X0062150Y0042321D01*
X0062026Y0042299D01*
X0061901Y0042282D01*
X0061776Y0042268D01*
X0061651Y0042258D01*
X0061526Y0042252D01*
X0061400Y0042250D01*
X0061400Y0034750D01*
X0101400Y0034750D01*
X0101400Y0057750D01*
X0061400Y0057750D01*
X0046400Y0054750D02*
X0046400Y0037750D01*
X0046398Y0037690D01*
X0046393Y0037629D01*
X0046384Y0037570D01*
X0046371Y0037511D01*
X0046355Y0037452D01*
X0046335Y0037395D01*
X0046312Y0037340D01*
X0046285Y0037285D01*
X0046256Y0037233D01*
X0046223Y0037182D01*
X0046187Y0037133D01*
X0046149Y0037087D01*
X0046107Y0037043D01*
X0046063Y0037001D01*
X0046017Y0036963D01*
X0045968Y0036927D01*
X0045917Y0036894D01*
X0045865Y0036865D01*
X0045810Y0036838D01*
X0045755Y0036815D01*
X0045698Y0036795D01*
X0045639Y0036779D01*
X0045580Y0036766D01*
X0045521Y0036757D01*
X0045460Y0036752D01*
X0045400Y0036750D01*
X0037400Y0036750D01*
X0037340Y0036752D01*
X0037279Y0036757D01*
X0037220Y0036766D01*
X0037161Y0036779D01*
X0037102Y0036795D01*
X0037045Y0036815D01*
X0036990Y0036838D01*
X0036935Y0036865D01*
X0036883Y0036894D01*
X0036832Y0036927D01*
X0036783Y0036963D01*
X0036737Y0037001D01*
X0036693Y0037043D01*
X0036651Y0037087D01*
X0036613Y0037133D01*
X0036577Y0037182D01*
X0036544Y0037233D01*
X0036515Y0037285D01*
X0036488Y0037340D01*
X0036465Y0037395D01*
X0036445Y0037452D01*
X0036429Y0037511D01*
X0036416Y0037570D01*
X0036407Y0037629D01*
X0036402Y0037690D01*
X0036400Y0037750D01*
X0036400Y0054750D01*
X0036402Y0054810D01*
X0036407Y0054871D01*
X0036416Y0054930D01*
X0036429Y0054989D01*
X0036445Y0055048D01*
X0036465Y0055105D01*
X0036488Y0055160D01*
X0036515Y0055215D01*
X0036544Y0055267D01*
X0036577Y0055318D01*
X0036613Y0055367D01*
X0036651Y0055413D01*
X0036693Y0055457D01*
X0036737Y0055499D01*
X0036783Y0055537D01*
X0036832Y0055573D01*
X0036883Y0055606D01*
X0036935Y0055635D01*
X0036990Y0055662D01*
X0037045Y0055685D01*
X0037102Y0055705D01*
X0037161Y0055721D01*
X0037220Y0055734D01*
X0037279Y0055743D01*
X0037340Y0055748D01*
X0037400Y0055750D01*
X0045400Y0055750D01*
X0045460Y0055748D01*
X0045521Y0055743D01*
X0045580Y0055734D01*
X0045639Y0055721D01*
X0045698Y0055705D01*
X0045755Y0055685D01*
X0045810Y0055662D01*
X0045865Y0055635D01*
X0045917Y0055606D01*
X0045968Y0055573D01*
X0046017Y0055537D01*
X0046063Y0055499D01*
X0046107Y0055457D01*
X0046149Y0055413D01*
X0046187Y0055367D01*
X0046223Y0055318D01*
X0046256Y0055267D01*
X0046285Y0055215D01*
X0046312Y0055160D01*
X0046335Y0055105D01*
X0046355Y0055048D01*
X0046371Y0054989D01*
X0046384Y0054930D01*
X0046393Y0054871D01*
X0046398Y0054810D01*
X0046400Y0054750D01*
X0041400Y0047750D02*
X0041400Y0047250D01*
X0041400Y0045250D02*
X0041400Y0044750D01*
X0038900Y0104250D02*
X0038840Y0104252D01*
X0038779Y0104257D01*
X0038720Y0104266D01*
X0038661Y0104279D01*
X0038602Y0104295D01*
X0038545Y0104315D01*
X0038490Y0104338D01*
X0038435Y0104365D01*
X0038383Y0104394D01*
X0038332Y0104427D01*
X0038283Y0104463D01*
X0038237Y0104501D01*
X0038193Y0104543D01*
X0038151Y0104587D01*
X0038113Y0104633D01*
X0038077Y0104682D01*
X0038044Y0104733D01*
X0038015Y0104785D01*
X0037988Y0104840D01*
X0037965Y0104895D01*
X0037945Y0104952D01*
X0037929Y0105011D01*
X0037916Y0105070D01*
X0037907Y0105129D01*
X0037902Y0105190D01*
X0037900Y0105250D01*
X0037900Y0106250D01*
X0038400Y0106750D01*
X0038400Y0115750D01*
X0037900Y0116250D01*
X0037900Y0117250D01*
X0037902Y0117310D01*
X0037907Y0117371D01*
X0037916Y0117430D01*
X0037929Y0117489D01*
X0037945Y0117548D01*
X0037965Y0117605D01*
X0037988Y0117660D01*
X0038015Y0117715D01*
X0038044Y0117767D01*
X0038077Y0117818D01*
X0038113Y0117867D01*
X0038151Y0117913D01*
X0038193Y0117957D01*
X0038237Y0117999D01*
X0038283Y0118037D01*
X0038332Y0118073D01*
X0038383Y0118106D01*
X0038435Y0118135D01*
X0038490Y0118162D01*
X0038545Y0118185D01*
X0038602Y0118205D01*
X0038661Y0118221D01*
X0038720Y0118234D01*
X0038779Y0118243D01*
X0038840Y0118248D01*
X0038900Y0118250D01*
X0034900Y0117250D02*
X0034900Y0116250D01*
X0034400Y0115750D01*
X0034400Y0106750D01*
X0034900Y0106250D01*
X0034900Y0105250D01*
X0034898Y0105190D01*
X0034893Y0105129D01*
X0034884Y0105070D01*
X0034871Y0105011D01*
X0034855Y0104952D01*
X0034835Y0104895D01*
X0034812Y0104840D01*
X0034785Y0104785D01*
X0034756Y0104733D01*
X0034723Y0104682D01*
X0034687Y0104633D01*
X0034649Y0104587D01*
X0034607Y0104543D01*
X0034563Y0104501D01*
X0034517Y0104463D01*
X0034468Y0104427D01*
X0034417Y0104394D01*
X0034365Y0104365D01*
X0034310Y0104338D01*
X0034255Y0104315D01*
X0034198Y0104295D01*
X0034139Y0104279D01*
X0034080Y0104266D01*
X0034021Y0104257D01*
X0033960Y0104252D01*
X0033900Y0104250D01*
X0034900Y0117250D02*
X0034898Y0117310D01*
X0034893Y0117371D01*
X0034884Y0117430D01*
X0034871Y0117489D01*
X0034855Y0117548D01*
X0034835Y0117605D01*
X0034812Y0117660D01*
X0034785Y0117715D01*
X0034756Y0117767D01*
X0034723Y0117818D01*
X0034687Y0117867D01*
X0034649Y0117913D01*
X0034607Y0117957D01*
X0034563Y0117999D01*
X0034517Y0118037D01*
X0034468Y0118073D01*
X0034417Y0118106D01*
X0034365Y0118135D01*
X0034310Y0118162D01*
X0034255Y0118185D01*
X0034198Y0118205D01*
X0034139Y0118221D01*
X0034080Y0118234D01*
X0034021Y0118243D01*
X0033960Y0118248D01*
X0033900Y0118250D01*
X0028900Y0118250D02*
X0028840Y0118248D01*
X0028779Y0118243D01*
X0028720Y0118234D01*
X0028661Y0118221D01*
X0028602Y0118205D01*
X0028545Y0118185D01*
X0028490Y0118162D01*
X0028435Y0118135D01*
X0028383Y0118106D01*
X0028332Y0118073D01*
X0028283Y0118037D01*
X0028237Y0117999D01*
X0028193Y0117957D01*
X0028151Y0117913D01*
X0028113Y0117867D01*
X0028077Y0117818D01*
X0028044Y0117767D01*
X0028015Y0117715D01*
X0027988Y0117660D01*
X0027965Y0117605D01*
X0027945Y0117548D01*
X0027929Y0117489D01*
X0027916Y0117430D01*
X0027907Y0117371D01*
X0027902Y0117310D01*
X0027900Y0117250D01*
X0027900Y0116250D01*
X0028400Y0115750D01*
X0028400Y0106750D01*
X0027900Y0106250D01*
X0027900Y0105250D01*
X0027902Y0105190D01*
X0027907Y0105129D01*
X0027916Y0105070D01*
X0027929Y0105011D01*
X0027945Y0104952D01*
X0027965Y0104895D01*
X0027988Y0104840D01*
X0028015Y0104785D01*
X0028044Y0104733D01*
X0028077Y0104682D01*
X0028113Y0104633D01*
X0028151Y0104587D01*
X0028193Y0104543D01*
X0028237Y0104501D01*
X0028283Y0104463D01*
X0028332Y0104427D01*
X0028383Y0104394D01*
X0028435Y0104365D01*
X0028490Y0104338D01*
X0028545Y0104315D01*
X0028602Y0104295D01*
X0028661Y0104279D01*
X0028720Y0104266D01*
X0028779Y0104257D01*
X0028840Y0104252D01*
X0028900Y0104250D01*
X0024900Y0105250D02*
X0024900Y0106250D01*
X0024400Y0106750D01*
X0024400Y0115750D01*
X0024900Y0116250D01*
X0024900Y0117250D01*
X0024898Y0117310D01*
X0024893Y0117371D01*
X0024884Y0117430D01*
X0024871Y0117489D01*
X0024855Y0117548D01*
X0024835Y0117605D01*
X0024812Y0117660D01*
X0024785Y0117715D01*
X0024756Y0117767D01*
X0024723Y0117818D01*
X0024687Y0117867D01*
X0024649Y0117913D01*
X0024607Y0117957D01*
X0024563Y0117999D01*
X0024517Y0118037D01*
X0024468Y0118073D01*
X0024417Y0118106D01*
X0024365Y0118135D01*
X0024310Y0118162D01*
X0024255Y0118185D01*
X0024198Y0118205D01*
X0024139Y0118221D01*
X0024080Y0118234D01*
X0024021Y0118243D01*
X0023960Y0118248D01*
X0023900Y0118250D01*
X0024900Y0105250D02*
X0024898Y0105190D01*
X0024893Y0105129D01*
X0024884Y0105070D01*
X0024871Y0105011D01*
X0024855Y0104952D01*
X0024835Y0104895D01*
X0024812Y0104840D01*
X0024785Y0104785D01*
X0024756Y0104733D01*
X0024723Y0104682D01*
X0024687Y0104633D01*
X0024649Y0104587D01*
X0024607Y0104543D01*
X0024563Y0104501D01*
X0024517Y0104463D01*
X0024468Y0104427D01*
X0024417Y0104394D01*
X0024365Y0104365D01*
X0024310Y0104338D01*
X0024255Y0104315D01*
X0024198Y0104295D01*
X0024139Y0104279D01*
X0024080Y0104266D01*
X0024021Y0104257D01*
X0023960Y0104252D01*
X0023900Y0104250D01*
X0018900Y0104250D02*
X0018840Y0104252D01*
X0018779Y0104257D01*
X0018720Y0104266D01*
X0018661Y0104279D01*
X0018602Y0104295D01*
X0018545Y0104315D01*
X0018490Y0104338D01*
X0018435Y0104365D01*
X0018383Y0104394D01*
X0018332Y0104427D01*
X0018283Y0104463D01*
X0018237Y0104501D01*
X0018193Y0104543D01*
X0018151Y0104587D01*
X0018113Y0104633D01*
X0018077Y0104682D01*
X0018044Y0104733D01*
X0018015Y0104785D01*
X0017988Y0104840D01*
X0017965Y0104895D01*
X0017945Y0104952D01*
X0017929Y0105011D01*
X0017916Y0105070D01*
X0017907Y0105129D01*
X0017902Y0105190D01*
X0017900Y0105250D01*
X0017900Y0106250D01*
X0018400Y0106750D01*
X0018400Y0115750D01*
X0017900Y0116250D01*
X0017900Y0117250D01*
X0017902Y0117310D01*
X0017907Y0117371D01*
X0017916Y0117430D01*
X0017929Y0117489D01*
X0017945Y0117548D01*
X0017965Y0117605D01*
X0017988Y0117660D01*
X0018015Y0117715D01*
X0018044Y0117767D01*
X0018077Y0117818D01*
X0018113Y0117867D01*
X0018151Y0117913D01*
X0018193Y0117957D01*
X0018237Y0117999D01*
X0018283Y0118037D01*
X0018332Y0118073D01*
X0018383Y0118106D01*
X0018435Y0118135D01*
X0018490Y0118162D01*
X0018545Y0118185D01*
X0018602Y0118205D01*
X0018661Y0118221D01*
X0018720Y0118234D01*
X0018779Y0118243D01*
X0018840Y0118248D01*
X0018900Y0118250D01*
X0014900Y0117250D02*
X0014900Y0116250D01*
X0014400Y0115750D01*
X0014400Y0106750D01*
X0014900Y0106250D01*
X0014900Y0105250D01*
X0014898Y0105190D01*
X0014893Y0105129D01*
X0014884Y0105070D01*
X0014871Y0105011D01*
X0014855Y0104952D01*
X0014835Y0104895D01*
X0014812Y0104840D01*
X0014785Y0104785D01*
X0014756Y0104733D01*
X0014723Y0104682D01*
X0014687Y0104633D01*
X0014649Y0104587D01*
X0014607Y0104543D01*
X0014563Y0104501D01*
X0014517Y0104463D01*
X0014468Y0104427D01*
X0014417Y0104394D01*
X0014365Y0104365D01*
X0014310Y0104338D01*
X0014255Y0104315D01*
X0014198Y0104295D01*
X0014139Y0104279D01*
X0014080Y0104266D01*
X0014021Y0104257D01*
X0013960Y0104252D01*
X0013900Y0104250D01*
X0014900Y0117250D02*
X0014898Y0117310D01*
X0014893Y0117371D01*
X0014884Y0117430D01*
X0014871Y0117489D01*
X0014855Y0117548D01*
X0014835Y0117605D01*
X0014812Y0117660D01*
X0014785Y0117715D01*
X0014756Y0117767D01*
X0014723Y0117818D01*
X0014687Y0117867D01*
X0014649Y0117913D01*
X0014607Y0117957D01*
X0014563Y0117999D01*
X0014517Y0118037D01*
X0014468Y0118073D01*
X0014417Y0118106D01*
X0014365Y0118135D01*
X0014310Y0118162D01*
X0014255Y0118185D01*
X0014198Y0118205D01*
X0014139Y0118221D01*
X0014080Y0118234D01*
X0014021Y0118243D01*
X0013960Y0118248D01*
X0013900Y0118250D01*
X0008900Y0118250D02*
X0008840Y0118248D01*
X0008779Y0118243D01*
X0008720Y0118234D01*
X0008661Y0118221D01*
X0008602Y0118205D01*
X0008545Y0118185D01*
X0008490Y0118162D01*
X0008435Y0118135D01*
X0008383Y0118106D01*
X0008332Y0118073D01*
X0008283Y0118037D01*
X0008237Y0117999D01*
X0008193Y0117957D01*
X0008151Y0117913D01*
X0008113Y0117867D01*
X0008077Y0117818D01*
X0008044Y0117767D01*
X0008015Y0117715D01*
X0007988Y0117660D01*
X0007965Y0117605D01*
X0007945Y0117548D01*
X0007929Y0117489D01*
X0007916Y0117430D01*
X0007907Y0117371D01*
X0007902Y0117310D01*
X0007900Y0117250D01*
X0007900Y0116250D01*
X0008400Y0115750D01*
X0008400Y0106750D01*
X0007900Y0106250D01*
X0007900Y0105250D01*
X0007902Y0105190D01*
X0007907Y0105129D01*
X0007916Y0105070D01*
X0007929Y0105011D01*
X0007945Y0104952D01*
X0007965Y0104895D01*
X0007988Y0104840D01*
X0008015Y0104785D01*
X0008044Y0104733D01*
X0008077Y0104682D01*
X0008113Y0104633D01*
X0008151Y0104587D01*
X0008193Y0104543D01*
X0008237Y0104501D01*
X0008283Y0104463D01*
X0008332Y0104427D01*
X0008383Y0104394D01*
X0008435Y0104365D01*
X0008490Y0104338D01*
X0008545Y0104315D01*
X0008602Y0104295D01*
X0008661Y0104279D01*
X0008720Y0104266D01*
X0008779Y0104257D01*
X0008840Y0104252D01*
X0008900Y0104250D01*
X0043900Y0118250D02*
X0043960Y0118248D01*
X0044021Y0118243D01*
X0044080Y0118234D01*
X0044139Y0118221D01*
X0044198Y0118205D01*
X0044255Y0118185D01*
X0044310Y0118162D01*
X0044365Y0118135D01*
X0044417Y0118106D01*
X0044468Y0118073D01*
X0044517Y0118037D01*
X0044563Y0117999D01*
X0044607Y0117957D01*
X0044649Y0117913D01*
X0044687Y0117867D01*
X0044723Y0117818D01*
X0044756Y0117767D01*
X0044785Y0117715D01*
X0044812Y0117660D01*
X0044835Y0117605D01*
X0044855Y0117548D01*
X0044871Y0117489D01*
X0044884Y0117430D01*
X0044893Y0117371D01*
X0044898Y0117310D01*
X0044900Y0117250D01*
X0101400Y0054750D02*
X0101400Y0037750D01*
X0101402Y0037690D01*
X0101407Y0037629D01*
X0101416Y0037570D01*
X0101429Y0037511D01*
X0101445Y0037452D01*
X0101465Y0037395D01*
X0101488Y0037340D01*
X0101515Y0037285D01*
X0101544Y0037233D01*
X0101577Y0037182D01*
X0101613Y0037133D01*
X0101651Y0037087D01*
X0101693Y0037043D01*
X0101737Y0037001D01*
X0101783Y0036963D01*
X0101832Y0036927D01*
X0101883Y0036894D01*
X0101935Y0036865D01*
X0101990Y0036838D01*
X0102045Y0036815D01*
X0102102Y0036795D01*
X0102161Y0036779D01*
X0102220Y0036766D01*
X0102279Y0036757D01*
X0102340Y0036752D01*
X0102400Y0036750D01*
X0110400Y0036750D01*
X0110460Y0036752D01*
X0110521Y0036757D01*
X0110580Y0036766D01*
X0110639Y0036779D01*
X0110698Y0036795D01*
X0110755Y0036815D01*
X0110810Y0036838D01*
X0110865Y0036865D01*
X0110917Y0036894D01*
X0110968Y0036927D01*
X0111017Y0036963D01*
X0111063Y0037001D01*
X0111107Y0037043D01*
X0111149Y0037087D01*
X0111187Y0037133D01*
X0111223Y0037182D01*
X0111256Y0037233D01*
X0111285Y0037285D01*
X0111312Y0037340D01*
X0111335Y0037395D01*
X0111355Y0037452D01*
X0111371Y0037511D01*
X0111384Y0037570D01*
X0111393Y0037629D01*
X0111398Y0037690D01*
X0111400Y0037750D01*
X0111400Y0054750D01*
X0111398Y0054810D01*
X0111393Y0054871D01*
X0111384Y0054930D01*
X0111371Y0054989D01*
X0111355Y0055048D01*
X0111335Y0055105D01*
X0111312Y0055160D01*
X0111285Y0055215D01*
X0111256Y0055267D01*
X0111223Y0055318D01*
X0111187Y0055367D01*
X0111149Y0055413D01*
X0111107Y0055457D01*
X0111063Y0055499D01*
X0111017Y0055537D01*
X0110968Y0055573D01*
X0110917Y0055606D01*
X0110865Y0055635D01*
X0110810Y0055662D01*
X0110755Y0055685D01*
X0110698Y0055705D01*
X0110639Y0055721D01*
X0110580Y0055734D01*
X0110521Y0055743D01*
X0110460Y0055748D01*
X0110400Y0055750D01*
X0102400Y0055750D01*
X0102340Y0055748D01*
X0102279Y0055743D01*
X0102220Y0055734D01*
X0102161Y0055721D01*
X0102102Y0055705D01*
X0102045Y0055685D01*
X0101990Y0055662D01*
X0101935Y0055635D01*
X0101883Y0055606D01*
X0101832Y0055573D01*
X0101783Y0055537D01*
X0101737Y0055499D01*
X0101693Y0055457D01*
X0101651Y0055413D01*
X0101613Y0055367D01*
X0101577Y0055318D01*
X0101544Y0055267D01*
X0101515Y0055215D01*
X0101488Y0055160D01*
X0101465Y0055105D01*
X0101445Y0055048D01*
X0101429Y0054989D01*
X0101416Y0054930D01*
X0101407Y0054871D01*
X0101402Y0054810D01*
X0101400Y0054750D01*
X0106400Y0047750D02*
X0106400Y0047250D01*
X0106400Y0045250D02*
X0106400Y0044750D01*
X0121400Y0311250D02*
X0091400Y0311250D01*
X0091400Y0312250D01*
X0091400Y0320250D02*
X0091400Y0322250D01*
X0091400Y0330250D02*
X0091400Y0332250D01*
X0091400Y0340250D02*
X0091400Y0342250D01*
X0091400Y0350250D02*
X0091400Y0351250D01*
X0121400Y0351250D01*
X0121400Y0350250D01*
X0121400Y0342250D02*
X0121400Y0340250D01*
X0121400Y0332250D02*
X0121400Y0330250D01*
X0121400Y0322250D02*
X0121400Y0320250D01*
X0121400Y0312250D02*
X0121400Y0311250D01*
X0066400Y0315250D02*
X0066248Y0315252D01*
X0066097Y0315258D01*
X0065946Y0315267D01*
X0065794Y0315281D01*
X0065644Y0315298D01*
X0065494Y0315319D01*
X0065344Y0315344D01*
X0065195Y0315372D01*
X0065047Y0315405D01*
X0064900Y0315441D01*
X0064753Y0315480D01*
X0064608Y0315524D01*
X0064464Y0315571D01*
X0064321Y0315622D01*
X0064180Y0315676D01*
X0064039Y0315734D01*
X0063901Y0315795D01*
X0063764Y0315860D01*
X0063628Y0315929D01*
X0063495Y0316000D01*
X0063363Y0316075D01*
X0063233Y0316154D01*
X0063106Y0316235D01*
X0062980Y0316320D01*
X0062856Y0316408D01*
X0062735Y0316499D01*
X0062616Y0316593D01*
X0062500Y0316691D01*
X0062386Y0316791D01*
X0062274Y0316893D01*
X0062166Y0316999D01*
X0062060Y0317107D01*
X0061956Y0317218D01*
X0061856Y0317332D01*
X0061758Y0317448D01*
X0061664Y0317567D01*
X0066400Y0327250D02*
X0066554Y0327248D01*
X0066708Y0327242D01*
X0066862Y0327232D01*
X0067016Y0327218D01*
X0067169Y0327201D01*
X0067321Y0327179D01*
X0067473Y0327153D01*
X0067625Y0327124D01*
X0067775Y0327090D01*
X0067925Y0327053D01*
X0068073Y0327012D01*
X0068221Y0326967D01*
X0068367Y0326918D01*
X0068512Y0326866D01*
X0068655Y0326810D01*
X0068798Y0326750D01*
X0068938Y0326687D01*
X0069077Y0326620D01*
X0069214Y0326549D01*
X0069349Y0326475D01*
X0069482Y0326398D01*
X0069614Y0326317D01*
X0069743Y0326233D01*
X0069870Y0326145D01*
X0069994Y0326054D01*
X0070116Y0325961D01*
X0070236Y0325863D01*
X0070353Y0325763D01*
X0070468Y0325660D01*
X0070580Y0325554D01*
X0070689Y0325446D01*
X0070795Y0325334D01*
X0070899Y0325220D01*
X0070999Y0325103D01*
X0071097Y0324984D01*
X0071191Y0324862D01*
X0071282Y0324737D01*
X0066400Y0327250D02*
X0066250Y0327248D01*
X0066099Y0327242D01*
X0065949Y0327233D01*
X0065800Y0327220D01*
X0065650Y0327203D01*
X0065501Y0327182D01*
X0065353Y0327158D01*
X0065205Y0327130D01*
X0065058Y0327098D01*
X0064912Y0327063D01*
X0064767Y0327023D01*
X0064623Y0326981D01*
X0064480Y0326934D01*
X0064338Y0326884D01*
X0064197Y0326831D01*
X0064058Y0326774D01*
X0063920Y0326714D01*
X0063784Y0326650D01*
X0063650Y0326583D01*
X0063517Y0326512D01*
X0063386Y0326438D01*
X0063257Y0326361D01*
X0063130Y0326280D01*
X0063005Y0326197D01*
X0062882Y0326110D01*
X0062761Y0326021D01*
X0062643Y0325928D01*
X0062527Y0325832D01*
X0062413Y0325734D01*
X0062302Y0325633D01*
X0062193Y0325528D01*
X0062088Y0325422D01*
X0061984Y0325312D01*
X0061884Y0325200D01*
X0061786Y0325086D01*
X0061692Y0324969D01*
X0061600Y0324850D01*
X0066400Y0315250D02*
X0066552Y0315252D01*
X0066703Y0315258D01*
X0066854Y0315267D01*
X0067006Y0315281D01*
X0067156Y0315298D01*
X0067306Y0315319D01*
X0067456Y0315344D01*
X0067605Y0315372D01*
X0067753Y0315405D01*
X0067900Y0315441D01*
X0068047Y0315480D01*
X0068192Y0315524D01*
X0068336Y0315571D01*
X0068479Y0315622D01*
X0068620Y0315676D01*
X0068761Y0315734D01*
X0068899Y0315795D01*
X0069036Y0315860D01*
X0069172Y0315929D01*
X0069305Y0316000D01*
X0069437Y0316075D01*
X0069567Y0316154D01*
X0069694Y0316235D01*
X0069820Y0316320D01*
X0069944Y0316408D01*
X0070065Y0316499D01*
X0070184Y0316593D01*
X0070300Y0316691D01*
X0070414Y0316791D01*
X0070526Y0316893D01*
X0070634Y0316999D01*
X0070740Y0317107D01*
X0070844Y0317218D01*
X0070944Y0317332D01*
X0071042Y0317448D01*
X0071136Y0317567D01*
X0066400Y0330250D02*
X0066248Y0330252D01*
X0066097Y0330258D01*
X0065946Y0330267D01*
X0065794Y0330281D01*
X0065644Y0330298D01*
X0065494Y0330319D01*
X0065344Y0330344D01*
X0065195Y0330372D01*
X0065047Y0330405D01*
X0064900Y0330441D01*
X0064753Y0330480D01*
X0064608Y0330524D01*
X0064464Y0330571D01*
X0064321Y0330622D01*
X0064180Y0330676D01*
X0064039Y0330734D01*
X0063901Y0330795D01*
X0063764Y0330860D01*
X0063628Y0330929D01*
X0063495Y0331000D01*
X0063363Y0331075D01*
X0063233Y0331154D01*
X0063106Y0331235D01*
X0062980Y0331320D01*
X0062856Y0331408D01*
X0062735Y0331499D01*
X0062616Y0331593D01*
X0062500Y0331691D01*
X0062386Y0331791D01*
X0062274Y0331893D01*
X0062166Y0331999D01*
X0062060Y0332107D01*
X0061956Y0332218D01*
X0061856Y0332332D01*
X0061758Y0332448D01*
X0061664Y0332567D01*
X0066400Y0342250D02*
X0066554Y0342248D01*
X0066708Y0342242D01*
X0066862Y0342232D01*
X0067016Y0342218D01*
X0067169Y0342201D01*
X0067321Y0342179D01*
X0067473Y0342153D01*
X0067625Y0342124D01*
X0067775Y0342090D01*
X0067925Y0342053D01*
X0068073Y0342012D01*
X0068221Y0341967D01*
X0068367Y0341918D01*
X0068512Y0341866D01*
X0068655Y0341810D01*
X0068798Y0341750D01*
X0068938Y0341687D01*
X0069077Y0341620D01*
X0069214Y0341549D01*
X0069349Y0341475D01*
X0069482Y0341398D01*
X0069614Y0341317D01*
X0069743Y0341233D01*
X0069870Y0341145D01*
X0069994Y0341054D01*
X0070116Y0340961D01*
X0070236Y0340863D01*
X0070353Y0340763D01*
X0070468Y0340660D01*
X0070580Y0340554D01*
X0070689Y0340446D01*
X0070795Y0340334D01*
X0070899Y0340220D01*
X0070999Y0340103D01*
X0071097Y0339984D01*
X0071191Y0339862D01*
X0071282Y0339737D01*
X0066400Y0342250D02*
X0066250Y0342248D01*
X0066099Y0342242D01*
X0065949Y0342233D01*
X0065800Y0342220D01*
X0065650Y0342203D01*
X0065501Y0342182D01*
X0065353Y0342158D01*
X0065205Y0342130D01*
X0065058Y0342098D01*
X0064912Y0342063D01*
X0064767Y0342023D01*
X0064623Y0341981D01*
X0064480Y0341934D01*
X0064338Y0341884D01*
X0064197Y0341831D01*
X0064058Y0341774D01*
X0063920Y0341714D01*
X0063784Y0341650D01*
X0063650Y0341583D01*
X0063517Y0341512D01*
X0063386Y0341438D01*
X0063257Y0341361D01*
X0063130Y0341280D01*
X0063005Y0341197D01*
X0062882Y0341110D01*
X0062761Y0341021D01*
X0062643Y0340928D01*
X0062527Y0340832D01*
X0062413Y0340734D01*
X0062302Y0340633D01*
X0062193Y0340528D01*
X0062088Y0340422D01*
X0061984Y0340312D01*
X0061884Y0340200D01*
X0061786Y0340086D01*
X0061692Y0339969D01*
X0061600Y0339850D01*
X0066400Y0330250D02*
X0066552Y0330252D01*
X0066703Y0330258D01*
X0066854Y0330267D01*
X0067006Y0330281D01*
X0067156Y0330298D01*
X0067306Y0330319D01*
X0067456Y0330344D01*
X0067605Y0330372D01*
X0067753Y0330405D01*
X0067900Y0330441D01*
X0068047Y0330480D01*
X0068192Y0330524D01*
X0068336Y0330571D01*
X0068479Y0330622D01*
X0068620Y0330676D01*
X0068761Y0330734D01*
X0068899Y0330795D01*
X0069036Y0330860D01*
X0069172Y0330929D01*
X0069305Y0331000D01*
X0069437Y0331075D01*
X0069567Y0331154D01*
X0069694Y0331235D01*
X0069820Y0331320D01*
X0069944Y0331408D01*
X0070065Y0331499D01*
X0070184Y0331593D01*
X0070300Y0331691D01*
X0070414Y0331791D01*
X0070526Y0331893D01*
X0070634Y0331999D01*
X0070740Y0332107D01*
X0070844Y0332218D01*
X0070944Y0332332D01*
X0071042Y0332448D01*
X0071136Y0332567D01*
X0066400Y0345250D02*
X0066248Y0345252D01*
X0066097Y0345258D01*
X0065946Y0345267D01*
X0065794Y0345281D01*
X0065644Y0345298D01*
X0065494Y0345319D01*
X0065344Y0345344D01*
X0065195Y0345372D01*
X0065047Y0345405D01*
X0064900Y0345441D01*
X0064753Y0345480D01*
X0064608Y0345524D01*
X0064464Y0345571D01*
X0064321Y0345622D01*
X0064180Y0345676D01*
X0064039Y0345734D01*
X0063901Y0345795D01*
X0063764Y0345860D01*
X0063628Y0345929D01*
X0063495Y0346000D01*
X0063363Y0346075D01*
X0063233Y0346154D01*
X0063106Y0346235D01*
X0062980Y0346320D01*
X0062856Y0346408D01*
X0062735Y0346499D01*
X0062616Y0346593D01*
X0062500Y0346691D01*
X0062386Y0346791D01*
X0062274Y0346893D01*
X0062166Y0346999D01*
X0062060Y0347107D01*
X0061956Y0347218D01*
X0061856Y0347332D01*
X0061758Y0347448D01*
X0061664Y0347567D01*
X0066400Y0357250D02*
X0066554Y0357248D01*
X0066708Y0357242D01*
X0066862Y0357232D01*
X0067016Y0357218D01*
X0067169Y0357201D01*
X0067321Y0357179D01*
X0067473Y0357153D01*
X0067625Y0357124D01*
X0067775Y0357090D01*
X0067925Y0357053D01*
X0068073Y0357012D01*
X0068221Y0356967D01*
X0068367Y0356918D01*
X0068512Y0356866D01*
X0068655Y0356810D01*
X0068798Y0356750D01*
X0068938Y0356687D01*
X0069077Y0356620D01*
X0069214Y0356549D01*
X0069349Y0356475D01*
X0069482Y0356398D01*
X0069614Y0356317D01*
X0069743Y0356233D01*
X0069870Y0356145D01*
X0069994Y0356054D01*
X0070116Y0355961D01*
X0070236Y0355863D01*
X0070353Y0355763D01*
X0070468Y0355660D01*
X0070580Y0355554D01*
X0070689Y0355446D01*
X0070795Y0355334D01*
X0070899Y0355220D01*
X0070999Y0355103D01*
X0071097Y0354984D01*
X0071191Y0354862D01*
X0071282Y0354737D01*
X0066400Y0357250D02*
X0066250Y0357248D01*
X0066099Y0357242D01*
X0065949Y0357233D01*
X0065800Y0357220D01*
X0065650Y0357203D01*
X0065501Y0357182D01*
X0065353Y0357158D01*
X0065205Y0357130D01*
X0065058Y0357098D01*
X0064912Y0357063D01*
X0064767Y0357023D01*
X0064623Y0356981D01*
X0064480Y0356934D01*
X0064338Y0356884D01*
X0064197Y0356831D01*
X0064058Y0356774D01*
X0063920Y0356714D01*
X0063784Y0356650D01*
X0063650Y0356583D01*
X0063517Y0356512D01*
X0063386Y0356438D01*
X0063257Y0356361D01*
X0063130Y0356280D01*
X0063005Y0356197D01*
X0062882Y0356110D01*
X0062761Y0356021D01*
X0062643Y0355928D01*
X0062527Y0355832D01*
X0062413Y0355734D01*
X0062302Y0355633D01*
X0062193Y0355528D01*
X0062088Y0355422D01*
X0061984Y0355312D01*
X0061884Y0355200D01*
X0061786Y0355086D01*
X0061692Y0354969D01*
X0061600Y0354850D01*
X0066400Y0345250D02*
X0066552Y0345252D01*
X0066703Y0345258D01*
X0066854Y0345267D01*
X0067006Y0345281D01*
X0067156Y0345298D01*
X0067306Y0345319D01*
X0067456Y0345344D01*
X0067605Y0345372D01*
X0067753Y0345405D01*
X0067900Y0345441D01*
X0068047Y0345480D01*
X0068192Y0345524D01*
X0068336Y0345571D01*
X0068479Y0345622D01*
X0068620Y0345676D01*
X0068761Y0345734D01*
X0068899Y0345795D01*
X0069036Y0345860D01*
X0069172Y0345929D01*
X0069305Y0346000D01*
X0069437Y0346075D01*
X0069567Y0346154D01*
X0069694Y0346235D01*
X0069820Y0346320D01*
X0069944Y0346408D01*
X0070065Y0346499D01*
X0070184Y0346593D01*
X0070300Y0346691D01*
X0070414Y0346791D01*
X0070526Y0346893D01*
X0070634Y0346999D01*
X0070740Y0347107D01*
X0070844Y0347218D01*
X0070944Y0347332D01*
X0071042Y0347448D01*
X0071136Y0347567D01*
X0066400Y0360250D02*
X0066248Y0360252D01*
X0066097Y0360258D01*
X0065946Y0360267D01*
X0065794Y0360281D01*
X0065644Y0360298D01*
X0065494Y0360319D01*
X0065344Y0360344D01*
X0065195Y0360372D01*
X0065047Y0360405D01*
X0064900Y0360441D01*
X0064753Y0360480D01*
X0064608Y0360524D01*
X0064464Y0360571D01*
X0064321Y0360622D01*
X0064180Y0360676D01*
X0064039Y0360734D01*
X0063901Y0360795D01*
X0063764Y0360860D01*
X0063628Y0360929D01*
X0063495Y0361000D01*
X0063363Y0361075D01*
X0063233Y0361154D01*
X0063106Y0361235D01*
X0062980Y0361320D01*
X0062856Y0361408D01*
X0062735Y0361499D01*
X0062616Y0361593D01*
X0062500Y0361691D01*
X0062386Y0361791D01*
X0062274Y0361893D01*
X0062166Y0361999D01*
X0062060Y0362107D01*
X0061956Y0362218D01*
X0061856Y0362332D01*
X0061758Y0362448D01*
X0061664Y0362567D01*
X0066400Y0372250D02*
X0066554Y0372248D01*
X0066708Y0372242D01*
X0066862Y0372232D01*
X0067016Y0372218D01*
X0067169Y0372201D01*
X0067321Y0372179D01*
X0067473Y0372153D01*
X0067625Y0372124D01*
X0067775Y0372090D01*
X0067925Y0372053D01*
X0068073Y0372012D01*
X0068221Y0371967D01*
X0068367Y0371918D01*
X0068512Y0371866D01*
X0068655Y0371810D01*
X0068798Y0371750D01*
X0068938Y0371687D01*
X0069077Y0371620D01*
X0069214Y0371549D01*
X0069349Y0371475D01*
X0069482Y0371398D01*
X0069614Y0371317D01*
X0069743Y0371233D01*
X0069870Y0371145D01*
X0069994Y0371054D01*
X0070116Y0370961D01*
X0070236Y0370863D01*
X0070353Y0370763D01*
X0070468Y0370660D01*
X0070580Y0370554D01*
X0070689Y0370446D01*
X0070795Y0370334D01*
X0070899Y0370220D01*
X0070999Y0370103D01*
X0071097Y0369984D01*
X0071191Y0369862D01*
X0071282Y0369737D01*
X0066400Y0372250D02*
X0066250Y0372248D01*
X0066099Y0372242D01*
X0065949Y0372233D01*
X0065800Y0372220D01*
X0065650Y0372203D01*
X0065501Y0372182D01*
X0065353Y0372158D01*
X0065205Y0372130D01*
X0065058Y0372098D01*
X0064912Y0372063D01*
X0064767Y0372023D01*
X0064623Y0371981D01*
X0064480Y0371934D01*
X0064338Y0371884D01*
X0064197Y0371831D01*
X0064058Y0371774D01*
X0063920Y0371714D01*
X0063784Y0371650D01*
X0063650Y0371583D01*
X0063517Y0371512D01*
X0063386Y0371438D01*
X0063257Y0371361D01*
X0063130Y0371280D01*
X0063005Y0371197D01*
X0062882Y0371110D01*
X0062761Y0371021D01*
X0062643Y0370928D01*
X0062527Y0370832D01*
X0062413Y0370734D01*
X0062302Y0370633D01*
X0062193Y0370528D01*
X0062088Y0370422D01*
X0061984Y0370312D01*
X0061884Y0370200D01*
X0061786Y0370086D01*
X0061692Y0369969D01*
X0061600Y0369850D01*
X0066400Y0360250D02*
X0066552Y0360252D01*
X0066703Y0360258D01*
X0066854Y0360267D01*
X0067006Y0360281D01*
X0067156Y0360298D01*
X0067306Y0360319D01*
X0067456Y0360344D01*
X0067605Y0360372D01*
X0067753Y0360405D01*
X0067900Y0360441D01*
X0068047Y0360480D01*
X0068192Y0360524D01*
X0068336Y0360571D01*
X0068479Y0360622D01*
X0068620Y0360676D01*
X0068761Y0360734D01*
X0068899Y0360795D01*
X0069036Y0360860D01*
X0069172Y0360929D01*
X0069305Y0361000D01*
X0069437Y0361075D01*
X0069567Y0361154D01*
X0069694Y0361235D01*
X0069820Y0361320D01*
X0069944Y0361408D01*
X0070065Y0361499D01*
X0070184Y0361593D01*
X0070300Y0361691D01*
X0070414Y0361791D01*
X0070526Y0361893D01*
X0070634Y0361999D01*
X0070740Y0362107D01*
X0070844Y0362218D01*
X0070944Y0362332D01*
X0071042Y0362448D01*
X0071136Y0362567D01*
D12*
X0066400Y0374250D02*
X0066208Y0374248D01*
X0066016Y0374241D01*
X0065824Y0374229D01*
X0065632Y0374213D01*
X0065441Y0374192D01*
X0065251Y0374167D01*
X0065061Y0374137D01*
X0064872Y0374103D01*
X0064684Y0374064D01*
X0064497Y0374020D01*
X0064311Y0373972D01*
X0064126Y0373920D01*
X0063942Y0373863D01*
X0063760Y0373802D01*
X0063580Y0373736D01*
X0063401Y0373666D01*
X0063223Y0373592D01*
X0063048Y0373514D01*
X0062874Y0373431D01*
X0062703Y0373344D01*
X0062534Y0373254D01*
X0062367Y0373159D01*
X0062202Y0373060D01*
X0062039Y0372957D01*
X0061880Y0372850D01*
X0061722Y0372740D01*
X0061568Y0372626D01*
X0061416Y0372508D01*
X0061267Y0372386D01*
X0061121Y0372261D01*
X0060979Y0372133D01*
X0060839Y0372001D01*
X0060702Y0371866D01*
X0060569Y0371727D01*
X0060439Y0371586D01*
X0060313Y0371441D01*
X0060190Y0371293D01*
X0060071Y0371143D01*
X0059955Y0370989D01*
X0059843Y0370833D01*
X0059735Y0370674D01*
X0059630Y0370513D01*
X0059530Y0370349D01*
X0059434Y0370183D01*
X0059341Y0370015D01*
X0059454Y0362281D02*
X0059553Y0362112D01*
X0059657Y0361946D01*
X0059764Y0361782D01*
X0059875Y0361621D01*
X0059990Y0361463D01*
X0060109Y0361308D01*
X0060232Y0361155D01*
X0060358Y0361006D01*
X0060488Y0360860D01*
X0060622Y0360717D01*
X0060759Y0360577D01*
X0060899Y0360441D01*
X0061043Y0360308D01*
X0061190Y0360179D01*
X0061340Y0360053D01*
X0061493Y0359932D01*
X0061649Y0359813D01*
X0061808Y0359699D01*
X0061969Y0359589D01*
X0062134Y0359483D01*
X0062300Y0359380D01*
X0062470Y0359282D01*
X0062641Y0359188D01*
X0062815Y0359098D01*
X0062991Y0359013D01*
X0063169Y0358931D01*
X0063349Y0358855D01*
X0063531Y0358782D01*
X0063714Y0358714D01*
X0063899Y0358651D01*
X0064086Y0358592D01*
X0064274Y0358538D01*
X0064463Y0358488D01*
X0064653Y0358443D01*
X0064845Y0358403D01*
X0065037Y0358367D01*
X0065230Y0358336D01*
X0065424Y0358310D01*
X0065619Y0358288D01*
X0065814Y0358272D01*
X0066009Y0358260D01*
X0066205Y0358252D01*
X0066400Y0358250D01*
X0059454Y0347281D02*
X0059553Y0347112D01*
X0059657Y0346946D01*
X0059764Y0346782D01*
X0059875Y0346621D01*
X0059990Y0346463D01*
X0060109Y0346308D01*
X0060232Y0346155D01*
X0060358Y0346006D01*
X0060488Y0345860D01*
X0060622Y0345717D01*
X0060759Y0345577D01*
X0060899Y0345441D01*
X0061043Y0345308D01*
X0061190Y0345179D01*
X0061340Y0345053D01*
X0061493Y0344932D01*
X0061649Y0344813D01*
X0061808Y0344699D01*
X0061969Y0344589D01*
X0062134Y0344483D01*
X0062300Y0344380D01*
X0062470Y0344282D01*
X0062641Y0344188D01*
X0062815Y0344098D01*
X0062991Y0344013D01*
X0063169Y0343931D01*
X0063349Y0343855D01*
X0063531Y0343782D01*
X0063714Y0343714D01*
X0063899Y0343651D01*
X0064086Y0343592D01*
X0064274Y0343538D01*
X0064463Y0343488D01*
X0064653Y0343443D01*
X0064845Y0343403D01*
X0065037Y0343367D01*
X0065230Y0343336D01*
X0065424Y0343310D01*
X0065619Y0343288D01*
X0065814Y0343272D01*
X0066009Y0343260D01*
X0066205Y0343252D01*
X0066400Y0343250D01*
X0059454Y0332281D02*
X0059553Y0332112D01*
X0059657Y0331946D01*
X0059764Y0331782D01*
X0059875Y0331621D01*
X0059990Y0331463D01*
X0060109Y0331308D01*
X0060232Y0331155D01*
X0060358Y0331006D01*
X0060488Y0330860D01*
X0060622Y0330717D01*
X0060759Y0330577D01*
X0060899Y0330441D01*
X0061043Y0330308D01*
X0061190Y0330179D01*
X0061340Y0330053D01*
X0061493Y0329932D01*
X0061649Y0329813D01*
X0061808Y0329699D01*
X0061969Y0329589D01*
X0062134Y0329483D01*
X0062300Y0329380D01*
X0062470Y0329282D01*
X0062641Y0329188D01*
X0062815Y0329098D01*
X0062991Y0329013D01*
X0063169Y0328931D01*
X0063349Y0328855D01*
X0063531Y0328782D01*
X0063714Y0328714D01*
X0063899Y0328651D01*
X0064086Y0328592D01*
X0064274Y0328538D01*
X0064463Y0328488D01*
X0064653Y0328443D01*
X0064845Y0328403D01*
X0065037Y0328367D01*
X0065230Y0328336D01*
X0065424Y0328310D01*
X0065619Y0328288D01*
X0065814Y0328272D01*
X0066009Y0328260D01*
X0066205Y0328252D01*
X0066400Y0328250D01*
X0059454Y0317281D02*
X0059553Y0317112D01*
X0059657Y0316946D01*
X0059764Y0316782D01*
X0059875Y0316621D01*
X0059990Y0316463D01*
X0060109Y0316308D01*
X0060232Y0316155D01*
X0060358Y0316006D01*
X0060488Y0315860D01*
X0060622Y0315717D01*
X0060759Y0315577D01*
X0060899Y0315441D01*
X0061043Y0315308D01*
X0061190Y0315179D01*
X0061340Y0315053D01*
X0061493Y0314932D01*
X0061649Y0314813D01*
X0061808Y0314699D01*
X0061969Y0314589D01*
X0062134Y0314483D01*
X0062300Y0314380D01*
X0062470Y0314282D01*
X0062641Y0314188D01*
X0062815Y0314098D01*
X0062991Y0314013D01*
X0063169Y0313931D01*
X0063349Y0313855D01*
X0063531Y0313782D01*
X0063714Y0313714D01*
X0063899Y0313651D01*
X0064086Y0313592D01*
X0064274Y0313538D01*
X0064463Y0313488D01*
X0064653Y0313443D01*
X0064845Y0313403D01*
X0065037Y0313367D01*
X0065230Y0313336D01*
X0065424Y0313310D01*
X0065619Y0313288D01*
X0065814Y0313272D01*
X0066009Y0313260D01*
X0066205Y0313252D01*
X0066400Y0313250D01*
X0059341Y0325015D02*
X0059434Y0325183D01*
X0059530Y0325349D01*
X0059630Y0325513D01*
X0059735Y0325674D01*
X0059843Y0325833D01*
X0059955Y0325989D01*
X0060071Y0326143D01*
X0060190Y0326293D01*
X0060313Y0326441D01*
X0060439Y0326586D01*
X0060569Y0326727D01*
X0060702Y0326866D01*
X0060839Y0327001D01*
X0060979Y0327133D01*
X0061121Y0327261D01*
X0061267Y0327386D01*
X0061416Y0327508D01*
X0061568Y0327626D01*
X0061722Y0327740D01*
X0061880Y0327850D01*
X0062039Y0327957D01*
X0062202Y0328060D01*
X0062367Y0328159D01*
X0062534Y0328254D01*
X0062703Y0328344D01*
X0062874Y0328431D01*
X0063048Y0328514D01*
X0063223Y0328592D01*
X0063401Y0328666D01*
X0063580Y0328736D01*
X0063760Y0328802D01*
X0063942Y0328863D01*
X0064126Y0328920D01*
X0064311Y0328972D01*
X0064497Y0329020D01*
X0064684Y0329064D01*
X0064872Y0329103D01*
X0065061Y0329137D01*
X0065251Y0329167D01*
X0065441Y0329192D01*
X0065632Y0329213D01*
X0065824Y0329229D01*
X0066016Y0329241D01*
X0066208Y0329248D01*
X0066400Y0329250D01*
X0059341Y0340015D02*
X0059434Y0340183D01*
X0059530Y0340349D01*
X0059630Y0340513D01*
X0059735Y0340674D01*
X0059843Y0340833D01*
X0059955Y0340989D01*
X0060071Y0341143D01*
X0060190Y0341293D01*
X0060313Y0341441D01*
X0060439Y0341586D01*
X0060569Y0341727D01*
X0060702Y0341866D01*
X0060839Y0342001D01*
X0060979Y0342133D01*
X0061121Y0342261D01*
X0061267Y0342386D01*
X0061416Y0342508D01*
X0061568Y0342626D01*
X0061722Y0342740D01*
X0061880Y0342850D01*
X0062039Y0342957D01*
X0062202Y0343060D01*
X0062367Y0343159D01*
X0062534Y0343254D01*
X0062703Y0343344D01*
X0062874Y0343431D01*
X0063048Y0343514D01*
X0063223Y0343592D01*
X0063401Y0343666D01*
X0063580Y0343736D01*
X0063760Y0343802D01*
X0063942Y0343863D01*
X0064126Y0343920D01*
X0064311Y0343972D01*
X0064497Y0344020D01*
X0064684Y0344064D01*
X0064872Y0344103D01*
X0065061Y0344137D01*
X0065251Y0344167D01*
X0065441Y0344192D01*
X0065632Y0344213D01*
X0065824Y0344229D01*
X0066016Y0344241D01*
X0066208Y0344248D01*
X0066400Y0344250D01*
X0059341Y0355015D02*
X0059434Y0355183D01*
X0059530Y0355349D01*
X0059630Y0355513D01*
X0059735Y0355674D01*
X0059843Y0355833D01*
X0059955Y0355989D01*
X0060071Y0356143D01*
X0060190Y0356293D01*
X0060313Y0356441D01*
X0060439Y0356586D01*
X0060569Y0356727D01*
X0060702Y0356866D01*
X0060839Y0357001D01*
X0060979Y0357133D01*
X0061121Y0357261D01*
X0061267Y0357386D01*
X0061416Y0357508D01*
X0061568Y0357626D01*
X0061722Y0357740D01*
X0061880Y0357850D01*
X0062039Y0357957D01*
X0062202Y0358060D01*
X0062367Y0358159D01*
X0062534Y0358254D01*
X0062703Y0358344D01*
X0062874Y0358431D01*
X0063048Y0358514D01*
X0063223Y0358592D01*
X0063401Y0358666D01*
X0063580Y0358736D01*
X0063760Y0358802D01*
X0063942Y0358863D01*
X0064126Y0358920D01*
X0064311Y0358972D01*
X0064497Y0359020D01*
X0064684Y0359064D01*
X0064872Y0359103D01*
X0065061Y0359137D01*
X0065251Y0359167D01*
X0065441Y0359192D01*
X0065632Y0359213D01*
X0065824Y0359229D01*
X0066016Y0359241D01*
X0066208Y0359248D01*
X0066400Y0359250D01*
X0066400Y0358250D02*
X0066593Y0358252D01*
X0066786Y0358259D01*
X0066978Y0358271D01*
X0067171Y0358287D01*
X0067363Y0358308D01*
X0067554Y0358334D01*
X0067744Y0358364D01*
X0067934Y0358399D01*
X0068123Y0358438D01*
X0068311Y0358482D01*
X0068498Y0358530D01*
X0068684Y0358583D01*
X0068868Y0358640D01*
X0069051Y0358702D01*
X0069232Y0358768D01*
X0069412Y0358839D01*
X0069590Y0358913D01*
X0069766Y0358992D01*
X0069940Y0359076D01*
X0070112Y0359163D01*
X0070282Y0359255D01*
X0070449Y0359351D01*
X0070615Y0359450D01*
X0070778Y0359554D01*
X0070938Y0359661D01*
X0071095Y0359773D01*
X0071250Y0359888D01*
X0071402Y0360007D01*
X0071551Y0360129D01*
X0071698Y0360255D01*
X0071841Y0360385D01*
X0071981Y0360518D01*
X0072117Y0360654D01*
X0072251Y0360794D01*
X0072380Y0360936D01*
X0072507Y0361082D01*
X0072546Y0371372D02*
X0072419Y0371520D01*
X0072289Y0371665D01*
X0072156Y0371806D01*
X0072019Y0371945D01*
X0071879Y0372080D01*
X0071735Y0372211D01*
X0071588Y0372339D01*
X0071439Y0372464D01*
X0071286Y0372585D01*
X0071131Y0372702D01*
X0070972Y0372815D01*
X0070811Y0372924D01*
X0070647Y0373029D01*
X0070481Y0373131D01*
X0070312Y0373228D01*
X0070142Y0373321D01*
X0069968Y0373410D01*
X0069793Y0373495D01*
X0069616Y0373575D01*
X0069437Y0373651D01*
X0069256Y0373723D01*
X0069073Y0373790D01*
X0068889Y0373853D01*
X0068703Y0373911D01*
X0068516Y0373965D01*
X0068328Y0374014D01*
X0068138Y0374059D01*
X0067948Y0374099D01*
X0067756Y0374134D01*
X0067564Y0374165D01*
X0067371Y0374191D01*
X0067177Y0374212D01*
X0066983Y0374229D01*
X0066789Y0374241D01*
X0066595Y0374248D01*
X0066400Y0374250D01*
X0072507Y0346082D02*
X0072380Y0345936D01*
X0072251Y0345794D01*
X0072117Y0345654D01*
X0071981Y0345518D01*
X0071841Y0345385D01*
X0071698Y0345255D01*
X0071551Y0345129D01*
X0071402Y0345007D01*
X0071250Y0344888D01*
X0071095Y0344773D01*
X0070938Y0344661D01*
X0070778Y0344554D01*
X0070615Y0344450D01*
X0070449Y0344351D01*
X0070282Y0344255D01*
X0070112Y0344163D01*
X0069940Y0344076D01*
X0069766Y0343992D01*
X0069590Y0343913D01*
X0069412Y0343839D01*
X0069232Y0343768D01*
X0069051Y0343702D01*
X0068868Y0343640D01*
X0068684Y0343583D01*
X0068498Y0343530D01*
X0068311Y0343482D01*
X0068123Y0343438D01*
X0067934Y0343399D01*
X0067744Y0343364D01*
X0067554Y0343334D01*
X0067363Y0343308D01*
X0067171Y0343287D01*
X0066978Y0343271D01*
X0066786Y0343259D01*
X0066593Y0343252D01*
X0066400Y0343250D01*
X0072507Y0331082D02*
X0072380Y0330936D01*
X0072251Y0330794D01*
X0072117Y0330654D01*
X0071981Y0330518D01*
X0071841Y0330385D01*
X0071698Y0330255D01*
X0071551Y0330129D01*
X0071402Y0330007D01*
X0071250Y0329888D01*
X0071095Y0329773D01*
X0070938Y0329661D01*
X0070778Y0329554D01*
X0070615Y0329450D01*
X0070449Y0329351D01*
X0070282Y0329255D01*
X0070112Y0329163D01*
X0069940Y0329076D01*
X0069766Y0328992D01*
X0069590Y0328913D01*
X0069412Y0328839D01*
X0069232Y0328768D01*
X0069051Y0328702D01*
X0068868Y0328640D01*
X0068684Y0328583D01*
X0068498Y0328530D01*
X0068311Y0328482D01*
X0068123Y0328438D01*
X0067934Y0328399D01*
X0067744Y0328364D01*
X0067554Y0328334D01*
X0067363Y0328308D01*
X0067171Y0328287D01*
X0066978Y0328271D01*
X0066786Y0328259D01*
X0066593Y0328252D01*
X0066400Y0328250D01*
X0072507Y0316082D02*
X0072380Y0315936D01*
X0072251Y0315794D01*
X0072117Y0315654D01*
X0071981Y0315518D01*
X0071841Y0315385D01*
X0071698Y0315255D01*
X0071551Y0315129D01*
X0071402Y0315007D01*
X0071250Y0314888D01*
X0071095Y0314773D01*
X0070938Y0314661D01*
X0070778Y0314554D01*
X0070615Y0314450D01*
X0070449Y0314351D01*
X0070282Y0314255D01*
X0070112Y0314163D01*
X0069940Y0314076D01*
X0069766Y0313992D01*
X0069590Y0313913D01*
X0069412Y0313839D01*
X0069232Y0313768D01*
X0069051Y0313702D01*
X0068868Y0313640D01*
X0068684Y0313583D01*
X0068498Y0313530D01*
X0068311Y0313482D01*
X0068123Y0313438D01*
X0067934Y0313399D01*
X0067744Y0313364D01*
X0067554Y0313334D01*
X0067363Y0313308D01*
X0067171Y0313287D01*
X0066978Y0313271D01*
X0066786Y0313259D01*
X0066593Y0313252D01*
X0066400Y0313250D01*
X0072546Y0326372D02*
X0072419Y0326520D01*
X0072289Y0326665D01*
X0072156Y0326806D01*
X0072019Y0326945D01*
X0071879Y0327080D01*
X0071735Y0327211D01*
X0071588Y0327339D01*
X0071439Y0327464D01*
X0071286Y0327585D01*
X0071131Y0327702D01*
X0070972Y0327815D01*
X0070811Y0327924D01*
X0070647Y0328029D01*
X0070481Y0328131D01*
X0070312Y0328228D01*
X0070142Y0328321D01*
X0069968Y0328410D01*
X0069793Y0328495D01*
X0069616Y0328575D01*
X0069437Y0328651D01*
X0069256Y0328723D01*
X0069073Y0328790D01*
X0068889Y0328853D01*
X0068703Y0328911D01*
X0068516Y0328965D01*
X0068328Y0329014D01*
X0068138Y0329059D01*
X0067948Y0329099D01*
X0067756Y0329134D01*
X0067564Y0329165D01*
X0067371Y0329191D01*
X0067177Y0329212D01*
X0066983Y0329229D01*
X0066789Y0329241D01*
X0066595Y0329248D01*
X0066400Y0329250D01*
X0072546Y0341372D02*
X0072419Y0341520D01*
X0072289Y0341665D01*
X0072156Y0341806D01*
X0072019Y0341945D01*
X0071879Y0342080D01*
X0071735Y0342211D01*
X0071588Y0342339D01*
X0071439Y0342464D01*
X0071286Y0342585D01*
X0071131Y0342702D01*
X0070972Y0342815D01*
X0070811Y0342924D01*
X0070647Y0343029D01*
X0070481Y0343131D01*
X0070312Y0343228D01*
X0070142Y0343321D01*
X0069968Y0343410D01*
X0069793Y0343495D01*
X0069616Y0343575D01*
X0069437Y0343651D01*
X0069256Y0343723D01*
X0069073Y0343790D01*
X0068889Y0343853D01*
X0068703Y0343911D01*
X0068516Y0343965D01*
X0068328Y0344014D01*
X0068138Y0344059D01*
X0067948Y0344099D01*
X0067756Y0344134D01*
X0067564Y0344165D01*
X0067371Y0344191D01*
X0067177Y0344212D01*
X0066983Y0344229D01*
X0066789Y0344241D01*
X0066595Y0344248D01*
X0066400Y0344250D01*
X0072546Y0356372D02*
X0072419Y0356520D01*
X0072289Y0356665D01*
X0072156Y0356806D01*
X0072019Y0356945D01*
X0071879Y0357080D01*
X0071735Y0357211D01*
X0071588Y0357339D01*
X0071439Y0357464D01*
X0071286Y0357585D01*
X0071131Y0357702D01*
X0070972Y0357815D01*
X0070811Y0357924D01*
X0070647Y0358029D01*
X0070481Y0358131D01*
X0070312Y0358228D01*
X0070142Y0358321D01*
X0069968Y0358410D01*
X0069793Y0358495D01*
X0069616Y0358575D01*
X0069437Y0358651D01*
X0069256Y0358723D01*
X0069073Y0358790D01*
X0068889Y0358853D01*
X0068703Y0358911D01*
X0068516Y0358965D01*
X0068328Y0359014D01*
X0068138Y0359059D01*
X0067948Y0359099D01*
X0067756Y0359134D01*
X0067564Y0359165D01*
X0067371Y0359191D01*
X0067177Y0359212D01*
X0066983Y0359229D01*
X0066789Y0359241D01*
X0066595Y0359248D01*
X0066400Y0359250D01*
X0101400Y0348750D02*
X0101400Y0343750D01*
X0108900Y0343750D01*
X0110100Y0343750D01*
X0111400Y0343750D01*
X0111400Y0348750D01*
X0110100Y0348750D01*
X0108900Y0348750D01*
X0101400Y0348750D01*
X0101400Y0338750D02*
X0108900Y0338750D01*
X0108900Y0333750D01*
X0110100Y0333750D01*
X0111400Y0333750D01*
X0111400Y0338750D01*
X0110100Y0338750D01*
X0108900Y0338750D01*
X0110100Y0338750D02*
X0110100Y0333750D01*
X0108900Y0333750D02*
X0101400Y0333750D01*
X0101400Y0338750D01*
X0101400Y0328750D02*
X0108900Y0328750D01*
X0108900Y0323750D01*
X0110100Y0323750D01*
X0111400Y0323750D01*
X0111400Y0328750D01*
X0110100Y0328750D01*
X0108900Y0328750D01*
X0110100Y0328750D02*
X0110100Y0323750D01*
X0108900Y0323750D02*
X0101400Y0323750D01*
X0101400Y0328750D01*
X0101400Y0318750D02*
X0108900Y0318750D01*
X0108900Y0313750D01*
X0110100Y0313750D01*
X0111400Y0313750D01*
X0111400Y0318750D01*
X0110100Y0318750D01*
X0108900Y0318750D01*
X0110100Y0318750D02*
X0110100Y0313750D01*
X0108900Y0313750D02*
X0101400Y0313750D01*
X0101400Y0318750D01*
X0108900Y0343750D02*
X0108900Y0348750D01*
X0110100Y0348750D02*
X0110100Y0343750D01*
X0055113Y0092250D02*
X0052113Y0092250D01*
X0049113Y0092250D01*
X0049113Y0090250D02*
X0052113Y0090250D01*
X0055113Y0090250D01*
X0044400Y0047250D02*
X0041400Y0047250D01*
X0038400Y0047250D01*
X0038400Y0045250D02*
X0041400Y0045250D01*
X0044400Y0045250D01*
X0103400Y0045250D02*
X0106400Y0045250D01*
X0109400Y0045250D01*
X0109400Y0047250D02*
X0106400Y0047250D01*
X0103400Y0047250D01*
D13*
X0105300Y0032275D02*
X0105300Y0031542D01*
X0105300Y0030713D02*
X0105300Y0030225D01*
X0105302Y0030182D01*
X0105307Y0030140D01*
X0105317Y0030098D01*
X0105329Y0030058D01*
X0105346Y0030018D01*
X0105366Y0029980D01*
X0105388Y0029945D01*
X0105414Y0029911D01*
X0105443Y0029879D01*
X0105475Y0029850D01*
X0105509Y0029824D01*
X0105545Y0029802D01*
X0105582Y0029782D01*
X0105622Y0029765D01*
X0105662Y0029753D01*
X0105704Y0029743D01*
X0105746Y0029738D01*
X0105789Y0029736D01*
X0107011Y0029736D01*
X0107054Y0029738D01*
X0107096Y0029743D01*
X0107138Y0029753D01*
X0107178Y0029765D01*
X0107218Y0029782D01*
X0107256Y0029802D01*
X0107291Y0029824D01*
X0107325Y0029850D01*
X0107357Y0029879D01*
X0107386Y0029911D01*
X0107412Y0029945D01*
X0107434Y0029981D01*
X0107454Y0030018D01*
X0107471Y0030058D01*
X0107483Y0030098D01*
X0107493Y0030140D01*
X0107498Y0030182D01*
X0107500Y0030225D01*
X0107500Y0030713D01*
X0107500Y0031542D02*
X0107500Y0032153D01*
X0107498Y0032201D01*
X0107492Y0032249D01*
X0107483Y0032296D01*
X0107470Y0032342D01*
X0107453Y0032387D01*
X0107433Y0032430D01*
X0107410Y0032472D01*
X0107383Y0032512D01*
X0107354Y0032550D01*
X0107321Y0032585D01*
X0107286Y0032618D01*
X0107248Y0032647D01*
X0107208Y0032674D01*
X0107166Y0032697D01*
X0107123Y0032717D01*
X0107078Y0032734D01*
X0107032Y0032747D01*
X0106985Y0032756D01*
X0106937Y0032762D01*
X0106889Y0032764D01*
X0106841Y0032762D01*
X0106793Y0032756D01*
X0106746Y0032747D01*
X0106700Y0032734D01*
X0106655Y0032717D01*
X0106612Y0032697D01*
X0106570Y0032674D01*
X0106530Y0032647D01*
X0106492Y0032618D01*
X0106457Y0032585D01*
X0106424Y0032550D01*
X0106395Y0032512D01*
X0106368Y0032472D01*
X0106345Y0032430D01*
X0106325Y0032387D01*
X0106308Y0032342D01*
X0106295Y0032296D01*
X0106286Y0032249D01*
X0106280Y0032201D01*
X0106278Y0032153D01*
X0106278Y0032275D02*
X0106278Y0031787D01*
X0106278Y0032275D02*
X0106276Y0032318D01*
X0106271Y0032360D01*
X0106261Y0032402D01*
X0106249Y0032442D01*
X0106232Y0032482D01*
X0106212Y0032520D01*
X0106190Y0032555D01*
X0106164Y0032589D01*
X0106135Y0032621D01*
X0106103Y0032650D01*
X0106069Y0032676D01*
X0106034Y0032698D01*
X0105996Y0032718D01*
X0105956Y0032735D01*
X0105916Y0032747D01*
X0105874Y0032757D01*
X0105832Y0032762D01*
X0105789Y0032764D01*
X0105746Y0032762D01*
X0105704Y0032757D01*
X0105662Y0032747D01*
X0105622Y0032735D01*
X0105582Y0032718D01*
X0105545Y0032698D01*
X0105509Y0032676D01*
X0105475Y0032650D01*
X0105443Y0032621D01*
X0105414Y0032589D01*
X0105388Y0032555D01*
X0105366Y0032520D01*
X0105346Y0032482D01*
X0105329Y0032442D01*
X0105317Y0032402D01*
X0105307Y0032360D01*
X0105302Y0032318D01*
X0105300Y0032275D01*
X0071889Y0043479D02*
X0070911Y0043479D01*
X0070863Y0043481D01*
X0070815Y0043487D01*
X0070768Y0043496D01*
X0070722Y0043509D01*
X0070677Y0043526D01*
X0070634Y0043546D01*
X0070592Y0043569D01*
X0070552Y0043596D01*
X0070514Y0043625D01*
X0070479Y0043658D01*
X0070446Y0043693D01*
X0070417Y0043731D01*
X0070390Y0043771D01*
X0070367Y0043813D01*
X0070347Y0043856D01*
X0070330Y0043901D01*
X0070317Y0043947D01*
X0070308Y0043994D01*
X0070302Y0044042D01*
X0070300Y0044090D01*
X0070302Y0044138D01*
X0070308Y0044186D01*
X0070317Y0044233D01*
X0070330Y0044279D01*
X0070347Y0044324D01*
X0070367Y0044367D01*
X0070390Y0044409D01*
X0070417Y0044449D01*
X0070446Y0044487D01*
X0070479Y0044522D01*
X0070514Y0044555D01*
X0070552Y0044584D01*
X0070592Y0044611D01*
X0070634Y0044634D01*
X0070677Y0044654D01*
X0070722Y0044671D01*
X0070768Y0044684D01*
X0070815Y0044693D01*
X0070863Y0044699D01*
X0070911Y0044701D01*
X0071889Y0044701D01*
X0071937Y0044699D01*
X0071985Y0044693D01*
X0072032Y0044684D01*
X0072078Y0044671D01*
X0072123Y0044654D01*
X0072166Y0044634D01*
X0072208Y0044611D01*
X0072248Y0044584D01*
X0072286Y0044555D01*
X0072321Y0044522D01*
X0072354Y0044487D01*
X0072383Y0044449D01*
X0072410Y0044409D01*
X0072433Y0044367D01*
X0072453Y0044324D01*
X0072470Y0044279D01*
X0072483Y0044233D01*
X0072492Y0044186D01*
X0072498Y0044138D01*
X0072500Y0044090D01*
X0072498Y0044042D01*
X0072492Y0043994D01*
X0072483Y0043947D01*
X0072470Y0043901D01*
X0072453Y0043856D01*
X0072433Y0043813D01*
X0072410Y0043771D01*
X0072383Y0043731D01*
X0072354Y0043693D01*
X0072321Y0043658D01*
X0072286Y0043625D01*
X0072248Y0043596D01*
X0072208Y0043569D01*
X0072166Y0043546D01*
X0072123Y0043526D01*
X0072078Y0043509D01*
X0072032Y0043496D01*
X0071985Y0043487D01*
X0071937Y0043481D01*
X0071889Y0043479D01*
X0071644Y0045744D02*
X0070300Y0046966D01*
X0070789Y0047799D02*
X0070300Y0048410D01*
X0072500Y0048410D01*
X0072500Y0047799D02*
X0072500Y0049021D01*
X0072500Y0046966D02*
X0071156Y0046232D01*
X0070300Y0045744D02*
X0072500Y0045744D01*
X0068248Y0089058D02*
X0068248Y0089547D01*
X0068248Y0089303D02*
X0066048Y0089303D01*
X0066048Y0089547D02*
X0066048Y0089058D01*
X0066537Y0090413D02*
X0067759Y0090413D01*
X0067802Y0090415D01*
X0067844Y0090420D01*
X0067886Y0090430D01*
X0067926Y0090442D01*
X0067966Y0090459D01*
X0068004Y0090479D01*
X0068039Y0090501D01*
X0068073Y0090527D01*
X0068105Y0090556D01*
X0068134Y0090588D01*
X0068160Y0090622D01*
X0068182Y0090658D01*
X0068202Y0090695D01*
X0068219Y0090735D01*
X0068231Y0090775D01*
X0068241Y0090817D01*
X0068246Y0090859D01*
X0068248Y0090902D01*
X0068248Y0091391D01*
X0068248Y0092220D02*
X0068248Y0093442D01*
X0068248Y0092831D02*
X0066048Y0092831D01*
X0066537Y0092220D01*
X0066048Y0091391D02*
X0066048Y0090902D01*
X0066050Y0090859D01*
X0066055Y0090817D01*
X0066065Y0090775D01*
X0066077Y0090735D01*
X0066094Y0090695D01*
X0066114Y0090657D01*
X0066136Y0090622D01*
X0066162Y0090588D01*
X0066191Y0090556D01*
X0066223Y0090527D01*
X0066257Y0090501D01*
X0066293Y0090479D01*
X0066330Y0090459D01*
X0066370Y0090442D01*
X0066410Y0090430D01*
X0066452Y0090420D01*
X0066494Y0090415D01*
X0066537Y0090413D01*
X0052500Y0144058D02*
X0052500Y0144547D01*
X0052500Y0144303D02*
X0050300Y0144303D01*
X0050300Y0144547D02*
X0050300Y0144058D01*
X0050789Y0145413D02*
X0052011Y0145413D01*
X0052054Y0145415D01*
X0052096Y0145420D01*
X0052138Y0145430D01*
X0052178Y0145442D01*
X0052218Y0145459D01*
X0052256Y0145479D01*
X0052291Y0145501D01*
X0052325Y0145527D01*
X0052357Y0145556D01*
X0052386Y0145588D01*
X0052412Y0145622D01*
X0052434Y0145658D01*
X0052454Y0145695D01*
X0052471Y0145735D01*
X0052483Y0145775D01*
X0052493Y0145817D01*
X0052498Y0145859D01*
X0052500Y0145902D01*
X0052500Y0146391D01*
X0052500Y0147220D02*
X0052500Y0147831D01*
X0052498Y0147879D01*
X0052492Y0147927D01*
X0052483Y0147974D01*
X0052470Y0148020D01*
X0052453Y0148065D01*
X0052433Y0148108D01*
X0052410Y0148150D01*
X0052383Y0148190D01*
X0052354Y0148228D01*
X0052321Y0148263D01*
X0052286Y0148296D01*
X0052248Y0148325D01*
X0052208Y0148352D01*
X0052166Y0148375D01*
X0052123Y0148395D01*
X0052078Y0148412D01*
X0052032Y0148425D01*
X0051985Y0148434D01*
X0051937Y0148440D01*
X0051889Y0148442D01*
X0051841Y0148440D01*
X0051793Y0148434D01*
X0051746Y0148425D01*
X0051700Y0148412D01*
X0051655Y0148395D01*
X0051612Y0148375D01*
X0051570Y0148352D01*
X0051530Y0148325D01*
X0051492Y0148296D01*
X0051457Y0148263D01*
X0051424Y0148228D01*
X0051395Y0148190D01*
X0051368Y0148150D01*
X0051345Y0148108D01*
X0051325Y0148065D01*
X0051308Y0148020D01*
X0051295Y0147974D01*
X0051286Y0147927D01*
X0051280Y0147879D01*
X0051278Y0147831D01*
X0051278Y0147953D02*
X0051278Y0147464D01*
X0051278Y0147953D02*
X0051276Y0147996D01*
X0051271Y0148038D01*
X0051261Y0148080D01*
X0051249Y0148120D01*
X0051232Y0148160D01*
X0051212Y0148198D01*
X0051190Y0148233D01*
X0051164Y0148267D01*
X0051135Y0148299D01*
X0051103Y0148328D01*
X0051069Y0148354D01*
X0051034Y0148376D01*
X0050996Y0148396D01*
X0050956Y0148413D01*
X0050916Y0148425D01*
X0050874Y0148435D01*
X0050832Y0148440D01*
X0050789Y0148442D01*
X0050746Y0148440D01*
X0050704Y0148435D01*
X0050662Y0148425D01*
X0050622Y0148413D01*
X0050582Y0148396D01*
X0050545Y0148376D01*
X0050509Y0148354D01*
X0050475Y0148328D01*
X0050443Y0148299D01*
X0050414Y0148267D01*
X0050388Y0148233D01*
X0050366Y0148198D01*
X0050346Y0148160D01*
X0050329Y0148120D01*
X0050317Y0148080D01*
X0050307Y0148038D01*
X0050302Y0147996D01*
X0050300Y0147953D01*
X0050300Y0147220D01*
X0050300Y0146391D02*
X0050300Y0145902D01*
X0050302Y0145859D01*
X0050307Y0145817D01*
X0050317Y0145775D01*
X0050329Y0145735D01*
X0050346Y0145695D01*
X0050366Y0145657D01*
X0050388Y0145622D01*
X0050414Y0145588D01*
X0050443Y0145556D01*
X0050475Y0145527D01*
X0050509Y0145501D01*
X0050545Y0145479D01*
X0050582Y0145459D01*
X0050622Y0145442D01*
X0050662Y0145430D01*
X0050704Y0145420D01*
X0050746Y0145415D01*
X0050789Y0145413D01*
X0037500Y0112567D02*
X0036522Y0112567D01*
X0037011Y0112934D02*
X0037011Y0111712D01*
X0035300Y0112201D01*
X0035300Y0110177D02*
X0035300Y0109566D01*
X0037500Y0109566D01*
X0036522Y0109566D02*
X0036522Y0110177D01*
X0036522Y0110299D02*
X0037500Y0110788D01*
X0036522Y0110177D02*
X0036520Y0110225D01*
X0036514Y0110273D01*
X0036505Y0110320D01*
X0036492Y0110366D01*
X0036475Y0110411D01*
X0036455Y0110454D01*
X0036432Y0110496D01*
X0036405Y0110536D01*
X0036376Y0110574D01*
X0036343Y0110609D01*
X0036308Y0110642D01*
X0036270Y0110671D01*
X0036230Y0110698D01*
X0036188Y0110721D01*
X0036145Y0110741D01*
X0036100Y0110758D01*
X0036054Y0110771D01*
X0036007Y0110780D01*
X0035959Y0110786D01*
X0035911Y0110788D01*
X0035863Y0110786D01*
X0035815Y0110780D01*
X0035768Y0110771D01*
X0035722Y0110758D01*
X0035677Y0110741D01*
X0035634Y0110721D01*
X0035592Y0110698D01*
X0035552Y0110671D01*
X0035514Y0110642D01*
X0035479Y0110609D01*
X0035446Y0110574D01*
X0035417Y0110536D01*
X0035390Y0110496D01*
X0035367Y0110454D01*
X0035347Y0110411D01*
X0035330Y0110366D01*
X0035317Y0110320D01*
X0035308Y0110273D01*
X0035302Y0110225D01*
X0035300Y0110177D01*
X0027500Y0109566D02*
X0025300Y0109566D01*
X0025300Y0110177D01*
X0025302Y0110225D01*
X0025308Y0110273D01*
X0025317Y0110320D01*
X0025330Y0110366D01*
X0025347Y0110411D01*
X0025367Y0110454D01*
X0025390Y0110496D01*
X0025417Y0110536D01*
X0025446Y0110574D01*
X0025479Y0110609D01*
X0025514Y0110642D01*
X0025552Y0110671D01*
X0025592Y0110698D01*
X0025634Y0110721D01*
X0025677Y0110741D01*
X0025722Y0110758D01*
X0025768Y0110771D01*
X0025815Y0110780D01*
X0025863Y0110786D01*
X0025911Y0110788D01*
X0025959Y0110786D01*
X0026007Y0110780D01*
X0026054Y0110771D01*
X0026100Y0110758D01*
X0026145Y0110741D01*
X0026188Y0110721D01*
X0026230Y0110698D01*
X0026270Y0110671D01*
X0026308Y0110642D01*
X0026343Y0110609D01*
X0026376Y0110574D01*
X0026405Y0110536D01*
X0026432Y0110496D01*
X0026455Y0110454D01*
X0026475Y0110411D01*
X0026492Y0110366D01*
X0026505Y0110320D01*
X0026514Y0110273D01*
X0026520Y0110225D01*
X0026522Y0110177D01*
X0026522Y0109566D01*
X0026522Y0110299D02*
X0027500Y0110788D01*
X0027500Y0111712D02*
X0027500Y0112323D01*
X0027498Y0112371D01*
X0027492Y0112419D01*
X0027483Y0112466D01*
X0027470Y0112512D01*
X0027453Y0112557D01*
X0027433Y0112600D01*
X0027410Y0112642D01*
X0027383Y0112682D01*
X0027354Y0112720D01*
X0027321Y0112755D01*
X0027286Y0112788D01*
X0027248Y0112817D01*
X0027208Y0112844D01*
X0027166Y0112867D01*
X0027123Y0112887D01*
X0027078Y0112904D01*
X0027032Y0112917D01*
X0026985Y0112926D01*
X0026937Y0112932D01*
X0026889Y0112934D01*
X0026841Y0112932D01*
X0026793Y0112926D01*
X0026746Y0112917D01*
X0026700Y0112904D01*
X0026655Y0112887D01*
X0026612Y0112867D01*
X0026570Y0112844D01*
X0026530Y0112817D01*
X0026492Y0112788D01*
X0026457Y0112755D01*
X0026424Y0112720D01*
X0026395Y0112682D01*
X0026368Y0112642D01*
X0026345Y0112600D01*
X0026325Y0112557D01*
X0026308Y0112512D01*
X0026295Y0112466D01*
X0026286Y0112419D01*
X0026280Y0112371D01*
X0026278Y0112323D01*
X0026278Y0112445D02*
X0026278Y0111956D01*
X0026278Y0112445D02*
X0026276Y0112488D01*
X0026271Y0112530D01*
X0026261Y0112572D01*
X0026249Y0112612D01*
X0026232Y0112652D01*
X0026212Y0112690D01*
X0026190Y0112725D01*
X0026164Y0112759D01*
X0026135Y0112791D01*
X0026103Y0112820D01*
X0026069Y0112846D01*
X0026034Y0112868D01*
X0025996Y0112888D01*
X0025956Y0112905D01*
X0025916Y0112917D01*
X0025874Y0112927D01*
X0025832Y0112932D01*
X0025789Y0112934D01*
X0025746Y0112932D01*
X0025704Y0112927D01*
X0025662Y0112917D01*
X0025622Y0112905D01*
X0025582Y0112888D01*
X0025545Y0112868D01*
X0025509Y0112846D01*
X0025475Y0112820D01*
X0025443Y0112791D01*
X0025414Y0112759D01*
X0025388Y0112725D01*
X0025366Y0112690D01*
X0025346Y0112652D01*
X0025329Y0112612D01*
X0025317Y0112572D01*
X0025307Y0112530D01*
X0025302Y0112488D01*
X0025300Y0112445D01*
X0025300Y0111712D01*
X0017500Y0111712D02*
X0017500Y0112934D01*
X0017500Y0111712D02*
X0016278Y0112751D01*
X0015300Y0112384D02*
X0015302Y0112332D01*
X0015308Y0112280D01*
X0015317Y0112228D01*
X0015331Y0112178D01*
X0015348Y0112128D01*
X0015369Y0112080D01*
X0015393Y0112034D01*
X0015420Y0111990D01*
X0015451Y0111947D01*
X0015485Y0111907D01*
X0015521Y0111870D01*
X0015561Y0111836D01*
X0015603Y0111804D01*
X0015646Y0111776D01*
X0015692Y0111751D01*
X0015740Y0111729D01*
X0015789Y0111711D01*
X0016278Y0112751D02*
X0016244Y0112784D01*
X0016207Y0112814D01*
X0016167Y0112842D01*
X0016126Y0112866D01*
X0016083Y0112886D01*
X0016038Y0112903D01*
X0015992Y0112917D01*
X0015945Y0112926D01*
X0015898Y0112932D01*
X0015850Y0112934D01*
X0015805Y0112932D01*
X0015759Y0112926D01*
X0015715Y0112917D01*
X0015671Y0112904D01*
X0015629Y0112888D01*
X0015588Y0112868D01*
X0015549Y0112844D01*
X0015512Y0112818D01*
X0015477Y0112789D01*
X0015445Y0112757D01*
X0015416Y0112722D01*
X0015390Y0112685D01*
X0015366Y0112646D01*
X0015346Y0112605D01*
X0015330Y0112563D01*
X0015317Y0112519D01*
X0015308Y0112475D01*
X0015302Y0112429D01*
X0015300Y0112384D01*
X0015300Y0110177D02*
X0015300Y0109566D01*
X0017500Y0109566D01*
X0016522Y0109566D02*
X0016522Y0110177D01*
X0016522Y0110299D02*
X0017500Y0110788D01*
X0016522Y0110177D02*
X0016520Y0110225D01*
X0016514Y0110273D01*
X0016505Y0110320D01*
X0016492Y0110366D01*
X0016475Y0110411D01*
X0016455Y0110454D01*
X0016432Y0110496D01*
X0016405Y0110536D01*
X0016376Y0110574D01*
X0016343Y0110609D01*
X0016308Y0110642D01*
X0016270Y0110671D01*
X0016230Y0110698D01*
X0016188Y0110721D01*
X0016145Y0110741D01*
X0016100Y0110758D01*
X0016054Y0110771D01*
X0016007Y0110780D01*
X0015959Y0110786D01*
X0015911Y0110788D01*
X0015863Y0110786D01*
X0015815Y0110780D01*
X0015768Y0110771D01*
X0015722Y0110758D01*
X0015677Y0110741D01*
X0015634Y0110721D01*
X0015592Y0110698D01*
X0015552Y0110671D01*
X0015514Y0110642D01*
X0015479Y0110609D01*
X0015446Y0110574D01*
X0015417Y0110536D01*
X0015390Y0110496D01*
X0015367Y0110454D01*
X0015347Y0110411D01*
X0015330Y0110366D01*
X0015317Y0110320D01*
X0015308Y0110273D01*
X0015302Y0110225D01*
X0015300Y0110177D01*
X0007500Y0109566D02*
X0005300Y0109566D01*
X0005300Y0110177D01*
X0005302Y0110225D01*
X0005308Y0110273D01*
X0005317Y0110320D01*
X0005330Y0110366D01*
X0005347Y0110411D01*
X0005367Y0110454D01*
X0005390Y0110496D01*
X0005417Y0110536D01*
X0005446Y0110574D01*
X0005479Y0110609D01*
X0005514Y0110642D01*
X0005552Y0110671D01*
X0005592Y0110698D01*
X0005634Y0110721D01*
X0005677Y0110741D01*
X0005722Y0110758D01*
X0005768Y0110771D01*
X0005815Y0110780D01*
X0005863Y0110786D01*
X0005911Y0110788D01*
X0005959Y0110786D01*
X0006007Y0110780D01*
X0006054Y0110771D01*
X0006100Y0110758D01*
X0006145Y0110741D01*
X0006188Y0110721D01*
X0006230Y0110698D01*
X0006270Y0110671D01*
X0006308Y0110642D01*
X0006343Y0110609D01*
X0006376Y0110574D01*
X0006405Y0110536D01*
X0006432Y0110496D01*
X0006455Y0110454D01*
X0006475Y0110411D01*
X0006492Y0110366D01*
X0006505Y0110320D01*
X0006514Y0110273D01*
X0006520Y0110225D01*
X0006522Y0110177D01*
X0006522Y0109566D01*
X0006522Y0110299D02*
X0007500Y0110788D01*
X0006889Y0111712D02*
X0006278Y0111712D01*
X0006278Y0112445D01*
X0006278Y0111712D02*
X0006217Y0111714D01*
X0006155Y0111720D01*
X0006095Y0111729D01*
X0006035Y0111743D01*
X0005976Y0111760D01*
X0005918Y0111781D01*
X0005862Y0111805D01*
X0005807Y0111833D01*
X0005754Y0111864D01*
X0005703Y0111899D01*
X0005655Y0111936D01*
X0005609Y0111977D01*
X0005565Y0112021D01*
X0005524Y0112067D01*
X0005487Y0112115D01*
X0005452Y0112166D01*
X0005421Y0112219D01*
X0005393Y0112274D01*
X0005369Y0112330D01*
X0005348Y0112388D01*
X0005331Y0112447D01*
X0005317Y0112507D01*
X0005308Y0112567D01*
X0005302Y0112629D01*
X0005300Y0112690D01*
X0006767Y0112934D02*
X0006889Y0112934D01*
X0006767Y0112934D02*
X0006724Y0112932D01*
X0006682Y0112927D01*
X0006640Y0112917D01*
X0006600Y0112905D01*
X0006560Y0112888D01*
X0006523Y0112868D01*
X0006487Y0112846D01*
X0006453Y0112820D01*
X0006421Y0112791D01*
X0006392Y0112759D01*
X0006366Y0112725D01*
X0006344Y0112690D01*
X0006324Y0112652D01*
X0006307Y0112612D01*
X0006295Y0112572D01*
X0006285Y0112530D01*
X0006280Y0112488D01*
X0006278Y0112445D01*
X0006889Y0112934D02*
X0006937Y0112932D01*
X0006985Y0112926D01*
X0007032Y0112917D01*
X0007078Y0112904D01*
X0007123Y0112887D01*
X0007166Y0112867D01*
X0007208Y0112844D01*
X0007248Y0112817D01*
X0007286Y0112788D01*
X0007321Y0112755D01*
X0007354Y0112720D01*
X0007383Y0112682D01*
X0007410Y0112642D01*
X0007433Y0112600D01*
X0007453Y0112557D01*
X0007470Y0112512D01*
X0007483Y0112466D01*
X0007492Y0112419D01*
X0007498Y0112371D01*
X0007500Y0112323D01*
X0007498Y0112275D01*
X0007492Y0112227D01*
X0007483Y0112180D01*
X0007470Y0112134D01*
X0007453Y0112089D01*
X0007433Y0112046D01*
X0007410Y0112004D01*
X0007383Y0111964D01*
X0007354Y0111926D01*
X0007321Y0111891D01*
X0007286Y0111858D01*
X0007248Y0111829D01*
X0007208Y0111802D01*
X0007166Y0111779D01*
X0007123Y0111759D01*
X0007078Y0111742D01*
X0007032Y0111729D01*
X0006985Y0111720D01*
X0006937Y0111714D01*
X0006889Y0111712D01*
X0041013Y0080713D02*
X0041013Y0080225D01*
X0041015Y0080182D01*
X0041020Y0080140D01*
X0041030Y0080098D01*
X0041042Y0080058D01*
X0041059Y0080018D01*
X0041079Y0079980D01*
X0041101Y0079945D01*
X0041127Y0079911D01*
X0041156Y0079879D01*
X0041188Y0079850D01*
X0041222Y0079824D01*
X0041258Y0079802D01*
X0041295Y0079782D01*
X0041335Y0079765D01*
X0041375Y0079753D01*
X0041417Y0079743D01*
X0041459Y0079738D01*
X0041502Y0079736D01*
X0042724Y0079736D01*
X0042767Y0079738D01*
X0042809Y0079743D01*
X0042851Y0079753D01*
X0042891Y0079765D01*
X0042931Y0079782D01*
X0042969Y0079802D01*
X0043004Y0079824D01*
X0043038Y0079850D01*
X0043070Y0079879D01*
X0043099Y0079911D01*
X0043125Y0079945D01*
X0043147Y0079981D01*
X0043167Y0080018D01*
X0043184Y0080058D01*
X0043196Y0080098D01*
X0043206Y0080140D01*
X0043211Y0080182D01*
X0043213Y0080225D01*
X0043213Y0080713D01*
X0043213Y0081542D02*
X0043213Y0082764D01*
X0043213Y0081542D02*
X0041991Y0082581D01*
X0041013Y0082214D02*
X0041015Y0082162D01*
X0041021Y0082110D01*
X0041030Y0082058D01*
X0041044Y0082008D01*
X0041061Y0081958D01*
X0041082Y0081910D01*
X0041106Y0081864D01*
X0041133Y0081820D01*
X0041164Y0081777D01*
X0041198Y0081737D01*
X0041234Y0081700D01*
X0041274Y0081666D01*
X0041316Y0081634D01*
X0041359Y0081606D01*
X0041405Y0081581D01*
X0041453Y0081559D01*
X0041502Y0081541D01*
X0041991Y0082582D02*
X0041957Y0082615D01*
X0041920Y0082645D01*
X0041880Y0082673D01*
X0041839Y0082697D01*
X0041796Y0082717D01*
X0041751Y0082734D01*
X0041705Y0082748D01*
X0041658Y0082757D01*
X0041611Y0082763D01*
X0041563Y0082765D01*
X0041563Y0082764D02*
X0041518Y0082762D01*
X0041472Y0082756D01*
X0041428Y0082747D01*
X0041384Y0082734D01*
X0041342Y0082718D01*
X0041301Y0082698D01*
X0041262Y0082674D01*
X0041225Y0082648D01*
X0041190Y0082619D01*
X0041158Y0082587D01*
X0041129Y0082552D01*
X0041103Y0082515D01*
X0041079Y0082476D01*
X0041059Y0082435D01*
X0041043Y0082393D01*
X0041030Y0082349D01*
X0041021Y0082305D01*
X0041015Y0082259D01*
X0041013Y0082214D01*
X0042500Y0032764D02*
X0042500Y0031542D01*
X0042500Y0032153D02*
X0040300Y0032153D01*
X0040789Y0031542D01*
X0040300Y0030713D02*
X0040300Y0030225D01*
X0040302Y0030182D01*
X0040307Y0030140D01*
X0040317Y0030098D01*
X0040329Y0030058D01*
X0040346Y0030018D01*
X0040366Y0029980D01*
X0040388Y0029945D01*
X0040414Y0029911D01*
X0040443Y0029879D01*
X0040475Y0029850D01*
X0040509Y0029824D01*
X0040545Y0029802D01*
X0040582Y0029782D01*
X0040622Y0029765D01*
X0040662Y0029753D01*
X0040704Y0029743D01*
X0040746Y0029738D01*
X0040789Y0029736D01*
X0042011Y0029736D01*
X0042054Y0029738D01*
X0042096Y0029743D01*
X0042138Y0029753D01*
X0042178Y0029765D01*
X0042218Y0029782D01*
X0042256Y0029802D01*
X0042291Y0029824D01*
X0042325Y0029850D01*
X0042357Y0029879D01*
X0042386Y0029911D01*
X0042412Y0029945D01*
X0042434Y0029981D01*
X0042454Y0030018D01*
X0042471Y0030058D01*
X0042483Y0030098D01*
X0042493Y0030140D01*
X0042498Y0030182D01*
X0042500Y0030225D01*
X0042500Y0030713D01*
X0050300Y0189058D02*
X0050300Y0189547D01*
X0050300Y0189303D02*
X0052500Y0189303D01*
X0052500Y0189547D02*
X0052500Y0189058D01*
X0052011Y0190413D02*
X0050789Y0190413D01*
X0050746Y0190415D01*
X0050704Y0190420D01*
X0050662Y0190430D01*
X0050622Y0190442D01*
X0050582Y0190459D01*
X0050545Y0190479D01*
X0050509Y0190501D01*
X0050475Y0190527D01*
X0050443Y0190556D01*
X0050414Y0190588D01*
X0050388Y0190622D01*
X0050366Y0190657D01*
X0050346Y0190695D01*
X0050329Y0190735D01*
X0050317Y0190775D01*
X0050307Y0190817D01*
X0050302Y0190859D01*
X0050300Y0190902D01*
X0050300Y0191391D01*
X0051278Y0193259D02*
X0051244Y0193292D01*
X0051207Y0193322D01*
X0051167Y0193350D01*
X0051126Y0193374D01*
X0051083Y0193394D01*
X0051038Y0193411D01*
X0050992Y0193425D01*
X0050945Y0193434D01*
X0050898Y0193440D01*
X0050850Y0193442D01*
X0051278Y0193258D02*
X0052500Y0192220D01*
X0052500Y0193442D01*
X0050789Y0192219D02*
X0050740Y0192237D01*
X0050692Y0192259D01*
X0050646Y0192284D01*
X0050603Y0192312D01*
X0050561Y0192344D01*
X0050521Y0192378D01*
X0050485Y0192415D01*
X0050451Y0192455D01*
X0050420Y0192498D01*
X0050393Y0192542D01*
X0050369Y0192588D01*
X0050348Y0192636D01*
X0050331Y0192686D01*
X0050317Y0192736D01*
X0050308Y0192788D01*
X0050302Y0192840D01*
X0050300Y0192892D01*
X0050302Y0192937D01*
X0050308Y0192983D01*
X0050317Y0193027D01*
X0050330Y0193071D01*
X0050346Y0193113D01*
X0050366Y0193154D01*
X0050390Y0193193D01*
X0050416Y0193230D01*
X0050445Y0193265D01*
X0050477Y0193297D01*
X0050512Y0193326D01*
X0050549Y0193352D01*
X0050588Y0193376D01*
X0050629Y0193396D01*
X0050671Y0193412D01*
X0050715Y0193425D01*
X0050759Y0193434D01*
X0050805Y0193440D01*
X0050850Y0193442D01*
X0052500Y0191391D02*
X0052500Y0190902D01*
X0052498Y0190859D01*
X0052493Y0190817D01*
X0052483Y0190775D01*
X0052471Y0190735D01*
X0052454Y0190695D01*
X0052434Y0190658D01*
X0052412Y0190622D01*
X0052386Y0190588D01*
X0052357Y0190556D01*
X0052325Y0190527D01*
X0052291Y0190501D01*
X0052256Y0190479D01*
X0052218Y0190459D01*
X0052178Y0190442D01*
X0052138Y0190430D01*
X0052096Y0190420D01*
X0052054Y0190415D01*
X0052011Y0190413D01*
X0037500Y0224566D02*
X0035300Y0224566D01*
X0035300Y0225177D01*
X0035302Y0225225D01*
X0035308Y0225273D01*
X0035317Y0225320D01*
X0035330Y0225366D01*
X0035347Y0225411D01*
X0035367Y0225454D01*
X0035390Y0225496D01*
X0035417Y0225536D01*
X0035446Y0225574D01*
X0035479Y0225609D01*
X0035514Y0225642D01*
X0035552Y0225671D01*
X0035592Y0225698D01*
X0035634Y0225721D01*
X0035677Y0225741D01*
X0035722Y0225758D01*
X0035768Y0225771D01*
X0035815Y0225780D01*
X0035863Y0225786D01*
X0035911Y0225788D01*
X0035959Y0225786D01*
X0036007Y0225780D01*
X0036054Y0225771D01*
X0036100Y0225758D01*
X0036145Y0225741D01*
X0036188Y0225721D01*
X0036230Y0225698D01*
X0036270Y0225671D01*
X0036308Y0225642D01*
X0036343Y0225609D01*
X0036376Y0225574D01*
X0036405Y0225536D01*
X0036432Y0225496D01*
X0036455Y0225454D01*
X0036475Y0225411D01*
X0036492Y0225366D01*
X0036505Y0225320D01*
X0036514Y0225273D01*
X0036520Y0225225D01*
X0036522Y0225177D01*
X0036522Y0224566D01*
X0036522Y0225299D02*
X0037500Y0225788D01*
X0037500Y0226712D02*
X0037500Y0227445D01*
X0037498Y0227488D01*
X0037493Y0227530D01*
X0037483Y0227572D01*
X0037471Y0227612D01*
X0037454Y0227652D01*
X0037434Y0227690D01*
X0037412Y0227725D01*
X0037386Y0227759D01*
X0037357Y0227791D01*
X0037325Y0227820D01*
X0037291Y0227846D01*
X0037256Y0227868D01*
X0037218Y0227888D01*
X0037178Y0227905D01*
X0037138Y0227917D01*
X0037096Y0227927D01*
X0037054Y0227932D01*
X0037011Y0227934D01*
X0036767Y0227934D01*
X0036724Y0227932D01*
X0036682Y0227927D01*
X0036640Y0227917D01*
X0036600Y0227905D01*
X0036560Y0227888D01*
X0036523Y0227868D01*
X0036487Y0227846D01*
X0036453Y0227820D01*
X0036421Y0227791D01*
X0036392Y0227759D01*
X0036366Y0227725D01*
X0036344Y0227690D01*
X0036324Y0227652D01*
X0036307Y0227612D01*
X0036295Y0227572D01*
X0036285Y0227530D01*
X0036280Y0227488D01*
X0036278Y0227445D01*
X0036278Y0226712D01*
X0035300Y0226712D01*
X0035300Y0227934D01*
X0050300Y0298414D02*
X0050300Y0299025D01*
X0050300Y0298414D02*
X0052500Y0298414D01*
X0051522Y0298414D02*
X0051522Y0299025D01*
X0051522Y0299147D02*
X0052500Y0299636D01*
X0052500Y0300632D02*
X0050300Y0300632D01*
X0052500Y0301854D01*
X0050300Y0301854D01*
X0050789Y0302864D02*
X0050300Y0303475D01*
X0052500Y0303475D01*
X0052500Y0302864D02*
X0052500Y0304086D01*
X0051522Y0299025D02*
X0051520Y0299073D01*
X0051514Y0299121D01*
X0051505Y0299168D01*
X0051492Y0299214D01*
X0051475Y0299259D01*
X0051455Y0299302D01*
X0051432Y0299344D01*
X0051405Y0299384D01*
X0051376Y0299422D01*
X0051343Y0299457D01*
X0051308Y0299490D01*
X0051270Y0299519D01*
X0051230Y0299546D01*
X0051188Y0299569D01*
X0051145Y0299589D01*
X0051100Y0299606D01*
X0051054Y0299619D01*
X0051007Y0299628D01*
X0050959Y0299634D01*
X0050911Y0299636D01*
X0050863Y0299634D01*
X0050815Y0299628D01*
X0050768Y0299619D01*
X0050722Y0299606D01*
X0050677Y0299589D01*
X0050634Y0299569D01*
X0050592Y0299546D01*
X0050552Y0299519D01*
X0050514Y0299490D01*
X0050479Y0299457D01*
X0050446Y0299422D01*
X0050417Y0299384D01*
X0050390Y0299344D01*
X0050367Y0299302D01*
X0050347Y0299259D01*
X0050330Y0299214D01*
X0050317Y0299168D01*
X0050308Y0299121D01*
X0050302Y0299073D01*
X0050300Y0299025D01*
X0037500Y0349566D02*
X0035300Y0349566D01*
X0035300Y0350177D01*
X0035302Y0350225D01*
X0035308Y0350273D01*
X0035317Y0350320D01*
X0035330Y0350366D01*
X0035347Y0350411D01*
X0035367Y0350454D01*
X0035390Y0350496D01*
X0035417Y0350536D01*
X0035446Y0350574D01*
X0035479Y0350609D01*
X0035514Y0350642D01*
X0035552Y0350671D01*
X0035592Y0350698D01*
X0035634Y0350721D01*
X0035677Y0350741D01*
X0035722Y0350758D01*
X0035768Y0350771D01*
X0035815Y0350780D01*
X0035863Y0350786D01*
X0035911Y0350788D01*
X0035959Y0350786D01*
X0036007Y0350780D01*
X0036054Y0350771D01*
X0036100Y0350758D01*
X0036145Y0350741D01*
X0036188Y0350721D01*
X0036230Y0350698D01*
X0036270Y0350671D01*
X0036308Y0350642D01*
X0036343Y0350609D01*
X0036376Y0350574D01*
X0036405Y0350536D01*
X0036432Y0350496D01*
X0036455Y0350454D01*
X0036475Y0350411D01*
X0036492Y0350366D01*
X0036505Y0350320D01*
X0036514Y0350273D01*
X0036520Y0350225D01*
X0036522Y0350177D01*
X0036522Y0349566D01*
X0036522Y0350299D02*
X0037500Y0350788D01*
X0037500Y0351712D02*
X0037500Y0352934D01*
X0037500Y0352323D02*
X0035300Y0352323D01*
X0035789Y0351712D01*
X0077803Y0352350D02*
X0077803Y0350150D01*
X0078781Y0350150D01*
X0079675Y0350150D02*
X0079675Y0352350D01*
X0080653Y0352350D01*
X0081543Y0352350D02*
X0082154Y0352350D01*
X0082202Y0352348D01*
X0082250Y0352342D01*
X0082297Y0352333D01*
X0082343Y0352320D01*
X0082388Y0352303D01*
X0082431Y0352283D01*
X0082473Y0352260D01*
X0082513Y0352233D01*
X0082551Y0352204D01*
X0082586Y0352171D01*
X0082619Y0352136D01*
X0082648Y0352098D01*
X0082675Y0352058D01*
X0082698Y0352016D01*
X0082718Y0351973D01*
X0082735Y0351928D01*
X0082748Y0351882D01*
X0082757Y0351835D01*
X0082763Y0351787D01*
X0082765Y0351739D01*
X0082765Y0350761D01*
X0082763Y0350713D01*
X0082757Y0350665D01*
X0082748Y0350618D01*
X0082735Y0350572D01*
X0082718Y0350527D01*
X0082698Y0350484D01*
X0082675Y0350442D01*
X0082648Y0350402D01*
X0082619Y0350364D01*
X0082586Y0350329D01*
X0082551Y0350296D01*
X0082513Y0350267D01*
X0082473Y0350240D01*
X0082431Y0350217D01*
X0082388Y0350197D01*
X0082343Y0350180D01*
X0082297Y0350167D01*
X0082250Y0350158D01*
X0082202Y0350152D01*
X0082154Y0350150D01*
X0081543Y0350150D01*
X0081543Y0352350D01*
X0080408Y0351372D02*
X0079675Y0351372D01*
X0079675Y0350150D02*
X0080653Y0350150D01*
X0083775Y0350150D02*
X0084997Y0350150D01*
X0083775Y0350150D02*
X0084814Y0351372D01*
X0084447Y0352350D02*
X0084395Y0352348D01*
X0084343Y0352342D01*
X0084291Y0352333D01*
X0084241Y0352319D01*
X0084191Y0352302D01*
X0084143Y0352281D01*
X0084097Y0352257D01*
X0084053Y0352230D01*
X0084010Y0352199D01*
X0083970Y0352165D01*
X0083933Y0352129D01*
X0083899Y0352089D01*
X0083867Y0352047D01*
X0083839Y0352004D01*
X0083814Y0351958D01*
X0083792Y0351910D01*
X0083774Y0351861D01*
X0084814Y0351372D02*
X0084847Y0351406D01*
X0084877Y0351443D01*
X0084905Y0351483D01*
X0084929Y0351524D01*
X0084949Y0351567D01*
X0084966Y0351612D01*
X0084980Y0351658D01*
X0084989Y0351705D01*
X0084995Y0351752D01*
X0084997Y0351800D01*
X0084995Y0351845D01*
X0084989Y0351891D01*
X0084980Y0351935D01*
X0084967Y0351979D01*
X0084951Y0352021D01*
X0084931Y0352062D01*
X0084907Y0352101D01*
X0084881Y0352138D01*
X0084852Y0352173D01*
X0084820Y0352205D01*
X0084785Y0352234D01*
X0084748Y0352260D01*
X0084709Y0352284D01*
X0084668Y0352304D01*
X0084626Y0352320D01*
X0084582Y0352333D01*
X0084538Y0352342D01*
X0084492Y0352348D01*
X0084447Y0352350D01*
X0084508Y0337350D02*
X0083775Y0337350D01*
X0084508Y0337350D02*
X0084551Y0337348D01*
X0084593Y0337343D01*
X0084635Y0337333D01*
X0084675Y0337321D01*
X0084715Y0337304D01*
X0084753Y0337284D01*
X0084788Y0337262D01*
X0084822Y0337236D01*
X0084854Y0337207D01*
X0084883Y0337175D01*
X0084909Y0337141D01*
X0084931Y0337106D01*
X0084951Y0337068D01*
X0084968Y0337028D01*
X0084980Y0336988D01*
X0084990Y0336946D01*
X0084995Y0336904D01*
X0084997Y0336861D01*
X0084995Y0336818D01*
X0084990Y0336776D01*
X0084980Y0336734D01*
X0084968Y0336694D01*
X0084951Y0336654D01*
X0084931Y0336617D01*
X0084909Y0336581D01*
X0084883Y0336547D01*
X0084854Y0336515D01*
X0084822Y0336486D01*
X0084788Y0336460D01*
X0084753Y0336438D01*
X0084715Y0336418D01*
X0084675Y0336401D01*
X0084635Y0336389D01*
X0084593Y0336379D01*
X0084551Y0336374D01*
X0084508Y0336372D01*
X0084019Y0336372D01*
X0084386Y0336372D02*
X0084434Y0336370D01*
X0084482Y0336364D01*
X0084529Y0336355D01*
X0084575Y0336342D01*
X0084620Y0336325D01*
X0084663Y0336305D01*
X0084705Y0336282D01*
X0084745Y0336255D01*
X0084783Y0336226D01*
X0084818Y0336193D01*
X0084851Y0336158D01*
X0084880Y0336120D01*
X0084907Y0336080D01*
X0084930Y0336038D01*
X0084950Y0335995D01*
X0084967Y0335950D01*
X0084980Y0335904D01*
X0084989Y0335857D01*
X0084995Y0335809D01*
X0084997Y0335761D01*
X0084995Y0335713D01*
X0084989Y0335665D01*
X0084980Y0335618D01*
X0084967Y0335572D01*
X0084950Y0335527D01*
X0084930Y0335484D01*
X0084907Y0335442D01*
X0084880Y0335402D01*
X0084851Y0335364D01*
X0084818Y0335329D01*
X0084783Y0335296D01*
X0084745Y0335267D01*
X0084705Y0335240D01*
X0084663Y0335217D01*
X0084620Y0335197D01*
X0084575Y0335180D01*
X0084529Y0335167D01*
X0084482Y0335158D01*
X0084434Y0335152D01*
X0084386Y0335150D01*
X0083775Y0335150D01*
X0082765Y0335761D02*
X0082765Y0336739D01*
X0082763Y0336787D01*
X0082757Y0336835D01*
X0082748Y0336882D01*
X0082735Y0336928D01*
X0082718Y0336973D01*
X0082698Y0337016D01*
X0082675Y0337058D01*
X0082648Y0337098D01*
X0082619Y0337136D01*
X0082586Y0337171D01*
X0082551Y0337204D01*
X0082513Y0337233D01*
X0082473Y0337260D01*
X0082431Y0337283D01*
X0082388Y0337303D01*
X0082343Y0337320D01*
X0082297Y0337333D01*
X0082250Y0337342D01*
X0082202Y0337348D01*
X0082154Y0337350D01*
X0081543Y0337350D01*
X0081543Y0335150D01*
X0082154Y0335150D01*
X0082202Y0335152D01*
X0082250Y0335158D01*
X0082297Y0335167D01*
X0082343Y0335180D01*
X0082388Y0335197D01*
X0082431Y0335217D01*
X0082473Y0335240D01*
X0082513Y0335267D01*
X0082551Y0335296D01*
X0082586Y0335329D01*
X0082619Y0335364D01*
X0082648Y0335402D01*
X0082675Y0335442D01*
X0082698Y0335484D01*
X0082718Y0335527D01*
X0082735Y0335572D01*
X0082748Y0335618D01*
X0082757Y0335665D01*
X0082763Y0335713D01*
X0082765Y0335761D01*
X0080653Y0335150D02*
X0079675Y0335150D01*
X0079675Y0337350D01*
X0080653Y0337350D01*
X0080408Y0336372D02*
X0079675Y0336372D01*
X0078781Y0335150D02*
X0077803Y0335150D01*
X0077803Y0337350D01*
X0077803Y0322350D02*
X0077803Y0320150D01*
X0078781Y0320150D01*
X0079675Y0320150D02*
X0079675Y0322350D01*
X0080653Y0322350D01*
X0081543Y0322350D02*
X0081543Y0320150D01*
X0082154Y0320150D01*
X0082202Y0320152D01*
X0082250Y0320158D01*
X0082297Y0320167D01*
X0082343Y0320180D01*
X0082388Y0320197D01*
X0082431Y0320217D01*
X0082473Y0320240D01*
X0082513Y0320267D01*
X0082551Y0320296D01*
X0082586Y0320329D01*
X0082619Y0320364D01*
X0082648Y0320402D01*
X0082675Y0320442D01*
X0082698Y0320484D01*
X0082718Y0320527D01*
X0082735Y0320572D01*
X0082748Y0320618D01*
X0082757Y0320665D01*
X0082763Y0320713D01*
X0082765Y0320761D01*
X0082765Y0321739D01*
X0082763Y0321787D01*
X0082757Y0321835D01*
X0082748Y0321882D01*
X0082735Y0321928D01*
X0082718Y0321973D01*
X0082698Y0322016D01*
X0082675Y0322058D01*
X0082648Y0322098D01*
X0082619Y0322136D01*
X0082586Y0322171D01*
X0082551Y0322204D01*
X0082513Y0322233D01*
X0082473Y0322260D01*
X0082431Y0322283D01*
X0082388Y0322303D01*
X0082343Y0322320D01*
X0082297Y0322333D01*
X0082250Y0322342D01*
X0082202Y0322348D01*
X0082154Y0322350D01*
X0081543Y0322350D01*
X0080408Y0321372D02*
X0079675Y0321372D01*
X0079675Y0320150D02*
X0080653Y0320150D01*
X0083775Y0320639D02*
X0084997Y0320639D01*
X0084630Y0321128D02*
X0084630Y0320150D01*
X0083775Y0320639D02*
X0084264Y0322350D01*
X0084386Y0365150D02*
X0084386Y0367350D01*
X0083775Y0366861D01*
X0082765Y0366739D02*
X0082765Y0365761D01*
X0082763Y0365713D01*
X0082757Y0365665D01*
X0082748Y0365618D01*
X0082735Y0365572D01*
X0082718Y0365527D01*
X0082698Y0365484D01*
X0082675Y0365442D01*
X0082648Y0365402D01*
X0082619Y0365364D01*
X0082586Y0365329D01*
X0082551Y0365296D01*
X0082513Y0365267D01*
X0082473Y0365240D01*
X0082431Y0365217D01*
X0082388Y0365197D01*
X0082343Y0365180D01*
X0082297Y0365167D01*
X0082250Y0365158D01*
X0082202Y0365152D01*
X0082154Y0365150D01*
X0081543Y0365150D01*
X0081543Y0367350D01*
X0082154Y0367350D01*
X0082202Y0367348D01*
X0082250Y0367342D01*
X0082297Y0367333D01*
X0082343Y0367320D01*
X0082388Y0367303D01*
X0082431Y0367283D01*
X0082473Y0367260D01*
X0082513Y0367233D01*
X0082551Y0367204D01*
X0082586Y0367171D01*
X0082619Y0367136D01*
X0082648Y0367098D01*
X0082675Y0367058D01*
X0082698Y0367016D01*
X0082718Y0366973D01*
X0082735Y0366928D01*
X0082748Y0366882D01*
X0082757Y0366835D01*
X0082763Y0366787D01*
X0082765Y0366739D01*
X0083775Y0365150D02*
X0084997Y0365150D01*
X0080653Y0365150D02*
X0079675Y0365150D01*
X0079675Y0367350D01*
X0080653Y0367350D01*
X0080408Y0366372D02*
X0079675Y0366372D01*
X0078781Y0365150D02*
X0077803Y0365150D01*
X0077803Y0367350D01*
X0105300Y0307294D02*
X0107500Y0307294D01*
X0107500Y0306683D02*
X0107500Y0307905D01*
X0106583Y0305573D02*
X0106217Y0304900D01*
X0105300Y0305145D02*
X0105302Y0305204D01*
X0105308Y0305263D01*
X0105317Y0305321D01*
X0105330Y0305378D01*
X0105347Y0305435D01*
X0105368Y0305490D01*
X0105391Y0305544D01*
X0105419Y0305597D01*
X0105450Y0305647D01*
X0105483Y0305695D01*
X0106217Y0304901D02*
X0106194Y0304865D01*
X0106167Y0304831D01*
X0106138Y0304799D01*
X0106106Y0304770D01*
X0106072Y0304744D01*
X0106036Y0304721D01*
X0105997Y0304702D01*
X0105958Y0304685D01*
X0105917Y0304673D01*
X0105875Y0304663D01*
X0105832Y0304658D01*
X0105789Y0304656D01*
X0105746Y0304658D01*
X0105704Y0304663D01*
X0105662Y0304673D01*
X0105622Y0304685D01*
X0105582Y0304702D01*
X0105545Y0304722D01*
X0105509Y0304744D01*
X0105475Y0304770D01*
X0105443Y0304799D01*
X0105414Y0304831D01*
X0105388Y0304865D01*
X0105366Y0304901D01*
X0105346Y0304938D01*
X0105329Y0304978D01*
X0105317Y0305018D01*
X0105307Y0305060D01*
X0105302Y0305102D01*
X0105300Y0305145D01*
X0107194Y0304595D02*
X0107238Y0304640D01*
X0107278Y0304688D01*
X0107315Y0304738D01*
X0107349Y0304791D01*
X0107380Y0304846D01*
X0107408Y0304902D01*
X0107432Y0304960D01*
X0107453Y0305019D01*
X0107470Y0305080D01*
X0107483Y0305141D01*
X0107492Y0305203D01*
X0107498Y0305265D01*
X0107500Y0305328D01*
X0107498Y0305371D01*
X0107493Y0305413D01*
X0107483Y0305455D01*
X0107471Y0305495D01*
X0107454Y0305535D01*
X0107434Y0305573D01*
X0107412Y0305608D01*
X0107386Y0305642D01*
X0107357Y0305674D01*
X0107325Y0305703D01*
X0107291Y0305729D01*
X0107256Y0305751D01*
X0107218Y0305771D01*
X0107178Y0305788D01*
X0107138Y0305800D01*
X0107096Y0305810D01*
X0107054Y0305815D01*
X0107011Y0305817D01*
X0107011Y0305818D02*
X0106968Y0305816D01*
X0106925Y0305811D01*
X0106883Y0305801D01*
X0106842Y0305789D01*
X0106803Y0305772D01*
X0106764Y0305753D01*
X0106728Y0305730D01*
X0106694Y0305704D01*
X0106662Y0305675D01*
X0106633Y0305643D01*
X0106606Y0305609D01*
X0106583Y0305573D01*
X0105789Y0306683D02*
X0105300Y0307294D01*
D14*
X0001400Y0064045D02*
X0001400Y0032943D01*
X0031321Y0032943D01*
X0031321Y0035502D01*
X0025022Y0035502D01*
X0025022Y0061486D02*
X0031321Y0061486D01*
X0031321Y0064045D01*
X0001400Y0064045D01*
X0001400Y0064439D02*
X0001400Y0087667D01*
X0031321Y0087667D01*
X0031321Y0085108D01*
X0025022Y0085108D01*
X0025022Y0066998D02*
X0031321Y0066998D01*
X0031321Y0064439D01*
X0001400Y0064439D01*
X0001400Y0214045D02*
X0001400Y0237274D01*
X0031321Y0237274D01*
X0031321Y0234715D01*
X0025022Y0234715D01*
X0025022Y0240226D02*
X0031321Y0240226D01*
X0031321Y0237667D01*
X0001400Y0237667D01*
X0001400Y0268770D01*
X0031321Y0268770D01*
X0031321Y0266211D01*
X0025022Y0266211D01*
X0025022Y0271722D02*
X0031321Y0271722D01*
X0031321Y0269163D01*
X0001400Y0269163D01*
X0001400Y0300266D01*
X0031321Y0300266D01*
X0031321Y0297707D01*
X0025022Y0297707D01*
X0025022Y0303219D02*
X0031321Y0303219D01*
X0031321Y0300659D01*
X0001400Y0300659D01*
X0001400Y0331762D01*
X0031321Y0331762D01*
X0031321Y0329203D01*
X0025022Y0329203D01*
X0025022Y0334715D02*
X0031321Y0334715D01*
X0031321Y0332156D01*
X0001400Y0332156D01*
X0001400Y0371132D01*
X0031321Y0371132D01*
X0031321Y0368573D01*
X0025022Y0368573D01*
X0025022Y0216604D02*
X0031321Y0216604D01*
X0031321Y0214045D01*
X0001400Y0214045D01*
X0053400Y0056250D02*
X0056400Y0056250D01*
X0056400Y0057250D01*
X0056400Y0056250D02*
X0059400Y0056250D01*
X0059400Y0036250D01*
X0056400Y0036250D01*
X0056400Y0035250D01*
X0056400Y0036250D02*
X0053400Y0036250D01*
X0053400Y0056250D01*
X0053900Y0053750D02*
X0058900Y0053750D01*
D15*
X0057350Y0022894D02*
X0057350Y0021838D01*
X0057350Y0022366D02*
X0055450Y0022366D01*
X0055872Y0021838D01*
X0055978Y0020662D02*
X0056822Y0020662D01*
X0056866Y0020660D01*
X0056909Y0020655D01*
X0056952Y0020646D01*
X0056993Y0020633D01*
X0057034Y0020618D01*
X0057073Y0020598D01*
X0057111Y0020576D01*
X0057146Y0020551D01*
X0057180Y0020522D01*
X0057210Y0020492D01*
X0057239Y0020458D01*
X0057264Y0020423D01*
X0057286Y0020385D01*
X0057306Y0020346D01*
X0057321Y0020305D01*
X0057334Y0020264D01*
X0057343Y0020221D01*
X0057348Y0020178D01*
X0057350Y0020134D01*
X0057350Y0019606D01*
X0055450Y0019606D01*
X0055450Y0020134D01*
X0055452Y0020178D01*
X0055457Y0020221D01*
X0055466Y0020264D01*
X0055479Y0020305D01*
X0055494Y0020346D01*
X0055514Y0020385D01*
X0055536Y0020423D01*
X0055561Y0020458D01*
X0055590Y0020492D01*
X0055620Y0020522D01*
X0055654Y0020551D01*
X0055689Y0020576D01*
X0055727Y0020598D01*
X0055766Y0020618D01*
X0055807Y0020633D01*
X0055848Y0020646D01*
X0055891Y0020655D01*
X0055934Y0020660D01*
X0055978Y0020662D01*
X0033846Y0046678D02*
X0031946Y0047311D01*
X0032368Y0048299D02*
X0033424Y0048299D01*
X0033463Y0048301D01*
X0033502Y0048306D01*
X0033539Y0048315D01*
X0033576Y0048327D01*
X0033612Y0048343D01*
X0033646Y0048362D01*
X0033678Y0048384D01*
X0033708Y0048409D01*
X0033736Y0048437D01*
X0033761Y0048467D01*
X0033783Y0048499D01*
X0033802Y0048533D01*
X0033818Y0048569D01*
X0033830Y0048606D01*
X0033839Y0048643D01*
X0033844Y0048682D01*
X0033846Y0048721D01*
X0033846Y0049143D01*
X0033424Y0050099D02*
X0032368Y0050099D01*
X0032329Y0050101D01*
X0032290Y0050106D01*
X0032253Y0050115D01*
X0032216Y0050127D01*
X0032180Y0050143D01*
X0032146Y0050162D01*
X0032114Y0050184D01*
X0032084Y0050209D01*
X0032056Y0050237D01*
X0032031Y0050267D01*
X0032009Y0050299D01*
X0031990Y0050333D01*
X0031975Y0050369D01*
X0031962Y0050405D01*
X0031953Y0050443D01*
X0031948Y0050482D01*
X0031946Y0050521D01*
X0031946Y0050943D01*
X0033424Y0050099D02*
X0033463Y0050101D01*
X0033502Y0050106D01*
X0033539Y0050115D01*
X0033576Y0050127D01*
X0033612Y0050143D01*
X0033646Y0050162D01*
X0033678Y0050184D01*
X0033708Y0050209D01*
X0033736Y0050237D01*
X0033761Y0050267D01*
X0033783Y0050299D01*
X0033802Y0050333D01*
X0033818Y0050369D01*
X0033830Y0050406D01*
X0033839Y0050443D01*
X0033844Y0050482D01*
X0033846Y0050521D01*
X0033846Y0050943D01*
X0031946Y0049143D02*
X0031946Y0048721D01*
X0031948Y0048682D01*
X0031953Y0048643D01*
X0031962Y0048605D01*
X0031975Y0048569D01*
X0031990Y0048533D01*
X0032009Y0048499D01*
X0032031Y0048467D01*
X0032056Y0048437D01*
X0032084Y0048409D01*
X0032114Y0048384D01*
X0032146Y0048362D01*
X0032180Y0048343D01*
X0032216Y0048327D01*
X0032253Y0048315D01*
X0032290Y0048306D01*
X0032329Y0048301D01*
X0032368Y0048299D01*
X0033846Y0046678D02*
X0031946Y0046045D01*
X0031946Y0069813D02*
X0031946Y0070341D01*
X0031946Y0069813D02*
X0033846Y0069813D01*
X0033002Y0069813D02*
X0033002Y0070341D01*
X0033000Y0070386D01*
X0032994Y0070430D01*
X0032985Y0070474D01*
X0032972Y0070517D01*
X0032955Y0070558D01*
X0032935Y0070599D01*
X0032911Y0070637D01*
X0032885Y0070673D01*
X0032855Y0070706D01*
X0032823Y0070737D01*
X0032788Y0070766D01*
X0032751Y0070791D01*
X0032712Y0070812D01*
X0032671Y0070831D01*
X0032629Y0070846D01*
X0032585Y0070857D01*
X0032541Y0070865D01*
X0032496Y0070869D01*
X0032452Y0070869D01*
X0032407Y0070865D01*
X0032363Y0070857D01*
X0032319Y0070846D01*
X0032277Y0070831D01*
X0032236Y0070812D01*
X0032197Y0070791D01*
X0032160Y0070766D01*
X0032125Y0070737D01*
X0032093Y0070706D01*
X0032063Y0070673D01*
X0032037Y0070637D01*
X0032013Y0070599D01*
X0031993Y0070558D01*
X0031976Y0070517D01*
X0031963Y0070474D01*
X0031954Y0070430D01*
X0031948Y0070386D01*
X0031946Y0070341D01*
X0031946Y0071815D02*
X0033846Y0072237D01*
X0032579Y0072660D01*
X0033846Y0073082D01*
X0031946Y0073504D01*
X0031946Y0074677D02*
X0031946Y0075205D01*
X0031948Y0075250D01*
X0031954Y0075294D01*
X0031963Y0075338D01*
X0031976Y0075381D01*
X0031993Y0075422D01*
X0032013Y0075463D01*
X0032037Y0075501D01*
X0032063Y0075537D01*
X0032093Y0075570D01*
X0032125Y0075601D01*
X0032160Y0075630D01*
X0032197Y0075655D01*
X0032236Y0075676D01*
X0032277Y0075695D01*
X0032319Y0075710D01*
X0032363Y0075721D01*
X0032407Y0075729D01*
X0032452Y0075733D01*
X0032496Y0075733D01*
X0032541Y0075729D01*
X0032585Y0075721D01*
X0032629Y0075710D01*
X0032671Y0075695D01*
X0032712Y0075676D01*
X0032751Y0075655D01*
X0032788Y0075630D01*
X0032823Y0075601D01*
X0032855Y0075570D01*
X0032885Y0075537D01*
X0032911Y0075501D01*
X0032935Y0075463D01*
X0032955Y0075422D01*
X0032972Y0075381D01*
X0032985Y0075338D01*
X0032994Y0075294D01*
X0033000Y0075250D01*
X0033002Y0075205D01*
X0033002Y0074677D01*
X0033002Y0075310D02*
X0033846Y0075732D01*
X0033846Y0074677D02*
X0031946Y0074677D01*
X0032368Y0076812D02*
X0031946Y0077340D01*
X0033846Y0077340D01*
X0033846Y0077867D02*
X0033846Y0076812D01*
X0033846Y0078972D02*
X0033846Y0080027D01*
X0033846Y0078972D02*
X0032791Y0079869D01*
X0031946Y0079552D02*
X0031948Y0079504D01*
X0031954Y0079457D01*
X0031963Y0079410D01*
X0031976Y0079363D01*
X0031992Y0079318D01*
X0032013Y0079275D01*
X0032036Y0079233D01*
X0032063Y0079193D01*
X0032092Y0079156D01*
X0032125Y0079120D01*
X0032160Y0079088D01*
X0032198Y0079058D01*
X0032238Y0079032D01*
X0032280Y0079008D01*
X0032323Y0078988D01*
X0032368Y0078972D01*
X0032790Y0079869D02*
X0032761Y0079897D01*
X0032729Y0079924D01*
X0032695Y0079947D01*
X0032659Y0079968D01*
X0032622Y0079986D01*
X0032583Y0080000D01*
X0032544Y0080012D01*
X0032503Y0080020D01*
X0032462Y0080025D01*
X0032421Y0080027D01*
X0032380Y0080025D01*
X0032339Y0080020D01*
X0032298Y0080011D01*
X0032259Y0079998D01*
X0032220Y0079982D01*
X0032184Y0079963D01*
X0032149Y0079941D01*
X0032116Y0079916D01*
X0032085Y0079888D01*
X0032057Y0079857D01*
X0032032Y0079824D01*
X0032010Y0079790D01*
X0031991Y0079753D01*
X0031975Y0079714D01*
X0031962Y0079675D01*
X0031953Y0079635D01*
X0031948Y0079593D01*
X0031946Y0079552D01*
X0031946Y0081026D02*
X0033846Y0081660D01*
X0031946Y0082293D01*
X0055400Y0116250D02*
X0127400Y0116250D01*
X0127400Y0306250D01*
X0055400Y0306250D01*
X0055400Y0116250D01*
X0011272Y0279465D02*
X0009372Y0279465D01*
X0009372Y0279992D01*
X0009374Y0280036D01*
X0009379Y0280079D01*
X0009388Y0280122D01*
X0009401Y0280163D01*
X0009416Y0280204D01*
X0009436Y0280243D01*
X0009458Y0280281D01*
X0009483Y0280316D01*
X0009512Y0280350D01*
X0009542Y0280380D01*
X0009576Y0280409D01*
X0009611Y0280434D01*
X0009649Y0280456D01*
X0009688Y0280476D01*
X0009729Y0280491D01*
X0009770Y0280504D01*
X0009813Y0280513D01*
X0009856Y0280518D01*
X0009900Y0280520D01*
X0010744Y0280520D01*
X0010788Y0280518D01*
X0010831Y0280513D01*
X0010874Y0280504D01*
X0010915Y0280491D01*
X0010956Y0280476D01*
X0010995Y0280456D01*
X0011033Y0280434D01*
X0011068Y0280409D01*
X0011102Y0280380D01*
X0011132Y0280350D01*
X0011161Y0280316D01*
X0011186Y0280281D01*
X0011208Y0280243D01*
X0011228Y0280204D01*
X0011243Y0280163D01*
X0011256Y0280122D01*
X0011265Y0280079D01*
X0011270Y0280036D01*
X0011272Y0279992D01*
X0011272Y0279465D01*
X0011272Y0281807D02*
X0009372Y0281807D01*
X0010428Y0282440D01*
X0009372Y0283074D01*
X0011272Y0283074D01*
X0011272Y0284183D02*
X0009372Y0285450D01*
X0009900Y0286449D02*
X0010744Y0286449D01*
X0010744Y0286448D02*
X0010789Y0286450D01*
X0010833Y0286456D01*
X0010877Y0286465D01*
X0010920Y0286478D01*
X0010961Y0286495D01*
X0011002Y0286515D01*
X0011040Y0286539D01*
X0011076Y0286565D01*
X0011109Y0286595D01*
X0011140Y0286627D01*
X0011169Y0286662D01*
X0011194Y0286699D01*
X0011215Y0286738D01*
X0011234Y0286779D01*
X0011249Y0286821D01*
X0011260Y0286865D01*
X0011268Y0286909D01*
X0011272Y0286954D01*
X0011272Y0286998D01*
X0011268Y0287043D01*
X0011260Y0287087D01*
X0011249Y0287131D01*
X0011234Y0287173D01*
X0011215Y0287214D01*
X0011194Y0287253D01*
X0011169Y0287290D01*
X0011140Y0287325D01*
X0011109Y0287357D01*
X0011076Y0287387D01*
X0011040Y0287413D01*
X0011002Y0287437D01*
X0010961Y0287457D01*
X0010920Y0287474D01*
X0010877Y0287487D01*
X0010833Y0287496D01*
X0010789Y0287502D01*
X0010744Y0287504D01*
X0009900Y0287504D01*
X0009855Y0287502D01*
X0009811Y0287496D01*
X0009767Y0287487D01*
X0009724Y0287474D01*
X0009683Y0287457D01*
X0009642Y0287437D01*
X0009604Y0287413D01*
X0009568Y0287387D01*
X0009535Y0287357D01*
X0009504Y0287325D01*
X0009475Y0287290D01*
X0009450Y0287253D01*
X0009429Y0287214D01*
X0009410Y0287173D01*
X0009395Y0287131D01*
X0009384Y0287087D01*
X0009376Y0287043D01*
X0009372Y0286998D01*
X0009372Y0286954D01*
X0009376Y0286909D01*
X0009384Y0286865D01*
X0009395Y0286821D01*
X0009410Y0286779D01*
X0009429Y0286738D01*
X0009450Y0286699D01*
X0009475Y0286662D01*
X0009504Y0286627D01*
X0009535Y0286595D01*
X0009568Y0286565D01*
X0009604Y0286539D01*
X0009642Y0286515D01*
X0009683Y0286495D01*
X0009724Y0286478D01*
X0009767Y0286465D01*
X0009811Y0286456D01*
X0009855Y0286450D01*
X0009900Y0286448D01*
X0011272Y0285450D02*
X0009372Y0284183D01*
X0009372Y0288681D02*
X0010744Y0288681D01*
X0010744Y0288680D02*
X0010789Y0288682D01*
X0010833Y0288688D01*
X0010877Y0288697D01*
X0010920Y0288710D01*
X0010961Y0288727D01*
X0011002Y0288747D01*
X0011040Y0288771D01*
X0011076Y0288797D01*
X0011109Y0288827D01*
X0011140Y0288859D01*
X0011169Y0288894D01*
X0011194Y0288931D01*
X0011215Y0288970D01*
X0011234Y0289011D01*
X0011249Y0289053D01*
X0011260Y0289097D01*
X0011268Y0289141D01*
X0011272Y0289186D01*
X0011272Y0289230D01*
X0011268Y0289275D01*
X0011260Y0289319D01*
X0011249Y0289363D01*
X0011234Y0289405D01*
X0011215Y0289446D01*
X0011194Y0289485D01*
X0011169Y0289522D01*
X0011140Y0289557D01*
X0011109Y0289589D01*
X0011076Y0289619D01*
X0011040Y0289645D01*
X0011002Y0289669D01*
X0010961Y0289689D01*
X0010920Y0289706D01*
X0010877Y0289719D01*
X0010833Y0289728D01*
X0010789Y0289734D01*
X0010744Y0289736D01*
X0009372Y0289736D01*
X0009372Y0290769D02*
X0009372Y0291824D01*
X0009372Y0291296D02*
X0011272Y0291296D01*
X0011272Y0310961D02*
X0009372Y0310961D01*
X0009372Y0311488D01*
X0009374Y0311532D01*
X0009379Y0311575D01*
X0009388Y0311618D01*
X0009401Y0311659D01*
X0009416Y0311700D01*
X0009436Y0311739D01*
X0009458Y0311777D01*
X0009483Y0311812D01*
X0009512Y0311846D01*
X0009542Y0311876D01*
X0009576Y0311905D01*
X0009611Y0311930D01*
X0009649Y0311952D01*
X0009688Y0311972D01*
X0009729Y0311987D01*
X0009770Y0312000D01*
X0009813Y0312009D01*
X0009856Y0312014D01*
X0009900Y0312016D01*
X0010744Y0312016D01*
X0010788Y0312014D01*
X0010831Y0312009D01*
X0010874Y0312000D01*
X0010915Y0311987D01*
X0010956Y0311972D01*
X0010995Y0311952D01*
X0011033Y0311930D01*
X0011068Y0311905D01*
X0011102Y0311876D01*
X0011132Y0311846D01*
X0011161Y0311812D01*
X0011186Y0311777D01*
X0011208Y0311739D01*
X0011228Y0311700D01*
X0011243Y0311659D01*
X0011256Y0311618D01*
X0011265Y0311575D01*
X0011270Y0311532D01*
X0011272Y0311488D01*
X0011272Y0310961D01*
X0011272Y0313303D02*
X0009372Y0313303D01*
X0010428Y0313936D01*
X0009372Y0314570D01*
X0011272Y0314570D01*
X0011272Y0315679D02*
X0009372Y0316946D01*
X0009372Y0317829D02*
X0009372Y0318252D01*
X0009372Y0318040D02*
X0011272Y0318040D01*
X0011272Y0317829D02*
X0011272Y0318252D01*
X0011272Y0319313D02*
X0009372Y0319313D01*
X0011272Y0320368D01*
X0009372Y0320368D01*
X0011272Y0316946D02*
X0009372Y0315679D01*
X0009372Y0346394D02*
X0009372Y0347238D01*
X0009372Y0346394D02*
X0011272Y0346394D01*
X0010216Y0346394D02*
X0010216Y0347238D01*
X0010428Y0348283D02*
X0010428Y0348811D01*
X0010428Y0348916D02*
X0011272Y0349339D01*
X0011272Y0348283D02*
X0009372Y0348283D01*
X0009372Y0348811D01*
X0009374Y0348856D01*
X0009380Y0348900D01*
X0009389Y0348944D01*
X0009402Y0348987D01*
X0009419Y0349028D01*
X0009439Y0349069D01*
X0009463Y0349107D01*
X0009489Y0349143D01*
X0009519Y0349176D01*
X0009551Y0349207D01*
X0009586Y0349236D01*
X0009623Y0349261D01*
X0009662Y0349282D01*
X0009703Y0349301D01*
X0009745Y0349316D01*
X0009789Y0349327D01*
X0009833Y0349335D01*
X0009878Y0349339D01*
X0009922Y0349339D01*
X0009967Y0349335D01*
X0010011Y0349327D01*
X0010055Y0349316D01*
X0010097Y0349301D01*
X0010138Y0349282D01*
X0010177Y0349261D01*
X0010214Y0349236D01*
X0010249Y0349207D01*
X0010281Y0349176D01*
X0010311Y0349143D01*
X0010337Y0349107D01*
X0010361Y0349069D01*
X0010381Y0349028D01*
X0010398Y0348987D01*
X0010411Y0348944D01*
X0010420Y0348900D01*
X0010426Y0348856D01*
X0010428Y0348811D01*
X0010744Y0350418D02*
X0009900Y0350418D01*
X0009855Y0350420D01*
X0009811Y0350426D01*
X0009767Y0350435D01*
X0009724Y0350448D01*
X0009683Y0350465D01*
X0009642Y0350485D01*
X0009604Y0350509D01*
X0009568Y0350535D01*
X0009535Y0350565D01*
X0009504Y0350597D01*
X0009475Y0350632D01*
X0009450Y0350669D01*
X0009429Y0350708D01*
X0009410Y0350749D01*
X0009395Y0350791D01*
X0009384Y0350835D01*
X0009376Y0350879D01*
X0009372Y0350924D01*
X0009372Y0350968D01*
X0009376Y0351013D01*
X0009384Y0351057D01*
X0009395Y0351101D01*
X0009410Y0351143D01*
X0009429Y0351184D01*
X0009450Y0351223D01*
X0009475Y0351260D01*
X0009504Y0351295D01*
X0009535Y0351327D01*
X0009568Y0351357D01*
X0009604Y0351383D01*
X0009642Y0351407D01*
X0009683Y0351427D01*
X0009724Y0351444D01*
X0009767Y0351457D01*
X0009811Y0351466D01*
X0009855Y0351472D01*
X0009900Y0351474D01*
X0010744Y0351474D01*
X0010789Y0351472D01*
X0010833Y0351466D01*
X0010877Y0351457D01*
X0010920Y0351444D01*
X0010961Y0351427D01*
X0011002Y0351407D01*
X0011040Y0351383D01*
X0011076Y0351357D01*
X0011109Y0351327D01*
X0011140Y0351295D01*
X0011169Y0351260D01*
X0011194Y0351223D01*
X0011215Y0351184D01*
X0011234Y0351143D01*
X0011249Y0351101D01*
X0011260Y0351057D01*
X0011268Y0351013D01*
X0011272Y0350968D01*
X0011272Y0350924D01*
X0011268Y0350879D01*
X0011260Y0350835D01*
X0011249Y0350791D01*
X0011234Y0350749D01*
X0011215Y0350708D01*
X0011194Y0350669D01*
X0011169Y0350632D01*
X0011140Y0350597D01*
X0011109Y0350565D01*
X0011076Y0350535D01*
X0011040Y0350509D01*
X0011002Y0350485D01*
X0010961Y0350465D01*
X0010920Y0350448D01*
X0010877Y0350435D01*
X0010833Y0350426D01*
X0010789Y0350420D01*
X0010744Y0350418D01*
X0011272Y0352650D02*
X0009372Y0352650D01*
X0011272Y0353706D01*
X0009372Y0353706D01*
X0009372Y0354738D02*
X0009372Y0355794D01*
X0009372Y0355266D02*
X0011272Y0355266D01*
X0095750Y0344756D02*
X0098394Y0344000D01*
X0098394Y0345889D01*
X0097639Y0345322D02*
X0099150Y0345322D01*
X0097261Y0335133D02*
X0097261Y0334378D01*
X0097262Y0335133D02*
X0097260Y0335187D01*
X0097254Y0335241D01*
X0097245Y0335294D01*
X0097231Y0335346D01*
X0097214Y0335397D01*
X0097194Y0335447D01*
X0097170Y0335495D01*
X0097142Y0335542D01*
X0097111Y0335586D01*
X0097077Y0335628D01*
X0097041Y0335668D01*
X0097001Y0335704D01*
X0096959Y0335738D01*
X0096915Y0335769D01*
X0096868Y0335797D01*
X0096820Y0335821D01*
X0096770Y0335841D01*
X0096719Y0335858D01*
X0096667Y0335872D01*
X0096614Y0335881D01*
X0096560Y0335887D01*
X0096506Y0335889D01*
X0096452Y0335887D01*
X0096398Y0335881D01*
X0096345Y0335872D01*
X0096293Y0335858D01*
X0096242Y0335841D01*
X0096192Y0335821D01*
X0096144Y0335797D01*
X0096097Y0335769D01*
X0096053Y0335738D01*
X0096011Y0335704D01*
X0095971Y0335668D01*
X0095935Y0335628D01*
X0095901Y0335586D01*
X0095870Y0335542D01*
X0095842Y0335495D01*
X0095818Y0335447D01*
X0095798Y0335397D01*
X0095781Y0335346D01*
X0095767Y0335294D01*
X0095758Y0335241D01*
X0095752Y0335187D01*
X0095750Y0335133D01*
X0095750Y0334000D01*
X0097262Y0334944D02*
X0097264Y0335004D01*
X0097270Y0335065D01*
X0097279Y0335124D01*
X0097293Y0335183D01*
X0097310Y0335241D01*
X0097331Y0335298D01*
X0097355Y0335354D01*
X0097383Y0335407D01*
X0097415Y0335459D01*
X0097449Y0335509D01*
X0097487Y0335556D01*
X0097528Y0335601D01*
X0097571Y0335643D01*
X0097617Y0335682D01*
X0097666Y0335718D01*
X0097717Y0335751D01*
X0097769Y0335781D01*
X0097824Y0335807D01*
X0097880Y0335830D01*
X0097937Y0335849D01*
X0097996Y0335864D01*
X0098055Y0335876D01*
X0098115Y0335884D01*
X0098176Y0335888D01*
X0098236Y0335888D01*
X0098297Y0335884D01*
X0098357Y0335876D01*
X0098416Y0335864D01*
X0098475Y0335849D01*
X0098532Y0335830D01*
X0098588Y0335807D01*
X0098643Y0335781D01*
X0098695Y0335751D01*
X0098746Y0335718D01*
X0098795Y0335682D01*
X0098841Y0335643D01*
X0098884Y0335601D01*
X0098925Y0335556D01*
X0098963Y0335509D01*
X0098997Y0335459D01*
X0099029Y0335407D01*
X0099057Y0335354D01*
X0099081Y0335298D01*
X0099102Y0335241D01*
X0099119Y0335183D01*
X0099133Y0335124D01*
X0099142Y0335065D01*
X0099148Y0335004D01*
X0099150Y0334944D01*
X0099150Y0334000D01*
X0099150Y0325889D02*
X0099150Y0324000D01*
X0097261Y0325606D01*
X0095750Y0325039D02*
X0095752Y0324974D01*
X0095758Y0324909D01*
X0095768Y0324844D01*
X0095781Y0324780D01*
X0095799Y0324717D01*
X0095820Y0324655D01*
X0095845Y0324595D01*
X0095873Y0324536D01*
X0095905Y0324479D01*
X0095940Y0324423D01*
X0095978Y0324371D01*
X0096020Y0324320D01*
X0096065Y0324272D01*
X0096112Y0324227D01*
X0096162Y0324185D01*
X0096214Y0324146D01*
X0096269Y0324110D01*
X0096325Y0324077D01*
X0096384Y0324048D01*
X0096444Y0324022D01*
X0096506Y0324000D01*
X0097261Y0325606D02*
X0097221Y0325646D01*
X0097178Y0325683D01*
X0097133Y0325718D01*
X0097085Y0325749D01*
X0097036Y0325778D01*
X0096986Y0325804D01*
X0096933Y0325826D01*
X0096880Y0325845D01*
X0096825Y0325861D01*
X0096770Y0325873D01*
X0096713Y0325882D01*
X0096657Y0325887D01*
X0096600Y0325889D01*
X0096544Y0325887D01*
X0096489Y0325882D01*
X0096434Y0325873D01*
X0096380Y0325860D01*
X0096327Y0325844D01*
X0096275Y0325824D01*
X0096224Y0325801D01*
X0096175Y0325775D01*
X0096128Y0325746D01*
X0096083Y0325713D01*
X0096040Y0325678D01*
X0095999Y0325640D01*
X0095961Y0325599D01*
X0095926Y0325556D01*
X0095893Y0325511D01*
X0095864Y0325464D01*
X0095838Y0325415D01*
X0095815Y0325364D01*
X0095795Y0325312D01*
X0095779Y0325259D01*
X0095766Y0325205D01*
X0095757Y0325150D01*
X0095752Y0325095D01*
X0095750Y0325039D01*
X0099150Y0315889D02*
X0099150Y0314000D01*
X0099150Y0314944D02*
X0095750Y0314944D01*
X0096506Y0314000D01*
X0113550Y0317136D02*
X0113550Y0318647D01*
X0113550Y0317136D02*
X0116950Y0317136D01*
X0116006Y0315389D02*
X0114494Y0315389D01*
X0114494Y0315388D02*
X0114434Y0315386D01*
X0114373Y0315380D01*
X0114314Y0315371D01*
X0114255Y0315357D01*
X0114197Y0315340D01*
X0114140Y0315319D01*
X0114084Y0315295D01*
X0114031Y0315267D01*
X0113979Y0315235D01*
X0113929Y0315201D01*
X0113882Y0315163D01*
X0113837Y0315122D01*
X0113795Y0315079D01*
X0113756Y0315033D01*
X0113720Y0314984D01*
X0113687Y0314933D01*
X0113657Y0314881D01*
X0113631Y0314826D01*
X0113608Y0314770D01*
X0113589Y0314713D01*
X0113574Y0314654D01*
X0113562Y0314595D01*
X0113554Y0314535D01*
X0113550Y0314474D01*
X0113550Y0314414D01*
X0113554Y0314353D01*
X0113562Y0314293D01*
X0113574Y0314234D01*
X0113589Y0314175D01*
X0113608Y0314118D01*
X0113631Y0314062D01*
X0113657Y0314007D01*
X0113687Y0313955D01*
X0113720Y0313904D01*
X0113756Y0313855D01*
X0113795Y0313809D01*
X0113837Y0313766D01*
X0113882Y0313725D01*
X0113929Y0313687D01*
X0113979Y0313653D01*
X0114031Y0313621D01*
X0114084Y0313593D01*
X0114140Y0313569D01*
X0114197Y0313548D01*
X0114255Y0313531D01*
X0114314Y0313517D01*
X0114373Y0313508D01*
X0114434Y0313502D01*
X0114494Y0313500D01*
X0116006Y0313500D01*
X0116066Y0313502D01*
X0116127Y0313508D01*
X0116186Y0313517D01*
X0116245Y0313531D01*
X0116303Y0313548D01*
X0116360Y0313569D01*
X0116416Y0313593D01*
X0116469Y0313621D01*
X0116521Y0313653D01*
X0116571Y0313687D01*
X0116618Y0313725D01*
X0116663Y0313766D01*
X0116705Y0313809D01*
X0116744Y0313855D01*
X0116780Y0313904D01*
X0116813Y0313955D01*
X0116843Y0314007D01*
X0116869Y0314062D01*
X0116892Y0314118D01*
X0116911Y0314175D01*
X0116926Y0314234D01*
X0116938Y0314293D01*
X0116946Y0314353D01*
X0116950Y0314414D01*
X0116950Y0314474D01*
X0116946Y0314535D01*
X0116938Y0314595D01*
X0116926Y0314654D01*
X0116911Y0314713D01*
X0116892Y0314770D01*
X0116869Y0314826D01*
X0116843Y0314881D01*
X0116813Y0314933D01*
X0116780Y0314984D01*
X0116744Y0315033D01*
X0116705Y0315079D01*
X0116663Y0315122D01*
X0116618Y0315163D01*
X0116571Y0315201D01*
X0116521Y0315235D01*
X0116469Y0315267D01*
X0116416Y0315295D01*
X0116360Y0315319D01*
X0116303Y0315340D01*
X0116245Y0315357D01*
X0116186Y0315371D01*
X0116127Y0315380D01*
X0116066Y0315386D01*
X0116006Y0315388D01*
X0115061Y0317136D02*
X0115061Y0318647D01*
X0115061Y0320178D02*
X0115061Y0321689D01*
X0113550Y0321689D02*
X0113550Y0320178D01*
X0116950Y0320178D01*
M02*
