G75*
%MOIN*%
%OFA0B0*%
%FSLAX25Y25*%
%IPPOS*%
%LPD*%
%AMOC8*
5,1,8,0,0,1.08239X$1,22.5*
%
%ADD10C,0.00000*%
D10*
X0001400Y0001250D02*
X0001400Y0328022D01*
X0166754Y0328022D01*
X0166754Y0001250D01*
X0001400Y0001250D01*
X0006912Y0013061D02*
X0006914Y0013219D01*
X0006920Y0013377D01*
X0006930Y0013535D01*
X0006944Y0013693D01*
X0006962Y0013850D01*
X0006983Y0014007D01*
X0007009Y0014163D01*
X0007039Y0014319D01*
X0007072Y0014474D01*
X0007110Y0014627D01*
X0007151Y0014780D01*
X0007196Y0014932D01*
X0007245Y0015083D01*
X0007298Y0015232D01*
X0007354Y0015380D01*
X0007414Y0015526D01*
X0007478Y0015671D01*
X0007546Y0015814D01*
X0007617Y0015956D01*
X0007691Y0016096D01*
X0007769Y0016233D01*
X0007851Y0016369D01*
X0007935Y0016503D01*
X0008024Y0016634D01*
X0008115Y0016763D01*
X0008210Y0016890D01*
X0008307Y0017015D01*
X0008408Y0017137D01*
X0008512Y0017256D01*
X0008619Y0017373D01*
X0008729Y0017487D01*
X0008842Y0017598D01*
X0008957Y0017707D01*
X0009075Y0017812D01*
X0009196Y0017914D01*
X0009319Y0018014D01*
X0009445Y0018110D01*
X0009573Y0018203D01*
X0009703Y0018293D01*
X0009836Y0018379D01*
X0009971Y0018463D01*
X0010107Y0018542D01*
X0010246Y0018619D01*
X0010387Y0018691D01*
X0010529Y0018761D01*
X0010673Y0018826D01*
X0010819Y0018888D01*
X0010966Y0018946D01*
X0011115Y0019001D01*
X0011265Y0019052D01*
X0011416Y0019099D01*
X0011568Y0019142D01*
X0011721Y0019181D01*
X0011876Y0019217D01*
X0012031Y0019248D01*
X0012187Y0019276D01*
X0012343Y0019300D01*
X0012500Y0019320D01*
X0012658Y0019336D01*
X0012815Y0019348D01*
X0012974Y0019356D01*
X0013132Y0019360D01*
X0013290Y0019360D01*
X0013448Y0019356D01*
X0013607Y0019348D01*
X0013764Y0019336D01*
X0013922Y0019320D01*
X0014079Y0019300D01*
X0014235Y0019276D01*
X0014391Y0019248D01*
X0014546Y0019217D01*
X0014701Y0019181D01*
X0014854Y0019142D01*
X0015006Y0019099D01*
X0015157Y0019052D01*
X0015307Y0019001D01*
X0015456Y0018946D01*
X0015603Y0018888D01*
X0015749Y0018826D01*
X0015893Y0018761D01*
X0016035Y0018691D01*
X0016176Y0018619D01*
X0016315Y0018542D01*
X0016451Y0018463D01*
X0016586Y0018379D01*
X0016719Y0018293D01*
X0016849Y0018203D01*
X0016977Y0018110D01*
X0017103Y0018014D01*
X0017226Y0017914D01*
X0017347Y0017812D01*
X0017465Y0017707D01*
X0017580Y0017598D01*
X0017693Y0017487D01*
X0017803Y0017373D01*
X0017910Y0017256D01*
X0018014Y0017137D01*
X0018115Y0017015D01*
X0018212Y0016890D01*
X0018307Y0016763D01*
X0018398Y0016634D01*
X0018487Y0016503D01*
X0018571Y0016369D01*
X0018653Y0016233D01*
X0018731Y0016096D01*
X0018805Y0015956D01*
X0018876Y0015814D01*
X0018944Y0015671D01*
X0019008Y0015526D01*
X0019068Y0015380D01*
X0019124Y0015232D01*
X0019177Y0015083D01*
X0019226Y0014932D01*
X0019271Y0014780D01*
X0019312Y0014627D01*
X0019350Y0014474D01*
X0019383Y0014319D01*
X0019413Y0014163D01*
X0019439Y0014007D01*
X0019460Y0013850D01*
X0019478Y0013693D01*
X0019492Y0013535D01*
X0019502Y0013377D01*
X0019508Y0013219D01*
X0019510Y0013061D01*
X0019508Y0012903D01*
X0019502Y0012745D01*
X0019492Y0012587D01*
X0019478Y0012429D01*
X0019460Y0012272D01*
X0019439Y0012115D01*
X0019413Y0011959D01*
X0019383Y0011803D01*
X0019350Y0011648D01*
X0019312Y0011495D01*
X0019271Y0011342D01*
X0019226Y0011190D01*
X0019177Y0011039D01*
X0019124Y0010890D01*
X0019068Y0010742D01*
X0019008Y0010596D01*
X0018944Y0010451D01*
X0018876Y0010308D01*
X0018805Y0010166D01*
X0018731Y0010026D01*
X0018653Y0009889D01*
X0018571Y0009753D01*
X0018487Y0009619D01*
X0018398Y0009488D01*
X0018307Y0009359D01*
X0018212Y0009232D01*
X0018115Y0009107D01*
X0018014Y0008985D01*
X0017910Y0008866D01*
X0017803Y0008749D01*
X0017693Y0008635D01*
X0017580Y0008524D01*
X0017465Y0008415D01*
X0017347Y0008310D01*
X0017226Y0008208D01*
X0017103Y0008108D01*
X0016977Y0008012D01*
X0016849Y0007919D01*
X0016719Y0007829D01*
X0016586Y0007743D01*
X0016451Y0007659D01*
X0016315Y0007580D01*
X0016176Y0007503D01*
X0016035Y0007431D01*
X0015893Y0007361D01*
X0015749Y0007296D01*
X0015603Y0007234D01*
X0015456Y0007176D01*
X0015307Y0007121D01*
X0015157Y0007070D01*
X0015006Y0007023D01*
X0014854Y0006980D01*
X0014701Y0006941D01*
X0014546Y0006905D01*
X0014391Y0006874D01*
X0014235Y0006846D01*
X0014079Y0006822D01*
X0013922Y0006802D01*
X0013764Y0006786D01*
X0013607Y0006774D01*
X0013448Y0006766D01*
X0013290Y0006762D01*
X0013132Y0006762D01*
X0012974Y0006766D01*
X0012815Y0006774D01*
X0012658Y0006786D01*
X0012500Y0006802D01*
X0012343Y0006822D01*
X0012187Y0006846D01*
X0012031Y0006874D01*
X0011876Y0006905D01*
X0011721Y0006941D01*
X0011568Y0006980D01*
X0011416Y0007023D01*
X0011265Y0007070D01*
X0011115Y0007121D01*
X0010966Y0007176D01*
X0010819Y0007234D01*
X0010673Y0007296D01*
X0010529Y0007361D01*
X0010387Y0007431D01*
X0010246Y0007503D01*
X0010107Y0007580D01*
X0009971Y0007659D01*
X0009836Y0007743D01*
X0009703Y0007829D01*
X0009573Y0007919D01*
X0009445Y0008012D01*
X0009319Y0008108D01*
X0009196Y0008208D01*
X0009075Y0008310D01*
X0008957Y0008415D01*
X0008842Y0008524D01*
X0008729Y0008635D01*
X0008619Y0008749D01*
X0008512Y0008866D01*
X0008408Y0008985D01*
X0008307Y0009107D01*
X0008210Y0009232D01*
X0008115Y0009359D01*
X0008024Y0009488D01*
X0007935Y0009619D01*
X0007851Y0009753D01*
X0007769Y0009889D01*
X0007691Y0010026D01*
X0007617Y0010166D01*
X0007546Y0010308D01*
X0007478Y0010451D01*
X0007414Y0010596D01*
X0007354Y0010742D01*
X0007298Y0010890D01*
X0007245Y0011039D01*
X0007196Y0011190D01*
X0007151Y0011342D01*
X0007110Y0011495D01*
X0007072Y0011648D01*
X0007039Y0011803D01*
X0007009Y0011959D01*
X0006983Y0012115D01*
X0006962Y0012272D01*
X0006944Y0012429D01*
X0006930Y0012587D01*
X0006920Y0012745D01*
X0006914Y0012903D01*
X0006912Y0013061D01*
X0059431Y0121250D02*
X0059433Y0121338D01*
X0059439Y0121426D01*
X0059449Y0121514D01*
X0059463Y0121602D01*
X0059480Y0121688D01*
X0059502Y0121774D01*
X0059527Y0121858D01*
X0059557Y0121942D01*
X0059589Y0122024D01*
X0059626Y0122104D01*
X0059666Y0122183D01*
X0059710Y0122260D01*
X0059757Y0122335D01*
X0059807Y0122407D01*
X0059861Y0122478D01*
X0059917Y0122545D01*
X0059977Y0122611D01*
X0060039Y0122673D01*
X0060105Y0122733D01*
X0060172Y0122789D01*
X0060243Y0122843D01*
X0060315Y0122893D01*
X0060390Y0122940D01*
X0060467Y0122984D01*
X0060546Y0123024D01*
X0060626Y0123061D01*
X0060708Y0123093D01*
X0060792Y0123123D01*
X0060876Y0123148D01*
X0060962Y0123170D01*
X0061048Y0123187D01*
X0061136Y0123201D01*
X0061224Y0123211D01*
X0061312Y0123217D01*
X0061400Y0123219D01*
X0061488Y0123217D01*
X0061576Y0123211D01*
X0061664Y0123201D01*
X0061752Y0123187D01*
X0061838Y0123170D01*
X0061924Y0123148D01*
X0062008Y0123123D01*
X0062092Y0123093D01*
X0062174Y0123061D01*
X0062254Y0123024D01*
X0062333Y0122984D01*
X0062410Y0122940D01*
X0062485Y0122893D01*
X0062557Y0122843D01*
X0062628Y0122789D01*
X0062695Y0122733D01*
X0062761Y0122673D01*
X0062823Y0122611D01*
X0062883Y0122545D01*
X0062939Y0122478D01*
X0062993Y0122407D01*
X0063043Y0122335D01*
X0063090Y0122260D01*
X0063134Y0122183D01*
X0063174Y0122104D01*
X0063211Y0122024D01*
X0063243Y0121942D01*
X0063273Y0121858D01*
X0063298Y0121774D01*
X0063320Y0121688D01*
X0063337Y0121602D01*
X0063351Y0121514D01*
X0063361Y0121426D01*
X0063367Y0121338D01*
X0063369Y0121250D01*
X0063367Y0121162D01*
X0063361Y0121074D01*
X0063351Y0120986D01*
X0063337Y0120898D01*
X0063320Y0120812D01*
X0063298Y0120726D01*
X0063273Y0120642D01*
X0063243Y0120558D01*
X0063211Y0120476D01*
X0063174Y0120396D01*
X0063134Y0120317D01*
X0063090Y0120240D01*
X0063043Y0120165D01*
X0062993Y0120093D01*
X0062939Y0120022D01*
X0062883Y0119955D01*
X0062823Y0119889D01*
X0062761Y0119827D01*
X0062695Y0119767D01*
X0062628Y0119711D01*
X0062557Y0119657D01*
X0062485Y0119607D01*
X0062410Y0119560D01*
X0062333Y0119516D01*
X0062254Y0119476D01*
X0062174Y0119439D01*
X0062092Y0119407D01*
X0062008Y0119377D01*
X0061924Y0119352D01*
X0061838Y0119330D01*
X0061752Y0119313D01*
X0061664Y0119299D01*
X0061576Y0119289D01*
X0061488Y0119283D01*
X0061400Y0119281D01*
X0061312Y0119283D01*
X0061224Y0119289D01*
X0061136Y0119299D01*
X0061048Y0119313D01*
X0060962Y0119330D01*
X0060876Y0119352D01*
X0060792Y0119377D01*
X0060708Y0119407D01*
X0060626Y0119439D01*
X0060546Y0119476D01*
X0060467Y0119516D01*
X0060390Y0119560D01*
X0060315Y0119607D01*
X0060243Y0119657D01*
X0060172Y0119711D01*
X0060105Y0119767D01*
X0060039Y0119827D01*
X0059977Y0119889D01*
X0059917Y0119955D01*
X0059861Y0120022D01*
X0059807Y0120093D01*
X0059757Y0120165D01*
X0059710Y0120240D01*
X0059666Y0120317D01*
X0059626Y0120396D01*
X0059589Y0120476D01*
X0059557Y0120558D01*
X0059527Y0120642D01*
X0059502Y0120726D01*
X0059480Y0120812D01*
X0059463Y0120898D01*
X0059449Y0120986D01*
X0059439Y0121074D01*
X0059433Y0121162D01*
X0059431Y0121250D01*
X0119431Y0121250D02*
X0119433Y0121338D01*
X0119439Y0121426D01*
X0119449Y0121514D01*
X0119463Y0121602D01*
X0119480Y0121688D01*
X0119502Y0121774D01*
X0119527Y0121858D01*
X0119557Y0121942D01*
X0119589Y0122024D01*
X0119626Y0122104D01*
X0119666Y0122183D01*
X0119710Y0122260D01*
X0119757Y0122335D01*
X0119807Y0122407D01*
X0119861Y0122478D01*
X0119917Y0122545D01*
X0119977Y0122611D01*
X0120039Y0122673D01*
X0120105Y0122733D01*
X0120172Y0122789D01*
X0120243Y0122843D01*
X0120315Y0122893D01*
X0120390Y0122940D01*
X0120467Y0122984D01*
X0120546Y0123024D01*
X0120626Y0123061D01*
X0120708Y0123093D01*
X0120792Y0123123D01*
X0120876Y0123148D01*
X0120962Y0123170D01*
X0121048Y0123187D01*
X0121136Y0123201D01*
X0121224Y0123211D01*
X0121312Y0123217D01*
X0121400Y0123219D01*
X0121488Y0123217D01*
X0121576Y0123211D01*
X0121664Y0123201D01*
X0121752Y0123187D01*
X0121838Y0123170D01*
X0121924Y0123148D01*
X0122008Y0123123D01*
X0122092Y0123093D01*
X0122174Y0123061D01*
X0122254Y0123024D01*
X0122333Y0122984D01*
X0122410Y0122940D01*
X0122485Y0122893D01*
X0122557Y0122843D01*
X0122628Y0122789D01*
X0122695Y0122733D01*
X0122761Y0122673D01*
X0122823Y0122611D01*
X0122883Y0122545D01*
X0122939Y0122478D01*
X0122993Y0122407D01*
X0123043Y0122335D01*
X0123090Y0122260D01*
X0123134Y0122183D01*
X0123174Y0122104D01*
X0123211Y0122024D01*
X0123243Y0121942D01*
X0123273Y0121858D01*
X0123298Y0121774D01*
X0123320Y0121688D01*
X0123337Y0121602D01*
X0123351Y0121514D01*
X0123361Y0121426D01*
X0123367Y0121338D01*
X0123369Y0121250D01*
X0123367Y0121162D01*
X0123361Y0121074D01*
X0123351Y0120986D01*
X0123337Y0120898D01*
X0123320Y0120812D01*
X0123298Y0120726D01*
X0123273Y0120642D01*
X0123243Y0120558D01*
X0123211Y0120476D01*
X0123174Y0120396D01*
X0123134Y0120317D01*
X0123090Y0120240D01*
X0123043Y0120165D01*
X0122993Y0120093D01*
X0122939Y0120022D01*
X0122883Y0119955D01*
X0122823Y0119889D01*
X0122761Y0119827D01*
X0122695Y0119767D01*
X0122628Y0119711D01*
X0122557Y0119657D01*
X0122485Y0119607D01*
X0122410Y0119560D01*
X0122333Y0119516D01*
X0122254Y0119476D01*
X0122174Y0119439D01*
X0122092Y0119407D01*
X0122008Y0119377D01*
X0121924Y0119352D01*
X0121838Y0119330D01*
X0121752Y0119313D01*
X0121664Y0119299D01*
X0121576Y0119289D01*
X0121488Y0119283D01*
X0121400Y0119281D01*
X0121312Y0119283D01*
X0121224Y0119289D01*
X0121136Y0119299D01*
X0121048Y0119313D01*
X0120962Y0119330D01*
X0120876Y0119352D01*
X0120792Y0119377D01*
X0120708Y0119407D01*
X0120626Y0119439D01*
X0120546Y0119476D01*
X0120467Y0119516D01*
X0120390Y0119560D01*
X0120315Y0119607D01*
X0120243Y0119657D01*
X0120172Y0119711D01*
X0120105Y0119767D01*
X0120039Y0119827D01*
X0119977Y0119889D01*
X0119917Y0119955D01*
X0119861Y0120022D01*
X0119807Y0120093D01*
X0119757Y0120165D01*
X0119710Y0120240D01*
X0119666Y0120317D01*
X0119626Y0120396D01*
X0119589Y0120476D01*
X0119557Y0120558D01*
X0119527Y0120642D01*
X0119502Y0120726D01*
X0119480Y0120812D01*
X0119463Y0120898D01*
X0119449Y0120986D01*
X0119439Y0121074D01*
X0119433Y0121162D01*
X0119431Y0121250D01*
X0148644Y0013061D02*
X0148646Y0013219D01*
X0148652Y0013377D01*
X0148662Y0013535D01*
X0148676Y0013693D01*
X0148694Y0013850D01*
X0148715Y0014007D01*
X0148741Y0014163D01*
X0148771Y0014319D01*
X0148804Y0014474D01*
X0148842Y0014627D01*
X0148883Y0014780D01*
X0148928Y0014932D01*
X0148977Y0015083D01*
X0149030Y0015232D01*
X0149086Y0015380D01*
X0149146Y0015526D01*
X0149210Y0015671D01*
X0149278Y0015814D01*
X0149349Y0015956D01*
X0149423Y0016096D01*
X0149501Y0016233D01*
X0149583Y0016369D01*
X0149667Y0016503D01*
X0149756Y0016634D01*
X0149847Y0016763D01*
X0149942Y0016890D01*
X0150039Y0017015D01*
X0150140Y0017137D01*
X0150244Y0017256D01*
X0150351Y0017373D01*
X0150461Y0017487D01*
X0150574Y0017598D01*
X0150689Y0017707D01*
X0150807Y0017812D01*
X0150928Y0017914D01*
X0151051Y0018014D01*
X0151177Y0018110D01*
X0151305Y0018203D01*
X0151435Y0018293D01*
X0151568Y0018379D01*
X0151703Y0018463D01*
X0151839Y0018542D01*
X0151978Y0018619D01*
X0152119Y0018691D01*
X0152261Y0018761D01*
X0152405Y0018826D01*
X0152551Y0018888D01*
X0152698Y0018946D01*
X0152847Y0019001D01*
X0152997Y0019052D01*
X0153148Y0019099D01*
X0153300Y0019142D01*
X0153453Y0019181D01*
X0153608Y0019217D01*
X0153763Y0019248D01*
X0153919Y0019276D01*
X0154075Y0019300D01*
X0154232Y0019320D01*
X0154390Y0019336D01*
X0154547Y0019348D01*
X0154706Y0019356D01*
X0154864Y0019360D01*
X0155022Y0019360D01*
X0155180Y0019356D01*
X0155339Y0019348D01*
X0155496Y0019336D01*
X0155654Y0019320D01*
X0155811Y0019300D01*
X0155967Y0019276D01*
X0156123Y0019248D01*
X0156278Y0019217D01*
X0156433Y0019181D01*
X0156586Y0019142D01*
X0156738Y0019099D01*
X0156889Y0019052D01*
X0157039Y0019001D01*
X0157188Y0018946D01*
X0157335Y0018888D01*
X0157481Y0018826D01*
X0157625Y0018761D01*
X0157767Y0018691D01*
X0157908Y0018619D01*
X0158047Y0018542D01*
X0158183Y0018463D01*
X0158318Y0018379D01*
X0158451Y0018293D01*
X0158581Y0018203D01*
X0158709Y0018110D01*
X0158835Y0018014D01*
X0158958Y0017914D01*
X0159079Y0017812D01*
X0159197Y0017707D01*
X0159312Y0017598D01*
X0159425Y0017487D01*
X0159535Y0017373D01*
X0159642Y0017256D01*
X0159746Y0017137D01*
X0159847Y0017015D01*
X0159944Y0016890D01*
X0160039Y0016763D01*
X0160130Y0016634D01*
X0160219Y0016503D01*
X0160303Y0016369D01*
X0160385Y0016233D01*
X0160463Y0016096D01*
X0160537Y0015956D01*
X0160608Y0015814D01*
X0160676Y0015671D01*
X0160740Y0015526D01*
X0160800Y0015380D01*
X0160856Y0015232D01*
X0160909Y0015083D01*
X0160958Y0014932D01*
X0161003Y0014780D01*
X0161044Y0014627D01*
X0161082Y0014474D01*
X0161115Y0014319D01*
X0161145Y0014163D01*
X0161171Y0014007D01*
X0161192Y0013850D01*
X0161210Y0013693D01*
X0161224Y0013535D01*
X0161234Y0013377D01*
X0161240Y0013219D01*
X0161242Y0013061D01*
X0161240Y0012903D01*
X0161234Y0012745D01*
X0161224Y0012587D01*
X0161210Y0012429D01*
X0161192Y0012272D01*
X0161171Y0012115D01*
X0161145Y0011959D01*
X0161115Y0011803D01*
X0161082Y0011648D01*
X0161044Y0011495D01*
X0161003Y0011342D01*
X0160958Y0011190D01*
X0160909Y0011039D01*
X0160856Y0010890D01*
X0160800Y0010742D01*
X0160740Y0010596D01*
X0160676Y0010451D01*
X0160608Y0010308D01*
X0160537Y0010166D01*
X0160463Y0010026D01*
X0160385Y0009889D01*
X0160303Y0009753D01*
X0160219Y0009619D01*
X0160130Y0009488D01*
X0160039Y0009359D01*
X0159944Y0009232D01*
X0159847Y0009107D01*
X0159746Y0008985D01*
X0159642Y0008866D01*
X0159535Y0008749D01*
X0159425Y0008635D01*
X0159312Y0008524D01*
X0159197Y0008415D01*
X0159079Y0008310D01*
X0158958Y0008208D01*
X0158835Y0008108D01*
X0158709Y0008012D01*
X0158581Y0007919D01*
X0158451Y0007829D01*
X0158318Y0007743D01*
X0158183Y0007659D01*
X0158047Y0007580D01*
X0157908Y0007503D01*
X0157767Y0007431D01*
X0157625Y0007361D01*
X0157481Y0007296D01*
X0157335Y0007234D01*
X0157188Y0007176D01*
X0157039Y0007121D01*
X0156889Y0007070D01*
X0156738Y0007023D01*
X0156586Y0006980D01*
X0156433Y0006941D01*
X0156278Y0006905D01*
X0156123Y0006874D01*
X0155967Y0006846D01*
X0155811Y0006822D01*
X0155654Y0006802D01*
X0155496Y0006786D01*
X0155339Y0006774D01*
X0155180Y0006766D01*
X0155022Y0006762D01*
X0154864Y0006762D01*
X0154706Y0006766D01*
X0154547Y0006774D01*
X0154390Y0006786D01*
X0154232Y0006802D01*
X0154075Y0006822D01*
X0153919Y0006846D01*
X0153763Y0006874D01*
X0153608Y0006905D01*
X0153453Y0006941D01*
X0153300Y0006980D01*
X0153148Y0007023D01*
X0152997Y0007070D01*
X0152847Y0007121D01*
X0152698Y0007176D01*
X0152551Y0007234D01*
X0152405Y0007296D01*
X0152261Y0007361D01*
X0152119Y0007431D01*
X0151978Y0007503D01*
X0151839Y0007580D01*
X0151703Y0007659D01*
X0151568Y0007743D01*
X0151435Y0007829D01*
X0151305Y0007919D01*
X0151177Y0008012D01*
X0151051Y0008108D01*
X0150928Y0008208D01*
X0150807Y0008310D01*
X0150689Y0008415D01*
X0150574Y0008524D01*
X0150461Y0008635D01*
X0150351Y0008749D01*
X0150244Y0008866D01*
X0150140Y0008985D01*
X0150039Y0009107D01*
X0149942Y0009232D01*
X0149847Y0009359D01*
X0149756Y0009488D01*
X0149667Y0009619D01*
X0149583Y0009753D01*
X0149501Y0009889D01*
X0149423Y0010026D01*
X0149349Y0010166D01*
X0149278Y0010308D01*
X0149210Y0010451D01*
X0149146Y0010596D01*
X0149086Y0010742D01*
X0149030Y0010890D01*
X0148977Y0011039D01*
X0148928Y0011190D01*
X0148883Y0011342D01*
X0148842Y0011495D01*
X0148804Y0011648D01*
X0148771Y0011803D01*
X0148741Y0011959D01*
X0148715Y0012115D01*
X0148694Y0012272D01*
X0148676Y0012429D01*
X0148662Y0012587D01*
X0148652Y0012745D01*
X0148646Y0012903D01*
X0148644Y0013061D01*
X0119431Y0301250D02*
X0119433Y0301338D01*
X0119439Y0301426D01*
X0119449Y0301514D01*
X0119463Y0301602D01*
X0119480Y0301688D01*
X0119502Y0301774D01*
X0119527Y0301858D01*
X0119557Y0301942D01*
X0119589Y0302024D01*
X0119626Y0302104D01*
X0119666Y0302183D01*
X0119710Y0302260D01*
X0119757Y0302335D01*
X0119807Y0302407D01*
X0119861Y0302478D01*
X0119917Y0302545D01*
X0119977Y0302611D01*
X0120039Y0302673D01*
X0120105Y0302733D01*
X0120172Y0302789D01*
X0120243Y0302843D01*
X0120315Y0302893D01*
X0120390Y0302940D01*
X0120467Y0302984D01*
X0120546Y0303024D01*
X0120626Y0303061D01*
X0120708Y0303093D01*
X0120792Y0303123D01*
X0120876Y0303148D01*
X0120962Y0303170D01*
X0121048Y0303187D01*
X0121136Y0303201D01*
X0121224Y0303211D01*
X0121312Y0303217D01*
X0121400Y0303219D01*
X0121488Y0303217D01*
X0121576Y0303211D01*
X0121664Y0303201D01*
X0121752Y0303187D01*
X0121838Y0303170D01*
X0121924Y0303148D01*
X0122008Y0303123D01*
X0122092Y0303093D01*
X0122174Y0303061D01*
X0122254Y0303024D01*
X0122333Y0302984D01*
X0122410Y0302940D01*
X0122485Y0302893D01*
X0122557Y0302843D01*
X0122628Y0302789D01*
X0122695Y0302733D01*
X0122761Y0302673D01*
X0122823Y0302611D01*
X0122883Y0302545D01*
X0122939Y0302478D01*
X0122993Y0302407D01*
X0123043Y0302335D01*
X0123090Y0302260D01*
X0123134Y0302183D01*
X0123174Y0302104D01*
X0123211Y0302024D01*
X0123243Y0301942D01*
X0123273Y0301858D01*
X0123298Y0301774D01*
X0123320Y0301688D01*
X0123337Y0301602D01*
X0123351Y0301514D01*
X0123361Y0301426D01*
X0123367Y0301338D01*
X0123369Y0301250D01*
X0123367Y0301162D01*
X0123361Y0301074D01*
X0123351Y0300986D01*
X0123337Y0300898D01*
X0123320Y0300812D01*
X0123298Y0300726D01*
X0123273Y0300642D01*
X0123243Y0300558D01*
X0123211Y0300476D01*
X0123174Y0300396D01*
X0123134Y0300317D01*
X0123090Y0300240D01*
X0123043Y0300165D01*
X0122993Y0300093D01*
X0122939Y0300022D01*
X0122883Y0299955D01*
X0122823Y0299889D01*
X0122761Y0299827D01*
X0122695Y0299767D01*
X0122628Y0299711D01*
X0122557Y0299657D01*
X0122485Y0299607D01*
X0122410Y0299560D01*
X0122333Y0299516D01*
X0122254Y0299476D01*
X0122174Y0299439D01*
X0122092Y0299407D01*
X0122008Y0299377D01*
X0121924Y0299352D01*
X0121838Y0299330D01*
X0121752Y0299313D01*
X0121664Y0299299D01*
X0121576Y0299289D01*
X0121488Y0299283D01*
X0121400Y0299281D01*
X0121312Y0299283D01*
X0121224Y0299289D01*
X0121136Y0299299D01*
X0121048Y0299313D01*
X0120962Y0299330D01*
X0120876Y0299352D01*
X0120792Y0299377D01*
X0120708Y0299407D01*
X0120626Y0299439D01*
X0120546Y0299476D01*
X0120467Y0299516D01*
X0120390Y0299560D01*
X0120315Y0299607D01*
X0120243Y0299657D01*
X0120172Y0299711D01*
X0120105Y0299767D01*
X0120039Y0299827D01*
X0119977Y0299889D01*
X0119917Y0299955D01*
X0119861Y0300022D01*
X0119807Y0300093D01*
X0119757Y0300165D01*
X0119710Y0300240D01*
X0119666Y0300317D01*
X0119626Y0300396D01*
X0119589Y0300476D01*
X0119557Y0300558D01*
X0119527Y0300642D01*
X0119502Y0300726D01*
X0119480Y0300812D01*
X0119463Y0300898D01*
X0119449Y0300986D01*
X0119439Y0301074D01*
X0119433Y0301162D01*
X0119431Y0301250D01*
X0148644Y0312274D02*
X0148646Y0312432D01*
X0148652Y0312590D01*
X0148662Y0312748D01*
X0148676Y0312906D01*
X0148694Y0313063D01*
X0148715Y0313220D01*
X0148741Y0313376D01*
X0148771Y0313532D01*
X0148804Y0313687D01*
X0148842Y0313840D01*
X0148883Y0313993D01*
X0148928Y0314145D01*
X0148977Y0314296D01*
X0149030Y0314445D01*
X0149086Y0314593D01*
X0149146Y0314739D01*
X0149210Y0314884D01*
X0149278Y0315027D01*
X0149349Y0315169D01*
X0149423Y0315309D01*
X0149501Y0315446D01*
X0149583Y0315582D01*
X0149667Y0315716D01*
X0149756Y0315847D01*
X0149847Y0315976D01*
X0149942Y0316103D01*
X0150039Y0316228D01*
X0150140Y0316350D01*
X0150244Y0316469D01*
X0150351Y0316586D01*
X0150461Y0316700D01*
X0150574Y0316811D01*
X0150689Y0316920D01*
X0150807Y0317025D01*
X0150928Y0317127D01*
X0151051Y0317227D01*
X0151177Y0317323D01*
X0151305Y0317416D01*
X0151435Y0317506D01*
X0151568Y0317592D01*
X0151703Y0317676D01*
X0151839Y0317755D01*
X0151978Y0317832D01*
X0152119Y0317904D01*
X0152261Y0317974D01*
X0152405Y0318039D01*
X0152551Y0318101D01*
X0152698Y0318159D01*
X0152847Y0318214D01*
X0152997Y0318265D01*
X0153148Y0318312D01*
X0153300Y0318355D01*
X0153453Y0318394D01*
X0153608Y0318430D01*
X0153763Y0318461D01*
X0153919Y0318489D01*
X0154075Y0318513D01*
X0154232Y0318533D01*
X0154390Y0318549D01*
X0154547Y0318561D01*
X0154706Y0318569D01*
X0154864Y0318573D01*
X0155022Y0318573D01*
X0155180Y0318569D01*
X0155339Y0318561D01*
X0155496Y0318549D01*
X0155654Y0318533D01*
X0155811Y0318513D01*
X0155967Y0318489D01*
X0156123Y0318461D01*
X0156278Y0318430D01*
X0156433Y0318394D01*
X0156586Y0318355D01*
X0156738Y0318312D01*
X0156889Y0318265D01*
X0157039Y0318214D01*
X0157188Y0318159D01*
X0157335Y0318101D01*
X0157481Y0318039D01*
X0157625Y0317974D01*
X0157767Y0317904D01*
X0157908Y0317832D01*
X0158047Y0317755D01*
X0158183Y0317676D01*
X0158318Y0317592D01*
X0158451Y0317506D01*
X0158581Y0317416D01*
X0158709Y0317323D01*
X0158835Y0317227D01*
X0158958Y0317127D01*
X0159079Y0317025D01*
X0159197Y0316920D01*
X0159312Y0316811D01*
X0159425Y0316700D01*
X0159535Y0316586D01*
X0159642Y0316469D01*
X0159746Y0316350D01*
X0159847Y0316228D01*
X0159944Y0316103D01*
X0160039Y0315976D01*
X0160130Y0315847D01*
X0160219Y0315716D01*
X0160303Y0315582D01*
X0160385Y0315446D01*
X0160463Y0315309D01*
X0160537Y0315169D01*
X0160608Y0315027D01*
X0160676Y0314884D01*
X0160740Y0314739D01*
X0160800Y0314593D01*
X0160856Y0314445D01*
X0160909Y0314296D01*
X0160958Y0314145D01*
X0161003Y0313993D01*
X0161044Y0313840D01*
X0161082Y0313687D01*
X0161115Y0313532D01*
X0161145Y0313376D01*
X0161171Y0313220D01*
X0161192Y0313063D01*
X0161210Y0312906D01*
X0161224Y0312748D01*
X0161234Y0312590D01*
X0161240Y0312432D01*
X0161242Y0312274D01*
X0161240Y0312116D01*
X0161234Y0311958D01*
X0161224Y0311800D01*
X0161210Y0311642D01*
X0161192Y0311485D01*
X0161171Y0311328D01*
X0161145Y0311172D01*
X0161115Y0311016D01*
X0161082Y0310861D01*
X0161044Y0310708D01*
X0161003Y0310555D01*
X0160958Y0310403D01*
X0160909Y0310252D01*
X0160856Y0310103D01*
X0160800Y0309955D01*
X0160740Y0309809D01*
X0160676Y0309664D01*
X0160608Y0309521D01*
X0160537Y0309379D01*
X0160463Y0309239D01*
X0160385Y0309102D01*
X0160303Y0308966D01*
X0160219Y0308832D01*
X0160130Y0308701D01*
X0160039Y0308572D01*
X0159944Y0308445D01*
X0159847Y0308320D01*
X0159746Y0308198D01*
X0159642Y0308079D01*
X0159535Y0307962D01*
X0159425Y0307848D01*
X0159312Y0307737D01*
X0159197Y0307628D01*
X0159079Y0307523D01*
X0158958Y0307421D01*
X0158835Y0307321D01*
X0158709Y0307225D01*
X0158581Y0307132D01*
X0158451Y0307042D01*
X0158318Y0306956D01*
X0158183Y0306872D01*
X0158047Y0306793D01*
X0157908Y0306716D01*
X0157767Y0306644D01*
X0157625Y0306574D01*
X0157481Y0306509D01*
X0157335Y0306447D01*
X0157188Y0306389D01*
X0157039Y0306334D01*
X0156889Y0306283D01*
X0156738Y0306236D01*
X0156586Y0306193D01*
X0156433Y0306154D01*
X0156278Y0306118D01*
X0156123Y0306087D01*
X0155967Y0306059D01*
X0155811Y0306035D01*
X0155654Y0306015D01*
X0155496Y0305999D01*
X0155339Y0305987D01*
X0155180Y0305979D01*
X0155022Y0305975D01*
X0154864Y0305975D01*
X0154706Y0305979D01*
X0154547Y0305987D01*
X0154390Y0305999D01*
X0154232Y0306015D01*
X0154075Y0306035D01*
X0153919Y0306059D01*
X0153763Y0306087D01*
X0153608Y0306118D01*
X0153453Y0306154D01*
X0153300Y0306193D01*
X0153148Y0306236D01*
X0152997Y0306283D01*
X0152847Y0306334D01*
X0152698Y0306389D01*
X0152551Y0306447D01*
X0152405Y0306509D01*
X0152261Y0306574D01*
X0152119Y0306644D01*
X0151978Y0306716D01*
X0151839Y0306793D01*
X0151703Y0306872D01*
X0151568Y0306956D01*
X0151435Y0307042D01*
X0151305Y0307132D01*
X0151177Y0307225D01*
X0151051Y0307321D01*
X0150928Y0307421D01*
X0150807Y0307523D01*
X0150689Y0307628D01*
X0150574Y0307737D01*
X0150461Y0307848D01*
X0150351Y0307962D01*
X0150244Y0308079D01*
X0150140Y0308198D01*
X0150039Y0308320D01*
X0149942Y0308445D01*
X0149847Y0308572D01*
X0149756Y0308701D01*
X0149667Y0308832D01*
X0149583Y0308966D01*
X0149501Y0309102D01*
X0149423Y0309239D01*
X0149349Y0309379D01*
X0149278Y0309521D01*
X0149210Y0309664D01*
X0149146Y0309809D01*
X0149086Y0309955D01*
X0149030Y0310103D01*
X0148977Y0310252D01*
X0148928Y0310403D01*
X0148883Y0310555D01*
X0148842Y0310708D01*
X0148804Y0310861D01*
X0148771Y0311016D01*
X0148741Y0311172D01*
X0148715Y0311328D01*
X0148694Y0311485D01*
X0148676Y0311642D01*
X0148662Y0311800D01*
X0148652Y0311958D01*
X0148646Y0312116D01*
X0148644Y0312274D01*
X0059431Y0301250D02*
X0059433Y0301338D01*
X0059439Y0301426D01*
X0059449Y0301514D01*
X0059463Y0301602D01*
X0059480Y0301688D01*
X0059502Y0301774D01*
X0059527Y0301858D01*
X0059557Y0301942D01*
X0059589Y0302024D01*
X0059626Y0302104D01*
X0059666Y0302183D01*
X0059710Y0302260D01*
X0059757Y0302335D01*
X0059807Y0302407D01*
X0059861Y0302478D01*
X0059917Y0302545D01*
X0059977Y0302611D01*
X0060039Y0302673D01*
X0060105Y0302733D01*
X0060172Y0302789D01*
X0060243Y0302843D01*
X0060315Y0302893D01*
X0060390Y0302940D01*
X0060467Y0302984D01*
X0060546Y0303024D01*
X0060626Y0303061D01*
X0060708Y0303093D01*
X0060792Y0303123D01*
X0060876Y0303148D01*
X0060962Y0303170D01*
X0061048Y0303187D01*
X0061136Y0303201D01*
X0061224Y0303211D01*
X0061312Y0303217D01*
X0061400Y0303219D01*
X0061488Y0303217D01*
X0061576Y0303211D01*
X0061664Y0303201D01*
X0061752Y0303187D01*
X0061838Y0303170D01*
X0061924Y0303148D01*
X0062008Y0303123D01*
X0062092Y0303093D01*
X0062174Y0303061D01*
X0062254Y0303024D01*
X0062333Y0302984D01*
X0062410Y0302940D01*
X0062485Y0302893D01*
X0062557Y0302843D01*
X0062628Y0302789D01*
X0062695Y0302733D01*
X0062761Y0302673D01*
X0062823Y0302611D01*
X0062883Y0302545D01*
X0062939Y0302478D01*
X0062993Y0302407D01*
X0063043Y0302335D01*
X0063090Y0302260D01*
X0063134Y0302183D01*
X0063174Y0302104D01*
X0063211Y0302024D01*
X0063243Y0301942D01*
X0063273Y0301858D01*
X0063298Y0301774D01*
X0063320Y0301688D01*
X0063337Y0301602D01*
X0063351Y0301514D01*
X0063361Y0301426D01*
X0063367Y0301338D01*
X0063369Y0301250D01*
X0063367Y0301162D01*
X0063361Y0301074D01*
X0063351Y0300986D01*
X0063337Y0300898D01*
X0063320Y0300812D01*
X0063298Y0300726D01*
X0063273Y0300642D01*
X0063243Y0300558D01*
X0063211Y0300476D01*
X0063174Y0300396D01*
X0063134Y0300317D01*
X0063090Y0300240D01*
X0063043Y0300165D01*
X0062993Y0300093D01*
X0062939Y0300022D01*
X0062883Y0299955D01*
X0062823Y0299889D01*
X0062761Y0299827D01*
X0062695Y0299767D01*
X0062628Y0299711D01*
X0062557Y0299657D01*
X0062485Y0299607D01*
X0062410Y0299560D01*
X0062333Y0299516D01*
X0062254Y0299476D01*
X0062174Y0299439D01*
X0062092Y0299407D01*
X0062008Y0299377D01*
X0061924Y0299352D01*
X0061838Y0299330D01*
X0061752Y0299313D01*
X0061664Y0299299D01*
X0061576Y0299289D01*
X0061488Y0299283D01*
X0061400Y0299281D01*
X0061312Y0299283D01*
X0061224Y0299289D01*
X0061136Y0299299D01*
X0061048Y0299313D01*
X0060962Y0299330D01*
X0060876Y0299352D01*
X0060792Y0299377D01*
X0060708Y0299407D01*
X0060626Y0299439D01*
X0060546Y0299476D01*
X0060467Y0299516D01*
X0060390Y0299560D01*
X0060315Y0299607D01*
X0060243Y0299657D01*
X0060172Y0299711D01*
X0060105Y0299767D01*
X0060039Y0299827D01*
X0059977Y0299889D01*
X0059917Y0299955D01*
X0059861Y0300022D01*
X0059807Y0300093D01*
X0059757Y0300165D01*
X0059710Y0300240D01*
X0059666Y0300317D01*
X0059626Y0300396D01*
X0059589Y0300476D01*
X0059557Y0300558D01*
X0059527Y0300642D01*
X0059502Y0300726D01*
X0059480Y0300812D01*
X0059463Y0300898D01*
X0059449Y0300986D01*
X0059439Y0301074D01*
X0059433Y0301162D01*
X0059431Y0301250D01*
X0006912Y0312274D02*
X0006914Y0312432D01*
X0006920Y0312590D01*
X0006930Y0312748D01*
X0006944Y0312906D01*
X0006962Y0313063D01*
X0006983Y0313220D01*
X0007009Y0313376D01*
X0007039Y0313532D01*
X0007072Y0313687D01*
X0007110Y0313840D01*
X0007151Y0313993D01*
X0007196Y0314145D01*
X0007245Y0314296D01*
X0007298Y0314445D01*
X0007354Y0314593D01*
X0007414Y0314739D01*
X0007478Y0314884D01*
X0007546Y0315027D01*
X0007617Y0315169D01*
X0007691Y0315309D01*
X0007769Y0315446D01*
X0007851Y0315582D01*
X0007935Y0315716D01*
X0008024Y0315847D01*
X0008115Y0315976D01*
X0008210Y0316103D01*
X0008307Y0316228D01*
X0008408Y0316350D01*
X0008512Y0316469D01*
X0008619Y0316586D01*
X0008729Y0316700D01*
X0008842Y0316811D01*
X0008957Y0316920D01*
X0009075Y0317025D01*
X0009196Y0317127D01*
X0009319Y0317227D01*
X0009445Y0317323D01*
X0009573Y0317416D01*
X0009703Y0317506D01*
X0009836Y0317592D01*
X0009971Y0317676D01*
X0010107Y0317755D01*
X0010246Y0317832D01*
X0010387Y0317904D01*
X0010529Y0317974D01*
X0010673Y0318039D01*
X0010819Y0318101D01*
X0010966Y0318159D01*
X0011115Y0318214D01*
X0011265Y0318265D01*
X0011416Y0318312D01*
X0011568Y0318355D01*
X0011721Y0318394D01*
X0011876Y0318430D01*
X0012031Y0318461D01*
X0012187Y0318489D01*
X0012343Y0318513D01*
X0012500Y0318533D01*
X0012658Y0318549D01*
X0012815Y0318561D01*
X0012974Y0318569D01*
X0013132Y0318573D01*
X0013290Y0318573D01*
X0013448Y0318569D01*
X0013607Y0318561D01*
X0013764Y0318549D01*
X0013922Y0318533D01*
X0014079Y0318513D01*
X0014235Y0318489D01*
X0014391Y0318461D01*
X0014546Y0318430D01*
X0014701Y0318394D01*
X0014854Y0318355D01*
X0015006Y0318312D01*
X0015157Y0318265D01*
X0015307Y0318214D01*
X0015456Y0318159D01*
X0015603Y0318101D01*
X0015749Y0318039D01*
X0015893Y0317974D01*
X0016035Y0317904D01*
X0016176Y0317832D01*
X0016315Y0317755D01*
X0016451Y0317676D01*
X0016586Y0317592D01*
X0016719Y0317506D01*
X0016849Y0317416D01*
X0016977Y0317323D01*
X0017103Y0317227D01*
X0017226Y0317127D01*
X0017347Y0317025D01*
X0017465Y0316920D01*
X0017580Y0316811D01*
X0017693Y0316700D01*
X0017803Y0316586D01*
X0017910Y0316469D01*
X0018014Y0316350D01*
X0018115Y0316228D01*
X0018212Y0316103D01*
X0018307Y0315976D01*
X0018398Y0315847D01*
X0018487Y0315716D01*
X0018571Y0315582D01*
X0018653Y0315446D01*
X0018731Y0315309D01*
X0018805Y0315169D01*
X0018876Y0315027D01*
X0018944Y0314884D01*
X0019008Y0314739D01*
X0019068Y0314593D01*
X0019124Y0314445D01*
X0019177Y0314296D01*
X0019226Y0314145D01*
X0019271Y0313993D01*
X0019312Y0313840D01*
X0019350Y0313687D01*
X0019383Y0313532D01*
X0019413Y0313376D01*
X0019439Y0313220D01*
X0019460Y0313063D01*
X0019478Y0312906D01*
X0019492Y0312748D01*
X0019502Y0312590D01*
X0019508Y0312432D01*
X0019510Y0312274D01*
X0019508Y0312116D01*
X0019502Y0311958D01*
X0019492Y0311800D01*
X0019478Y0311642D01*
X0019460Y0311485D01*
X0019439Y0311328D01*
X0019413Y0311172D01*
X0019383Y0311016D01*
X0019350Y0310861D01*
X0019312Y0310708D01*
X0019271Y0310555D01*
X0019226Y0310403D01*
X0019177Y0310252D01*
X0019124Y0310103D01*
X0019068Y0309955D01*
X0019008Y0309809D01*
X0018944Y0309664D01*
X0018876Y0309521D01*
X0018805Y0309379D01*
X0018731Y0309239D01*
X0018653Y0309102D01*
X0018571Y0308966D01*
X0018487Y0308832D01*
X0018398Y0308701D01*
X0018307Y0308572D01*
X0018212Y0308445D01*
X0018115Y0308320D01*
X0018014Y0308198D01*
X0017910Y0308079D01*
X0017803Y0307962D01*
X0017693Y0307848D01*
X0017580Y0307737D01*
X0017465Y0307628D01*
X0017347Y0307523D01*
X0017226Y0307421D01*
X0017103Y0307321D01*
X0016977Y0307225D01*
X0016849Y0307132D01*
X0016719Y0307042D01*
X0016586Y0306956D01*
X0016451Y0306872D01*
X0016315Y0306793D01*
X0016176Y0306716D01*
X0016035Y0306644D01*
X0015893Y0306574D01*
X0015749Y0306509D01*
X0015603Y0306447D01*
X0015456Y0306389D01*
X0015307Y0306334D01*
X0015157Y0306283D01*
X0015006Y0306236D01*
X0014854Y0306193D01*
X0014701Y0306154D01*
X0014546Y0306118D01*
X0014391Y0306087D01*
X0014235Y0306059D01*
X0014079Y0306035D01*
X0013922Y0306015D01*
X0013764Y0305999D01*
X0013607Y0305987D01*
X0013448Y0305979D01*
X0013290Y0305975D01*
X0013132Y0305975D01*
X0012974Y0305979D01*
X0012815Y0305987D01*
X0012658Y0305999D01*
X0012500Y0306015D01*
X0012343Y0306035D01*
X0012187Y0306059D01*
X0012031Y0306087D01*
X0011876Y0306118D01*
X0011721Y0306154D01*
X0011568Y0306193D01*
X0011416Y0306236D01*
X0011265Y0306283D01*
X0011115Y0306334D01*
X0010966Y0306389D01*
X0010819Y0306447D01*
X0010673Y0306509D01*
X0010529Y0306574D01*
X0010387Y0306644D01*
X0010246Y0306716D01*
X0010107Y0306793D01*
X0009971Y0306872D01*
X0009836Y0306956D01*
X0009703Y0307042D01*
X0009573Y0307132D01*
X0009445Y0307225D01*
X0009319Y0307321D01*
X0009196Y0307421D01*
X0009075Y0307523D01*
X0008957Y0307628D01*
X0008842Y0307737D01*
X0008729Y0307848D01*
X0008619Y0307962D01*
X0008512Y0308079D01*
X0008408Y0308198D01*
X0008307Y0308320D01*
X0008210Y0308445D01*
X0008115Y0308572D01*
X0008024Y0308701D01*
X0007935Y0308832D01*
X0007851Y0308966D01*
X0007769Y0309102D01*
X0007691Y0309239D01*
X0007617Y0309379D01*
X0007546Y0309521D01*
X0007478Y0309664D01*
X0007414Y0309809D01*
X0007354Y0309955D01*
X0007298Y0310103D01*
X0007245Y0310252D01*
X0007196Y0310403D01*
X0007151Y0310555D01*
X0007110Y0310708D01*
X0007072Y0310861D01*
X0007039Y0311016D01*
X0007009Y0311172D01*
X0006983Y0311328D01*
X0006962Y0311485D01*
X0006944Y0311642D01*
X0006930Y0311800D01*
X0006920Y0311958D01*
X0006914Y0312116D01*
X0006912Y0312274D01*
M02*
