%
M48
M72
T01C0.01181
T02C0.02756
T03C0.03200
T04C0.03543
T05C0.03937
T06C0.04331
T07C0.12598
%
T01
X47400Y74250
X53400Y115250
X44400Y117250
X68400Y164250
X76400Y116250
X128400Y117250
X133400Y99250
X146400Y112250
X152400Y118250
X155400Y205250
X136400Y249250
X115400Y254250
X89400Y241250
X74400Y230250
X51400Y261250
X55400Y280250
X43400Y302250
X40400Y311250
X33400Y308250
X32400Y279250
X32400Y275250
X34400Y263250
X17400Y233250
X14400Y285250
X7400Y286250
X61400Y316250
X130400Y315250
X133400Y304250
X155400Y290250
X158400Y269250
T02
X143132Y268967
X143132Y276841
X143132Y284715
X143132Y253219
X143132Y245344
X25022Y245344
X25022Y237470
X25022Y229596
X25022Y213848
X25022Y205974
X25022Y198100
X25022Y261093
X25022Y268967
X25022Y276841
X25022Y284715
X25022Y79990
X25022Y72116
X25022Y56368
X25022Y48494
X25022Y40620
T03
X31400Y26250
X41400Y26250
X41400Y36250
X51400Y36250
X61400Y36250
X61400Y56250
X62113Y66250
X66400Y76250
X56400Y76250
X52113Y66250
X51400Y56250
X41400Y56250
X41400Y66250
X41400Y86250
X41400Y96250
X31400Y96250
X21400Y96250
X11400Y96250
X11400Y126250
X21400Y126250
X31400Y126250
X41400Y126250
X41400Y146250
X31400Y146250
X21400Y146250
X11400Y146250
X11400Y176250
X21400Y176250
X31400Y176250
X41400Y176250
X41400Y186250
X41400Y206250
X41400Y216250
X41400Y226250
X41400Y236250
X41400Y246250
X41400Y256250
X41400Y266250
X41400Y286250
X56400Y106250
X66400Y106250
X76400Y106250
X86400Y106250
X96400Y106250
X106400Y106250
X116400Y106250
X126400Y106250
X126400Y96250
X126400Y86250
X126400Y76250
X116400Y76250
X111400Y61250
X106400Y76250
X101400Y61250
X96400Y76250
X91400Y61250
X86400Y76250
X81400Y61250
X76400Y76250
X81400Y31250
X91400Y31250
X101400Y31250
X111400Y31250
X121400Y41250
X121400Y51250
X156400Y76250
X156400Y86250
X156400Y96250
X156400Y106250
X146400Y166250
X136400Y166250
X136400Y186250
X146400Y186250
X146400Y206250
X136400Y206250
X136400Y226250
X146400Y226250
T04
X71400Y61250
X71400Y31250
T05
X61400Y121250
X121400Y121250
X121400Y301250
X61400Y301250
T06
X61400Y291250
X61400Y281250
X61400Y271250
X61400Y261250
X61400Y251250
X61400Y241250
X61400Y231250
X61400Y221250
X61400Y211250
X61400Y201250
X61400Y191250
X61400Y181250
X61400Y171250
X61400Y161250
X61400Y151250
X61400Y141250
X61400Y131250
X121400Y131250
X121400Y141250
X121400Y151250
X121400Y161250
X121400Y171250
X121400Y181250
X121400Y191250
X121400Y201250
X121400Y211250
X121400Y221250
X121400Y231250
X121400Y241250
X121400Y251250
X121400Y261250
X121400Y271250
X121400Y281250
X121400Y291250
T07
X13211Y13061
X154943Y13061
X154943Y312274
X13211Y312274
M30
