G75*
%MOIN*%
%OFA0B0*%
%FSLAX25Y25*%
%IPPOS*%
%LPD*%
%AMOC8*
5,1,8,0,0,1.08239X$1,22.5*
%
%ADD10C,0.00300*%
%ADD11C,0.00600*%
%ADD12C,0.01000*%
%ADD13C,0.00200*%
%ADD14C,0.00800*%
%ADD15C,0.00500*%
D10*
X0087691Y0120606D02*
X0087691Y0122700D01*
X0089302Y0122700D02*
X0089302Y0120606D01*
X0089303Y0120606D02*
X0089301Y0120551D01*
X0089295Y0120496D01*
X0089286Y0120442D01*
X0089273Y0120389D01*
X0089256Y0120336D01*
X0089236Y0120285D01*
X0089213Y0120235D01*
X0089186Y0120187D01*
X0089155Y0120141D01*
X0089122Y0120097D01*
X0089086Y0120056D01*
X0089047Y0120017D01*
X0089006Y0119981D01*
X0088962Y0119948D01*
X0088916Y0119917D01*
X0088868Y0119890D01*
X0088818Y0119867D01*
X0088767Y0119847D01*
X0088714Y0119830D01*
X0088661Y0119817D01*
X0088607Y0119808D01*
X0088552Y0119802D01*
X0088497Y0119800D01*
X0088442Y0119802D01*
X0088387Y0119808D01*
X0088333Y0119817D01*
X0088280Y0119830D01*
X0088227Y0119847D01*
X0088176Y0119867D01*
X0088126Y0119890D01*
X0088078Y0119917D01*
X0088032Y0119948D01*
X0087988Y0119981D01*
X0087947Y0120017D01*
X0087908Y0120056D01*
X0087872Y0120097D01*
X0087839Y0120141D01*
X0087808Y0120187D01*
X0087781Y0120235D01*
X0087758Y0120285D01*
X0087738Y0120336D01*
X0087721Y0120389D01*
X0087708Y0120442D01*
X0087699Y0120496D01*
X0087693Y0120551D01*
X0087691Y0120606D01*
X0090974Y0121492D02*
X0091860Y0121008D01*
X0091538Y0119800D02*
X0091466Y0119802D01*
X0091395Y0119808D01*
X0091324Y0119817D01*
X0091254Y0119830D01*
X0091184Y0119847D01*
X0091115Y0119867D01*
X0091048Y0119891D01*
X0090982Y0119919D01*
X0090917Y0119950D01*
X0090854Y0119984D01*
X0090793Y0120022D01*
X0090734Y0120063D01*
X0090678Y0120106D01*
X0090623Y0120153D01*
X0090572Y0120203D01*
X0091861Y0121008D02*
X0091901Y0120982D01*
X0091940Y0120953D01*
X0091977Y0120921D01*
X0092011Y0120886D01*
X0092042Y0120849D01*
X0092071Y0120810D01*
X0092097Y0120769D01*
X0092119Y0120726D01*
X0092138Y0120681D01*
X0092154Y0120635D01*
X0092167Y0120589D01*
X0092176Y0120541D01*
X0092181Y0120493D01*
X0092183Y0120444D01*
X0092182Y0120444D02*
X0092180Y0120396D01*
X0092175Y0120348D01*
X0092166Y0120301D01*
X0092153Y0120254D01*
X0092137Y0120209D01*
X0092118Y0120165D01*
X0092096Y0120122D01*
X0092070Y0120081D01*
X0092041Y0120042D01*
X0092010Y0120006D01*
X0091976Y0119972D01*
X0091940Y0119941D01*
X0091901Y0119912D01*
X0091860Y0119886D01*
X0091817Y0119864D01*
X0091773Y0119845D01*
X0091728Y0119829D01*
X0091681Y0119816D01*
X0091634Y0119807D01*
X0091586Y0119802D01*
X0091538Y0119800D01*
X0092021Y0122458D02*
X0091968Y0122496D01*
X0091913Y0122530D01*
X0091857Y0122562D01*
X0091798Y0122591D01*
X0091739Y0122616D01*
X0091678Y0122638D01*
X0091616Y0122657D01*
X0091553Y0122672D01*
X0091490Y0122684D01*
X0091425Y0122693D01*
X0091361Y0122698D01*
X0091296Y0122700D01*
X0091248Y0122698D01*
X0091200Y0122693D01*
X0091153Y0122684D01*
X0091106Y0122671D01*
X0091061Y0122655D01*
X0091017Y0122636D01*
X0090974Y0122614D01*
X0090933Y0122588D01*
X0090894Y0122560D01*
X0090858Y0122528D01*
X0090824Y0122494D01*
X0090793Y0122458D01*
X0090764Y0122419D01*
X0090738Y0122378D01*
X0090716Y0122335D01*
X0090697Y0122291D01*
X0090681Y0122246D01*
X0090668Y0122199D01*
X0090659Y0122152D01*
X0090654Y0122104D01*
X0090652Y0122056D01*
X0090651Y0122056D02*
X0090653Y0122007D01*
X0090658Y0121959D01*
X0090667Y0121911D01*
X0090680Y0121865D01*
X0090696Y0121819D01*
X0090715Y0121774D01*
X0090737Y0121731D01*
X0090763Y0121690D01*
X0090792Y0121651D01*
X0090823Y0121614D01*
X0090857Y0121579D01*
X0090894Y0121547D01*
X0090933Y0121518D01*
X0090973Y0121492D01*
X0093498Y0121411D02*
X0094303Y0121411D01*
X0094303Y0121412D02*
X0094352Y0121414D01*
X0094401Y0121420D01*
X0094450Y0121429D01*
X0094497Y0121442D01*
X0094544Y0121459D01*
X0094589Y0121479D01*
X0094632Y0121502D01*
X0094674Y0121529D01*
X0094713Y0121559D01*
X0094750Y0121592D01*
X0094784Y0121628D01*
X0094815Y0121666D01*
X0094844Y0121706D01*
X0094869Y0121748D01*
X0094891Y0121793D01*
X0094909Y0121838D01*
X0094924Y0121885D01*
X0094935Y0121933D01*
X0094943Y0121982D01*
X0094947Y0122031D01*
X0094947Y0122081D01*
X0094943Y0122130D01*
X0094935Y0122179D01*
X0094924Y0122227D01*
X0094909Y0122274D01*
X0094891Y0122319D01*
X0094869Y0122364D01*
X0094844Y0122406D01*
X0094815Y0122446D01*
X0094784Y0122484D01*
X0094750Y0122520D01*
X0094713Y0122553D01*
X0094674Y0122583D01*
X0094632Y0122610D01*
X0094589Y0122633D01*
X0094544Y0122653D01*
X0094497Y0122670D01*
X0094450Y0122683D01*
X0094401Y0122692D01*
X0094352Y0122698D01*
X0094303Y0122700D01*
X0093498Y0122700D01*
X0093498Y0119800D01*
X0094303Y0119800D01*
X0094358Y0119802D01*
X0094413Y0119808D01*
X0094467Y0119817D01*
X0094520Y0119830D01*
X0094573Y0119847D01*
X0094624Y0119867D01*
X0094674Y0119890D01*
X0094722Y0119917D01*
X0094768Y0119948D01*
X0094812Y0119981D01*
X0094853Y0120017D01*
X0094892Y0120056D01*
X0094928Y0120097D01*
X0094961Y0120141D01*
X0094992Y0120187D01*
X0095019Y0120235D01*
X0095042Y0120285D01*
X0095062Y0120336D01*
X0095079Y0120389D01*
X0095092Y0120442D01*
X0095101Y0120496D01*
X0095107Y0120551D01*
X0095109Y0120606D01*
X0095107Y0120661D01*
X0095101Y0120716D01*
X0095092Y0120770D01*
X0095079Y0120823D01*
X0095062Y0120876D01*
X0095042Y0120927D01*
X0095019Y0120977D01*
X0094992Y0121025D01*
X0094961Y0121071D01*
X0094928Y0121115D01*
X0094892Y0121156D01*
X0094853Y0121195D01*
X0094812Y0121231D01*
X0094768Y0121264D01*
X0094722Y0121295D01*
X0094674Y0121322D01*
X0094624Y0121345D01*
X0094573Y0121365D01*
X0094520Y0121382D01*
X0094467Y0121395D01*
X0094413Y0121404D01*
X0094358Y0121410D01*
X0094303Y0121412D01*
X0066010Y0307883D02*
X0065188Y0307883D01*
X0066010Y0307883D02*
X0066058Y0307885D01*
X0066107Y0307891D01*
X0066154Y0307900D01*
X0066201Y0307913D01*
X0066246Y0307930D01*
X0066290Y0307950D01*
X0066332Y0307974D01*
X0066373Y0308001D01*
X0066411Y0308031D01*
X0066446Y0308064D01*
X0066479Y0308099D01*
X0066509Y0308137D01*
X0066536Y0308178D01*
X0066560Y0308220D01*
X0066580Y0308264D01*
X0066597Y0308309D01*
X0066610Y0308356D01*
X0066619Y0308403D01*
X0066625Y0308452D01*
X0066627Y0308500D01*
X0066627Y0311583D01*
X0065599Y0311583D01*
X0065599Y0311584D02*
X0065551Y0311582D01*
X0065502Y0311576D01*
X0065455Y0311567D01*
X0065408Y0311554D01*
X0065363Y0311537D01*
X0065319Y0311517D01*
X0065277Y0311493D01*
X0065236Y0311466D01*
X0065198Y0311436D01*
X0065163Y0311403D01*
X0065130Y0311368D01*
X0065100Y0311330D01*
X0065073Y0311289D01*
X0065049Y0311247D01*
X0065029Y0311203D01*
X0065012Y0311158D01*
X0064999Y0311111D01*
X0064990Y0311064D01*
X0064984Y0311015D01*
X0064982Y0310967D01*
X0064983Y0310967D02*
X0064983Y0309733D01*
X0064982Y0309733D02*
X0064984Y0309685D01*
X0064990Y0309636D01*
X0064999Y0309589D01*
X0065012Y0309542D01*
X0065029Y0309497D01*
X0065049Y0309453D01*
X0065073Y0309411D01*
X0065100Y0309370D01*
X0065130Y0309332D01*
X0065163Y0309297D01*
X0065198Y0309264D01*
X0065236Y0309234D01*
X0065277Y0309207D01*
X0065319Y0309183D01*
X0065363Y0309163D01*
X0065408Y0309146D01*
X0065455Y0309133D01*
X0065502Y0309124D01*
X0065551Y0309118D01*
X0065599Y0309116D01*
X0065599Y0309117D02*
X0066627Y0309117D01*
X0068361Y0309117D02*
X0068361Y0311583D01*
X0069388Y0311583D01*
X0069388Y0311584D02*
X0069436Y0311582D01*
X0069485Y0311576D01*
X0069532Y0311567D01*
X0069579Y0311554D01*
X0069624Y0311537D01*
X0069668Y0311517D01*
X0069710Y0311493D01*
X0069751Y0311466D01*
X0069789Y0311436D01*
X0069824Y0311403D01*
X0069857Y0311368D01*
X0069887Y0311330D01*
X0069914Y0311289D01*
X0069938Y0311247D01*
X0069958Y0311203D01*
X0069975Y0311158D01*
X0069988Y0311111D01*
X0069997Y0311064D01*
X0070003Y0311015D01*
X0070005Y0310967D01*
X0070005Y0309117D01*
X0067726Y0315117D02*
X0067520Y0315117D01*
X0067520Y0315322D01*
X0067726Y0315322D01*
X0067726Y0315117D01*
X0066131Y0315117D02*
X0064075Y0315117D01*
X0065103Y0315117D02*
X0065103Y0318817D01*
X0064075Y0317994D01*
X0063646Y0312817D02*
X0063646Y0312611D01*
X0063440Y0312611D01*
X0063440Y0312817D01*
X0063646Y0312817D01*
X0063543Y0311583D02*
X0063543Y0309117D01*
X0061571Y0309116D02*
X0061616Y0309117D01*
X0061661Y0309122D01*
X0061705Y0309131D01*
X0061748Y0309143D01*
X0061790Y0309159D01*
X0061830Y0309179D01*
X0061869Y0309202D01*
X0061905Y0309227D01*
X0061939Y0309256D01*
X0061971Y0309288D01*
X0062000Y0309322D01*
X0062026Y0309359D01*
X0062049Y0309397D01*
X0062068Y0309438D01*
X0062084Y0309480D01*
X0062097Y0309523D01*
X0062106Y0309567D01*
X0062111Y0309611D01*
X0062112Y0309656D01*
X0062109Y0309701D01*
X0062103Y0309745D01*
X0062093Y0309789D01*
X0062080Y0309831D01*
X0062063Y0309873D01*
X0062042Y0309913D01*
X0062018Y0309951D01*
X0061992Y0309986D01*
X0061962Y0310020D01*
X0061929Y0310051D01*
X0061894Y0310079D01*
X0061857Y0310104D01*
X0061818Y0310125D01*
X0061777Y0310144D01*
X0060749Y0310555D01*
X0060708Y0310574D01*
X0060669Y0310595D01*
X0060632Y0310620D01*
X0060597Y0310648D01*
X0060564Y0310679D01*
X0060534Y0310713D01*
X0060508Y0310748D01*
X0060484Y0310786D01*
X0060463Y0310826D01*
X0060446Y0310868D01*
X0060433Y0310910D01*
X0060423Y0310954D01*
X0060417Y0310998D01*
X0060414Y0311043D01*
X0060415Y0311088D01*
X0060420Y0311132D01*
X0060429Y0311176D01*
X0060442Y0311219D01*
X0060458Y0311261D01*
X0060477Y0311302D01*
X0060500Y0311340D01*
X0060526Y0311377D01*
X0060555Y0311411D01*
X0060587Y0311443D01*
X0060621Y0311472D01*
X0060657Y0311497D01*
X0060696Y0311520D01*
X0060736Y0311540D01*
X0060778Y0311556D01*
X0060821Y0311568D01*
X0060865Y0311577D01*
X0060910Y0311582D01*
X0060955Y0311583D01*
X0060441Y0309322D02*
X0060550Y0309285D01*
X0060660Y0309251D01*
X0060772Y0309221D01*
X0060884Y0309195D01*
X0060997Y0309172D01*
X0061111Y0309153D01*
X0061226Y0309138D01*
X0061341Y0309127D01*
X0061456Y0309120D01*
X0061571Y0309116D01*
X0061879Y0311377D02*
X0061791Y0311415D01*
X0061702Y0311448D01*
X0061612Y0311478D01*
X0061520Y0311505D01*
X0061427Y0311527D01*
X0061334Y0311546D01*
X0061240Y0311561D01*
X0061145Y0311572D01*
X0061050Y0311579D01*
X0060954Y0311583D01*
X0058965Y0310761D02*
X0058965Y0310350D01*
X0057321Y0310350D01*
X0057321Y0310761D02*
X0057321Y0309733D01*
X0057320Y0309733D02*
X0057322Y0309685D01*
X0057328Y0309636D01*
X0057337Y0309589D01*
X0057350Y0309542D01*
X0057367Y0309497D01*
X0057387Y0309453D01*
X0057411Y0309411D01*
X0057438Y0309370D01*
X0057468Y0309332D01*
X0057501Y0309297D01*
X0057536Y0309264D01*
X0057574Y0309234D01*
X0057615Y0309207D01*
X0057657Y0309183D01*
X0057701Y0309163D01*
X0057746Y0309146D01*
X0057793Y0309133D01*
X0057840Y0309124D01*
X0057889Y0309118D01*
X0057937Y0309116D01*
X0057937Y0309117D02*
X0058965Y0309117D01*
X0058965Y0310761D02*
X0058963Y0310817D01*
X0058957Y0310873D01*
X0058948Y0310928D01*
X0058935Y0310983D01*
X0058918Y0311036D01*
X0058897Y0311088D01*
X0058873Y0311139D01*
X0058845Y0311188D01*
X0058815Y0311235D01*
X0058781Y0311280D01*
X0058744Y0311322D01*
X0058704Y0311362D01*
X0058662Y0311399D01*
X0058617Y0311433D01*
X0058570Y0311463D01*
X0058521Y0311491D01*
X0058470Y0311515D01*
X0058418Y0311536D01*
X0058365Y0311553D01*
X0058310Y0311566D01*
X0058255Y0311575D01*
X0058199Y0311581D01*
X0058143Y0311583D01*
X0058087Y0311581D01*
X0058031Y0311575D01*
X0057976Y0311566D01*
X0057921Y0311553D01*
X0057868Y0311536D01*
X0057816Y0311515D01*
X0057765Y0311491D01*
X0057716Y0311463D01*
X0057669Y0311433D01*
X0057624Y0311399D01*
X0057582Y0311362D01*
X0057542Y0311322D01*
X0057505Y0311280D01*
X0057471Y0311235D01*
X0057441Y0311188D01*
X0057413Y0311139D01*
X0057389Y0311088D01*
X0057368Y0311036D01*
X0057351Y0310983D01*
X0057338Y0310928D01*
X0057329Y0310873D01*
X0057323Y0310817D01*
X0057321Y0310761D01*
X0055691Y0310144D02*
X0055691Y0311789D01*
X0055689Y0311851D01*
X0055684Y0311913D01*
X0055674Y0311974D01*
X0055661Y0312035D01*
X0055644Y0312095D01*
X0055624Y0312154D01*
X0055600Y0312211D01*
X0055573Y0312267D01*
X0055543Y0312321D01*
X0055509Y0312373D01*
X0055472Y0312423D01*
X0055432Y0312471D01*
X0055390Y0312516D01*
X0055345Y0312558D01*
X0055297Y0312598D01*
X0055247Y0312635D01*
X0055195Y0312669D01*
X0055141Y0312699D01*
X0055085Y0312726D01*
X0055028Y0312750D01*
X0054969Y0312770D01*
X0054909Y0312787D01*
X0054848Y0312800D01*
X0054787Y0312810D01*
X0054725Y0312815D01*
X0054663Y0312817D01*
X0053635Y0312817D01*
X0053635Y0309117D01*
X0054663Y0309117D01*
X0054663Y0309116D02*
X0054725Y0309118D01*
X0054787Y0309123D01*
X0054848Y0309133D01*
X0054909Y0309146D01*
X0054969Y0309163D01*
X0055028Y0309183D01*
X0055085Y0309207D01*
X0055141Y0309234D01*
X0055195Y0309264D01*
X0055247Y0309298D01*
X0055297Y0309335D01*
X0055345Y0309375D01*
X0055390Y0309417D01*
X0055432Y0309462D01*
X0055472Y0309510D01*
X0055509Y0309560D01*
X0055543Y0309612D01*
X0055573Y0309666D01*
X0055600Y0309722D01*
X0055624Y0309779D01*
X0055644Y0309838D01*
X0055661Y0309898D01*
X0055674Y0309959D01*
X0055684Y0310020D01*
X0055689Y0310082D01*
X0055691Y0310144D01*
X0056241Y0314705D02*
X0057885Y0319228D01*
X0060765Y0319228D02*
X0059121Y0314705D01*
X0053361Y0314705D02*
X0055005Y0319228D01*
X0050085Y0316761D02*
X0050085Y0316350D01*
X0048441Y0316350D01*
X0048441Y0316761D02*
X0048441Y0315733D01*
X0048440Y0315733D02*
X0048442Y0315685D01*
X0048448Y0315636D01*
X0048457Y0315589D01*
X0048470Y0315542D01*
X0048487Y0315497D01*
X0048507Y0315453D01*
X0048531Y0315411D01*
X0048558Y0315370D01*
X0048588Y0315332D01*
X0048621Y0315297D01*
X0048656Y0315264D01*
X0048694Y0315234D01*
X0048735Y0315207D01*
X0048777Y0315183D01*
X0048821Y0315163D01*
X0048866Y0315146D01*
X0048913Y0315133D01*
X0048960Y0315124D01*
X0049009Y0315118D01*
X0049057Y0315116D01*
X0049057Y0315117D02*
X0050085Y0315117D01*
X0050085Y0316761D02*
X0050083Y0316817D01*
X0050077Y0316873D01*
X0050068Y0316928D01*
X0050055Y0316983D01*
X0050038Y0317036D01*
X0050017Y0317088D01*
X0049993Y0317139D01*
X0049965Y0317188D01*
X0049935Y0317235D01*
X0049901Y0317280D01*
X0049864Y0317322D01*
X0049824Y0317362D01*
X0049782Y0317399D01*
X0049737Y0317433D01*
X0049690Y0317463D01*
X0049641Y0317491D01*
X0049590Y0317515D01*
X0049538Y0317536D01*
X0049485Y0317553D01*
X0049430Y0317566D01*
X0049375Y0317575D01*
X0049319Y0317581D01*
X0049263Y0317583D01*
X0049207Y0317581D01*
X0049151Y0317575D01*
X0049096Y0317566D01*
X0049041Y0317553D01*
X0048988Y0317536D01*
X0048936Y0317515D01*
X0048885Y0317491D01*
X0048836Y0317463D01*
X0048789Y0317433D01*
X0048744Y0317399D01*
X0048702Y0317362D01*
X0048662Y0317322D01*
X0048625Y0317280D01*
X0048591Y0317235D01*
X0048561Y0317188D01*
X0048533Y0317139D01*
X0048509Y0317088D01*
X0048488Y0317036D01*
X0048471Y0316983D01*
X0048458Y0316928D01*
X0048449Y0316873D01*
X0048443Y0316817D01*
X0048441Y0316761D01*
X0047187Y0315116D02*
X0047139Y0315118D01*
X0047090Y0315124D01*
X0047043Y0315133D01*
X0046996Y0315146D01*
X0046951Y0315163D01*
X0046907Y0315183D01*
X0046865Y0315207D01*
X0046824Y0315234D01*
X0046786Y0315264D01*
X0046751Y0315297D01*
X0046718Y0315332D01*
X0046688Y0315370D01*
X0046661Y0315411D01*
X0046637Y0315453D01*
X0046617Y0315497D01*
X0046600Y0315542D01*
X0046587Y0315589D01*
X0046578Y0315636D01*
X0046572Y0315685D01*
X0046570Y0315733D01*
X0046570Y0318817D01*
X0045063Y0316967D02*
X0045063Y0315733D01*
X0045064Y0315733D02*
X0045062Y0315685D01*
X0045056Y0315636D01*
X0045047Y0315589D01*
X0045034Y0315542D01*
X0045017Y0315497D01*
X0044997Y0315453D01*
X0044973Y0315411D01*
X0044946Y0315370D01*
X0044916Y0315332D01*
X0044883Y0315297D01*
X0044848Y0315264D01*
X0044810Y0315234D01*
X0044769Y0315207D01*
X0044727Y0315183D01*
X0044683Y0315163D01*
X0044638Y0315146D01*
X0044591Y0315133D01*
X0044544Y0315124D01*
X0044495Y0315118D01*
X0044447Y0315116D01*
X0044447Y0315117D02*
X0043419Y0315117D01*
X0043419Y0313883D02*
X0043419Y0317583D01*
X0044447Y0317583D01*
X0044447Y0317584D02*
X0044495Y0317582D01*
X0044544Y0317576D01*
X0044591Y0317567D01*
X0044638Y0317554D01*
X0044683Y0317537D01*
X0044727Y0317517D01*
X0044769Y0317493D01*
X0044810Y0317466D01*
X0044848Y0317436D01*
X0044883Y0317403D01*
X0044916Y0317368D01*
X0044946Y0317330D01*
X0044973Y0317289D01*
X0044997Y0317247D01*
X0045017Y0317203D01*
X0045034Y0317158D01*
X0045047Y0317111D01*
X0045056Y0317064D01*
X0045062Y0317015D01*
X0045064Y0316967D01*
X0046570Y0312817D02*
X0046570Y0309733D01*
X0046572Y0309685D01*
X0046578Y0309636D01*
X0046587Y0309589D01*
X0046600Y0309542D01*
X0046617Y0309497D01*
X0046637Y0309453D01*
X0046661Y0309411D01*
X0046688Y0309370D01*
X0046718Y0309332D01*
X0046751Y0309297D01*
X0046786Y0309264D01*
X0046824Y0309234D01*
X0046865Y0309207D01*
X0046907Y0309183D01*
X0046951Y0309163D01*
X0046996Y0309146D01*
X0047043Y0309133D01*
X0047090Y0309124D01*
X0047139Y0309118D01*
X0047187Y0309116D01*
X0048441Y0309733D02*
X0048441Y0310761D01*
X0048441Y0310350D02*
X0050085Y0310350D01*
X0050085Y0310761D01*
X0050083Y0310817D01*
X0050077Y0310873D01*
X0050068Y0310928D01*
X0050055Y0310983D01*
X0050038Y0311036D01*
X0050017Y0311088D01*
X0049993Y0311139D01*
X0049965Y0311188D01*
X0049935Y0311235D01*
X0049901Y0311280D01*
X0049864Y0311322D01*
X0049824Y0311362D01*
X0049782Y0311399D01*
X0049737Y0311433D01*
X0049690Y0311463D01*
X0049641Y0311491D01*
X0049590Y0311515D01*
X0049538Y0311536D01*
X0049485Y0311553D01*
X0049430Y0311566D01*
X0049375Y0311575D01*
X0049319Y0311581D01*
X0049263Y0311583D01*
X0049207Y0311581D01*
X0049151Y0311575D01*
X0049096Y0311566D01*
X0049041Y0311553D01*
X0048988Y0311536D01*
X0048936Y0311515D01*
X0048885Y0311491D01*
X0048836Y0311463D01*
X0048789Y0311433D01*
X0048744Y0311399D01*
X0048702Y0311362D01*
X0048662Y0311322D01*
X0048625Y0311280D01*
X0048591Y0311235D01*
X0048561Y0311188D01*
X0048533Y0311139D01*
X0048509Y0311088D01*
X0048488Y0311036D01*
X0048471Y0310983D01*
X0048458Y0310928D01*
X0048449Y0310873D01*
X0048443Y0310817D01*
X0048441Y0310761D01*
X0048440Y0309733D02*
X0048442Y0309685D01*
X0048448Y0309636D01*
X0048457Y0309589D01*
X0048470Y0309542D01*
X0048487Y0309497D01*
X0048507Y0309453D01*
X0048531Y0309411D01*
X0048558Y0309370D01*
X0048588Y0309332D01*
X0048621Y0309297D01*
X0048656Y0309264D01*
X0048694Y0309234D01*
X0048735Y0309207D01*
X0048777Y0309183D01*
X0048821Y0309163D01*
X0048866Y0309146D01*
X0048913Y0309133D01*
X0048960Y0309124D01*
X0049009Y0309118D01*
X0049057Y0309116D01*
X0049057Y0309117D02*
X0050085Y0309117D01*
X0045063Y0309733D02*
X0045063Y0310967D01*
X0045064Y0310967D02*
X0045062Y0311015D01*
X0045056Y0311064D01*
X0045047Y0311111D01*
X0045034Y0311158D01*
X0045017Y0311203D01*
X0044997Y0311247D01*
X0044973Y0311289D01*
X0044946Y0311330D01*
X0044916Y0311368D01*
X0044883Y0311403D01*
X0044848Y0311436D01*
X0044810Y0311466D01*
X0044769Y0311493D01*
X0044727Y0311517D01*
X0044683Y0311537D01*
X0044638Y0311554D01*
X0044591Y0311567D01*
X0044544Y0311576D01*
X0044495Y0311582D01*
X0044447Y0311584D01*
X0044447Y0311583D02*
X0043419Y0311583D01*
X0043419Y0307883D01*
X0043419Y0309117D02*
X0044447Y0309117D01*
X0044447Y0309116D02*
X0044495Y0309118D01*
X0044544Y0309124D01*
X0044591Y0309133D01*
X0044638Y0309146D01*
X0044683Y0309163D01*
X0044727Y0309183D01*
X0044769Y0309207D01*
X0044810Y0309234D01*
X0044848Y0309264D01*
X0044883Y0309297D01*
X0044916Y0309332D01*
X0044946Y0309370D01*
X0044973Y0309411D01*
X0044997Y0309453D01*
X0045017Y0309497D01*
X0045034Y0309542D01*
X0045047Y0309589D01*
X0045056Y0309636D01*
X0045062Y0309685D01*
X0045064Y0309733D01*
X0041823Y0309733D02*
X0041823Y0310967D01*
X0041824Y0310967D02*
X0041822Y0311015D01*
X0041816Y0311064D01*
X0041807Y0311111D01*
X0041794Y0311158D01*
X0041777Y0311203D01*
X0041757Y0311247D01*
X0041733Y0311289D01*
X0041706Y0311330D01*
X0041676Y0311368D01*
X0041643Y0311403D01*
X0041608Y0311436D01*
X0041570Y0311466D01*
X0041529Y0311493D01*
X0041487Y0311517D01*
X0041443Y0311537D01*
X0041398Y0311554D01*
X0041351Y0311567D01*
X0041304Y0311576D01*
X0041255Y0311582D01*
X0041207Y0311584D01*
X0041207Y0311583D02*
X0040179Y0311583D01*
X0040179Y0307883D01*
X0040179Y0309117D02*
X0041207Y0309117D01*
X0041207Y0309116D02*
X0041255Y0309118D01*
X0041304Y0309124D01*
X0041351Y0309133D01*
X0041398Y0309146D01*
X0041443Y0309163D01*
X0041487Y0309183D01*
X0041529Y0309207D01*
X0041570Y0309234D01*
X0041608Y0309264D01*
X0041643Y0309297D01*
X0041676Y0309332D01*
X0041706Y0309370D01*
X0041733Y0309411D01*
X0041757Y0309453D01*
X0041777Y0309497D01*
X0041794Y0309542D01*
X0041807Y0309589D01*
X0041816Y0309636D01*
X0041822Y0309685D01*
X0041824Y0309733D01*
X0040179Y0313883D02*
X0040179Y0317583D01*
X0041207Y0317583D01*
X0041207Y0317584D02*
X0041255Y0317582D01*
X0041304Y0317576D01*
X0041351Y0317567D01*
X0041398Y0317554D01*
X0041443Y0317537D01*
X0041487Y0317517D01*
X0041529Y0317493D01*
X0041570Y0317466D01*
X0041608Y0317436D01*
X0041643Y0317403D01*
X0041676Y0317368D01*
X0041706Y0317330D01*
X0041733Y0317289D01*
X0041757Y0317247D01*
X0041777Y0317203D01*
X0041794Y0317158D01*
X0041807Y0317111D01*
X0041816Y0317064D01*
X0041822Y0317015D01*
X0041824Y0316967D01*
X0041823Y0316967D02*
X0041823Y0315733D01*
X0041824Y0315733D02*
X0041822Y0315685D01*
X0041816Y0315636D01*
X0041807Y0315589D01*
X0041794Y0315542D01*
X0041777Y0315497D01*
X0041757Y0315453D01*
X0041733Y0315411D01*
X0041706Y0315370D01*
X0041676Y0315332D01*
X0041643Y0315297D01*
X0041608Y0315264D01*
X0041570Y0315234D01*
X0041529Y0315207D01*
X0041487Y0315183D01*
X0041443Y0315163D01*
X0041398Y0315146D01*
X0041351Y0315133D01*
X0041304Y0315124D01*
X0041255Y0315118D01*
X0041207Y0315116D01*
X0041207Y0315117D02*
X0040179Y0315117D01*
X0038427Y0315117D02*
X0038427Y0316967D01*
X0038427Y0316555D02*
X0037502Y0316555D01*
X0038428Y0316967D02*
X0038426Y0317015D01*
X0038420Y0317064D01*
X0038411Y0317111D01*
X0038398Y0317158D01*
X0038381Y0317203D01*
X0038361Y0317247D01*
X0038337Y0317289D01*
X0038310Y0317330D01*
X0038280Y0317368D01*
X0038247Y0317403D01*
X0038212Y0317436D01*
X0038174Y0317466D01*
X0038133Y0317493D01*
X0038091Y0317517D01*
X0038047Y0317537D01*
X0038002Y0317554D01*
X0037955Y0317567D01*
X0037908Y0317576D01*
X0037859Y0317582D01*
X0037811Y0317584D01*
X0037811Y0317583D02*
X0036988Y0317583D01*
X0037502Y0316555D02*
X0037450Y0316553D01*
X0037397Y0316547D01*
X0037346Y0316538D01*
X0037295Y0316525D01*
X0037245Y0316508D01*
X0037197Y0316487D01*
X0037150Y0316463D01*
X0037105Y0316436D01*
X0037063Y0316405D01*
X0037022Y0316371D01*
X0036984Y0316335D01*
X0036949Y0316296D01*
X0036917Y0316254D01*
X0036888Y0316211D01*
X0036863Y0316165D01*
X0036840Y0316117D01*
X0036822Y0316068D01*
X0036806Y0316018D01*
X0036795Y0315967D01*
X0036787Y0315915D01*
X0036783Y0315862D01*
X0036783Y0315810D01*
X0036787Y0315757D01*
X0036795Y0315705D01*
X0036806Y0315654D01*
X0036822Y0315604D01*
X0036840Y0315555D01*
X0036863Y0315507D01*
X0036888Y0315461D01*
X0036917Y0315418D01*
X0036949Y0315376D01*
X0036984Y0315337D01*
X0037022Y0315301D01*
X0037063Y0315267D01*
X0037105Y0315236D01*
X0037150Y0315209D01*
X0037197Y0315185D01*
X0037245Y0315164D01*
X0037295Y0315147D01*
X0037346Y0315134D01*
X0037397Y0315125D01*
X0037450Y0315119D01*
X0037502Y0315117D01*
X0038427Y0315117D01*
X0035325Y0315117D02*
X0034298Y0315117D01*
X0034298Y0315116D02*
X0034250Y0315118D01*
X0034201Y0315124D01*
X0034154Y0315133D01*
X0034107Y0315146D01*
X0034062Y0315163D01*
X0034018Y0315183D01*
X0033976Y0315207D01*
X0033935Y0315234D01*
X0033897Y0315264D01*
X0033862Y0315297D01*
X0033829Y0315332D01*
X0033799Y0315370D01*
X0033772Y0315411D01*
X0033748Y0315453D01*
X0033728Y0315497D01*
X0033711Y0315542D01*
X0033698Y0315589D01*
X0033689Y0315636D01*
X0033683Y0315685D01*
X0033681Y0315733D01*
X0033681Y0316761D01*
X0033681Y0316350D02*
X0035325Y0316350D01*
X0035325Y0316761D01*
X0035323Y0316817D01*
X0035317Y0316873D01*
X0035308Y0316928D01*
X0035295Y0316983D01*
X0035278Y0317036D01*
X0035257Y0317088D01*
X0035233Y0317139D01*
X0035205Y0317188D01*
X0035175Y0317235D01*
X0035141Y0317280D01*
X0035104Y0317322D01*
X0035064Y0317362D01*
X0035022Y0317399D01*
X0034977Y0317433D01*
X0034930Y0317463D01*
X0034881Y0317491D01*
X0034830Y0317515D01*
X0034778Y0317536D01*
X0034725Y0317553D01*
X0034670Y0317566D01*
X0034615Y0317575D01*
X0034559Y0317581D01*
X0034503Y0317583D01*
X0034447Y0317581D01*
X0034391Y0317575D01*
X0034336Y0317566D01*
X0034281Y0317553D01*
X0034228Y0317536D01*
X0034176Y0317515D01*
X0034125Y0317491D01*
X0034076Y0317463D01*
X0034029Y0317433D01*
X0033984Y0317399D01*
X0033942Y0317362D01*
X0033902Y0317322D01*
X0033865Y0317280D01*
X0033831Y0317235D01*
X0033801Y0317188D01*
X0033773Y0317139D01*
X0033749Y0317088D01*
X0033728Y0317036D01*
X0033711Y0316983D01*
X0033698Y0316928D01*
X0033689Y0316873D01*
X0033683Y0316817D01*
X0033681Y0316761D01*
X0032085Y0316967D02*
X0032085Y0315117D01*
X0030441Y0315117D02*
X0030441Y0317583D01*
X0031469Y0317583D01*
X0031469Y0317584D02*
X0031517Y0317582D01*
X0031566Y0317576D01*
X0031613Y0317567D01*
X0031660Y0317554D01*
X0031705Y0317537D01*
X0031749Y0317517D01*
X0031791Y0317493D01*
X0031832Y0317466D01*
X0031870Y0317436D01*
X0031905Y0317403D01*
X0031938Y0317368D01*
X0031968Y0317330D01*
X0031995Y0317289D01*
X0032019Y0317247D01*
X0032039Y0317203D01*
X0032056Y0317158D01*
X0032069Y0317111D01*
X0032078Y0317064D01*
X0032084Y0317015D01*
X0032086Y0316967D01*
X0028863Y0317583D02*
X0028863Y0315117D01*
X0028966Y0312817D02*
X0028966Y0312611D01*
X0028760Y0312611D01*
X0028760Y0312817D01*
X0028966Y0312817D01*
X0028863Y0311583D02*
X0028863Y0309117D01*
X0030441Y0309117D02*
X0030441Y0311583D01*
X0031469Y0311583D01*
X0031469Y0311584D02*
X0031517Y0311582D01*
X0031566Y0311576D01*
X0031613Y0311567D01*
X0031660Y0311554D01*
X0031705Y0311537D01*
X0031749Y0311517D01*
X0031791Y0311493D01*
X0031832Y0311466D01*
X0031870Y0311436D01*
X0031905Y0311403D01*
X0031938Y0311368D01*
X0031968Y0311330D01*
X0031995Y0311289D01*
X0032019Y0311247D01*
X0032039Y0311203D01*
X0032056Y0311158D01*
X0032069Y0311111D01*
X0032078Y0311064D01*
X0032084Y0311015D01*
X0032086Y0310967D01*
X0032085Y0310967D02*
X0032085Y0309117D01*
X0033681Y0309733D02*
X0033681Y0310761D01*
X0033681Y0310350D02*
X0035325Y0310350D01*
X0035325Y0310761D01*
X0035323Y0310817D01*
X0035317Y0310873D01*
X0035308Y0310928D01*
X0035295Y0310983D01*
X0035278Y0311036D01*
X0035257Y0311088D01*
X0035233Y0311139D01*
X0035205Y0311188D01*
X0035175Y0311235D01*
X0035141Y0311280D01*
X0035104Y0311322D01*
X0035064Y0311362D01*
X0035022Y0311399D01*
X0034977Y0311433D01*
X0034930Y0311463D01*
X0034881Y0311491D01*
X0034830Y0311515D01*
X0034778Y0311536D01*
X0034725Y0311553D01*
X0034670Y0311566D01*
X0034615Y0311575D01*
X0034559Y0311581D01*
X0034503Y0311583D01*
X0034447Y0311581D01*
X0034391Y0311575D01*
X0034336Y0311566D01*
X0034281Y0311553D01*
X0034228Y0311536D01*
X0034176Y0311515D01*
X0034125Y0311491D01*
X0034076Y0311463D01*
X0034029Y0311433D01*
X0033984Y0311399D01*
X0033942Y0311362D01*
X0033902Y0311322D01*
X0033865Y0311280D01*
X0033831Y0311235D01*
X0033801Y0311188D01*
X0033773Y0311139D01*
X0033749Y0311088D01*
X0033728Y0311036D01*
X0033711Y0310983D01*
X0033698Y0310928D01*
X0033689Y0310873D01*
X0033683Y0310817D01*
X0033681Y0310761D01*
X0033681Y0309733D02*
X0033683Y0309685D01*
X0033689Y0309636D01*
X0033698Y0309589D01*
X0033711Y0309542D01*
X0033728Y0309497D01*
X0033748Y0309453D01*
X0033772Y0309411D01*
X0033799Y0309370D01*
X0033829Y0309332D01*
X0033862Y0309297D01*
X0033897Y0309264D01*
X0033935Y0309234D01*
X0033976Y0309207D01*
X0034018Y0309183D01*
X0034062Y0309163D01*
X0034107Y0309146D01*
X0034154Y0309133D01*
X0034201Y0309124D01*
X0034250Y0309118D01*
X0034298Y0309116D01*
X0034298Y0309117D02*
X0035325Y0309117D01*
X0037502Y0309117D02*
X0038427Y0309117D01*
X0038427Y0310967D01*
X0038427Y0310555D02*
X0037502Y0310555D01*
X0038428Y0310967D02*
X0038426Y0311015D01*
X0038420Y0311064D01*
X0038411Y0311111D01*
X0038398Y0311158D01*
X0038381Y0311203D01*
X0038361Y0311247D01*
X0038337Y0311289D01*
X0038310Y0311330D01*
X0038280Y0311368D01*
X0038247Y0311403D01*
X0038212Y0311436D01*
X0038174Y0311466D01*
X0038133Y0311493D01*
X0038091Y0311517D01*
X0038047Y0311537D01*
X0038002Y0311554D01*
X0037955Y0311567D01*
X0037908Y0311576D01*
X0037859Y0311582D01*
X0037811Y0311584D01*
X0037811Y0311583D02*
X0036988Y0311583D01*
X0037502Y0310555D02*
X0037450Y0310553D01*
X0037397Y0310547D01*
X0037346Y0310538D01*
X0037295Y0310525D01*
X0037245Y0310508D01*
X0037197Y0310487D01*
X0037150Y0310463D01*
X0037105Y0310436D01*
X0037063Y0310405D01*
X0037022Y0310371D01*
X0036984Y0310335D01*
X0036949Y0310296D01*
X0036917Y0310254D01*
X0036888Y0310211D01*
X0036863Y0310165D01*
X0036840Y0310117D01*
X0036822Y0310068D01*
X0036806Y0310018D01*
X0036795Y0309967D01*
X0036787Y0309915D01*
X0036783Y0309862D01*
X0036783Y0309810D01*
X0036787Y0309757D01*
X0036795Y0309705D01*
X0036806Y0309654D01*
X0036822Y0309604D01*
X0036840Y0309555D01*
X0036863Y0309507D01*
X0036888Y0309461D01*
X0036917Y0309418D01*
X0036949Y0309376D01*
X0036984Y0309337D01*
X0037022Y0309301D01*
X0037063Y0309267D01*
X0037105Y0309236D01*
X0037150Y0309209D01*
X0037197Y0309185D01*
X0037245Y0309164D01*
X0037295Y0309147D01*
X0037346Y0309134D01*
X0037397Y0309125D01*
X0037450Y0309119D01*
X0037502Y0309117D01*
X0028966Y0318611D02*
X0028760Y0318611D01*
X0028760Y0318817D01*
X0028966Y0318817D01*
X0028966Y0318611D01*
X0026515Y0318817D02*
X0025487Y0318817D01*
X0025487Y0315117D01*
X0025487Y0316761D02*
X0026515Y0316761D01*
X0026578Y0316763D01*
X0026641Y0316769D01*
X0026704Y0316779D01*
X0026766Y0316792D01*
X0026827Y0316809D01*
X0026886Y0316830D01*
X0026945Y0316855D01*
X0027001Y0316883D01*
X0027056Y0316915D01*
X0027109Y0316950D01*
X0027159Y0316988D01*
X0027208Y0317029D01*
X0027253Y0317073D01*
X0027296Y0317120D01*
X0027335Y0317169D01*
X0027372Y0317221D01*
X0027405Y0317275D01*
X0027435Y0317331D01*
X0027462Y0317388D01*
X0027485Y0317447D01*
X0027504Y0317508D01*
X0027519Y0317569D01*
X0027531Y0317631D01*
X0027539Y0317694D01*
X0027543Y0317757D01*
X0027543Y0317821D01*
X0027539Y0317884D01*
X0027531Y0317947D01*
X0027519Y0318009D01*
X0027504Y0318070D01*
X0027485Y0318131D01*
X0027462Y0318190D01*
X0027435Y0318247D01*
X0027405Y0318303D01*
X0027372Y0318357D01*
X0027335Y0318409D01*
X0027296Y0318458D01*
X0027253Y0318505D01*
X0027208Y0318549D01*
X0027159Y0318590D01*
X0027109Y0318628D01*
X0027056Y0318663D01*
X0027001Y0318695D01*
X0026945Y0318723D01*
X0026886Y0318748D01*
X0026827Y0318769D01*
X0026766Y0318786D01*
X0026704Y0318799D01*
X0026641Y0318809D01*
X0026578Y0318815D01*
X0026515Y0318817D01*
X0026515Y0312817D02*
X0025487Y0312817D01*
X0025487Y0309117D01*
X0025487Y0310761D02*
X0026515Y0310761D01*
X0026578Y0310763D01*
X0026641Y0310769D01*
X0026704Y0310779D01*
X0026766Y0310792D01*
X0026827Y0310809D01*
X0026886Y0310830D01*
X0026945Y0310855D01*
X0027001Y0310883D01*
X0027056Y0310915D01*
X0027109Y0310950D01*
X0027159Y0310988D01*
X0027208Y0311029D01*
X0027253Y0311073D01*
X0027296Y0311120D01*
X0027335Y0311169D01*
X0027372Y0311221D01*
X0027405Y0311275D01*
X0027435Y0311331D01*
X0027462Y0311388D01*
X0027485Y0311447D01*
X0027504Y0311508D01*
X0027519Y0311569D01*
X0027531Y0311631D01*
X0027539Y0311694D01*
X0027543Y0311757D01*
X0027543Y0311821D01*
X0027539Y0311884D01*
X0027531Y0311947D01*
X0027519Y0312009D01*
X0027504Y0312070D01*
X0027485Y0312131D01*
X0027462Y0312190D01*
X0027435Y0312247D01*
X0027405Y0312303D01*
X0027372Y0312357D01*
X0027335Y0312409D01*
X0027296Y0312458D01*
X0027253Y0312505D01*
X0027208Y0312549D01*
X0027159Y0312590D01*
X0027109Y0312628D01*
X0027056Y0312663D01*
X0027001Y0312695D01*
X0026945Y0312723D01*
X0026886Y0312748D01*
X0026827Y0312769D01*
X0026766Y0312786D01*
X0026704Y0312799D01*
X0026641Y0312809D01*
X0026578Y0312815D01*
X0026515Y0312817D01*
X0070862Y0315631D02*
X0070907Y0315727D01*
X0070948Y0315825D01*
X0070986Y0315925D01*
X0071021Y0316025D01*
X0071052Y0316127D01*
X0071080Y0316230D01*
X0071103Y0316333D01*
X0071124Y0316438D01*
X0071140Y0316543D01*
X0071153Y0316648D01*
X0071163Y0316754D01*
X0071168Y0316861D01*
X0071170Y0316967D01*
X0069115Y0316967D02*
X0069117Y0317073D01*
X0069122Y0317180D01*
X0069132Y0317286D01*
X0069145Y0317391D01*
X0069161Y0317496D01*
X0069182Y0317601D01*
X0069205Y0317704D01*
X0069233Y0317807D01*
X0069264Y0317909D01*
X0069299Y0318009D01*
X0069337Y0318109D01*
X0069378Y0318207D01*
X0069423Y0318303D01*
X0070143Y0318817D02*
X0070195Y0318815D01*
X0070248Y0318810D01*
X0070299Y0318801D01*
X0070350Y0318788D01*
X0070400Y0318772D01*
X0070449Y0318753D01*
X0070496Y0318730D01*
X0070542Y0318704D01*
X0070585Y0318675D01*
X0070627Y0318643D01*
X0070666Y0318609D01*
X0070703Y0318571D01*
X0070737Y0318531D01*
X0070769Y0318489D01*
X0070797Y0318445D01*
X0070822Y0318399D01*
X0070844Y0318352D01*
X0070863Y0318303D01*
X0070965Y0317994D02*
X0069321Y0315939D01*
X0070143Y0315116D02*
X0070195Y0315118D01*
X0070248Y0315123D01*
X0070299Y0315132D01*
X0070350Y0315145D01*
X0070400Y0315161D01*
X0070449Y0315180D01*
X0070496Y0315203D01*
X0070542Y0315229D01*
X0070585Y0315258D01*
X0070627Y0315290D01*
X0070666Y0315324D01*
X0070703Y0315362D01*
X0070737Y0315402D01*
X0070769Y0315444D01*
X0070797Y0315488D01*
X0070822Y0315534D01*
X0070844Y0315581D01*
X0070863Y0315630D01*
X0070143Y0315116D02*
X0070091Y0315118D01*
X0070038Y0315123D01*
X0069987Y0315132D01*
X0069936Y0315145D01*
X0069886Y0315161D01*
X0069837Y0315180D01*
X0069790Y0315203D01*
X0069744Y0315229D01*
X0069701Y0315258D01*
X0069659Y0315290D01*
X0069620Y0315324D01*
X0069583Y0315362D01*
X0069549Y0315402D01*
X0069517Y0315444D01*
X0069489Y0315488D01*
X0069464Y0315534D01*
X0069442Y0315581D01*
X0069423Y0315630D01*
X0071170Y0316967D02*
X0071168Y0317073D01*
X0071163Y0317180D01*
X0071153Y0317286D01*
X0071140Y0317391D01*
X0071124Y0317496D01*
X0071103Y0317601D01*
X0071080Y0317704D01*
X0071052Y0317807D01*
X0071021Y0317909D01*
X0070986Y0318009D01*
X0070948Y0318109D01*
X0070907Y0318207D01*
X0070862Y0318303D01*
X0070143Y0318817D02*
X0070091Y0318815D01*
X0070038Y0318810D01*
X0069987Y0318801D01*
X0069936Y0318788D01*
X0069886Y0318772D01*
X0069837Y0318753D01*
X0069790Y0318730D01*
X0069744Y0318704D01*
X0069701Y0318675D01*
X0069659Y0318643D01*
X0069620Y0318609D01*
X0069583Y0318571D01*
X0069549Y0318531D01*
X0069517Y0318489D01*
X0069489Y0318445D01*
X0069464Y0318399D01*
X0069442Y0318352D01*
X0069423Y0318303D01*
X0069115Y0316967D02*
X0069117Y0316861D01*
X0069122Y0316754D01*
X0069132Y0316648D01*
X0069145Y0316543D01*
X0069161Y0316438D01*
X0069182Y0316333D01*
X0069205Y0316230D01*
X0069233Y0316127D01*
X0069264Y0316025D01*
X0069299Y0315925D01*
X0069337Y0315825D01*
X0069378Y0315727D01*
X0069423Y0315631D01*
X0072560Y0315322D02*
X0072766Y0315322D01*
X0072766Y0315117D01*
X0072560Y0315117D01*
X0072560Y0315322D01*
X0075902Y0315631D02*
X0075947Y0315727D01*
X0075988Y0315825D01*
X0076026Y0315925D01*
X0076061Y0316025D01*
X0076092Y0316127D01*
X0076120Y0316230D01*
X0076143Y0316333D01*
X0076164Y0316438D01*
X0076180Y0316543D01*
X0076193Y0316648D01*
X0076203Y0316754D01*
X0076208Y0316861D01*
X0076210Y0316967D01*
X0074155Y0316967D02*
X0074157Y0317073D01*
X0074162Y0317180D01*
X0074172Y0317286D01*
X0074185Y0317391D01*
X0074201Y0317496D01*
X0074222Y0317601D01*
X0074245Y0317704D01*
X0074273Y0317807D01*
X0074304Y0317909D01*
X0074339Y0318009D01*
X0074377Y0318109D01*
X0074418Y0318207D01*
X0074463Y0318303D01*
X0075183Y0318817D02*
X0075235Y0318815D01*
X0075288Y0318810D01*
X0075339Y0318801D01*
X0075390Y0318788D01*
X0075440Y0318772D01*
X0075489Y0318753D01*
X0075536Y0318730D01*
X0075582Y0318704D01*
X0075625Y0318675D01*
X0075667Y0318643D01*
X0075706Y0318609D01*
X0075743Y0318571D01*
X0075777Y0318531D01*
X0075809Y0318489D01*
X0075837Y0318445D01*
X0075862Y0318399D01*
X0075884Y0318352D01*
X0075903Y0318303D01*
X0076005Y0317994D02*
X0074361Y0315939D01*
X0075183Y0315116D02*
X0075235Y0315118D01*
X0075288Y0315123D01*
X0075339Y0315132D01*
X0075390Y0315145D01*
X0075440Y0315161D01*
X0075489Y0315180D01*
X0075536Y0315203D01*
X0075582Y0315229D01*
X0075625Y0315258D01*
X0075667Y0315290D01*
X0075706Y0315324D01*
X0075743Y0315362D01*
X0075777Y0315402D01*
X0075809Y0315444D01*
X0075837Y0315488D01*
X0075862Y0315534D01*
X0075884Y0315581D01*
X0075903Y0315630D01*
X0075183Y0315116D02*
X0075131Y0315118D01*
X0075078Y0315123D01*
X0075027Y0315132D01*
X0074976Y0315145D01*
X0074926Y0315161D01*
X0074877Y0315180D01*
X0074830Y0315203D01*
X0074784Y0315229D01*
X0074741Y0315258D01*
X0074699Y0315290D01*
X0074660Y0315324D01*
X0074623Y0315362D01*
X0074589Y0315402D01*
X0074557Y0315444D01*
X0074529Y0315488D01*
X0074504Y0315534D01*
X0074482Y0315581D01*
X0074463Y0315630D01*
X0076210Y0316967D02*
X0076208Y0317073D01*
X0076203Y0317180D01*
X0076193Y0317286D01*
X0076180Y0317391D01*
X0076164Y0317496D01*
X0076143Y0317601D01*
X0076120Y0317704D01*
X0076092Y0317807D01*
X0076061Y0317909D01*
X0076026Y0318009D01*
X0075988Y0318109D01*
X0075947Y0318207D01*
X0075902Y0318303D01*
X0075183Y0318817D02*
X0075131Y0318815D01*
X0075078Y0318810D01*
X0075027Y0318801D01*
X0074976Y0318788D01*
X0074926Y0318772D01*
X0074877Y0318753D01*
X0074830Y0318730D01*
X0074784Y0318704D01*
X0074741Y0318675D01*
X0074699Y0318643D01*
X0074660Y0318609D01*
X0074623Y0318571D01*
X0074589Y0318531D01*
X0074557Y0318489D01*
X0074529Y0318445D01*
X0074504Y0318399D01*
X0074482Y0318352D01*
X0074463Y0318303D01*
X0074155Y0316967D02*
X0074157Y0316861D01*
X0074162Y0316754D01*
X0074172Y0316648D01*
X0074185Y0316543D01*
X0074201Y0316438D01*
X0074222Y0316333D01*
X0074245Y0316230D01*
X0074273Y0316127D01*
X0074304Y0316025D01*
X0074339Y0315925D01*
X0074377Y0315825D01*
X0074418Y0315727D01*
X0074463Y0315631D01*
D11*
X0046400Y0261250D02*
X0046400Y0221250D01*
X0036400Y0221250D01*
X0036400Y0211250D01*
X0038900Y0213750D01*
X0036400Y0211250D02*
X0046400Y0211250D01*
X0046400Y0221250D01*
X0043900Y0218750D01*
X0043900Y0213750D02*
X0046400Y0211250D01*
X0044900Y0202250D02*
X0044900Y0201250D01*
X0044400Y0200750D01*
X0044400Y0191750D01*
X0044900Y0191250D01*
X0044900Y0190250D01*
X0044898Y0190190D01*
X0044893Y0190129D01*
X0044884Y0190070D01*
X0044871Y0190011D01*
X0044855Y0189952D01*
X0044835Y0189895D01*
X0044812Y0189840D01*
X0044785Y0189785D01*
X0044756Y0189733D01*
X0044723Y0189682D01*
X0044687Y0189633D01*
X0044649Y0189587D01*
X0044607Y0189543D01*
X0044563Y0189501D01*
X0044517Y0189463D01*
X0044468Y0189427D01*
X0044417Y0189394D01*
X0044365Y0189365D01*
X0044310Y0189338D01*
X0044255Y0189315D01*
X0044198Y0189295D01*
X0044139Y0189279D01*
X0044080Y0189266D01*
X0044021Y0189257D01*
X0043960Y0189252D01*
X0043900Y0189250D01*
X0038900Y0189250D02*
X0038840Y0189252D01*
X0038779Y0189257D01*
X0038720Y0189266D01*
X0038661Y0189279D01*
X0038602Y0189295D01*
X0038545Y0189315D01*
X0038490Y0189338D01*
X0038435Y0189365D01*
X0038383Y0189394D01*
X0038332Y0189427D01*
X0038283Y0189463D01*
X0038237Y0189501D01*
X0038193Y0189543D01*
X0038151Y0189587D01*
X0038113Y0189633D01*
X0038077Y0189682D01*
X0038044Y0189733D01*
X0038015Y0189785D01*
X0037988Y0189840D01*
X0037965Y0189895D01*
X0037945Y0189952D01*
X0037929Y0190011D01*
X0037916Y0190070D01*
X0037907Y0190129D01*
X0037902Y0190190D01*
X0037900Y0190250D01*
X0037900Y0191250D01*
X0038400Y0191750D01*
X0038400Y0200750D01*
X0037900Y0201250D01*
X0037900Y0202250D01*
X0037902Y0202310D01*
X0037907Y0202371D01*
X0037916Y0202430D01*
X0037929Y0202489D01*
X0037945Y0202548D01*
X0037965Y0202605D01*
X0037988Y0202660D01*
X0038015Y0202715D01*
X0038044Y0202767D01*
X0038077Y0202818D01*
X0038113Y0202867D01*
X0038151Y0202913D01*
X0038193Y0202957D01*
X0038237Y0202999D01*
X0038283Y0203037D01*
X0038332Y0203073D01*
X0038383Y0203106D01*
X0038435Y0203135D01*
X0038490Y0203162D01*
X0038545Y0203185D01*
X0038602Y0203205D01*
X0038661Y0203221D01*
X0038720Y0203234D01*
X0038779Y0203243D01*
X0038840Y0203248D01*
X0038900Y0203250D01*
X0043900Y0203250D02*
X0043960Y0203248D01*
X0044021Y0203243D01*
X0044080Y0203234D01*
X0044139Y0203221D01*
X0044198Y0203205D01*
X0044255Y0203185D01*
X0044310Y0203162D01*
X0044365Y0203135D01*
X0044417Y0203106D01*
X0044468Y0203073D01*
X0044517Y0203037D01*
X0044563Y0202999D01*
X0044607Y0202957D01*
X0044649Y0202913D01*
X0044687Y0202867D01*
X0044723Y0202818D01*
X0044756Y0202767D01*
X0044785Y0202715D01*
X0044812Y0202660D01*
X0044835Y0202605D01*
X0044855Y0202548D01*
X0044871Y0202489D01*
X0044884Y0202430D01*
X0044893Y0202371D01*
X0044898Y0202310D01*
X0044900Y0202250D01*
X0038900Y0218750D02*
X0036400Y0221250D01*
X0036400Y0261250D01*
X0046400Y0261250D01*
X0044900Y0270250D02*
X0044900Y0271250D01*
X0044400Y0271750D01*
X0044400Y0280750D01*
X0044900Y0281250D01*
X0044900Y0282250D01*
X0044898Y0282310D01*
X0044893Y0282371D01*
X0044884Y0282430D01*
X0044871Y0282489D01*
X0044855Y0282548D01*
X0044835Y0282605D01*
X0044812Y0282660D01*
X0044785Y0282715D01*
X0044756Y0282767D01*
X0044723Y0282818D01*
X0044687Y0282867D01*
X0044649Y0282913D01*
X0044607Y0282957D01*
X0044563Y0282999D01*
X0044517Y0283037D01*
X0044468Y0283073D01*
X0044417Y0283106D01*
X0044365Y0283135D01*
X0044310Y0283162D01*
X0044255Y0283185D01*
X0044198Y0283205D01*
X0044139Y0283221D01*
X0044080Y0283234D01*
X0044021Y0283243D01*
X0043960Y0283248D01*
X0043900Y0283250D01*
X0038900Y0283250D02*
X0038840Y0283248D01*
X0038779Y0283243D01*
X0038720Y0283234D01*
X0038661Y0283221D01*
X0038602Y0283205D01*
X0038545Y0283185D01*
X0038490Y0283162D01*
X0038435Y0283135D01*
X0038383Y0283106D01*
X0038332Y0283073D01*
X0038283Y0283037D01*
X0038237Y0282999D01*
X0038193Y0282957D01*
X0038151Y0282913D01*
X0038113Y0282867D01*
X0038077Y0282818D01*
X0038044Y0282767D01*
X0038015Y0282715D01*
X0037988Y0282660D01*
X0037965Y0282605D01*
X0037945Y0282548D01*
X0037929Y0282489D01*
X0037916Y0282430D01*
X0037907Y0282371D01*
X0037902Y0282310D01*
X0037900Y0282250D01*
X0037900Y0281250D01*
X0038400Y0280750D01*
X0038400Y0271750D01*
X0037900Y0271250D01*
X0037900Y0270250D01*
X0037902Y0270190D01*
X0037907Y0270129D01*
X0037916Y0270070D01*
X0037929Y0270011D01*
X0037945Y0269952D01*
X0037965Y0269895D01*
X0037988Y0269840D01*
X0038015Y0269785D01*
X0038044Y0269733D01*
X0038077Y0269682D01*
X0038113Y0269633D01*
X0038151Y0269587D01*
X0038193Y0269543D01*
X0038237Y0269501D01*
X0038283Y0269463D01*
X0038332Y0269427D01*
X0038383Y0269394D01*
X0038435Y0269365D01*
X0038490Y0269338D01*
X0038545Y0269315D01*
X0038602Y0269295D01*
X0038661Y0269279D01*
X0038720Y0269266D01*
X0038779Y0269257D01*
X0038840Y0269252D01*
X0038900Y0269250D01*
X0043900Y0269250D02*
X0043960Y0269252D01*
X0044021Y0269257D01*
X0044080Y0269266D01*
X0044139Y0269279D01*
X0044198Y0269295D01*
X0044255Y0269315D01*
X0044310Y0269338D01*
X0044365Y0269365D01*
X0044417Y0269394D01*
X0044468Y0269427D01*
X0044517Y0269463D01*
X0044563Y0269501D01*
X0044607Y0269543D01*
X0044649Y0269587D01*
X0044687Y0269633D01*
X0044723Y0269682D01*
X0044756Y0269733D01*
X0044785Y0269785D01*
X0044812Y0269840D01*
X0044835Y0269895D01*
X0044855Y0269952D01*
X0044871Y0270011D01*
X0044884Y0270070D01*
X0044893Y0270129D01*
X0044898Y0270190D01*
X0044900Y0270250D01*
X0046400Y0172750D02*
X0006400Y0172750D01*
X0006400Y0165250D01*
X0006526Y0165248D01*
X0006651Y0165242D01*
X0006776Y0165232D01*
X0006901Y0165218D01*
X0007026Y0165201D01*
X0007150Y0165179D01*
X0007273Y0165154D01*
X0007395Y0165124D01*
X0007516Y0165091D01*
X0007636Y0165054D01*
X0007755Y0165014D01*
X0007872Y0164969D01*
X0007989Y0164921D01*
X0008103Y0164869D01*
X0008216Y0164814D01*
X0008327Y0164755D01*
X0008436Y0164693D01*
X0008543Y0164627D01*
X0008648Y0164558D01*
X0008751Y0164486D01*
X0008852Y0164411D01*
X0008950Y0164332D01*
X0009045Y0164250D01*
X0009138Y0164166D01*
X0009228Y0164078D01*
X0009316Y0163988D01*
X0009400Y0163895D01*
X0009482Y0163800D01*
X0009561Y0163702D01*
X0009636Y0163601D01*
X0009708Y0163498D01*
X0009777Y0163393D01*
X0009843Y0163286D01*
X0009905Y0163177D01*
X0009964Y0163066D01*
X0010019Y0162953D01*
X0010071Y0162839D01*
X0010119Y0162722D01*
X0010164Y0162605D01*
X0010204Y0162486D01*
X0010241Y0162366D01*
X0010274Y0162245D01*
X0010304Y0162123D01*
X0010329Y0162000D01*
X0010351Y0161876D01*
X0010368Y0161751D01*
X0010382Y0161626D01*
X0010392Y0161501D01*
X0010398Y0161376D01*
X0010400Y0161250D01*
X0010398Y0161124D01*
X0010392Y0160999D01*
X0010382Y0160874D01*
X0010368Y0160749D01*
X0010351Y0160624D01*
X0010329Y0160500D01*
X0010304Y0160377D01*
X0010274Y0160255D01*
X0010241Y0160134D01*
X0010204Y0160014D01*
X0010164Y0159895D01*
X0010119Y0159778D01*
X0010071Y0159661D01*
X0010019Y0159547D01*
X0009964Y0159434D01*
X0009905Y0159323D01*
X0009843Y0159214D01*
X0009777Y0159107D01*
X0009708Y0159002D01*
X0009636Y0158899D01*
X0009561Y0158798D01*
X0009482Y0158700D01*
X0009400Y0158605D01*
X0009316Y0158512D01*
X0009228Y0158422D01*
X0009138Y0158334D01*
X0009045Y0158250D01*
X0008950Y0158168D01*
X0008852Y0158089D01*
X0008751Y0158014D01*
X0008648Y0157942D01*
X0008543Y0157873D01*
X0008436Y0157807D01*
X0008327Y0157745D01*
X0008216Y0157686D01*
X0008103Y0157631D01*
X0007989Y0157579D01*
X0007872Y0157531D01*
X0007755Y0157486D01*
X0007636Y0157446D01*
X0007516Y0157409D01*
X0007395Y0157376D01*
X0007273Y0157346D01*
X0007150Y0157321D01*
X0007026Y0157299D01*
X0006901Y0157282D01*
X0006776Y0157268D01*
X0006651Y0157258D01*
X0006526Y0157252D01*
X0006400Y0157250D01*
X0006400Y0149750D01*
X0046400Y0149750D01*
X0046400Y0172750D01*
X0046400Y0122750D02*
X0046400Y0099750D01*
X0006400Y0099750D01*
X0006400Y0107250D01*
X0006526Y0107252D01*
X0006651Y0107258D01*
X0006776Y0107268D01*
X0006901Y0107282D01*
X0007026Y0107299D01*
X0007150Y0107321D01*
X0007273Y0107346D01*
X0007395Y0107376D01*
X0007516Y0107409D01*
X0007636Y0107446D01*
X0007755Y0107486D01*
X0007872Y0107531D01*
X0007989Y0107579D01*
X0008103Y0107631D01*
X0008216Y0107686D01*
X0008327Y0107745D01*
X0008436Y0107807D01*
X0008543Y0107873D01*
X0008648Y0107942D01*
X0008751Y0108014D01*
X0008852Y0108089D01*
X0008950Y0108168D01*
X0009045Y0108250D01*
X0009138Y0108334D01*
X0009228Y0108422D01*
X0009316Y0108512D01*
X0009400Y0108605D01*
X0009482Y0108700D01*
X0009561Y0108798D01*
X0009636Y0108899D01*
X0009708Y0109002D01*
X0009777Y0109107D01*
X0009843Y0109214D01*
X0009905Y0109323D01*
X0009964Y0109434D01*
X0010019Y0109547D01*
X0010071Y0109661D01*
X0010119Y0109778D01*
X0010164Y0109895D01*
X0010204Y0110014D01*
X0010241Y0110134D01*
X0010274Y0110255D01*
X0010304Y0110377D01*
X0010329Y0110500D01*
X0010351Y0110624D01*
X0010368Y0110749D01*
X0010382Y0110874D01*
X0010392Y0110999D01*
X0010398Y0111124D01*
X0010400Y0111250D01*
X0010398Y0111376D01*
X0010392Y0111501D01*
X0010382Y0111626D01*
X0010368Y0111751D01*
X0010351Y0111876D01*
X0010329Y0112000D01*
X0010304Y0112123D01*
X0010274Y0112245D01*
X0010241Y0112366D01*
X0010204Y0112486D01*
X0010164Y0112605D01*
X0010119Y0112722D01*
X0010071Y0112839D01*
X0010019Y0112953D01*
X0009964Y0113066D01*
X0009905Y0113177D01*
X0009843Y0113286D01*
X0009777Y0113393D01*
X0009708Y0113498D01*
X0009636Y0113601D01*
X0009561Y0113702D01*
X0009482Y0113800D01*
X0009400Y0113895D01*
X0009316Y0113988D01*
X0009228Y0114078D01*
X0009138Y0114166D01*
X0009045Y0114250D01*
X0008950Y0114332D01*
X0008852Y0114411D01*
X0008751Y0114486D01*
X0008648Y0114558D01*
X0008543Y0114627D01*
X0008436Y0114693D01*
X0008327Y0114755D01*
X0008216Y0114814D01*
X0008103Y0114869D01*
X0007989Y0114921D01*
X0007872Y0114969D01*
X0007755Y0115014D01*
X0007636Y0115054D01*
X0007516Y0115091D01*
X0007395Y0115124D01*
X0007273Y0115154D01*
X0007150Y0115179D01*
X0007026Y0115201D01*
X0006901Y0115218D01*
X0006776Y0115232D01*
X0006651Y0115242D01*
X0006526Y0115248D01*
X0006400Y0115250D01*
X0006400Y0122750D01*
X0046400Y0122750D01*
X0051400Y0102750D02*
X0051400Y0095250D01*
X0051526Y0095248D01*
X0051651Y0095242D01*
X0051776Y0095232D01*
X0051901Y0095218D01*
X0052026Y0095201D01*
X0052150Y0095179D01*
X0052273Y0095154D01*
X0052395Y0095124D01*
X0052516Y0095091D01*
X0052636Y0095054D01*
X0052755Y0095014D01*
X0052872Y0094969D01*
X0052989Y0094921D01*
X0053103Y0094869D01*
X0053216Y0094814D01*
X0053327Y0094755D01*
X0053436Y0094693D01*
X0053543Y0094627D01*
X0053648Y0094558D01*
X0053751Y0094486D01*
X0053852Y0094411D01*
X0053950Y0094332D01*
X0054045Y0094250D01*
X0054138Y0094166D01*
X0054228Y0094078D01*
X0054316Y0093988D01*
X0054400Y0093895D01*
X0054482Y0093800D01*
X0054561Y0093702D01*
X0054636Y0093601D01*
X0054708Y0093498D01*
X0054777Y0093393D01*
X0054843Y0093286D01*
X0054905Y0093177D01*
X0054964Y0093066D01*
X0055019Y0092953D01*
X0055071Y0092839D01*
X0055119Y0092722D01*
X0055164Y0092605D01*
X0055204Y0092486D01*
X0055241Y0092366D01*
X0055274Y0092245D01*
X0055304Y0092123D01*
X0055329Y0092000D01*
X0055351Y0091876D01*
X0055368Y0091751D01*
X0055382Y0091626D01*
X0055392Y0091501D01*
X0055398Y0091376D01*
X0055400Y0091250D01*
X0055398Y0091124D01*
X0055392Y0090999D01*
X0055382Y0090874D01*
X0055368Y0090749D01*
X0055351Y0090624D01*
X0055329Y0090500D01*
X0055304Y0090377D01*
X0055274Y0090255D01*
X0055241Y0090134D01*
X0055204Y0090014D01*
X0055164Y0089895D01*
X0055119Y0089778D01*
X0055071Y0089661D01*
X0055019Y0089547D01*
X0054964Y0089434D01*
X0054905Y0089323D01*
X0054843Y0089214D01*
X0054777Y0089107D01*
X0054708Y0089002D01*
X0054636Y0088899D01*
X0054561Y0088798D01*
X0054482Y0088700D01*
X0054400Y0088605D01*
X0054316Y0088512D01*
X0054228Y0088422D01*
X0054138Y0088334D01*
X0054045Y0088250D01*
X0053950Y0088168D01*
X0053852Y0088089D01*
X0053751Y0088014D01*
X0053648Y0087942D01*
X0053543Y0087873D01*
X0053436Y0087807D01*
X0053327Y0087745D01*
X0053216Y0087686D01*
X0053103Y0087631D01*
X0052989Y0087579D01*
X0052872Y0087531D01*
X0052755Y0087486D01*
X0052636Y0087446D01*
X0052516Y0087409D01*
X0052395Y0087376D01*
X0052273Y0087346D01*
X0052150Y0087321D01*
X0052026Y0087299D01*
X0051901Y0087282D01*
X0051776Y0087268D01*
X0051651Y0087258D01*
X0051526Y0087252D01*
X0051400Y0087250D01*
X0051400Y0079750D01*
X0121400Y0079750D01*
X0121400Y0102750D01*
X0051400Y0102750D01*
X0044900Y0082250D02*
X0044900Y0081250D01*
X0044400Y0080750D01*
X0044400Y0071750D01*
X0044900Y0071250D01*
X0044900Y0070250D01*
X0044898Y0070190D01*
X0044893Y0070129D01*
X0044884Y0070070D01*
X0044871Y0070011D01*
X0044855Y0069952D01*
X0044835Y0069895D01*
X0044812Y0069840D01*
X0044785Y0069785D01*
X0044756Y0069733D01*
X0044723Y0069682D01*
X0044687Y0069633D01*
X0044649Y0069587D01*
X0044607Y0069543D01*
X0044563Y0069501D01*
X0044517Y0069463D01*
X0044468Y0069427D01*
X0044417Y0069394D01*
X0044365Y0069365D01*
X0044310Y0069338D01*
X0044255Y0069315D01*
X0044198Y0069295D01*
X0044139Y0069279D01*
X0044080Y0069266D01*
X0044021Y0069257D01*
X0043960Y0069252D01*
X0043900Y0069250D01*
X0047613Y0070250D02*
X0047613Y0062250D01*
X0047615Y0062190D01*
X0047620Y0062129D01*
X0047629Y0062070D01*
X0047642Y0062011D01*
X0047658Y0061952D01*
X0047678Y0061895D01*
X0047701Y0061840D01*
X0047728Y0061785D01*
X0047757Y0061733D01*
X0047790Y0061682D01*
X0047826Y0061633D01*
X0047864Y0061587D01*
X0047906Y0061543D01*
X0047950Y0061501D01*
X0047996Y0061463D01*
X0048045Y0061427D01*
X0048096Y0061394D01*
X0048148Y0061365D01*
X0048203Y0061338D01*
X0048258Y0061315D01*
X0048315Y0061295D01*
X0048374Y0061279D01*
X0048433Y0061266D01*
X0048492Y0061257D01*
X0048553Y0061252D01*
X0048613Y0061250D01*
X0065613Y0061250D01*
X0065673Y0061252D01*
X0065734Y0061257D01*
X0065793Y0061266D01*
X0065852Y0061279D01*
X0065911Y0061295D01*
X0065968Y0061315D01*
X0066023Y0061338D01*
X0066078Y0061365D01*
X0066130Y0061394D01*
X0066181Y0061427D01*
X0066230Y0061463D01*
X0066276Y0061501D01*
X0066320Y0061543D01*
X0066362Y0061587D01*
X0066400Y0061633D01*
X0066436Y0061682D01*
X0066469Y0061733D01*
X0066498Y0061785D01*
X0066525Y0061840D01*
X0066548Y0061895D01*
X0066568Y0061952D01*
X0066584Y0062011D01*
X0066597Y0062070D01*
X0066606Y0062129D01*
X0066611Y0062190D01*
X0066613Y0062250D01*
X0066613Y0070250D01*
X0066611Y0070310D01*
X0066606Y0070371D01*
X0066597Y0070430D01*
X0066584Y0070489D01*
X0066568Y0070548D01*
X0066548Y0070605D01*
X0066525Y0070660D01*
X0066498Y0070715D01*
X0066469Y0070767D01*
X0066436Y0070818D01*
X0066400Y0070867D01*
X0066362Y0070913D01*
X0066320Y0070957D01*
X0066276Y0070999D01*
X0066230Y0071037D01*
X0066181Y0071073D01*
X0066130Y0071106D01*
X0066078Y0071135D01*
X0066023Y0071162D01*
X0065968Y0071185D01*
X0065911Y0071205D01*
X0065852Y0071221D01*
X0065793Y0071234D01*
X0065734Y0071243D01*
X0065673Y0071248D01*
X0065613Y0071250D01*
X0048613Y0071250D01*
X0048553Y0071248D01*
X0048492Y0071243D01*
X0048433Y0071234D01*
X0048374Y0071221D01*
X0048315Y0071205D01*
X0048258Y0071185D01*
X0048203Y0071162D01*
X0048148Y0071135D01*
X0048096Y0071106D01*
X0048045Y0071073D01*
X0047996Y0071037D01*
X0047950Y0070999D01*
X0047906Y0070957D01*
X0047864Y0070913D01*
X0047826Y0070867D01*
X0047790Y0070818D01*
X0047757Y0070767D01*
X0047728Y0070715D01*
X0047701Y0070660D01*
X0047678Y0070605D01*
X0047658Y0070548D01*
X0047642Y0070489D01*
X0047629Y0070430D01*
X0047620Y0070371D01*
X0047615Y0070310D01*
X0047613Y0070250D01*
X0044900Y0082250D02*
X0044898Y0082310D01*
X0044893Y0082371D01*
X0044884Y0082430D01*
X0044871Y0082489D01*
X0044855Y0082548D01*
X0044835Y0082605D01*
X0044812Y0082660D01*
X0044785Y0082715D01*
X0044756Y0082767D01*
X0044723Y0082818D01*
X0044687Y0082867D01*
X0044649Y0082913D01*
X0044607Y0082957D01*
X0044563Y0082999D01*
X0044517Y0083037D01*
X0044468Y0083073D01*
X0044417Y0083106D01*
X0044365Y0083135D01*
X0044310Y0083162D01*
X0044255Y0083185D01*
X0044198Y0083205D01*
X0044139Y0083221D01*
X0044080Y0083234D01*
X0044021Y0083243D01*
X0043960Y0083248D01*
X0043900Y0083250D01*
X0038900Y0083250D02*
X0038840Y0083248D01*
X0038779Y0083243D01*
X0038720Y0083234D01*
X0038661Y0083221D01*
X0038602Y0083205D01*
X0038545Y0083185D01*
X0038490Y0083162D01*
X0038435Y0083135D01*
X0038383Y0083106D01*
X0038332Y0083073D01*
X0038283Y0083037D01*
X0038237Y0082999D01*
X0038193Y0082957D01*
X0038151Y0082913D01*
X0038113Y0082867D01*
X0038077Y0082818D01*
X0038044Y0082767D01*
X0038015Y0082715D01*
X0037988Y0082660D01*
X0037965Y0082605D01*
X0037945Y0082548D01*
X0037929Y0082489D01*
X0037916Y0082430D01*
X0037907Y0082371D01*
X0037902Y0082310D01*
X0037900Y0082250D01*
X0037900Y0081250D01*
X0038400Y0080750D01*
X0038400Y0071750D01*
X0037900Y0071250D01*
X0037900Y0070250D01*
X0037902Y0070190D01*
X0037907Y0070129D01*
X0037916Y0070070D01*
X0037929Y0070011D01*
X0037945Y0069952D01*
X0037965Y0069895D01*
X0037988Y0069840D01*
X0038015Y0069785D01*
X0038044Y0069733D01*
X0038077Y0069682D01*
X0038113Y0069633D01*
X0038151Y0069587D01*
X0038193Y0069543D01*
X0038237Y0069501D01*
X0038283Y0069463D01*
X0038332Y0069427D01*
X0038383Y0069394D01*
X0038435Y0069365D01*
X0038490Y0069338D01*
X0038545Y0069315D01*
X0038602Y0069295D01*
X0038661Y0069279D01*
X0038720Y0069266D01*
X0038779Y0069257D01*
X0038840Y0069252D01*
X0038900Y0069250D01*
X0038900Y0053250D02*
X0038840Y0053248D01*
X0038779Y0053243D01*
X0038720Y0053234D01*
X0038661Y0053221D01*
X0038602Y0053205D01*
X0038545Y0053185D01*
X0038490Y0053162D01*
X0038435Y0053135D01*
X0038383Y0053106D01*
X0038332Y0053073D01*
X0038283Y0053037D01*
X0038237Y0052999D01*
X0038193Y0052957D01*
X0038151Y0052913D01*
X0038113Y0052867D01*
X0038077Y0052818D01*
X0038044Y0052767D01*
X0038015Y0052715D01*
X0037988Y0052660D01*
X0037965Y0052605D01*
X0037945Y0052548D01*
X0037929Y0052489D01*
X0037916Y0052430D01*
X0037907Y0052371D01*
X0037902Y0052310D01*
X0037900Y0052250D01*
X0037900Y0051250D01*
X0038400Y0050750D01*
X0038400Y0041750D01*
X0037900Y0041250D01*
X0037900Y0040250D01*
X0037902Y0040190D01*
X0037907Y0040129D01*
X0037916Y0040070D01*
X0037929Y0040011D01*
X0037945Y0039952D01*
X0037965Y0039895D01*
X0037988Y0039840D01*
X0038015Y0039785D01*
X0038044Y0039733D01*
X0038077Y0039682D01*
X0038113Y0039633D01*
X0038151Y0039587D01*
X0038193Y0039543D01*
X0038237Y0039501D01*
X0038283Y0039463D01*
X0038332Y0039427D01*
X0038383Y0039394D01*
X0038435Y0039365D01*
X0038490Y0039338D01*
X0038545Y0039315D01*
X0038602Y0039295D01*
X0038661Y0039279D01*
X0038720Y0039266D01*
X0038779Y0039257D01*
X0038840Y0039252D01*
X0038900Y0039250D01*
X0043900Y0039250D02*
X0043960Y0039252D01*
X0044021Y0039257D01*
X0044080Y0039266D01*
X0044139Y0039279D01*
X0044198Y0039295D01*
X0044255Y0039315D01*
X0044310Y0039338D01*
X0044365Y0039365D01*
X0044417Y0039394D01*
X0044468Y0039427D01*
X0044517Y0039463D01*
X0044563Y0039501D01*
X0044607Y0039543D01*
X0044649Y0039587D01*
X0044687Y0039633D01*
X0044723Y0039682D01*
X0044756Y0039733D01*
X0044785Y0039785D01*
X0044812Y0039840D01*
X0044835Y0039895D01*
X0044855Y0039952D01*
X0044871Y0040011D01*
X0044884Y0040070D01*
X0044893Y0040129D01*
X0044898Y0040190D01*
X0044900Y0040250D01*
X0044900Y0041250D01*
X0044400Y0041750D01*
X0044400Y0050750D01*
X0044900Y0051250D01*
X0044900Y0052250D01*
X0044898Y0052310D01*
X0044893Y0052371D01*
X0044884Y0052430D01*
X0044871Y0052489D01*
X0044855Y0052548D01*
X0044835Y0052605D01*
X0044812Y0052660D01*
X0044785Y0052715D01*
X0044756Y0052767D01*
X0044723Y0052818D01*
X0044687Y0052867D01*
X0044649Y0052913D01*
X0044607Y0052957D01*
X0044563Y0052999D01*
X0044517Y0053037D01*
X0044468Y0053073D01*
X0044417Y0053106D01*
X0044365Y0053135D01*
X0044310Y0053162D01*
X0044255Y0053185D01*
X0044198Y0053205D01*
X0044139Y0053221D01*
X0044080Y0053234D01*
X0044021Y0053243D01*
X0043960Y0053248D01*
X0043900Y0053250D01*
X0047900Y0052250D02*
X0047900Y0051250D01*
X0048400Y0050750D01*
X0048400Y0041750D01*
X0047900Y0041250D01*
X0047900Y0040250D01*
X0047902Y0040190D01*
X0047907Y0040129D01*
X0047916Y0040070D01*
X0047929Y0040011D01*
X0047945Y0039952D01*
X0047965Y0039895D01*
X0047988Y0039840D01*
X0048015Y0039785D01*
X0048044Y0039733D01*
X0048077Y0039682D01*
X0048113Y0039633D01*
X0048151Y0039587D01*
X0048193Y0039543D01*
X0048237Y0039501D01*
X0048283Y0039463D01*
X0048332Y0039427D01*
X0048383Y0039394D01*
X0048435Y0039365D01*
X0048490Y0039338D01*
X0048545Y0039315D01*
X0048602Y0039295D01*
X0048661Y0039279D01*
X0048720Y0039266D01*
X0048779Y0039257D01*
X0048840Y0039252D01*
X0048900Y0039250D01*
X0045900Y0030250D02*
X0045900Y0022250D01*
X0045898Y0022190D01*
X0045893Y0022129D01*
X0045884Y0022070D01*
X0045871Y0022011D01*
X0045855Y0021952D01*
X0045835Y0021895D01*
X0045812Y0021840D01*
X0045785Y0021785D01*
X0045756Y0021733D01*
X0045723Y0021682D01*
X0045687Y0021633D01*
X0045649Y0021587D01*
X0045607Y0021543D01*
X0045563Y0021501D01*
X0045517Y0021463D01*
X0045468Y0021427D01*
X0045417Y0021394D01*
X0045365Y0021365D01*
X0045310Y0021338D01*
X0045255Y0021315D01*
X0045198Y0021295D01*
X0045139Y0021279D01*
X0045080Y0021266D01*
X0045021Y0021257D01*
X0044960Y0021252D01*
X0044900Y0021250D01*
X0027900Y0021250D01*
X0027840Y0021252D01*
X0027779Y0021257D01*
X0027720Y0021266D01*
X0027661Y0021279D01*
X0027602Y0021295D01*
X0027545Y0021315D01*
X0027490Y0021338D01*
X0027435Y0021365D01*
X0027383Y0021394D01*
X0027332Y0021427D01*
X0027283Y0021463D01*
X0027237Y0021501D01*
X0027193Y0021543D01*
X0027151Y0021587D01*
X0027113Y0021633D01*
X0027077Y0021682D01*
X0027044Y0021733D01*
X0027015Y0021785D01*
X0026988Y0021840D01*
X0026965Y0021895D01*
X0026945Y0021952D01*
X0026929Y0022011D01*
X0026916Y0022070D01*
X0026907Y0022129D01*
X0026902Y0022190D01*
X0026900Y0022250D01*
X0026900Y0030250D01*
X0026902Y0030310D01*
X0026907Y0030371D01*
X0026916Y0030430D01*
X0026929Y0030489D01*
X0026945Y0030548D01*
X0026965Y0030605D01*
X0026988Y0030660D01*
X0027015Y0030715D01*
X0027044Y0030767D01*
X0027077Y0030818D01*
X0027113Y0030867D01*
X0027151Y0030913D01*
X0027193Y0030957D01*
X0027237Y0030999D01*
X0027283Y0031037D01*
X0027332Y0031073D01*
X0027383Y0031106D01*
X0027435Y0031135D01*
X0027490Y0031162D01*
X0027545Y0031185D01*
X0027602Y0031205D01*
X0027661Y0031221D01*
X0027720Y0031234D01*
X0027779Y0031243D01*
X0027840Y0031248D01*
X0027900Y0031250D01*
X0044900Y0031250D01*
X0044960Y0031248D01*
X0045021Y0031243D01*
X0045080Y0031234D01*
X0045139Y0031221D01*
X0045198Y0031205D01*
X0045255Y0031185D01*
X0045310Y0031162D01*
X0045365Y0031135D01*
X0045417Y0031106D01*
X0045468Y0031073D01*
X0045517Y0031037D01*
X0045563Y0030999D01*
X0045607Y0030957D01*
X0045649Y0030913D01*
X0045687Y0030867D01*
X0045723Y0030818D01*
X0045756Y0030767D01*
X0045785Y0030715D01*
X0045812Y0030660D01*
X0045835Y0030605D01*
X0045855Y0030548D01*
X0045871Y0030489D01*
X0045884Y0030430D01*
X0045893Y0030371D01*
X0045898Y0030310D01*
X0045900Y0030250D01*
X0037900Y0026250D02*
X0037400Y0026250D01*
X0035400Y0026250D02*
X0034900Y0026250D01*
X0047900Y0052250D02*
X0047902Y0052310D01*
X0047907Y0052371D01*
X0047916Y0052430D01*
X0047929Y0052489D01*
X0047945Y0052548D01*
X0047965Y0052605D01*
X0047988Y0052660D01*
X0048015Y0052715D01*
X0048044Y0052767D01*
X0048077Y0052818D01*
X0048113Y0052867D01*
X0048151Y0052913D01*
X0048193Y0052957D01*
X0048237Y0052999D01*
X0048283Y0053037D01*
X0048332Y0053073D01*
X0048383Y0053106D01*
X0048435Y0053135D01*
X0048490Y0053162D01*
X0048545Y0053185D01*
X0048602Y0053205D01*
X0048661Y0053221D01*
X0048720Y0053234D01*
X0048779Y0053243D01*
X0048840Y0053248D01*
X0048900Y0053250D01*
X0053900Y0053250D02*
X0053960Y0053248D01*
X0054021Y0053243D01*
X0054080Y0053234D01*
X0054139Y0053221D01*
X0054198Y0053205D01*
X0054255Y0053185D01*
X0054310Y0053162D01*
X0054365Y0053135D01*
X0054417Y0053106D01*
X0054468Y0053073D01*
X0054517Y0053037D01*
X0054563Y0052999D01*
X0054607Y0052957D01*
X0054649Y0052913D01*
X0054687Y0052867D01*
X0054723Y0052818D01*
X0054756Y0052767D01*
X0054785Y0052715D01*
X0054812Y0052660D01*
X0054835Y0052605D01*
X0054855Y0052548D01*
X0054871Y0052489D01*
X0054884Y0052430D01*
X0054893Y0052371D01*
X0054898Y0052310D01*
X0054900Y0052250D01*
X0054900Y0051250D01*
X0054400Y0050750D01*
X0054400Y0041750D01*
X0054900Y0041250D01*
X0054900Y0040250D01*
X0054898Y0040190D01*
X0054893Y0040129D01*
X0054884Y0040070D01*
X0054871Y0040011D01*
X0054855Y0039952D01*
X0054835Y0039895D01*
X0054812Y0039840D01*
X0054785Y0039785D01*
X0054756Y0039733D01*
X0054723Y0039682D01*
X0054687Y0039633D01*
X0054649Y0039587D01*
X0054607Y0039543D01*
X0054563Y0039501D01*
X0054517Y0039463D01*
X0054468Y0039427D01*
X0054417Y0039394D01*
X0054365Y0039365D01*
X0054310Y0039338D01*
X0054255Y0039315D01*
X0054198Y0039295D01*
X0054139Y0039279D01*
X0054080Y0039266D01*
X0054021Y0039257D01*
X0053960Y0039252D01*
X0053900Y0039250D01*
X0057900Y0040250D02*
X0057900Y0041250D01*
X0058400Y0041750D01*
X0058400Y0050750D01*
X0057900Y0051250D01*
X0057900Y0052250D01*
X0057902Y0052310D01*
X0057907Y0052371D01*
X0057916Y0052430D01*
X0057929Y0052489D01*
X0057945Y0052548D01*
X0057965Y0052605D01*
X0057988Y0052660D01*
X0058015Y0052715D01*
X0058044Y0052767D01*
X0058077Y0052818D01*
X0058113Y0052867D01*
X0058151Y0052913D01*
X0058193Y0052957D01*
X0058237Y0052999D01*
X0058283Y0053037D01*
X0058332Y0053073D01*
X0058383Y0053106D01*
X0058435Y0053135D01*
X0058490Y0053162D01*
X0058545Y0053185D01*
X0058602Y0053205D01*
X0058661Y0053221D01*
X0058720Y0053234D01*
X0058779Y0053243D01*
X0058840Y0053248D01*
X0058900Y0053250D01*
X0063900Y0053250D02*
X0063960Y0053248D01*
X0064021Y0053243D01*
X0064080Y0053234D01*
X0064139Y0053221D01*
X0064198Y0053205D01*
X0064255Y0053185D01*
X0064310Y0053162D01*
X0064365Y0053135D01*
X0064417Y0053106D01*
X0064468Y0053073D01*
X0064517Y0053037D01*
X0064563Y0052999D01*
X0064607Y0052957D01*
X0064649Y0052913D01*
X0064687Y0052867D01*
X0064723Y0052818D01*
X0064756Y0052767D01*
X0064785Y0052715D01*
X0064812Y0052660D01*
X0064835Y0052605D01*
X0064855Y0052548D01*
X0064871Y0052489D01*
X0064884Y0052430D01*
X0064893Y0052371D01*
X0064898Y0052310D01*
X0064900Y0052250D01*
X0064900Y0051250D01*
X0064400Y0050750D01*
X0064400Y0041750D01*
X0064900Y0041250D01*
X0064900Y0040250D01*
X0064898Y0040190D01*
X0064893Y0040129D01*
X0064884Y0040070D01*
X0064871Y0040011D01*
X0064855Y0039952D01*
X0064835Y0039895D01*
X0064812Y0039840D01*
X0064785Y0039785D01*
X0064756Y0039733D01*
X0064723Y0039682D01*
X0064687Y0039633D01*
X0064649Y0039587D01*
X0064607Y0039543D01*
X0064563Y0039501D01*
X0064517Y0039463D01*
X0064468Y0039427D01*
X0064417Y0039394D01*
X0064365Y0039365D01*
X0064310Y0039338D01*
X0064255Y0039315D01*
X0064198Y0039295D01*
X0064139Y0039279D01*
X0064080Y0039266D01*
X0064021Y0039257D01*
X0063960Y0039252D01*
X0063900Y0039250D01*
X0058900Y0039250D02*
X0058840Y0039252D01*
X0058779Y0039257D01*
X0058720Y0039266D01*
X0058661Y0039279D01*
X0058602Y0039295D01*
X0058545Y0039315D01*
X0058490Y0039338D01*
X0058435Y0039365D01*
X0058383Y0039394D01*
X0058332Y0039427D01*
X0058283Y0039463D01*
X0058237Y0039501D01*
X0058193Y0039543D01*
X0058151Y0039587D01*
X0058113Y0039633D01*
X0058077Y0039682D01*
X0058044Y0039733D01*
X0058015Y0039785D01*
X0057988Y0039840D01*
X0057965Y0039895D01*
X0057945Y0039952D01*
X0057929Y0040011D01*
X0057916Y0040070D01*
X0057907Y0040129D01*
X0057902Y0040190D01*
X0057900Y0040250D01*
X0058113Y0066250D02*
X0058613Y0066250D01*
X0056113Y0066250D02*
X0055613Y0066250D01*
X0076400Y0057750D02*
X0076400Y0050250D01*
X0076526Y0050248D01*
X0076651Y0050242D01*
X0076776Y0050232D01*
X0076901Y0050218D01*
X0077026Y0050201D01*
X0077150Y0050179D01*
X0077273Y0050154D01*
X0077395Y0050124D01*
X0077516Y0050091D01*
X0077636Y0050054D01*
X0077755Y0050014D01*
X0077872Y0049969D01*
X0077989Y0049921D01*
X0078103Y0049869D01*
X0078216Y0049814D01*
X0078327Y0049755D01*
X0078436Y0049693D01*
X0078543Y0049627D01*
X0078648Y0049558D01*
X0078751Y0049486D01*
X0078852Y0049411D01*
X0078950Y0049332D01*
X0079045Y0049250D01*
X0079138Y0049166D01*
X0079228Y0049078D01*
X0079316Y0048988D01*
X0079400Y0048895D01*
X0079482Y0048800D01*
X0079561Y0048702D01*
X0079636Y0048601D01*
X0079708Y0048498D01*
X0079777Y0048393D01*
X0079843Y0048286D01*
X0079905Y0048177D01*
X0079964Y0048066D01*
X0080019Y0047953D01*
X0080071Y0047839D01*
X0080119Y0047722D01*
X0080164Y0047605D01*
X0080204Y0047486D01*
X0080241Y0047366D01*
X0080274Y0047245D01*
X0080304Y0047123D01*
X0080329Y0047000D01*
X0080351Y0046876D01*
X0080368Y0046751D01*
X0080382Y0046626D01*
X0080392Y0046501D01*
X0080398Y0046376D01*
X0080400Y0046250D01*
X0080398Y0046124D01*
X0080392Y0045999D01*
X0080382Y0045874D01*
X0080368Y0045749D01*
X0080351Y0045624D01*
X0080329Y0045500D01*
X0080304Y0045377D01*
X0080274Y0045255D01*
X0080241Y0045134D01*
X0080204Y0045014D01*
X0080164Y0044895D01*
X0080119Y0044778D01*
X0080071Y0044661D01*
X0080019Y0044547D01*
X0079964Y0044434D01*
X0079905Y0044323D01*
X0079843Y0044214D01*
X0079777Y0044107D01*
X0079708Y0044002D01*
X0079636Y0043899D01*
X0079561Y0043798D01*
X0079482Y0043700D01*
X0079400Y0043605D01*
X0079316Y0043512D01*
X0079228Y0043422D01*
X0079138Y0043334D01*
X0079045Y0043250D01*
X0078950Y0043168D01*
X0078852Y0043089D01*
X0078751Y0043014D01*
X0078648Y0042942D01*
X0078543Y0042873D01*
X0078436Y0042807D01*
X0078327Y0042745D01*
X0078216Y0042686D01*
X0078103Y0042631D01*
X0077989Y0042579D01*
X0077872Y0042531D01*
X0077755Y0042486D01*
X0077636Y0042446D01*
X0077516Y0042409D01*
X0077395Y0042376D01*
X0077273Y0042346D01*
X0077150Y0042321D01*
X0077026Y0042299D01*
X0076901Y0042282D01*
X0076776Y0042268D01*
X0076651Y0042258D01*
X0076526Y0042252D01*
X0076400Y0042250D01*
X0076400Y0034750D01*
X0116400Y0034750D01*
X0116400Y0057750D01*
X0076400Y0057750D01*
X0116400Y0054750D02*
X0116400Y0037750D01*
X0116402Y0037690D01*
X0116407Y0037629D01*
X0116416Y0037570D01*
X0116429Y0037511D01*
X0116445Y0037452D01*
X0116465Y0037395D01*
X0116488Y0037340D01*
X0116515Y0037285D01*
X0116544Y0037233D01*
X0116577Y0037182D01*
X0116613Y0037133D01*
X0116651Y0037087D01*
X0116693Y0037043D01*
X0116737Y0037001D01*
X0116783Y0036963D01*
X0116832Y0036927D01*
X0116883Y0036894D01*
X0116935Y0036865D01*
X0116990Y0036838D01*
X0117045Y0036815D01*
X0117102Y0036795D01*
X0117161Y0036779D01*
X0117220Y0036766D01*
X0117279Y0036757D01*
X0117340Y0036752D01*
X0117400Y0036750D01*
X0125400Y0036750D01*
X0125460Y0036752D01*
X0125521Y0036757D01*
X0125580Y0036766D01*
X0125639Y0036779D01*
X0125698Y0036795D01*
X0125755Y0036815D01*
X0125810Y0036838D01*
X0125865Y0036865D01*
X0125917Y0036894D01*
X0125968Y0036927D01*
X0126017Y0036963D01*
X0126063Y0037001D01*
X0126107Y0037043D01*
X0126149Y0037087D01*
X0126187Y0037133D01*
X0126223Y0037182D01*
X0126256Y0037233D01*
X0126285Y0037285D01*
X0126312Y0037340D01*
X0126335Y0037395D01*
X0126355Y0037452D01*
X0126371Y0037511D01*
X0126384Y0037570D01*
X0126393Y0037629D01*
X0126398Y0037690D01*
X0126400Y0037750D01*
X0126400Y0054750D01*
X0126398Y0054810D01*
X0126393Y0054871D01*
X0126384Y0054930D01*
X0126371Y0054989D01*
X0126355Y0055048D01*
X0126335Y0055105D01*
X0126312Y0055160D01*
X0126285Y0055215D01*
X0126256Y0055267D01*
X0126223Y0055318D01*
X0126187Y0055367D01*
X0126149Y0055413D01*
X0126107Y0055457D01*
X0126063Y0055499D01*
X0126017Y0055537D01*
X0125968Y0055573D01*
X0125917Y0055606D01*
X0125865Y0055635D01*
X0125810Y0055662D01*
X0125755Y0055685D01*
X0125698Y0055705D01*
X0125639Y0055721D01*
X0125580Y0055734D01*
X0125521Y0055743D01*
X0125460Y0055748D01*
X0125400Y0055750D01*
X0117400Y0055750D01*
X0117340Y0055748D01*
X0117279Y0055743D01*
X0117220Y0055734D01*
X0117161Y0055721D01*
X0117102Y0055705D01*
X0117045Y0055685D01*
X0116990Y0055662D01*
X0116935Y0055635D01*
X0116883Y0055606D01*
X0116832Y0055573D01*
X0116783Y0055537D01*
X0116737Y0055499D01*
X0116693Y0055457D01*
X0116651Y0055413D01*
X0116613Y0055367D01*
X0116577Y0055318D01*
X0116544Y0055267D01*
X0116515Y0055215D01*
X0116488Y0055160D01*
X0116465Y0055105D01*
X0116445Y0055048D01*
X0116429Y0054989D01*
X0116416Y0054930D01*
X0116407Y0054871D01*
X0116402Y0054810D01*
X0116400Y0054750D01*
X0121400Y0047750D02*
X0121400Y0047250D01*
X0121400Y0045250D02*
X0121400Y0044750D01*
X0126400Y0071250D02*
X0156400Y0071250D01*
X0156400Y0072250D01*
X0156400Y0080250D02*
X0156400Y0082250D01*
X0156400Y0090250D02*
X0156400Y0092250D01*
X0156400Y0100250D02*
X0156400Y0102250D01*
X0156400Y0110250D02*
X0156400Y0111250D01*
X0126400Y0111250D01*
X0126400Y0110250D01*
X0126400Y0102250D02*
X0126400Y0100250D01*
X0126400Y0092250D02*
X0126400Y0090250D01*
X0126400Y0082250D02*
X0126400Y0080250D01*
X0126400Y0072250D02*
X0126400Y0071250D01*
X0146282Y0169737D02*
X0146191Y0169862D01*
X0146097Y0169984D01*
X0145999Y0170103D01*
X0145899Y0170220D01*
X0145795Y0170334D01*
X0145689Y0170446D01*
X0145580Y0170554D01*
X0145468Y0170660D01*
X0145353Y0170763D01*
X0145236Y0170863D01*
X0145116Y0170961D01*
X0144994Y0171054D01*
X0144870Y0171145D01*
X0144743Y0171233D01*
X0144614Y0171317D01*
X0144482Y0171398D01*
X0144349Y0171475D01*
X0144214Y0171549D01*
X0144077Y0171620D01*
X0143938Y0171687D01*
X0143798Y0171750D01*
X0143655Y0171810D01*
X0143512Y0171866D01*
X0143367Y0171918D01*
X0143221Y0171967D01*
X0143073Y0172012D01*
X0142925Y0172053D01*
X0142775Y0172090D01*
X0142625Y0172124D01*
X0142473Y0172153D01*
X0142321Y0172179D01*
X0142169Y0172201D01*
X0142016Y0172218D01*
X0141862Y0172232D01*
X0141708Y0172242D01*
X0141554Y0172248D01*
X0141400Y0172250D01*
X0136664Y0162567D02*
X0136758Y0162448D01*
X0136856Y0162332D01*
X0136956Y0162218D01*
X0137060Y0162107D01*
X0137166Y0161999D01*
X0137274Y0161893D01*
X0137386Y0161791D01*
X0137500Y0161691D01*
X0137616Y0161593D01*
X0137735Y0161499D01*
X0137856Y0161408D01*
X0137980Y0161320D01*
X0138106Y0161235D01*
X0138233Y0161154D01*
X0138363Y0161075D01*
X0138495Y0161000D01*
X0138628Y0160929D01*
X0138764Y0160860D01*
X0138901Y0160795D01*
X0139039Y0160734D01*
X0139180Y0160676D01*
X0139321Y0160622D01*
X0139464Y0160571D01*
X0139608Y0160524D01*
X0139753Y0160480D01*
X0139900Y0160441D01*
X0140047Y0160405D01*
X0140195Y0160372D01*
X0140344Y0160344D01*
X0140494Y0160319D01*
X0140644Y0160298D01*
X0140794Y0160281D01*
X0140946Y0160267D01*
X0141097Y0160258D01*
X0141248Y0160252D01*
X0141400Y0160250D01*
X0136600Y0169850D02*
X0136692Y0169969D01*
X0136786Y0170086D01*
X0136884Y0170200D01*
X0136984Y0170312D01*
X0137088Y0170422D01*
X0137193Y0170528D01*
X0137302Y0170633D01*
X0137413Y0170734D01*
X0137527Y0170832D01*
X0137643Y0170928D01*
X0137761Y0171021D01*
X0137882Y0171110D01*
X0138005Y0171197D01*
X0138130Y0171280D01*
X0138257Y0171361D01*
X0138386Y0171438D01*
X0138517Y0171512D01*
X0138650Y0171583D01*
X0138784Y0171650D01*
X0138920Y0171714D01*
X0139058Y0171774D01*
X0139197Y0171831D01*
X0139338Y0171884D01*
X0139480Y0171934D01*
X0139623Y0171981D01*
X0139767Y0172023D01*
X0139912Y0172063D01*
X0140058Y0172098D01*
X0140205Y0172130D01*
X0140353Y0172158D01*
X0140501Y0172182D01*
X0140650Y0172203D01*
X0140800Y0172220D01*
X0140949Y0172233D01*
X0141099Y0172242D01*
X0141250Y0172248D01*
X0141400Y0172250D01*
X0146136Y0162567D02*
X0146042Y0162448D01*
X0145944Y0162332D01*
X0145844Y0162218D01*
X0145740Y0162107D01*
X0145634Y0161999D01*
X0145526Y0161893D01*
X0145414Y0161791D01*
X0145300Y0161691D01*
X0145184Y0161593D01*
X0145065Y0161499D01*
X0144944Y0161408D01*
X0144820Y0161320D01*
X0144694Y0161235D01*
X0144567Y0161154D01*
X0144437Y0161075D01*
X0144305Y0161000D01*
X0144172Y0160929D01*
X0144036Y0160860D01*
X0143899Y0160795D01*
X0143761Y0160734D01*
X0143620Y0160676D01*
X0143479Y0160622D01*
X0143336Y0160571D01*
X0143192Y0160524D01*
X0143047Y0160480D01*
X0142900Y0160441D01*
X0142753Y0160405D01*
X0142605Y0160372D01*
X0142456Y0160344D01*
X0142306Y0160319D01*
X0142156Y0160298D01*
X0142006Y0160281D01*
X0141854Y0160267D01*
X0141703Y0160258D01*
X0141552Y0160252D01*
X0141400Y0160250D01*
X0136600Y0189850D02*
X0136692Y0189969D01*
X0136786Y0190086D01*
X0136884Y0190200D01*
X0136984Y0190312D01*
X0137088Y0190422D01*
X0137193Y0190528D01*
X0137302Y0190633D01*
X0137413Y0190734D01*
X0137527Y0190832D01*
X0137643Y0190928D01*
X0137761Y0191021D01*
X0137882Y0191110D01*
X0138005Y0191197D01*
X0138130Y0191280D01*
X0138257Y0191361D01*
X0138386Y0191438D01*
X0138517Y0191512D01*
X0138650Y0191583D01*
X0138784Y0191650D01*
X0138920Y0191714D01*
X0139058Y0191774D01*
X0139197Y0191831D01*
X0139338Y0191884D01*
X0139480Y0191934D01*
X0139623Y0191981D01*
X0139767Y0192023D01*
X0139912Y0192063D01*
X0140058Y0192098D01*
X0140205Y0192130D01*
X0140353Y0192158D01*
X0140501Y0192182D01*
X0140650Y0192203D01*
X0140800Y0192220D01*
X0140949Y0192233D01*
X0141099Y0192242D01*
X0141250Y0192248D01*
X0141400Y0192250D01*
X0136664Y0182567D02*
X0136758Y0182448D01*
X0136856Y0182332D01*
X0136956Y0182218D01*
X0137060Y0182107D01*
X0137166Y0181999D01*
X0137274Y0181893D01*
X0137386Y0181791D01*
X0137500Y0181691D01*
X0137616Y0181593D01*
X0137735Y0181499D01*
X0137856Y0181408D01*
X0137980Y0181320D01*
X0138106Y0181235D01*
X0138233Y0181154D01*
X0138363Y0181075D01*
X0138495Y0181000D01*
X0138628Y0180929D01*
X0138764Y0180860D01*
X0138901Y0180795D01*
X0139039Y0180734D01*
X0139180Y0180676D01*
X0139321Y0180622D01*
X0139464Y0180571D01*
X0139608Y0180524D01*
X0139753Y0180480D01*
X0139900Y0180441D01*
X0140047Y0180405D01*
X0140195Y0180372D01*
X0140344Y0180344D01*
X0140494Y0180319D01*
X0140644Y0180298D01*
X0140794Y0180281D01*
X0140946Y0180267D01*
X0141097Y0180258D01*
X0141248Y0180252D01*
X0141400Y0180250D01*
X0146282Y0189737D02*
X0146191Y0189862D01*
X0146097Y0189984D01*
X0145999Y0190103D01*
X0145899Y0190220D01*
X0145795Y0190334D01*
X0145689Y0190446D01*
X0145580Y0190554D01*
X0145468Y0190660D01*
X0145353Y0190763D01*
X0145236Y0190863D01*
X0145116Y0190961D01*
X0144994Y0191054D01*
X0144870Y0191145D01*
X0144743Y0191233D01*
X0144614Y0191317D01*
X0144482Y0191398D01*
X0144349Y0191475D01*
X0144214Y0191549D01*
X0144077Y0191620D01*
X0143938Y0191687D01*
X0143798Y0191750D01*
X0143655Y0191810D01*
X0143512Y0191866D01*
X0143367Y0191918D01*
X0143221Y0191967D01*
X0143073Y0192012D01*
X0142925Y0192053D01*
X0142775Y0192090D01*
X0142625Y0192124D01*
X0142473Y0192153D01*
X0142321Y0192179D01*
X0142169Y0192201D01*
X0142016Y0192218D01*
X0141862Y0192232D01*
X0141708Y0192242D01*
X0141554Y0192248D01*
X0141400Y0192250D01*
X0146136Y0182567D02*
X0146042Y0182448D01*
X0145944Y0182332D01*
X0145844Y0182218D01*
X0145740Y0182107D01*
X0145634Y0181999D01*
X0145526Y0181893D01*
X0145414Y0181791D01*
X0145300Y0181691D01*
X0145184Y0181593D01*
X0145065Y0181499D01*
X0144944Y0181408D01*
X0144820Y0181320D01*
X0144694Y0181235D01*
X0144567Y0181154D01*
X0144437Y0181075D01*
X0144305Y0181000D01*
X0144172Y0180929D01*
X0144036Y0180860D01*
X0143899Y0180795D01*
X0143761Y0180734D01*
X0143620Y0180676D01*
X0143479Y0180622D01*
X0143336Y0180571D01*
X0143192Y0180524D01*
X0143047Y0180480D01*
X0142900Y0180441D01*
X0142753Y0180405D01*
X0142605Y0180372D01*
X0142456Y0180344D01*
X0142306Y0180319D01*
X0142156Y0180298D01*
X0142006Y0180281D01*
X0141854Y0180267D01*
X0141703Y0180258D01*
X0141552Y0180252D01*
X0141400Y0180250D01*
X0136600Y0209850D02*
X0136692Y0209969D01*
X0136786Y0210086D01*
X0136884Y0210200D01*
X0136984Y0210312D01*
X0137088Y0210422D01*
X0137193Y0210528D01*
X0137302Y0210633D01*
X0137413Y0210734D01*
X0137527Y0210832D01*
X0137643Y0210928D01*
X0137761Y0211021D01*
X0137882Y0211110D01*
X0138005Y0211197D01*
X0138130Y0211280D01*
X0138257Y0211361D01*
X0138386Y0211438D01*
X0138517Y0211512D01*
X0138650Y0211583D01*
X0138784Y0211650D01*
X0138920Y0211714D01*
X0139058Y0211774D01*
X0139197Y0211831D01*
X0139338Y0211884D01*
X0139480Y0211934D01*
X0139623Y0211981D01*
X0139767Y0212023D01*
X0139912Y0212063D01*
X0140058Y0212098D01*
X0140205Y0212130D01*
X0140353Y0212158D01*
X0140501Y0212182D01*
X0140650Y0212203D01*
X0140800Y0212220D01*
X0140949Y0212233D01*
X0141099Y0212242D01*
X0141250Y0212248D01*
X0141400Y0212250D01*
X0136664Y0202567D02*
X0136758Y0202448D01*
X0136856Y0202332D01*
X0136956Y0202218D01*
X0137060Y0202107D01*
X0137166Y0201999D01*
X0137274Y0201893D01*
X0137386Y0201791D01*
X0137500Y0201691D01*
X0137616Y0201593D01*
X0137735Y0201499D01*
X0137856Y0201408D01*
X0137980Y0201320D01*
X0138106Y0201235D01*
X0138233Y0201154D01*
X0138363Y0201075D01*
X0138495Y0201000D01*
X0138628Y0200929D01*
X0138764Y0200860D01*
X0138901Y0200795D01*
X0139039Y0200734D01*
X0139180Y0200676D01*
X0139321Y0200622D01*
X0139464Y0200571D01*
X0139608Y0200524D01*
X0139753Y0200480D01*
X0139900Y0200441D01*
X0140047Y0200405D01*
X0140195Y0200372D01*
X0140344Y0200344D01*
X0140494Y0200319D01*
X0140644Y0200298D01*
X0140794Y0200281D01*
X0140946Y0200267D01*
X0141097Y0200258D01*
X0141248Y0200252D01*
X0141400Y0200250D01*
X0146282Y0209737D02*
X0146191Y0209862D01*
X0146097Y0209984D01*
X0145999Y0210103D01*
X0145899Y0210220D01*
X0145795Y0210334D01*
X0145689Y0210446D01*
X0145580Y0210554D01*
X0145468Y0210660D01*
X0145353Y0210763D01*
X0145236Y0210863D01*
X0145116Y0210961D01*
X0144994Y0211054D01*
X0144870Y0211145D01*
X0144743Y0211233D01*
X0144614Y0211317D01*
X0144482Y0211398D01*
X0144349Y0211475D01*
X0144214Y0211549D01*
X0144077Y0211620D01*
X0143938Y0211687D01*
X0143798Y0211750D01*
X0143655Y0211810D01*
X0143512Y0211866D01*
X0143367Y0211918D01*
X0143221Y0211967D01*
X0143073Y0212012D01*
X0142925Y0212053D01*
X0142775Y0212090D01*
X0142625Y0212124D01*
X0142473Y0212153D01*
X0142321Y0212179D01*
X0142169Y0212201D01*
X0142016Y0212218D01*
X0141862Y0212232D01*
X0141708Y0212242D01*
X0141554Y0212248D01*
X0141400Y0212250D01*
X0146136Y0202567D02*
X0146042Y0202448D01*
X0145944Y0202332D01*
X0145844Y0202218D01*
X0145740Y0202107D01*
X0145634Y0201999D01*
X0145526Y0201893D01*
X0145414Y0201791D01*
X0145300Y0201691D01*
X0145184Y0201593D01*
X0145065Y0201499D01*
X0144944Y0201408D01*
X0144820Y0201320D01*
X0144694Y0201235D01*
X0144567Y0201154D01*
X0144437Y0201075D01*
X0144305Y0201000D01*
X0144172Y0200929D01*
X0144036Y0200860D01*
X0143899Y0200795D01*
X0143761Y0200734D01*
X0143620Y0200676D01*
X0143479Y0200622D01*
X0143336Y0200571D01*
X0143192Y0200524D01*
X0143047Y0200480D01*
X0142900Y0200441D01*
X0142753Y0200405D01*
X0142605Y0200372D01*
X0142456Y0200344D01*
X0142306Y0200319D01*
X0142156Y0200298D01*
X0142006Y0200281D01*
X0141854Y0200267D01*
X0141703Y0200258D01*
X0141552Y0200252D01*
X0141400Y0200250D01*
X0136600Y0229850D02*
X0136692Y0229969D01*
X0136786Y0230086D01*
X0136884Y0230200D01*
X0136984Y0230312D01*
X0137088Y0230422D01*
X0137193Y0230528D01*
X0137302Y0230633D01*
X0137413Y0230734D01*
X0137527Y0230832D01*
X0137643Y0230928D01*
X0137761Y0231021D01*
X0137882Y0231110D01*
X0138005Y0231197D01*
X0138130Y0231280D01*
X0138257Y0231361D01*
X0138386Y0231438D01*
X0138517Y0231512D01*
X0138650Y0231583D01*
X0138784Y0231650D01*
X0138920Y0231714D01*
X0139058Y0231774D01*
X0139197Y0231831D01*
X0139338Y0231884D01*
X0139480Y0231934D01*
X0139623Y0231981D01*
X0139767Y0232023D01*
X0139912Y0232063D01*
X0140058Y0232098D01*
X0140205Y0232130D01*
X0140353Y0232158D01*
X0140501Y0232182D01*
X0140650Y0232203D01*
X0140800Y0232220D01*
X0140949Y0232233D01*
X0141099Y0232242D01*
X0141250Y0232248D01*
X0141400Y0232250D01*
X0136664Y0222567D02*
X0136758Y0222448D01*
X0136856Y0222332D01*
X0136956Y0222218D01*
X0137060Y0222107D01*
X0137166Y0221999D01*
X0137274Y0221893D01*
X0137386Y0221791D01*
X0137500Y0221691D01*
X0137616Y0221593D01*
X0137735Y0221499D01*
X0137856Y0221408D01*
X0137980Y0221320D01*
X0138106Y0221235D01*
X0138233Y0221154D01*
X0138363Y0221075D01*
X0138495Y0221000D01*
X0138628Y0220929D01*
X0138764Y0220860D01*
X0138901Y0220795D01*
X0139039Y0220734D01*
X0139180Y0220676D01*
X0139321Y0220622D01*
X0139464Y0220571D01*
X0139608Y0220524D01*
X0139753Y0220480D01*
X0139900Y0220441D01*
X0140047Y0220405D01*
X0140195Y0220372D01*
X0140344Y0220344D01*
X0140494Y0220319D01*
X0140644Y0220298D01*
X0140794Y0220281D01*
X0140946Y0220267D01*
X0141097Y0220258D01*
X0141248Y0220252D01*
X0141400Y0220250D01*
X0146282Y0229737D02*
X0146191Y0229862D01*
X0146097Y0229984D01*
X0145999Y0230103D01*
X0145899Y0230220D01*
X0145795Y0230334D01*
X0145689Y0230446D01*
X0145580Y0230554D01*
X0145468Y0230660D01*
X0145353Y0230763D01*
X0145236Y0230863D01*
X0145116Y0230961D01*
X0144994Y0231054D01*
X0144870Y0231145D01*
X0144743Y0231233D01*
X0144614Y0231317D01*
X0144482Y0231398D01*
X0144349Y0231475D01*
X0144214Y0231549D01*
X0144077Y0231620D01*
X0143938Y0231687D01*
X0143798Y0231750D01*
X0143655Y0231810D01*
X0143512Y0231866D01*
X0143367Y0231918D01*
X0143221Y0231967D01*
X0143073Y0232012D01*
X0142925Y0232053D01*
X0142775Y0232090D01*
X0142625Y0232124D01*
X0142473Y0232153D01*
X0142321Y0232179D01*
X0142169Y0232201D01*
X0142016Y0232218D01*
X0141862Y0232232D01*
X0141708Y0232242D01*
X0141554Y0232248D01*
X0141400Y0232250D01*
X0146136Y0222567D02*
X0146042Y0222448D01*
X0145944Y0222332D01*
X0145844Y0222218D01*
X0145740Y0222107D01*
X0145634Y0221999D01*
X0145526Y0221893D01*
X0145414Y0221791D01*
X0145300Y0221691D01*
X0145184Y0221593D01*
X0145065Y0221499D01*
X0144944Y0221408D01*
X0144820Y0221320D01*
X0144694Y0221235D01*
X0144567Y0221154D01*
X0144437Y0221075D01*
X0144305Y0221000D01*
X0144172Y0220929D01*
X0144036Y0220860D01*
X0143899Y0220795D01*
X0143761Y0220734D01*
X0143620Y0220676D01*
X0143479Y0220622D01*
X0143336Y0220571D01*
X0143192Y0220524D01*
X0143047Y0220480D01*
X0142900Y0220441D01*
X0142753Y0220405D01*
X0142605Y0220372D01*
X0142456Y0220344D01*
X0142306Y0220319D01*
X0142156Y0220298D01*
X0142006Y0220281D01*
X0141854Y0220267D01*
X0141703Y0220258D01*
X0141552Y0220252D01*
X0141400Y0220250D01*
X0136558Y0242727D02*
X0133958Y0242727D01*
X0135403Y0243594D01*
X0133958Y0244460D01*
X0136558Y0244460D01*
X0136558Y0245897D02*
X0136558Y0246475D01*
X0136558Y0246186D02*
X0133958Y0246186D01*
X0133958Y0245897D02*
X0133958Y0246475D01*
X0133958Y0247863D02*
X0133958Y0248586D01*
X0133960Y0248638D01*
X0133965Y0248689D01*
X0133975Y0248739D01*
X0133987Y0248789D01*
X0134004Y0248838D01*
X0134023Y0248886D01*
X0134046Y0248932D01*
X0134073Y0248976D01*
X0134102Y0249019D01*
X0134134Y0249059D01*
X0134169Y0249097D01*
X0134207Y0249132D01*
X0134247Y0249164D01*
X0134290Y0249193D01*
X0134334Y0249220D01*
X0134380Y0249243D01*
X0134428Y0249262D01*
X0134477Y0249279D01*
X0134527Y0249292D01*
X0134577Y0249301D01*
X0134629Y0249306D01*
X0134680Y0249308D01*
X0135836Y0249308D01*
X0135888Y0249306D01*
X0135939Y0249301D01*
X0135989Y0249292D01*
X0136039Y0249279D01*
X0136088Y0249262D01*
X0136136Y0249243D01*
X0136182Y0249220D01*
X0136226Y0249193D01*
X0136269Y0249164D01*
X0136309Y0249132D01*
X0136347Y0249097D01*
X0136382Y0249059D01*
X0136414Y0249019D01*
X0136443Y0248976D01*
X0136470Y0248932D01*
X0136493Y0248886D01*
X0136512Y0248838D01*
X0136529Y0248789D01*
X0136542Y0248739D01*
X0136551Y0248689D01*
X0136556Y0248638D01*
X0136558Y0248586D01*
X0136558Y0247863D01*
X0133958Y0247863D01*
X0133958Y0250697D02*
X0133958Y0251275D01*
X0133958Y0250986D02*
X0136558Y0250986D01*
X0136558Y0250697D02*
X0136558Y0251275D01*
X0136558Y0252425D02*
X0136558Y0253003D01*
X0136558Y0252714D02*
X0133958Y0252714D01*
X0133958Y0252425D02*
X0133958Y0253003D01*
X0133958Y0254391D02*
X0136558Y0255836D01*
X0133958Y0255836D01*
X0133958Y0254391D02*
X0136558Y0254391D01*
X0136558Y0268318D02*
X0133958Y0268318D01*
X0135403Y0269185D01*
X0133958Y0270051D01*
X0136558Y0270051D01*
X0136558Y0271488D02*
X0136558Y0272066D01*
X0136558Y0271777D02*
X0133958Y0271777D01*
X0133958Y0271488D02*
X0133958Y0272066D01*
X0133958Y0273455D02*
X0133958Y0274177D01*
X0133958Y0273455D02*
X0136558Y0273455D01*
X0136558Y0274177D01*
X0136556Y0274229D01*
X0136551Y0274280D01*
X0136542Y0274330D01*
X0136529Y0274380D01*
X0136512Y0274429D01*
X0136493Y0274477D01*
X0136470Y0274523D01*
X0136443Y0274567D01*
X0136414Y0274610D01*
X0136382Y0274650D01*
X0136347Y0274688D01*
X0136309Y0274723D01*
X0136269Y0274755D01*
X0136226Y0274784D01*
X0136182Y0274811D01*
X0136136Y0274834D01*
X0136088Y0274853D01*
X0136039Y0274870D01*
X0135989Y0274883D01*
X0135939Y0274892D01*
X0135888Y0274897D01*
X0135836Y0274899D01*
X0134680Y0274899D01*
X0134629Y0274897D01*
X0134577Y0274892D01*
X0134527Y0274883D01*
X0134477Y0274870D01*
X0134428Y0274853D01*
X0134380Y0274834D01*
X0134334Y0274811D01*
X0134290Y0274784D01*
X0134247Y0274755D01*
X0134207Y0274723D01*
X0134169Y0274688D01*
X0134134Y0274650D01*
X0134102Y0274610D01*
X0134073Y0274567D01*
X0134046Y0274523D01*
X0134023Y0274477D01*
X0134004Y0274429D01*
X0133987Y0274380D01*
X0133975Y0274330D01*
X0133965Y0274280D01*
X0133960Y0274229D01*
X0133958Y0274177D01*
X0133958Y0276288D02*
X0133958Y0276866D01*
X0133958Y0276577D02*
X0136558Y0276577D01*
X0136558Y0276288D02*
X0136558Y0276866D01*
X0135836Y0278159D02*
X0134680Y0278159D01*
X0134627Y0278161D01*
X0134575Y0278167D01*
X0134523Y0278176D01*
X0134472Y0278190D01*
X0134422Y0278207D01*
X0134374Y0278227D01*
X0134327Y0278251D01*
X0134282Y0278279D01*
X0134239Y0278310D01*
X0134198Y0278343D01*
X0134160Y0278380D01*
X0134125Y0278419D01*
X0134093Y0278461D01*
X0134064Y0278505D01*
X0134038Y0278551D01*
X0134016Y0278599D01*
X0133997Y0278648D01*
X0133981Y0278698D01*
X0133970Y0278750D01*
X0133962Y0278802D01*
X0133958Y0278855D01*
X0133958Y0278907D01*
X0133962Y0278960D01*
X0133970Y0279012D01*
X0133981Y0279064D01*
X0133997Y0279114D01*
X0134016Y0279163D01*
X0134038Y0279211D01*
X0134064Y0279257D01*
X0134093Y0279301D01*
X0134125Y0279343D01*
X0134160Y0279382D01*
X0134198Y0279419D01*
X0134239Y0279452D01*
X0134282Y0279483D01*
X0134327Y0279511D01*
X0134374Y0279535D01*
X0134422Y0279555D01*
X0134472Y0279572D01*
X0134523Y0279586D01*
X0134575Y0279595D01*
X0134627Y0279601D01*
X0134680Y0279603D01*
X0135836Y0279603D01*
X0135889Y0279601D01*
X0135941Y0279595D01*
X0135993Y0279586D01*
X0136044Y0279572D01*
X0136094Y0279555D01*
X0136142Y0279535D01*
X0136189Y0279511D01*
X0136234Y0279483D01*
X0136277Y0279452D01*
X0136318Y0279419D01*
X0136356Y0279382D01*
X0136391Y0279343D01*
X0136423Y0279301D01*
X0136452Y0279257D01*
X0136478Y0279211D01*
X0136500Y0279163D01*
X0136519Y0279114D01*
X0136535Y0279064D01*
X0136546Y0279012D01*
X0136554Y0278960D01*
X0136558Y0278907D01*
X0136558Y0278855D01*
X0136554Y0278802D01*
X0136546Y0278750D01*
X0136535Y0278698D01*
X0136519Y0278648D01*
X0136500Y0278599D01*
X0136478Y0278551D01*
X0136452Y0278505D01*
X0136423Y0278461D01*
X0136391Y0278419D01*
X0136356Y0278380D01*
X0136318Y0278343D01*
X0136277Y0278310D01*
X0136234Y0278279D01*
X0136189Y0278251D01*
X0136142Y0278227D01*
X0136094Y0278207D01*
X0136044Y0278190D01*
X0135993Y0278176D01*
X0135941Y0278167D01*
X0135889Y0278161D01*
X0135836Y0278159D01*
X0135836Y0281135D02*
X0133958Y0281135D01*
X0133958Y0282579D02*
X0135836Y0282579D01*
X0135889Y0282577D01*
X0135941Y0282571D01*
X0135993Y0282562D01*
X0136044Y0282548D01*
X0136094Y0282531D01*
X0136142Y0282511D01*
X0136189Y0282487D01*
X0136234Y0282459D01*
X0136277Y0282428D01*
X0136318Y0282395D01*
X0136356Y0282358D01*
X0136391Y0282319D01*
X0136423Y0282277D01*
X0136452Y0282233D01*
X0136478Y0282187D01*
X0136500Y0282139D01*
X0136519Y0282090D01*
X0136535Y0282040D01*
X0136546Y0281988D01*
X0136554Y0281936D01*
X0136558Y0281883D01*
X0136558Y0281831D01*
X0136554Y0281778D01*
X0136546Y0281726D01*
X0136535Y0281674D01*
X0136519Y0281624D01*
X0136500Y0281575D01*
X0136478Y0281527D01*
X0136452Y0281481D01*
X0136423Y0281437D01*
X0136391Y0281395D01*
X0136356Y0281356D01*
X0136318Y0281319D01*
X0136277Y0281286D01*
X0136234Y0281255D01*
X0136189Y0281227D01*
X0136142Y0281203D01*
X0136094Y0281183D01*
X0136044Y0281166D01*
X0135993Y0281152D01*
X0135941Y0281143D01*
X0135889Y0281137D01*
X0135836Y0281135D01*
X0133958Y0283919D02*
X0133958Y0285363D01*
X0133958Y0284641D02*
X0136558Y0284641D01*
D12*
X0134454Y0222281D02*
X0134553Y0222112D01*
X0134657Y0221946D01*
X0134764Y0221782D01*
X0134875Y0221621D01*
X0134990Y0221463D01*
X0135109Y0221308D01*
X0135232Y0221155D01*
X0135358Y0221006D01*
X0135488Y0220860D01*
X0135622Y0220717D01*
X0135759Y0220577D01*
X0135899Y0220441D01*
X0136043Y0220308D01*
X0136190Y0220179D01*
X0136340Y0220053D01*
X0136493Y0219932D01*
X0136649Y0219813D01*
X0136808Y0219699D01*
X0136969Y0219589D01*
X0137134Y0219483D01*
X0137300Y0219380D01*
X0137470Y0219282D01*
X0137641Y0219188D01*
X0137815Y0219098D01*
X0137991Y0219013D01*
X0138169Y0218931D01*
X0138349Y0218855D01*
X0138531Y0218782D01*
X0138714Y0218714D01*
X0138899Y0218651D01*
X0139086Y0218592D01*
X0139274Y0218538D01*
X0139463Y0218488D01*
X0139653Y0218443D01*
X0139845Y0218403D01*
X0140037Y0218367D01*
X0140230Y0218336D01*
X0140424Y0218310D01*
X0140619Y0218288D01*
X0140814Y0218272D01*
X0141009Y0218260D01*
X0141205Y0218252D01*
X0141400Y0218250D01*
X0134341Y0230015D02*
X0134434Y0230183D01*
X0134530Y0230349D01*
X0134630Y0230513D01*
X0134735Y0230674D01*
X0134843Y0230833D01*
X0134955Y0230989D01*
X0135071Y0231143D01*
X0135190Y0231293D01*
X0135313Y0231441D01*
X0135439Y0231586D01*
X0135569Y0231727D01*
X0135702Y0231866D01*
X0135839Y0232001D01*
X0135979Y0232133D01*
X0136121Y0232261D01*
X0136267Y0232386D01*
X0136416Y0232508D01*
X0136568Y0232626D01*
X0136722Y0232740D01*
X0136880Y0232850D01*
X0137039Y0232957D01*
X0137202Y0233060D01*
X0137367Y0233159D01*
X0137534Y0233254D01*
X0137703Y0233344D01*
X0137874Y0233431D01*
X0138048Y0233514D01*
X0138223Y0233592D01*
X0138401Y0233666D01*
X0138580Y0233736D01*
X0138760Y0233802D01*
X0138942Y0233863D01*
X0139126Y0233920D01*
X0139311Y0233972D01*
X0139497Y0234020D01*
X0139684Y0234064D01*
X0139872Y0234103D01*
X0140061Y0234137D01*
X0140251Y0234167D01*
X0140441Y0234192D01*
X0140632Y0234213D01*
X0140824Y0234229D01*
X0141016Y0234241D01*
X0141208Y0234248D01*
X0141400Y0234250D01*
X0147507Y0221082D02*
X0147380Y0220936D01*
X0147251Y0220794D01*
X0147117Y0220654D01*
X0146981Y0220518D01*
X0146841Y0220385D01*
X0146698Y0220255D01*
X0146551Y0220129D01*
X0146402Y0220007D01*
X0146250Y0219888D01*
X0146095Y0219773D01*
X0145938Y0219661D01*
X0145778Y0219554D01*
X0145615Y0219450D01*
X0145449Y0219351D01*
X0145282Y0219255D01*
X0145112Y0219163D01*
X0144940Y0219076D01*
X0144766Y0218992D01*
X0144590Y0218913D01*
X0144412Y0218839D01*
X0144232Y0218768D01*
X0144051Y0218702D01*
X0143868Y0218640D01*
X0143684Y0218583D01*
X0143498Y0218530D01*
X0143311Y0218482D01*
X0143123Y0218438D01*
X0142934Y0218399D01*
X0142744Y0218364D01*
X0142554Y0218334D01*
X0142363Y0218308D01*
X0142171Y0218287D01*
X0141978Y0218271D01*
X0141786Y0218259D01*
X0141593Y0218252D01*
X0141400Y0218250D01*
X0147546Y0231372D02*
X0147419Y0231520D01*
X0147289Y0231665D01*
X0147156Y0231806D01*
X0147019Y0231945D01*
X0146879Y0232080D01*
X0146735Y0232211D01*
X0146588Y0232339D01*
X0146439Y0232464D01*
X0146286Y0232585D01*
X0146131Y0232702D01*
X0145972Y0232815D01*
X0145811Y0232924D01*
X0145647Y0233029D01*
X0145481Y0233131D01*
X0145312Y0233228D01*
X0145142Y0233321D01*
X0144968Y0233410D01*
X0144793Y0233495D01*
X0144616Y0233575D01*
X0144437Y0233651D01*
X0144256Y0233723D01*
X0144073Y0233790D01*
X0143889Y0233853D01*
X0143703Y0233911D01*
X0143516Y0233965D01*
X0143328Y0234014D01*
X0143138Y0234059D01*
X0142948Y0234099D01*
X0142756Y0234134D01*
X0142564Y0234165D01*
X0142371Y0234191D01*
X0142177Y0234212D01*
X0141983Y0234229D01*
X0141789Y0234241D01*
X0141595Y0234248D01*
X0141400Y0234250D01*
X0134454Y0202281D02*
X0134553Y0202112D01*
X0134657Y0201946D01*
X0134764Y0201782D01*
X0134875Y0201621D01*
X0134990Y0201463D01*
X0135109Y0201308D01*
X0135232Y0201155D01*
X0135358Y0201006D01*
X0135488Y0200860D01*
X0135622Y0200717D01*
X0135759Y0200577D01*
X0135899Y0200441D01*
X0136043Y0200308D01*
X0136190Y0200179D01*
X0136340Y0200053D01*
X0136493Y0199932D01*
X0136649Y0199813D01*
X0136808Y0199699D01*
X0136969Y0199589D01*
X0137134Y0199483D01*
X0137300Y0199380D01*
X0137470Y0199282D01*
X0137641Y0199188D01*
X0137815Y0199098D01*
X0137991Y0199013D01*
X0138169Y0198931D01*
X0138349Y0198855D01*
X0138531Y0198782D01*
X0138714Y0198714D01*
X0138899Y0198651D01*
X0139086Y0198592D01*
X0139274Y0198538D01*
X0139463Y0198488D01*
X0139653Y0198443D01*
X0139845Y0198403D01*
X0140037Y0198367D01*
X0140230Y0198336D01*
X0140424Y0198310D01*
X0140619Y0198288D01*
X0140814Y0198272D01*
X0141009Y0198260D01*
X0141205Y0198252D01*
X0141400Y0198250D01*
X0134341Y0210015D02*
X0134434Y0210183D01*
X0134530Y0210349D01*
X0134630Y0210513D01*
X0134735Y0210674D01*
X0134843Y0210833D01*
X0134955Y0210989D01*
X0135071Y0211143D01*
X0135190Y0211293D01*
X0135313Y0211441D01*
X0135439Y0211586D01*
X0135569Y0211727D01*
X0135702Y0211866D01*
X0135839Y0212001D01*
X0135979Y0212133D01*
X0136121Y0212261D01*
X0136267Y0212386D01*
X0136416Y0212508D01*
X0136568Y0212626D01*
X0136722Y0212740D01*
X0136880Y0212850D01*
X0137039Y0212957D01*
X0137202Y0213060D01*
X0137367Y0213159D01*
X0137534Y0213254D01*
X0137703Y0213344D01*
X0137874Y0213431D01*
X0138048Y0213514D01*
X0138223Y0213592D01*
X0138401Y0213666D01*
X0138580Y0213736D01*
X0138760Y0213802D01*
X0138942Y0213863D01*
X0139126Y0213920D01*
X0139311Y0213972D01*
X0139497Y0214020D01*
X0139684Y0214064D01*
X0139872Y0214103D01*
X0140061Y0214137D01*
X0140251Y0214167D01*
X0140441Y0214192D01*
X0140632Y0214213D01*
X0140824Y0214229D01*
X0141016Y0214241D01*
X0141208Y0214248D01*
X0141400Y0214250D01*
X0147507Y0201082D02*
X0147380Y0200936D01*
X0147251Y0200794D01*
X0147117Y0200654D01*
X0146981Y0200518D01*
X0146841Y0200385D01*
X0146698Y0200255D01*
X0146551Y0200129D01*
X0146402Y0200007D01*
X0146250Y0199888D01*
X0146095Y0199773D01*
X0145938Y0199661D01*
X0145778Y0199554D01*
X0145615Y0199450D01*
X0145449Y0199351D01*
X0145282Y0199255D01*
X0145112Y0199163D01*
X0144940Y0199076D01*
X0144766Y0198992D01*
X0144590Y0198913D01*
X0144412Y0198839D01*
X0144232Y0198768D01*
X0144051Y0198702D01*
X0143868Y0198640D01*
X0143684Y0198583D01*
X0143498Y0198530D01*
X0143311Y0198482D01*
X0143123Y0198438D01*
X0142934Y0198399D01*
X0142744Y0198364D01*
X0142554Y0198334D01*
X0142363Y0198308D01*
X0142171Y0198287D01*
X0141978Y0198271D01*
X0141786Y0198259D01*
X0141593Y0198252D01*
X0141400Y0198250D01*
X0147546Y0211372D02*
X0147419Y0211520D01*
X0147289Y0211665D01*
X0147156Y0211806D01*
X0147019Y0211945D01*
X0146879Y0212080D01*
X0146735Y0212211D01*
X0146588Y0212339D01*
X0146439Y0212464D01*
X0146286Y0212585D01*
X0146131Y0212702D01*
X0145972Y0212815D01*
X0145811Y0212924D01*
X0145647Y0213029D01*
X0145481Y0213131D01*
X0145312Y0213228D01*
X0145142Y0213321D01*
X0144968Y0213410D01*
X0144793Y0213495D01*
X0144616Y0213575D01*
X0144437Y0213651D01*
X0144256Y0213723D01*
X0144073Y0213790D01*
X0143889Y0213853D01*
X0143703Y0213911D01*
X0143516Y0213965D01*
X0143328Y0214014D01*
X0143138Y0214059D01*
X0142948Y0214099D01*
X0142756Y0214134D01*
X0142564Y0214165D01*
X0142371Y0214191D01*
X0142177Y0214212D01*
X0141983Y0214229D01*
X0141789Y0214241D01*
X0141595Y0214248D01*
X0141400Y0214250D01*
X0134454Y0182281D02*
X0134553Y0182112D01*
X0134657Y0181946D01*
X0134764Y0181782D01*
X0134875Y0181621D01*
X0134990Y0181463D01*
X0135109Y0181308D01*
X0135232Y0181155D01*
X0135358Y0181006D01*
X0135488Y0180860D01*
X0135622Y0180717D01*
X0135759Y0180577D01*
X0135899Y0180441D01*
X0136043Y0180308D01*
X0136190Y0180179D01*
X0136340Y0180053D01*
X0136493Y0179932D01*
X0136649Y0179813D01*
X0136808Y0179699D01*
X0136969Y0179589D01*
X0137134Y0179483D01*
X0137300Y0179380D01*
X0137470Y0179282D01*
X0137641Y0179188D01*
X0137815Y0179098D01*
X0137991Y0179013D01*
X0138169Y0178931D01*
X0138349Y0178855D01*
X0138531Y0178782D01*
X0138714Y0178714D01*
X0138899Y0178651D01*
X0139086Y0178592D01*
X0139274Y0178538D01*
X0139463Y0178488D01*
X0139653Y0178443D01*
X0139845Y0178403D01*
X0140037Y0178367D01*
X0140230Y0178336D01*
X0140424Y0178310D01*
X0140619Y0178288D01*
X0140814Y0178272D01*
X0141009Y0178260D01*
X0141205Y0178252D01*
X0141400Y0178250D01*
X0134341Y0190015D02*
X0134434Y0190183D01*
X0134530Y0190349D01*
X0134630Y0190513D01*
X0134735Y0190674D01*
X0134843Y0190833D01*
X0134955Y0190989D01*
X0135071Y0191143D01*
X0135190Y0191293D01*
X0135313Y0191441D01*
X0135439Y0191586D01*
X0135569Y0191727D01*
X0135702Y0191866D01*
X0135839Y0192001D01*
X0135979Y0192133D01*
X0136121Y0192261D01*
X0136267Y0192386D01*
X0136416Y0192508D01*
X0136568Y0192626D01*
X0136722Y0192740D01*
X0136880Y0192850D01*
X0137039Y0192957D01*
X0137202Y0193060D01*
X0137367Y0193159D01*
X0137534Y0193254D01*
X0137703Y0193344D01*
X0137874Y0193431D01*
X0138048Y0193514D01*
X0138223Y0193592D01*
X0138401Y0193666D01*
X0138580Y0193736D01*
X0138760Y0193802D01*
X0138942Y0193863D01*
X0139126Y0193920D01*
X0139311Y0193972D01*
X0139497Y0194020D01*
X0139684Y0194064D01*
X0139872Y0194103D01*
X0140061Y0194137D01*
X0140251Y0194167D01*
X0140441Y0194192D01*
X0140632Y0194213D01*
X0140824Y0194229D01*
X0141016Y0194241D01*
X0141208Y0194248D01*
X0141400Y0194250D01*
X0147507Y0181082D02*
X0147380Y0180936D01*
X0147251Y0180794D01*
X0147117Y0180654D01*
X0146981Y0180518D01*
X0146841Y0180385D01*
X0146698Y0180255D01*
X0146551Y0180129D01*
X0146402Y0180007D01*
X0146250Y0179888D01*
X0146095Y0179773D01*
X0145938Y0179661D01*
X0145778Y0179554D01*
X0145615Y0179450D01*
X0145449Y0179351D01*
X0145282Y0179255D01*
X0145112Y0179163D01*
X0144940Y0179076D01*
X0144766Y0178992D01*
X0144590Y0178913D01*
X0144412Y0178839D01*
X0144232Y0178768D01*
X0144051Y0178702D01*
X0143868Y0178640D01*
X0143684Y0178583D01*
X0143498Y0178530D01*
X0143311Y0178482D01*
X0143123Y0178438D01*
X0142934Y0178399D01*
X0142744Y0178364D01*
X0142554Y0178334D01*
X0142363Y0178308D01*
X0142171Y0178287D01*
X0141978Y0178271D01*
X0141786Y0178259D01*
X0141593Y0178252D01*
X0141400Y0178250D01*
X0147546Y0191372D02*
X0147419Y0191520D01*
X0147289Y0191665D01*
X0147156Y0191806D01*
X0147019Y0191945D01*
X0146879Y0192080D01*
X0146735Y0192211D01*
X0146588Y0192339D01*
X0146439Y0192464D01*
X0146286Y0192585D01*
X0146131Y0192702D01*
X0145972Y0192815D01*
X0145811Y0192924D01*
X0145647Y0193029D01*
X0145481Y0193131D01*
X0145312Y0193228D01*
X0145142Y0193321D01*
X0144968Y0193410D01*
X0144793Y0193495D01*
X0144616Y0193575D01*
X0144437Y0193651D01*
X0144256Y0193723D01*
X0144073Y0193790D01*
X0143889Y0193853D01*
X0143703Y0193911D01*
X0143516Y0193965D01*
X0143328Y0194014D01*
X0143138Y0194059D01*
X0142948Y0194099D01*
X0142756Y0194134D01*
X0142564Y0194165D01*
X0142371Y0194191D01*
X0142177Y0194212D01*
X0141983Y0194229D01*
X0141789Y0194241D01*
X0141595Y0194248D01*
X0141400Y0194250D01*
X0134454Y0162281D02*
X0134553Y0162112D01*
X0134657Y0161946D01*
X0134764Y0161782D01*
X0134875Y0161621D01*
X0134990Y0161463D01*
X0135109Y0161308D01*
X0135232Y0161155D01*
X0135358Y0161006D01*
X0135488Y0160860D01*
X0135622Y0160717D01*
X0135759Y0160577D01*
X0135899Y0160441D01*
X0136043Y0160308D01*
X0136190Y0160179D01*
X0136340Y0160053D01*
X0136493Y0159932D01*
X0136649Y0159813D01*
X0136808Y0159699D01*
X0136969Y0159589D01*
X0137134Y0159483D01*
X0137300Y0159380D01*
X0137470Y0159282D01*
X0137641Y0159188D01*
X0137815Y0159098D01*
X0137991Y0159013D01*
X0138169Y0158931D01*
X0138349Y0158855D01*
X0138531Y0158782D01*
X0138714Y0158714D01*
X0138899Y0158651D01*
X0139086Y0158592D01*
X0139274Y0158538D01*
X0139463Y0158488D01*
X0139653Y0158443D01*
X0139845Y0158403D01*
X0140037Y0158367D01*
X0140230Y0158336D01*
X0140424Y0158310D01*
X0140619Y0158288D01*
X0140814Y0158272D01*
X0141009Y0158260D01*
X0141205Y0158252D01*
X0141400Y0158250D01*
X0134341Y0170015D02*
X0134434Y0170183D01*
X0134530Y0170349D01*
X0134630Y0170513D01*
X0134735Y0170674D01*
X0134843Y0170833D01*
X0134955Y0170989D01*
X0135071Y0171143D01*
X0135190Y0171293D01*
X0135313Y0171441D01*
X0135439Y0171586D01*
X0135569Y0171727D01*
X0135702Y0171866D01*
X0135839Y0172001D01*
X0135979Y0172133D01*
X0136121Y0172261D01*
X0136267Y0172386D01*
X0136416Y0172508D01*
X0136568Y0172626D01*
X0136722Y0172740D01*
X0136880Y0172850D01*
X0137039Y0172957D01*
X0137202Y0173060D01*
X0137367Y0173159D01*
X0137534Y0173254D01*
X0137703Y0173344D01*
X0137874Y0173431D01*
X0138048Y0173514D01*
X0138223Y0173592D01*
X0138401Y0173666D01*
X0138580Y0173736D01*
X0138760Y0173802D01*
X0138942Y0173863D01*
X0139126Y0173920D01*
X0139311Y0173972D01*
X0139497Y0174020D01*
X0139684Y0174064D01*
X0139872Y0174103D01*
X0140061Y0174137D01*
X0140251Y0174167D01*
X0140441Y0174192D01*
X0140632Y0174213D01*
X0140824Y0174229D01*
X0141016Y0174241D01*
X0141208Y0174248D01*
X0141400Y0174250D01*
X0147507Y0161082D02*
X0147380Y0160936D01*
X0147251Y0160794D01*
X0147117Y0160654D01*
X0146981Y0160518D01*
X0146841Y0160385D01*
X0146698Y0160255D01*
X0146551Y0160129D01*
X0146402Y0160007D01*
X0146250Y0159888D01*
X0146095Y0159773D01*
X0145938Y0159661D01*
X0145778Y0159554D01*
X0145615Y0159450D01*
X0145449Y0159351D01*
X0145282Y0159255D01*
X0145112Y0159163D01*
X0144940Y0159076D01*
X0144766Y0158992D01*
X0144590Y0158913D01*
X0144412Y0158839D01*
X0144232Y0158768D01*
X0144051Y0158702D01*
X0143868Y0158640D01*
X0143684Y0158583D01*
X0143498Y0158530D01*
X0143311Y0158482D01*
X0143123Y0158438D01*
X0142934Y0158399D01*
X0142744Y0158364D01*
X0142554Y0158334D01*
X0142363Y0158308D01*
X0142171Y0158287D01*
X0141978Y0158271D01*
X0141786Y0158259D01*
X0141593Y0158252D01*
X0141400Y0158250D01*
X0147546Y0171372D02*
X0147419Y0171520D01*
X0147289Y0171665D01*
X0147156Y0171806D01*
X0147019Y0171945D01*
X0146879Y0172080D01*
X0146735Y0172211D01*
X0146588Y0172339D01*
X0146439Y0172464D01*
X0146286Y0172585D01*
X0146131Y0172702D01*
X0145972Y0172815D01*
X0145811Y0172924D01*
X0145647Y0173029D01*
X0145481Y0173131D01*
X0145312Y0173228D01*
X0145142Y0173321D01*
X0144968Y0173410D01*
X0144793Y0173495D01*
X0144616Y0173575D01*
X0144437Y0173651D01*
X0144256Y0173723D01*
X0144073Y0173790D01*
X0143889Y0173853D01*
X0143703Y0173911D01*
X0143516Y0173965D01*
X0143328Y0174014D01*
X0143138Y0174059D01*
X0142948Y0174099D01*
X0142756Y0174134D01*
X0142564Y0174165D01*
X0142371Y0174191D01*
X0142177Y0174212D01*
X0141983Y0174229D01*
X0141789Y0174241D01*
X0141595Y0174248D01*
X0141400Y0174250D01*
X0143900Y0108750D02*
X0136400Y0108750D01*
X0136400Y0103750D01*
X0143900Y0103750D01*
X0145100Y0103750D01*
X0146400Y0103750D01*
X0146400Y0108750D01*
X0145100Y0108750D01*
X0143900Y0108750D01*
X0143900Y0103750D01*
X0145100Y0103750D02*
X0145100Y0108750D01*
X0145100Y0098750D02*
X0143900Y0098750D01*
X0136400Y0098750D01*
X0136400Y0093750D01*
X0143900Y0093750D01*
X0145100Y0093750D01*
X0146400Y0093750D01*
X0146400Y0098750D01*
X0145100Y0098750D01*
X0145100Y0093750D01*
X0143900Y0093750D02*
X0143900Y0098750D01*
X0143900Y0088750D02*
X0136400Y0088750D01*
X0136400Y0083750D01*
X0143900Y0083750D01*
X0145100Y0083750D01*
X0146400Y0083750D01*
X0146400Y0088750D01*
X0145100Y0088750D01*
X0143900Y0088750D01*
X0143900Y0083750D01*
X0145100Y0083750D02*
X0145100Y0088750D01*
X0145100Y0078750D02*
X0143900Y0078750D01*
X0136400Y0078750D01*
X0136400Y0073750D01*
X0143900Y0073750D01*
X0145100Y0073750D01*
X0146400Y0073750D01*
X0146400Y0078750D01*
X0145100Y0078750D01*
X0145100Y0073750D01*
X0143900Y0073750D02*
X0143900Y0078750D01*
X0124400Y0047250D02*
X0121400Y0047250D01*
X0118400Y0047250D01*
X0118400Y0045250D02*
X0121400Y0045250D01*
X0124400Y0045250D01*
X0058113Y0063250D02*
X0058113Y0066250D01*
X0058113Y0069250D01*
X0056113Y0069250D02*
X0056113Y0066250D01*
X0056113Y0063250D01*
X0037400Y0029250D02*
X0037400Y0026250D01*
X0037400Y0023250D01*
X0035400Y0023250D02*
X0035400Y0026250D01*
X0035400Y0029250D01*
D13*
X0040300Y0025177D02*
X0040300Y0024566D01*
X0042500Y0024566D01*
X0041522Y0024566D02*
X0041522Y0025177D01*
X0041522Y0025299D02*
X0042500Y0025788D01*
X0042500Y0026712D02*
X0041278Y0027751D01*
X0040300Y0027384D02*
X0040302Y0027332D01*
X0040308Y0027280D01*
X0040317Y0027228D01*
X0040331Y0027178D01*
X0040348Y0027128D01*
X0040369Y0027080D01*
X0040393Y0027034D01*
X0040420Y0026990D01*
X0040451Y0026947D01*
X0040485Y0026907D01*
X0040521Y0026870D01*
X0040561Y0026836D01*
X0040603Y0026804D01*
X0040646Y0026776D01*
X0040692Y0026751D01*
X0040740Y0026729D01*
X0040789Y0026711D01*
X0041278Y0027751D02*
X0041244Y0027784D01*
X0041207Y0027814D01*
X0041167Y0027842D01*
X0041126Y0027866D01*
X0041083Y0027886D01*
X0041038Y0027903D01*
X0040992Y0027917D01*
X0040945Y0027926D01*
X0040898Y0027932D01*
X0040850Y0027934D01*
X0040805Y0027932D01*
X0040759Y0027926D01*
X0040715Y0027917D01*
X0040671Y0027904D01*
X0040629Y0027888D01*
X0040588Y0027868D01*
X0040549Y0027844D01*
X0040512Y0027818D01*
X0040477Y0027789D01*
X0040445Y0027757D01*
X0040416Y0027722D01*
X0040390Y0027685D01*
X0040366Y0027646D01*
X0040346Y0027605D01*
X0040330Y0027563D01*
X0040317Y0027519D01*
X0040308Y0027475D01*
X0040302Y0027429D01*
X0040300Y0027384D01*
X0040300Y0025177D02*
X0040302Y0025225D01*
X0040308Y0025273D01*
X0040317Y0025320D01*
X0040330Y0025366D01*
X0040347Y0025411D01*
X0040367Y0025454D01*
X0040390Y0025496D01*
X0040417Y0025536D01*
X0040446Y0025574D01*
X0040479Y0025609D01*
X0040514Y0025642D01*
X0040552Y0025671D01*
X0040592Y0025698D01*
X0040634Y0025721D01*
X0040677Y0025741D01*
X0040722Y0025758D01*
X0040768Y0025771D01*
X0040815Y0025780D01*
X0040863Y0025786D01*
X0040911Y0025788D01*
X0040959Y0025786D01*
X0041007Y0025780D01*
X0041054Y0025771D01*
X0041100Y0025758D01*
X0041145Y0025741D01*
X0041188Y0025721D01*
X0041230Y0025698D01*
X0041270Y0025671D01*
X0041308Y0025642D01*
X0041343Y0025609D01*
X0041376Y0025574D01*
X0041405Y0025536D01*
X0041432Y0025496D01*
X0041455Y0025454D01*
X0041475Y0025411D01*
X0041492Y0025366D01*
X0041505Y0025320D01*
X0041514Y0025273D01*
X0041520Y0025225D01*
X0041522Y0025177D01*
X0042500Y0026712D02*
X0042500Y0027934D01*
X0050300Y0027445D02*
X0050300Y0026712D01*
X0050300Y0027445D02*
X0050302Y0027488D01*
X0050307Y0027530D01*
X0050317Y0027572D01*
X0050329Y0027612D01*
X0050346Y0027652D01*
X0050366Y0027690D01*
X0050388Y0027725D01*
X0050414Y0027759D01*
X0050443Y0027791D01*
X0050475Y0027820D01*
X0050509Y0027846D01*
X0050545Y0027868D01*
X0050582Y0027888D01*
X0050622Y0027905D01*
X0050662Y0027917D01*
X0050704Y0027927D01*
X0050746Y0027932D01*
X0050789Y0027934D01*
X0050832Y0027932D01*
X0050874Y0027927D01*
X0050916Y0027917D01*
X0050956Y0027905D01*
X0050996Y0027888D01*
X0051034Y0027868D01*
X0051069Y0027846D01*
X0051103Y0027820D01*
X0051135Y0027791D01*
X0051164Y0027759D01*
X0051190Y0027725D01*
X0051212Y0027690D01*
X0051232Y0027652D01*
X0051249Y0027612D01*
X0051261Y0027572D01*
X0051271Y0027530D01*
X0051276Y0027488D01*
X0051278Y0027445D01*
X0051278Y0026956D01*
X0051278Y0027323D02*
X0051280Y0027371D01*
X0051286Y0027419D01*
X0051295Y0027466D01*
X0051308Y0027512D01*
X0051325Y0027557D01*
X0051345Y0027600D01*
X0051368Y0027642D01*
X0051395Y0027682D01*
X0051424Y0027720D01*
X0051457Y0027755D01*
X0051492Y0027788D01*
X0051530Y0027817D01*
X0051570Y0027844D01*
X0051612Y0027867D01*
X0051655Y0027887D01*
X0051700Y0027904D01*
X0051746Y0027917D01*
X0051793Y0027926D01*
X0051841Y0027932D01*
X0051889Y0027934D01*
X0051937Y0027932D01*
X0051985Y0027926D01*
X0052032Y0027917D01*
X0052078Y0027904D01*
X0052123Y0027887D01*
X0052166Y0027867D01*
X0052208Y0027844D01*
X0052248Y0027817D01*
X0052286Y0027788D01*
X0052321Y0027755D01*
X0052354Y0027720D01*
X0052383Y0027682D01*
X0052410Y0027642D01*
X0052433Y0027600D01*
X0052453Y0027557D01*
X0052470Y0027512D01*
X0052483Y0027466D01*
X0052492Y0027419D01*
X0052498Y0027371D01*
X0052500Y0027323D01*
X0052500Y0026712D01*
X0052500Y0025788D02*
X0051522Y0025299D01*
X0051522Y0025177D02*
X0051522Y0024566D01*
X0051522Y0025177D02*
X0051520Y0025225D01*
X0051514Y0025273D01*
X0051505Y0025320D01*
X0051492Y0025366D01*
X0051475Y0025411D01*
X0051455Y0025454D01*
X0051432Y0025496D01*
X0051405Y0025536D01*
X0051376Y0025574D01*
X0051343Y0025609D01*
X0051308Y0025642D01*
X0051270Y0025671D01*
X0051230Y0025698D01*
X0051188Y0025721D01*
X0051145Y0025741D01*
X0051100Y0025758D01*
X0051054Y0025771D01*
X0051007Y0025780D01*
X0050959Y0025786D01*
X0050911Y0025788D01*
X0050863Y0025786D01*
X0050815Y0025780D01*
X0050768Y0025771D01*
X0050722Y0025758D01*
X0050677Y0025741D01*
X0050634Y0025721D01*
X0050592Y0025698D01*
X0050552Y0025671D01*
X0050514Y0025642D01*
X0050479Y0025609D01*
X0050446Y0025574D01*
X0050417Y0025536D01*
X0050390Y0025496D01*
X0050367Y0025454D01*
X0050347Y0025411D01*
X0050330Y0025366D01*
X0050317Y0025320D01*
X0050308Y0025273D01*
X0050302Y0025225D01*
X0050300Y0025177D01*
X0050300Y0024566D01*
X0052500Y0024566D01*
X0060300Y0024566D02*
X0060300Y0025177D01*
X0060300Y0024566D02*
X0062500Y0024566D01*
X0061522Y0024566D02*
X0061522Y0025177D01*
X0061522Y0025299D02*
X0062500Y0025788D01*
X0062011Y0026712D02*
X0062011Y0027934D01*
X0061522Y0027567D02*
X0062500Y0027567D01*
X0062011Y0026712D02*
X0060300Y0027201D01*
X0060300Y0025177D02*
X0060302Y0025225D01*
X0060308Y0025273D01*
X0060317Y0025320D01*
X0060330Y0025366D01*
X0060347Y0025411D01*
X0060367Y0025454D01*
X0060390Y0025496D01*
X0060417Y0025536D01*
X0060446Y0025574D01*
X0060479Y0025609D01*
X0060514Y0025642D01*
X0060552Y0025671D01*
X0060592Y0025698D01*
X0060634Y0025721D01*
X0060677Y0025741D01*
X0060722Y0025758D01*
X0060768Y0025771D01*
X0060815Y0025780D01*
X0060863Y0025786D01*
X0060911Y0025788D01*
X0060959Y0025786D01*
X0061007Y0025780D01*
X0061054Y0025771D01*
X0061100Y0025758D01*
X0061145Y0025741D01*
X0061188Y0025721D01*
X0061230Y0025698D01*
X0061270Y0025671D01*
X0061308Y0025642D01*
X0061343Y0025609D01*
X0061376Y0025574D01*
X0061405Y0025536D01*
X0061432Y0025496D01*
X0061455Y0025454D01*
X0061475Y0025411D01*
X0061492Y0025366D01*
X0061505Y0025320D01*
X0061514Y0025273D01*
X0061520Y0025225D01*
X0061522Y0025177D01*
X0085300Y0045744D02*
X0087500Y0045744D01*
X0086644Y0045744D02*
X0085300Y0046966D01*
X0085789Y0047799D02*
X0085300Y0048410D01*
X0087500Y0048410D01*
X0087500Y0047799D02*
X0087500Y0049021D01*
X0087500Y0046966D02*
X0086156Y0046232D01*
X0085911Y0044701D02*
X0086889Y0044701D01*
X0086937Y0044699D01*
X0086985Y0044693D01*
X0087032Y0044684D01*
X0087078Y0044671D01*
X0087123Y0044654D01*
X0087166Y0044634D01*
X0087208Y0044611D01*
X0087248Y0044584D01*
X0087286Y0044555D01*
X0087321Y0044522D01*
X0087354Y0044487D01*
X0087383Y0044449D01*
X0087410Y0044409D01*
X0087433Y0044367D01*
X0087453Y0044324D01*
X0087470Y0044279D01*
X0087483Y0044233D01*
X0087492Y0044186D01*
X0087498Y0044138D01*
X0087500Y0044090D01*
X0087498Y0044042D01*
X0087492Y0043994D01*
X0087483Y0043947D01*
X0087470Y0043901D01*
X0087453Y0043856D01*
X0087433Y0043813D01*
X0087410Y0043771D01*
X0087383Y0043731D01*
X0087354Y0043693D01*
X0087321Y0043658D01*
X0087286Y0043625D01*
X0087248Y0043596D01*
X0087208Y0043569D01*
X0087166Y0043546D01*
X0087123Y0043526D01*
X0087078Y0043509D01*
X0087032Y0043496D01*
X0086985Y0043487D01*
X0086937Y0043481D01*
X0086889Y0043479D01*
X0085911Y0043479D01*
X0085863Y0043481D01*
X0085815Y0043487D01*
X0085768Y0043496D01*
X0085722Y0043509D01*
X0085677Y0043526D01*
X0085634Y0043546D01*
X0085592Y0043569D01*
X0085552Y0043596D01*
X0085514Y0043625D01*
X0085479Y0043658D01*
X0085446Y0043693D01*
X0085417Y0043731D01*
X0085390Y0043771D01*
X0085367Y0043813D01*
X0085347Y0043856D01*
X0085330Y0043901D01*
X0085317Y0043947D01*
X0085308Y0043994D01*
X0085302Y0044042D01*
X0085300Y0044090D01*
X0085302Y0044138D01*
X0085308Y0044186D01*
X0085317Y0044233D01*
X0085330Y0044279D01*
X0085347Y0044324D01*
X0085367Y0044367D01*
X0085390Y0044409D01*
X0085417Y0044449D01*
X0085446Y0044487D01*
X0085479Y0044522D01*
X0085514Y0044555D01*
X0085552Y0044584D01*
X0085592Y0044611D01*
X0085634Y0044634D01*
X0085677Y0044654D01*
X0085722Y0044671D01*
X0085768Y0044684D01*
X0085815Y0044693D01*
X0085863Y0044699D01*
X0085911Y0044701D01*
X0063248Y0089058D02*
X0063248Y0089547D01*
X0063248Y0089303D02*
X0061048Y0089303D01*
X0061048Y0089547D02*
X0061048Y0089058D01*
X0061537Y0090413D02*
X0062759Y0090413D01*
X0062802Y0090415D01*
X0062844Y0090420D01*
X0062886Y0090430D01*
X0062926Y0090442D01*
X0062966Y0090459D01*
X0063004Y0090479D01*
X0063039Y0090501D01*
X0063073Y0090527D01*
X0063105Y0090556D01*
X0063134Y0090588D01*
X0063160Y0090622D01*
X0063182Y0090658D01*
X0063202Y0090695D01*
X0063219Y0090735D01*
X0063231Y0090775D01*
X0063241Y0090817D01*
X0063246Y0090859D01*
X0063248Y0090902D01*
X0063248Y0091391D01*
X0063248Y0092220D02*
X0063248Y0093442D01*
X0063248Y0092831D02*
X0061048Y0092831D01*
X0061537Y0092220D01*
X0061048Y0091391D02*
X0061048Y0090902D01*
X0061050Y0090859D01*
X0061055Y0090817D01*
X0061065Y0090775D01*
X0061077Y0090735D01*
X0061094Y0090695D01*
X0061114Y0090657D01*
X0061136Y0090622D01*
X0061162Y0090588D01*
X0061191Y0090556D01*
X0061223Y0090527D01*
X0061257Y0090501D01*
X0061293Y0090479D01*
X0061330Y0090459D01*
X0061370Y0090442D01*
X0061410Y0090430D01*
X0061452Y0090420D01*
X0061494Y0090415D01*
X0061537Y0090413D01*
X0052500Y0109058D02*
X0052500Y0109547D01*
X0052500Y0109303D02*
X0050300Y0109303D01*
X0050300Y0109547D02*
X0050300Y0109058D01*
X0050789Y0110413D02*
X0052011Y0110413D01*
X0052054Y0110415D01*
X0052096Y0110420D01*
X0052138Y0110430D01*
X0052178Y0110442D01*
X0052218Y0110459D01*
X0052256Y0110479D01*
X0052291Y0110501D01*
X0052325Y0110527D01*
X0052357Y0110556D01*
X0052386Y0110588D01*
X0052412Y0110622D01*
X0052434Y0110658D01*
X0052454Y0110695D01*
X0052471Y0110735D01*
X0052483Y0110775D01*
X0052493Y0110817D01*
X0052498Y0110859D01*
X0052500Y0110902D01*
X0052500Y0111391D01*
X0052500Y0112220D02*
X0052500Y0112831D01*
X0052498Y0112879D01*
X0052492Y0112927D01*
X0052483Y0112974D01*
X0052470Y0113020D01*
X0052453Y0113065D01*
X0052433Y0113108D01*
X0052410Y0113150D01*
X0052383Y0113190D01*
X0052354Y0113228D01*
X0052321Y0113263D01*
X0052286Y0113296D01*
X0052248Y0113325D01*
X0052208Y0113352D01*
X0052166Y0113375D01*
X0052123Y0113395D01*
X0052078Y0113412D01*
X0052032Y0113425D01*
X0051985Y0113434D01*
X0051937Y0113440D01*
X0051889Y0113442D01*
X0051841Y0113440D01*
X0051793Y0113434D01*
X0051746Y0113425D01*
X0051700Y0113412D01*
X0051655Y0113395D01*
X0051612Y0113375D01*
X0051570Y0113352D01*
X0051530Y0113325D01*
X0051492Y0113296D01*
X0051457Y0113263D01*
X0051424Y0113228D01*
X0051395Y0113190D01*
X0051368Y0113150D01*
X0051345Y0113108D01*
X0051325Y0113065D01*
X0051308Y0113020D01*
X0051295Y0112974D01*
X0051286Y0112927D01*
X0051280Y0112879D01*
X0051278Y0112831D01*
X0051278Y0112953D02*
X0051278Y0112464D01*
X0051278Y0112953D02*
X0051276Y0112996D01*
X0051271Y0113038D01*
X0051261Y0113080D01*
X0051249Y0113120D01*
X0051232Y0113160D01*
X0051212Y0113198D01*
X0051190Y0113233D01*
X0051164Y0113267D01*
X0051135Y0113299D01*
X0051103Y0113328D01*
X0051069Y0113354D01*
X0051034Y0113376D01*
X0050996Y0113396D01*
X0050956Y0113413D01*
X0050916Y0113425D01*
X0050874Y0113435D01*
X0050832Y0113440D01*
X0050789Y0113442D01*
X0050746Y0113440D01*
X0050704Y0113435D01*
X0050662Y0113425D01*
X0050622Y0113413D01*
X0050582Y0113396D01*
X0050545Y0113376D01*
X0050509Y0113354D01*
X0050475Y0113328D01*
X0050443Y0113299D01*
X0050414Y0113267D01*
X0050388Y0113233D01*
X0050366Y0113198D01*
X0050346Y0113160D01*
X0050329Y0113120D01*
X0050317Y0113080D01*
X0050307Y0113038D01*
X0050302Y0112996D01*
X0050300Y0112953D01*
X0050300Y0112220D01*
X0050300Y0111391D02*
X0050300Y0110902D01*
X0050302Y0110859D01*
X0050307Y0110817D01*
X0050317Y0110775D01*
X0050329Y0110735D01*
X0050346Y0110695D01*
X0050366Y0110657D01*
X0050388Y0110622D01*
X0050414Y0110588D01*
X0050443Y0110556D01*
X0050475Y0110527D01*
X0050509Y0110501D01*
X0050545Y0110479D01*
X0050582Y0110459D01*
X0050622Y0110442D01*
X0050662Y0110430D01*
X0050704Y0110420D01*
X0050746Y0110415D01*
X0050789Y0110413D01*
X0046576Y0077350D02*
X0046088Y0077350D01*
X0046045Y0077348D01*
X0046003Y0077343D01*
X0045961Y0077333D01*
X0045921Y0077321D01*
X0045881Y0077304D01*
X0045843Y0077284D01*
X0045808Y0077262D01*
X0045774Y0077236D01*
X0045742Y0077207D01*
X0045713Y0077175D01*
X0045687Y0077141D01*
X0045665Y0077105D01*
X0045645Y0077068D01*
X0045628Y0077028D01*
X0045616Y0076988D01*
X0045606Y0076946D01*
X0045601Y0076904D01*
X0045599Y0076861D01*
X0045599Y0075639D01*
X0045601Y0075596D01*
X0045606Y0075554D01*
X0045616Y0075512D01*
X0045628Y0075472D01*
X0045645Y0075432D01*
X0045665Y0075395D01*
X0045687Y0075359D01*
X0045713Y0075325D01*
X0045742Y0075293D01*
X0045774Y0075264D01*
X0045808Y0075238D01*
X0045844Y0075216D01*
X0045881Y0075196D01*
X0045921Y0075179D01*
X0045961Y0075167D01*
X0046003Y0075157D01*
X0046045Y0075152D01*
X0046088Y0075150D01*
X0046576Y0075150D01*
X0047405Y0075150D02*
X0048444Y0076372D01*
X0048077Y0077350D02*
X0048025Y0077348D01*
X0047973Y0077342D01*
X0047921Y0077333D01*
X0047871Y0077319D01*
X0047821Y0077302D01*
X0047773Y0077281D01*
X0047727Y0077257D01*
X0047683Y0077230D01*
X0047640Y0077199D01*
X0047600Y0077165D01*
X0047563Y0077129D01*
X0047529Y0077089D01*
X0047497Y0077047D01*
X0047469Y0077004D01*
X0047444Y0076958D01*
X0047422Y0076910D01*
X0047404Y0076861D01*
X0048445Y0076372D02*
X0048478Y0076406D01*
X0048508Y0076443D01*
X0048536Y0076483D01*
X0048560Y0076524D01*
X0048580Y0076567D01*
X0048597Y0076612D01*
X0048611Y0076658D01*
X0048620Y0076705D01*
X0048626Y0076752D01*
X0048628Y0076800D01*
X0048627Y0076800D02*
X0048625Y0076845D01*
X0048619Y0076891D01*
X0048610Y0076935D01*
X0048597Y0076979D01*
X0048581Y0077021D01*
X0048561Y0077062D01*
X0048537Y0077101D01*
X0048511Y0077138D01*
X0048482Y0077173D01*
X0048450Y0077205D01*
X0048415Y0077234D01*
X0048378Y0077260D01*
X0048339Y0077284D01*
X0048298Y0077304D01*
X0048256Y0077320D01*
X0048212Y0077333D01*
X0048168Y0077342D01*
X0048122Y0077348D01*
X0048077Y0077350D01*
X0048627Y0075150D02*
X0047405Y0075150D01*
X0037500Y0074566D02*
X0035300Y0074566D01*
X0035300Y0075177D01*
X0035302Y0075225D01*
X0035308Y0075273D01*
X0035317Y0075320D01*
X0035330Y0075366D01*
X0035347Y0075411D01*
X0035367Y0075454D01*
X0035390Y0075496D01*
X0035417Y0075536D01*
X0035446Y0075574D01*
X0035479Y0075609D01*
X0035514Y0075642D01*
X0035552Y0075671D01*
X0035592Y0075698D01*
X0035634Y0075721D01*
X0035677Y0075741D01*
X0035722Y0075758D01*
X0035768Y0075771D01*
X0035815Y0075780D01*
X0035863Y0075786D01*
X0035911Y0075788D01*
X0035959Y0075786D01*
X0036007Y0075780D01*
X0036054Y0075771D01*
X0036100Y0075758D01*
X0036145Y0075741D01*
X0036188Y0075721D01*
X0036230Y0075698D01*
X0036270Y0075671D01*
X0036308Y0075642D01*
X0036343Y0075609D01*
X0036376Y0075574D01*
X0036405Y0075536D01*
X0036432Y0075496D01*
X0036455Y0075454D01*
X0036475Y0075411D01*
X0036492Y0075366D01*
X0036505Y0075320D01*
X0036514Y0075273D01*
X0036520Y0075225D01*
X0036522Y0075177D01*
X0036522Y0074566D01*
X0036522Y0075299D02*
X0037500Y0075788D01*
X0036889Y0076712D02*
X0036278Y0076712D01*
X0036278Y0077445D01*
X0036278Y0076712D02*
X0036217Y0076714D01*
X0036155Y0076720D01*
X0036095Y0076729D01*
X0036035Y0076743D01*
X0035976Y0076760D01*
X0035918Y0076781D01*
X0035862Y0076805D01*
X0035807Y0076833D01*
X0035754Y0076864D01*
X0035703Y0076899D01*
X0035655Y0076936D01*
X0035609Y0076977D01*
X0035565Y0077021D01*
X0035524Y0077067D01*
X0035487Y0077115D01*
X0035452Y0077166D01*
X0035421Y0077219D01*
X0035393Y0077274D01*
X0035369Y0077330D01*
X0035348Y0077388D01*
X0035331Y0077447D01*
X0035317Y0077507D01*
X0035308Y0077567D01*
X0035302Y0077629D01*
X0035300Y0077690D01*
X0036767Y0077934D02*
X0036889Y0077934D01*
X0036767Y0077934D02*
X0036724Y0077932D01*
X0036682Y0077927D01*
X0036640Y0077917D01*
X0036600Y0077905D01*
X0036560Y0077888D01*
X0036523Y0077868D01*
X0036487Y0077846D01*
X0036453Y0077820D01*
X0036421Y0077791D01*
X0036392Y0077759D01*
X0036366Y0077725D01*
X0036344Y0077690D01*
X0036324Y0077652D01*
X0036307Y0077612D01*
X0036295Y0077572D01*
X0036285Y0077530D01*
X0036280Y0077488D01*
X0036278Y0077445D01*
X0036889Y0077934D02*
X0036937Y0077932D01*
X0036985Y0077926D01*
X0037032Y0077917D01*
X0037078Y0077904D01*
X0037123Y0077887D01*
X0037166Y0077867D01*
X0037208Y0077844D01*
X0037248Y0077817D01*
X0037286Y0077788D01*
X0037321Y0077755D01*
X0037354Y0077720D01*
X0037383Y0077682D01*
X0037410Y0077642D01*
X0037433Y0077600D01*
X0037453Y0077557D01*
X0037470Y0077512D01*
X0037483Y0077466D01*
X0037492Y0077419D01*
X0037498Y0077371D01*
X0037500Y0077323D01*
X0037498Y0077275D01*
X0037492Y0077227D01*
X0037483Y0077180D01*
X0037470Y0077134D01*
X0037453Y0077089D01*
X0037433Y0077046D01*
X0037410Y0077004D01*
X0037383Y0076964D01*
X0037354Y0076926D01*
X0037321Y0076891D01*
X0037286Y0076858D01*
X0037248Y0076829D01*
X0037208Y0076802D01*
X0037166Y0076779D01*
X0037123Y0076759D01*
X0037078Y0076742D01*
X0037032Y0076729D01*
X0036985Y0076720D01*
X0036937Y0076714D01*
X0036889Y0076712D01*
X0022303Y0027350D02*
X0021692Y0026861D01*
X0022303Y0027350D02*
X0022303Y0025150D01*
X0021692Y0025150D02*
X0022914Y0025150D01*
X0020863Y0025150D02*
X0020375Y0025150D01*
X0020332Y0025152D01*
X0020290Y0025157D01*
X0020248Y0025167D01*
X0020208Y0025179D01*
X0020168Y0025196D01*
X0020131Y0025216D01*
X0020095Y0025238D01*
X0020061Y0025264D01*
X0020029Y0025293D01*
X0020000Y0025325D01*
X0019974Y0025359D01*
X0019952Y0025395D01*
X0019932Y0025432D01*
X0019915Y0025472D01*
X0019903Y0025512D01*
X0019893Y0025554D01*
X0019888Y0025596D01*
X0019886Y0025639D01*
X0019886Y0026861D01*
X0019888Y0026904D01*
X0019893Y0026946D01*
X0019903Y0026988D01*
X0019915Y0027028D01*
X0019932Y0027068D01*
X0019952Y0027105D01*
X0019974Y0027141D01*
X0020000Y0027175D01*
X0020029Y0027207D01*
X0020061Y0027236D01*
X0020095Y0027262D01*
X0020130Y0027284D01*
X0020168Y0027304D01*
X0020208Y0027321D01*
X0020248Y0027333D01*
X0020290Y0027343D01*
X0020332Y0027348D01*
X0020375Y0027350D01*
X0020863Y0027350D01*
X0050300Y0159058D02*
X0050300Y0159547D01*
X0050300Y0159303D02*
X0052500Y0159303D01*
X0052500Y0159547D02*
X0052500Y0159058D01*
X0052011Y0160413D02*
X0050789Y0160413D01*
X0050746Y0160415D01*
X0050704Y0160420D01*
X0050662Y0160430D01*
X0050622Y0160442D01*
X0050582Y0160459D01*
X0050545Y0160479D01*
X0050509Y0160501D01*
X0050475Y0160527D01*
X0050443Y0160556D01*
X0050414Y0160588D01*
X0050388Y0160622D01*
X0050366Y0160657D01*
X0050346Y0160695D01*
X0050329Y0160735D01*
X0050317Y0160775D01*
X0050307Y0160817D01*
X0050302Y0160859D01*
X0050300Y0160902D01*
X0050300Y0161391D01*
X0051278Y0163259D02*
X0051244Y0163292D01*
X0051207Y0163322D01*
X0051167Y0163350D01*
X0051126Y0163374D01*
X0051083Y0163394D01*
X0051038Y0163411D01*
X0050992Y0163425D01*
X0050945Y0163434D01*
X0050898Y0163440D01*
X0050850Y0163442D01*
X0051278Y0163258D02*
X0052500Y0162220D01*
X0052500Y0163442D01*
X0050789Y0162219D02*
X0050740Y0162237D01*
X0050692Y0162259D01*
X0050646Y0162284D01*
X0050603Y0162312D01*
X0050561Y0162344D01*
X0050521Y0162378D01*
X0050485Y0162415D01*
X0050451Y0162455D01*
X0050420Y0162498D01*
X0050393Y0162542D01*
X0050369Y0162588D01*
X0050348Y0162636D01*
X0050331Y0162686D01*
X0050317Y0162736D01*
X0050308Y0162788D01*
X0050302Y0162840D01*
X0050300Y0162892D01*
X0050302Y0162937D01*
X0050308Y0162983D01*
X0050317Y0163027D01*
X0050330Y0163071D01*
X0050346Y0163113D01*
X0050366Y0163154D01*
X0050390Y0163193D01*
X0050416Y0163230D01*
X0050445Y0163265D01*
X0050477Y0163297D01*
X0050512Y0163326D01*
X0050549Y0163352D01*
X0050588Y0163376D01*
X0050629Y0163396D01*
X0050671Y0163412D01*
X0050715Y0163425D01*
X0050759Y0163434D01*
X0050805Y0163440D01*
X0050850Y0163442D01*
X0052500Y0161391D02*
X0052500Y0160902D01*
X0052498Y0160859D01*
X0052493Y0160817D01*
X0052483Y0160775D01*
X0052471Y0160735D01*
X0052454Y0160695D01*
X0052434Y0160658D01*
X0052412Y0160622D01*
X0052386Y0160588D01*
X0052357Y0160556D01*
X0052325Y0160527D01*
X0052291Y0160501D01*
X0052256Y0160479D01*
X0052218Y0160459D01*
X0052178Y0160442D01*
X0052138Y0160430D01*
X0052096Y0160420D01*
X0052054Y0160415D01*
X0052011Y0160413D01*
X0037500Y0194566D02*
X0035300Y0194566D01*
X0035300Y0195177D01*
X0035302Y0195225D01*
X0035308Y0195273D01*
X0035317Y0195320D01*
X0035330Y0195366D01*
X0035347Y0195411D01*
X0035367Y0195454D01*
X0035390Y0195496D01*
X0035417Y0195536D01*
X0035446Y0195574D01*
X0035479Y0195609D01*
X0035514Y0195642D01*
X0035552Y0195671D01*
X0035592Y0195698D01*
X0035634Y0195721D01*
X0035677Y0195741D01*
X0035722Y0195758D01*
X0035768Y0195771D01*
X0035815Y0195780D01*
X0035863Y0195786D01*
X0035911Y0195788D01*
X0035959Y0195786D01*
X0036007Y0195780D01*
X0036054Y0195771D01*
X0036100Y0195758D01*
X0036145Y0195741D01*
X0036188Y0195721D01*
X0036230Y0195698D01*
X0036270Y0195671D01*
X0036308Y0195642D01*
X0036343Y0195609D01*
X0036376Y0195574D01*
X0036405Y0195536D01*
X0036432Y0195496D01*
X0036455Y0195454D01*
X0036475Y0195411D01*
X0036492Y0195366D01*
X0036505Y0195320D01*
X0036514Y0195273D01*
X0036520Y0195225D01*
X0036522Y0195177D01*
X0036522Y0194566D01*
X0036522Y0195299D02*
X0037500Y0195788D01*
X0037500Y0196712D02*
X0037500Y0197445D01*
X0037498Y0197488D01*
X0037493Y0197530D01*
X0037483Y0197572D01*
X0037471Y0197612D01*
X0037454Y0197652D01*
X0037434Y0197690D01*
X0037412Y0197725D01*
X0037386Y0197759D01*
X0037357Y0197791D01*
X0037325Y0197820D01*
X0037291Y0197846D01*
X0037256Y0197868D01*
X0037218Y0197888D01*
X0037178Y0197905D01*
X0037138Y0197917D01*
X0037096Y0197927D01*
X0037054Y0197932D01*
X0037011Y0197934D01*
X0036767Y0197934D01*
X0036724Y0197932D01*
X0036682Y0197927D01*
X0036640Y0197917D01*
X0036600Y0197905D01*
X0036560Y0197888D01*
X0036523Y0197868D01*
X0036487Y0197846D01*
X0036453Y0197820D01*
X0036421Y0197791D01*
X0036392Y0197759D01*
X0036366Y0197725D01*
X0036344Y0197690D01*
X0036324Y0197652D01*
X0036307Y0197612D01*
X0036295Y0197572D01*
X0036285Y0197530D01*
X0036280Y0197488D01*
X0036278Y0197445D01*
X0036278Y0196712D01*
X0035300Y0196712D01*
X0035300Y0197934D01*
X0050300Y0233414D02*
X0050300Y0234025D01*
X0050300Y0233414D02*
X0052500Y0233414D01*
X0051522Y0233414D02*
X0051522Y0234025D01*
X0051522Y0234147D02*
X0052500Y0234636D01*
X0052500Y0235632D02*
X0050300Y0235632D01*
X0052500Y0236854D01*
X0050300Y0236854D01*
X0050789Y0237864D02*
X0050300Y0238475D01*
X0052500Y0238475D01*
X0052500Y0237864D02*
X0052500Y0239086D01*
X0051522Y0234025D02*
X0051520Y0234073D01*
X0051514Y0234121D01*
X0051505Y0234168D01*
X0051492Y0234214D01*
X0051475Y0234259D01*
X0051455Y0234302D01*
X0051432Y0234344D01*
X0051405Y0234384D01*
X0051376Y0234422D01*
X0051343Y0234457D01*
X0051308Y0234490D01*
X0051270Y0234519D01*
X0051230Y0234546D01*
X0051188Y0234569D01*
X0051145Y0234589D01*
X0051100Y0234606D01*
X0051054Y0234619D01*
X0051007Y0234628D01*
X0050959Y0234634D01*
X0050911Y0234636D01*
X0050863Y0234634D01*
X0050815Y0234628D01*
X0050768Y0234619D01*
X0050722Y0234606D01*
X0050677Y0234589D01*
X0050634Y0234569D01*
X0050592Y0234546D01*
X0050552Y0234519D01*
X0050514Y0234490D01*
X0050479Y0234457D01*
X0050446Y0234422D01*
X0050417Y0234384D01*
X0050390Y0234344D01*
X0050367Y0234302D01*
X0050347Y0234259D01*
X0050330Y0234214D01*
X0050317Y0234168D01*
X0050308Y0234121D01*
X0050302Y0234073D01*
X0050300Y0234025D01*
X0037500Y0274566D02*
X0035300Y0274566D01*
X0035300Y0275177D01*
X0035302Y0275225D01*
X0035308Y0275273D01*
X0035317Y0275320D01*
X0035330Y0275366D01*
X0035347Y0275411D01*
X0035367Y0275454D01*
X0035390Y0275496D01*
X0035417Y0275536D01*
X0035446Y0275574D01*
X0035479Y0275609D01*
X0035514Y0275642D01*
X0035552Y0275671D01*
X0035592Y0275698D01*
X0035634Y0275721D01*
X0035677Y0275741D01*
X0035722Y0275758D01*
X0035768Y0275771D01*
X0035815Y0275780D01*
X0035863Y0275786D01*
X0035911Y0275788D01*
X0035959Y0275786D01*
X0036007Y0275780D01*
X0036054Y0275771D01*
X0036100Y0275758D01*
X0036145Y0275741D01*
X0036188Y0275721D01*
X0036230Y0275698D01*
X0036270Y0275671D01*
X0036308Y0275642D01*
X0036343Y0275609D01*
X0036376Y0275574D01*
X0036405Y0275536D01*
X0036432Y0275496D01*
X0036455Y0275454D01*
X0036475Y0275411D01*
X0036492Y0275366D01*
X0036505Y0275320D01*
X0036514Y0275273D01*
X0036520Y0275225D01*
X0036522Y0275177D01*
X0036522Y0274566D01*
X0036522Y0275299D02*
X0037500Y0275788D01*
X0037500Y0276712D02*
X0037500Y0277934D01*
X0037500Y0277323D02*
X0035300Y0277323D01*
X0035789Y0276712D01*
X0140300Y0067294D02*
X0142500Y0067294D01*
X0142500Y0066683D02*
X0142500Y0067905D01*
X0140789Y0066683D02*
X0140300Y0067294D01*
X0141583Y0065573D02*
X0141217Y0064900D01*
X0140300Y0065145D02*
X0140302Y0065204D01*
X0140308Y0065263D01*
X0140317Y0065321D01*
X0140330Y0065378D01*
X0140347Y0065435D01*
X0140368Y0065490D01*
X0140391Y0065544D01*
X0140419Y0065597D01*
X0140450Y0065647D01*
X0140483Y0065695D01*
X0141217Y0064901D02*
X0141194Y0064865D01*
X0141167Y0064831D01*
X0141138Y0064799D01*
X0141106Y0064770D01*
X0141072Y0064744D01*
X0141036Y0064721D01*
X0140997Y0064702D01*
X0140958Y0064685D01*
X0140917Y0064673D01*
X0140875Y0064663D01*
X0140832Y0064658D01*
X0140789Y0064656D01*
X0140746Y0064658D01*
X0140704Y0064663D01*
X0140662Y0064673D01*
X0140622Y0064685D01*
X0140582Y0064702D01*
X0140545Y0064722D01*
X0140509Y0064744D01*
X0140475Y0064770D01*
X0140443Y0064799D01*
X0140414Y0064831D01*
X0140388Y0064865D01*
X0140366Y0064901D01*
X0140346Y0064938D01*
X0140329Y0064978D01*
X0140317Y0065018D01*
X0140307Y0065060D01*
X0140302Y0065102D01*
X0140300Y0065145D01*
X0142194Y0064595D02*
X0142238Y0064640D01*
X0142278Y0064688D01*
X0142315Y0064738D01*
X0142349Y0064791D01*
X0142380Y0064846D01*
X0142408Y0064902D01*
X0142432Y0064960D01*
X0142453Y0065019D01*
X0142470Y0065080D01*
X0142483Y0065141D01*
X0142492Y0065203D01*
X0142498Y0065265D01*
X0142500Y0065328D01*
X0142498Y0065371D01*
X0142493Y0065413D01*
X0142483Y0065455D01*
X0142471Y0065495D01*
X0142454Y0065535D01*
X0142434Y0065573D01*
X0142412Y0065608D01*
X0142386Y0065642D01*
X0142357Y0065674D01*
X0142325Y0065703D01*
X0142291Y0065729D01*
X0142256Y0065751D01*
X0142218Y0065771D01*
X0142178Y0065788D01*
X0142138Y0065800D01*
X0142096Y0065810D01*
X0142054Y0065815D01*
X0142011Y0065817D01*
X0142011Y0065818D02*
X0141968Y0065816D01*
X0141925Y0065811D01*
X0141883Y0065801D01*
X0141842Y0065789D01*
X0141803Y0065772D01*
X0141764Y0065753D01*
X0141728Y0065730D01*
X0141694Y0065704D01*
X0141662Y0065675D01*
X0141633Y0065643D01*
X0141606Y0065609D01*
X0141583Y0065573D01*
X0122500Y0032153D02*
X0122500Y0031542D01*
X0122500Y0030713D02*
X0122500Y0030225D01*
X0122498Y0030182D01*
X0122493Y0030140D01*
X0122483Y0030098D01*
X0122471Y0030058D01*
X0122454Y0030018D01*
X0122434Y0029981D01*
X0122412Y0029945D01*
X0122386Y0029911D01*
X0122357Y0029879D01*
X0122325Y0029850D01*
X0122291Y0029824D01*
X0122256Y0029802D01*
X0122218Y0029782D01*
X0122178Y0029765D01*
X0122138Y0029753D01*
X0122096Y0029743D01*
X0122054Y0029738D01*
X0122011Y0029736D01*
X0120789Y0029736D01*
X0120746Y0029738D01*
X0120704Y0029743D01*
X0120662Y0029753D01*
X0120622Y0029765D01*
X0120582Y0029782D01*
X0120545Y0029802D01*
X0120509Y0029824D01*
X0120475Y0029850D01*
X0120443Y0029879D01*
X0120414Y0029911D01*
X0120388Y0029945D01*
X0120366Y0029980D01*
X0120346Y0030018D01*
X0120329Y0030058D01*
X0120317Y0030098D01*
X0120307Y0030140D01*
X0120302Y0030182D01*
X0120300Y0030225D01*
X0120300Y0030713D01*
X0120300Y0031542D02*
X0120300Y0032275D01*
X0120302Y0032318D01*
X0120307Y0032360D01*
X0120317Y0032402D01*
X0120329Y0032442D01*
X0120346Y0032482D01*
X0120366Y0032520D01*
X0120388Y0032555D01*
X0120414Y0032589D01*
X0120443Y0032621D01*
X0120475Y0032650D01*
X0120509Y0032676D01*
X0120545Y0032698D01*
X0120582Y0032718D01*
X0120622Y0032735D01*
X0120662Y0032747D01*
X0120704Y0032757D01*
X0120746Y0032762D01*
X0120789Y0032764D01*
X0120832Y0032762D01*
X0120874Y0032757D01*
X0120916Y0032747D01*
X0120956Y0032735D01*
X0120996Y0032718D01*
X0121034Y0032698D01*
X0121069Y0032676D01*
X0121103Y0032650D01*
X0121135Y0032621D01*
X0121164Y0032589D01*
X0121190Y0032555D01*
X0121212Y0032520D01*
X0121232Y0032482D01*
X0121249Y0032442D01*
X0121261Y0032402D01*
X0121271Y0032360D01*
X0121276Y0032318D01*
X0121278Y0032275D01*
X0121278Y0031787D01*
X0121278Y0032153D02*
X0121280Y0032201D01*
X0121286Y0032249D01*
X0121295Y0032296D01*
X0121308Y0032342D01*
X0121325Y0032387D01*
X0121345Y0032430D01*
X0121368Y0032472D01*
X0121395Y0032512D01*
X0121424Y0032550D01*
X0121457Y0032585D01*
X0121492Y0032618D01*
X0121530Y0032647D01*
X0121570Y0032674D01*
X0121612Y0032697D01*
X0121655Y0032717D01*
X0121700Y0032734D01*
X0121746Y0032747D01*
X0121793Y0032756D01*
X0121841Y0032762D01*
X0121889Y0032764D01*
X0121937Y0032762D01*
X0121985Y0032756D01*
X0122032Y0032747D01*
X0122078Y0032734D01*
X0122123Y0032717D01*
X0122166Y0032697D01*
X0122208Y0032674D01*
X0122248Y0032647D01*
X0122286Y0032618D01*
X0122321Y0032585D01*
X0122354Y0032550D01*
X0122383Y0032512D01*
X0122410Y0032472D01*
X0122433Y0032430D01*
X0122453Y0032387D01*
X0122470Y0032342D01*
X0122483Y0032296D01*
X0122492Y0032249D01*
X0122498Y0032201D01*
X0122500Y0032153D01*
X0152803Y0165150D02*
X0153781Y0165150D01*
X0154675Y0165150D02*
X0154675Y0167350D01*
X0155653Y0167350D01*
X0156543Y0167350D02*
X0157154Y0167350D01*
X0157202Y0167348D01*
X0157250Y0167342D01*
X0157297Y0167333D01*
X0157343Y0167320D01*
X0157388Y0167303D01*
X0157431Y0167283D01*
X0157473Y0167260D01*
X0157513Y0167233D01*
X0157551Y0167204D01*
X0157586Y0167171D01*
X0157619Y0167136D01*
X0157648Y0167098D01*
X0157675Y0167058D01*
X0157698Y0167016D01*
X0157718Y0166973D01*
X0157735Y0166928D01*
X0157748Y0166882D01*
X0157757Y0166835D01*
X0157763Y0166787D01*
X0157765Y0166739D01*
X0157765Y0165761D01*
X0157763Y0165713D01*
X0157757Y0165665D01*
X0157748Y0165618D01*
X0157735Y0165572D01*
X0157718Y0165527D01*
X0157698Y0165484D01*
X0157675Y0165442D01*
X0157648Y0165402D01*
X0157619Y0165364D01*
X0157586Y0165329D01*
X0157551Y0165296D01*
X0157513Y0165267D01*
X0157473Y0165240D01*
X0157431Y0165217D01*
X0157388Y0165197D01*
X0157343Y0165180D01*
X0157297Y0165167D01*
X0157250Y0165158D01*
X0157202Y0165152D01*
X0157154Y0165150D01*
X0156543Y0165150D01*
X0156543Y0167350D01*
X0155408Y0166372D02*
X0154675Y0166372D01*
X0154675Y0165150D02*
X0155653Y0165150D01*
X0152803Y0165150D02*
X0152803Y0167350D01*
X0158775Y0165639D02*
X0159997Y0165639D01*
X0159630Y0166128D02*
X0159630Y0165150D01*
X0158775Y0165639D02*
X0159264Y0167350D01*
X0159386Y0185150D02*
X0158775Y0185150D01*
X0159386Y0185150D02*
X0159434Y0185152D01*
X0159482Y0185158D01*
X0159529Y0185167D01*
X0159575Y0185180D01*
X0159620Y0185197D01*
X0159663Y0185217D01*
X0159705Y0185240D01*
X0159745Y0185267D01*
X0159783Y0185296D01*
X0159818Y0185329D01*
X0159851Y0185364D01*
X0159880Y0185402D01*
X0159907Y0185442D01*
X0159930Y0185484D01*
X0159950Y0185527D01*
X0159967Y0185572D01*
X0159980Y0185618D01*
X0159989Y0185665D01*
X0159995Y0185713D01*
X0159997Y0185761D01*
X0159995Y0185809D01*
X0159989Y0185857D01*
X0159980Y0185904D01*
X0159967Y0185950D01*
X0159950Y0185995D01*
X0159930Y0186038D01*
X0159907Y0186080D01*
X0159880Y0186120D01*
X0159851Y0186158D01*
X0159818Y0186193D01*
X0159783Y0186226D01*
X0159745Y0186255D01*
X0159705Y0186282D01*
X0159663Y0186305D01*
X0159620Y0186325D01*
X0159575Y0186342D01*
X0159529Y0186355D01*
X0159482Y0186364D01*
X0159434Y0186370D01*
X0159386Y0186372D01*
X0159508Y0186372D02*
X0159019Y0186372D01*
X0159508Y0186372D02*
X0159551Y0186374D01*
X0159593Y0186379D01*
X0159635Y0186389D01*
X0159675Y0186401D01*
X0159715Y0186418D01*
X0159753Y0186438D01*
X0159788Y0186460D01*
X0159822Y0186486D01*
X0159854Y0186515D01*
X0159883Y0186547D01*
X0159909Y0186581D01*
X0159931Y0186617D01*
X0159951Y0186654D01*
X0159968Y0186694D01*
X0159980Y0186734D01*
X0159990Y0186776D01*
X0159995Y0186818D01*
X0159997Y0186861D01*
X0159995Y0186904D01*
X0159990Y0186946D01*
X0159980Y0186988D01*
X0159968Y0187028D01*
X0159951Y0187068D01*
X0159931Y0187106D01*
X0159909Y0187141D01*
X0159883Y0187175D01*
X0159854Y0187207D01*
X0159822Y0187236D01*
X0159788Y0187262D01*
X0159753Y0187284D01*
X0159715Y0187304D01*
X0159675Y0187321D01*
X0159635Y0187333D01*
X0159593Y0187343D01*
X0159551Y0187348D01*
X0159508Y0187350D01*
X0158775Y0187350D01*
X0157765Y0186739D02*
X0157765Y0185761D01*
X0157763Y0185713D01*
X0157757Y0185665D01*
X0157748Y0185618D01*
X0157735Y0185572D01*
X0157718Y0185527D01*
X0157698Y0185484D01*
X0157675Y0185442D01*
X0157648Y0185402D01*
X0157619Y0185364D01*
X0157586Y0185329D01*
X0157551Y0185296D01*
X0157513Y0185267D01*
X0157473Y0185240D01*
X0157431Y0185217D01*
X0157388Y0185197D01*
X0157343Y0185180D01*
X0157297Y0185167D01*
X0157250Y0185158D01*
X0157202Y0185152D01*
X0157154Y0185150D01*
X0156543Y0185150D01*
X0156543Y0187350D01*
X0157154Y0187350D01*
X0157202Y0187348D01*
X0157250Y0187342D01*
X0157297Y0187333D01*
X0157343Y0187320D01*
X0157388Y0187303D01*
X0157431Y0187283D01*
X0157473Y0187260D01*
X0157513Y0187233D01*
X0157551Y0187204D01*
X0157586Y0187171D01*
X0157619Y0187136D01*
X0157648Y0187098D01*
X0157675Y0187058D01*
X0157698Y0187016D01*
X0157718Y0186973D01*
X0157735Y0186928D01*
X0157748Y0186882D01*
X0157757Y0186835D01*
X0157763Y0186787D01*
X0157765Y0186739D01*
X0155653Y0187350D02*
X0154675Y0187350D01*
X0154675Y0185150D01*
X0155653Y0185150D01*
X0155408Y0186372D02*
X0154675Y0186372D01*
X0153781Y0185150D02*
X0152803Y0185150D01*
X0152803Y0187350D01*
X0152803Y0205150D02*
X0153781Y0205150D01*
X0154675Y0205150D02*
X0154675Y0207350D01*
X0155653Y0207350D01*
X0156543Y0207350D02*
X0157154Y0207350D01*
X0157202Y0207348D01*
X0157250Y0207342D01*
X0157297Y0207333D01*
X0157343Y0207320D01*
X0157388Y0207303D01*
X0157431Y0207283D01*
X0157473Y0207260D01*
X0157513Y0207233D01*
X0157551Y0207204D01*
X0157586Y0207171D01*
X0157619Y0207136D01*
X0157648Y0207098D01*
X0157675Y0207058D01*
X0157698Y0207016D01*
X0157718Y0206973D01*
X0157735Y0206928D01*
X0157748Y0206882D01*
X0157757Y0206835D01*
X0157763Y0206787D01*
X0157765Y0206739D01*
X0157765Y0205761D01*
X0157763Y0205713D01*
X0157757Y0205665D01*
X0157748Y0205618D01*
X0157735Y0205572D01*
X0157718Y0205527D01*
X0157698Y0205484D01*
X0157675Y0205442D01*
X0157648Y0205402D01*
X0157619Y0205364D01*
X0157586Y0205329D01*
X0157551Y0205296D01*
X0157513Y0205267D01*
X0157473Y0205240D01*
X0157431Y0205217D01*
X0157388Y0205197D01*
X0157343Y0205180D01*
X0157297Y0205167D01*
X0157250Y0205158D01*
X0157202Y0205152D01*
X0157154Y0205150D01*
X0156543Y0205150D01*
X0156543Y0207350D01*
X0155408Y0206372D02*
X0154675Y0206372D01*
X0154675Y0205150D02*
X0155653Y0205150D01*
X0152803Y0205150D02*
X0152803Y0207350D01*
X0158775Y0205150D02*
X0159997Y0205150D01*
X0158775Y0205150D02*
X0159814Y0206372D01*
X0159447Y0207350D02*
X0159395Y0207348D01*
X0159343Y0207342D01*
X0159291Y0207333D01*
X0159241Y0207319D01*
X0159191Y0207302D01*
X0159143Y0207281D01*
X0159097Y0207257D01*
X0159053Y0207230D01*
X0159010Y0207199D01*
X0158970Y0207165D01*
X0158933Y0207129D01*
X0158899Y0207089D01*
X0158867Y0207047D01*
X0158839Y0207004D01*
X0158814Y0206958D01*
X0158792Y0206910D01*
X0158774Y0206861D01*
X0159814Y0206372D02*
X0159847Y0206406D01*
X0159877Y0206443D01*
X0159905Y0206483D01*
X0159929Y0206524D01*
X0159949Y0206567D01*
X0159966Y0206612D01*
X0159980Y0206658D01*
X0159989Y0206705D01*
X0159995Y0206752D01*
X0159997Y0206800D01*
X0159995Y0206845D01*
X0159989Y0206891D01*
X0159980Y0206935D01*
X0159967Y0206979D01*
X0159951Y0207021D01*
X0159931Y0207062D01*
X0159907Y0207101D01*
X0159881Y0207138D01*
X0159852Y0207173D01*
X0159820Y0207205D01*
X0159785Y0207234D01*
X0159748Y0207260D01*
X0159709Y0207284D01*
X0159668Y0207304D01*
X0159626Y0207320D01*
X0159582Y0207333D01*
X0159538Y0207342D01*
X0159492Y0207348D01*
X0159447Y0207350D01*
X0159386Y0225150D02*
X0159386Y0227350D01*
X0158775Y0226861D01*
X0157765Y0226739D02*
X0157765Y0225761D01*
X0157763Y0225713D01*
X0157757Y0225665D01*
X0157748Y0225618D01*
X0157735Y0225572D01*
X0157718Y0225527D01*
X0157698Y0225484D01*
X0157675Y0225442D01*
X0157648Y0225402D01*
X0157619Y0225364D01*
X0157586Y0225329D01*
X0157551Y0225296D01*
X0157513Y0225267D01*
X0157473Y0225240D01*
X0157431Y0225217D01*
X0157388Y0225197D01*
X0157343Y0225180D01*
X0157297Y0225167D01*
X0157250Y0225158D01*
X0157202Y0225152D01*
X0157154Y0225150D01*
X0156543Y0225150D01*
X0156543Y0227350D01*
X0157154Y0227350D01*
X0157202Y0227348D01*
X0157250Y0227342D01*
X0157297Y0227333D01*
X0157343Y0227320D01*
X0157388Y0227303D01*
X0157431Y0227283D01*
X0157473Y0227260D01*
X0157513Y0227233D01*
X0157551Y0227204D01*
X0157586Y0227171D01*
X0157619Y0227136D01*
X0157648Y0227098D01*
X0157675Y0227058D01*
X0157698Y0227016D01*
X0157718Y0226973D01*
X0157735Y0226928D01*
X0157748Y0226882D01*
X0157757Y0226835D01*
X0157763Y0226787D01*
X0157765Y0226739D01*
X0158775Y0225150D02*
X0159997Y0225150D01*
X0155653Y0225150D02*
X0154675Y0225150D01*
X0154675Y0227350D01*
X0155653Y0227350D01*
X0155408Y0226372D02*
X0154675Y0226372D01*
X0153781Y0225150D02*
X0152803Y0225150D01*
X0152803Y0227350D01*
D14*
X0001400Y0064045D02*
X0001400Y0032943D01*
X0031321Y0032943D01*
X0031321Y0035502D01*
X0025022Y0035502D01*
X0025022Y0061486D02*
X0031321Y0061486D01*
X0031321Y0064045D01*
X0001400Y0064045D01*
X0001400Y0064439D02*
X0001400Y0087667D01*
X0031321Y0087667D01*
X0031321Y0085108D01*
X0025022Y0085108D01*
X0025022Y0066998D02*
X0031321Y0066998D01*
X0031321Y0064439D01*
X0001400Y0064439D01*
X0001400Y0190423D02*
X0001400Y0221526D01*
X0031321Y0221526D01*
X0031321Y0218967D01*
X0025022Y0218967D01*
X0025022Y0224478D02*
X0031321Y0224478D01*
X0031321Y0221919D01*
X0001400Y0221919D01*
X0001400Y0253022D01*
X0031321Y0253022D01*
X0031321Y0250463D01*
X0025022Y0250463D01*
X0025022Y0255974D02*
X0031321Y0255974D01*
X0031321Y0253415D01*
X0001400Y0253415D01*
X0001400Y0292392D01*
X0031321Y0292392D01*
X0031321Y0289833D01*
X0025022Y0289833D01*
X0025022Y0192982D02*
X0031321Y0192982D01*
X0031321Y0190423D01*
X0001400Y0190423D01*
X0068400Y0056250D02*
X0071400Y0056250D01*
X0071400Y0057250D01*
X0071400Y0056250D02*
X0074400Y0056250D01*
X0074400Y0036250D01*
X0071400Y0036250D01*
X0071400Y0035250D01*
X0071400Y0036250D02*
X0068400Y0036250D01*
X0068400Y0056250D01*
X0068900Y0053750D02*
X0073900Y0053750D01*
X0136833Y0237667D02*
X0136833Y0240226D01*
X0143132Y0240226D01*
X0136833Y0237667D02*
X0166754Y0237667D01*
X0166754Y0260896D01*
X0136833Y0260896D01*
X0136833Y0258337D01*
X0143132Y0258337D01*
X0143132Y0263848D02*
X0136833Y0263848D01*
X0136833Y0261289D01*
X0166754Y0261289D01*
X0166754Y0292392D01*
X0136833Y0292392D01*
X0136833Y0289833D01*
X0143132Y0289833D01*
D15*
X0127400Y0306250D02*
X0055400Y0306250D01*
X0055400Y0116250D01*
X0127400Y0116250D01*
X0127400Y0306250D01*
X0133394Y0105889D02*
X0133394Y0104000D01*
X0130750Y0104756D01*
X0132639Y0105322D02*
X0134150Y0105322D01*
X0132261Y0095133D02*
X0132261Y0094378D01*
X0132262Y0095133D02*
X0132260Y0095187D01*
X0132254Y0095241D01*
X0132245Y0095294D01*
X0132231Y0095346D01*
X0132214Y0095397D01*
X0132194Y0095447D01*
X0132170Y0095495D01*
X0132142Y0095542D01*
X0132111Y0095586D01*
X0132077Y0095628D01*
X0132041Y0095668D01*
X0132001Y0095704D01*
X0131959Y0095738D01*
X0131915Y0095769D01*
X0131868Y0095797D01*
X0131820Y0095821D01*
X0131770Y0095841D01*
X0131719Y0095858D01*
X0131667Y0095872D01*
X0131614Y0095881D01*
X0131560Y0095887D01*
X0131506Y0095889D01*
X0131452Y0095887D01*
X0131398Y0095881D01*
X0131345Y0095872D01*
X0131293Y0095858D01*
X0131242Y0095841D01*
X0131192Y0095821D01*
X0131144Y0095797D01*
X0131097Y0095769D01*
X0131053Y0095738D01*
X0131011Y0095704D01*
X0130971Y0095668D01*
X0130935Y0095628D01*
X0130901Y0095586D01*
X0130870Y0095542D01*
X0130842Y0095495D01*
X0130818Y0095447D01*
X0130798Y0095397D01*
X0130781Y0095346D01*
X0130767Y0095294D01*
X0130758Y0095241D01*
X0130752Y0095187D01*
X0130750Y0095133D01*
X0130750Y0094000D01*
X0132262Y0094944D02*
X0132264Y0095004D01*
X0132270Y0095065D01*
X0132279Y0095124D01*
X0132293Y0095183D01*
X0132310Y0095241D01*
X0132331Y0095298D01*
X0132355Y0095354D01*
X0132383Y0095407D01*
X0132415Y0095459D01*
X0132449Y0095509D01*
X0132487Y0095556D01*
X0132528Y0095601D01*
X0132571Y0095643D01*
X0132617Y0095682D01*
X0132666Y0095718D01*
X0132717Y0095751D01*
X0132769Y0095781D01*
X0132824Y0095807D01*
X0132880Y0095830D01*
X0132937Y0095849D01*
X0132996Y0095864D01*
X0133055Y0095876D01*
X0133115Y0095884D01*
X0133176Y0095888D01*
X0133236Y0095888D01*
X0133297Y0095884D01*
X0133357Y0095876D01*
X0133416Y0095864D01*
X0133475Y0095849D01*
X0133532Y0095830D01*
X0133588Y0095807D01*
X0133643Y0095781D01*
X0133695Y0095751D01*
X0133746Y0095718D01*
X0133795Y0095682D01*
X0133841Y0095643D01*
X0133884Y0095601D01*
X0133925Y0095556D01*
X0133963Y0095509D01*
X0133997Y0095459D01*
X0134029Y0095407D01*
X0134057Y0095354D01*
X0134081Y0095298D01*
X0134102Y0095241D01*
X0134119Y0095183D01*
X0134133Y0095124D01*
X0134142Y0095065D01*
X0134148Y0095004D01*
X0134150Y0094944D01*
X0134150Y0094000D01*
X0134150Y0085889D02*
X0134150Y0084000D01*
X0132261Y0085606D01*
X0130750Y0085039D02*
X0130752Y0084974D01*
X0130758Y0084909D01*
X0130768Y0084844D01*
X0130781Y0084780D01*
X0130799Y0084717D01*
X0130820Y0084655D01*
X0130845Y0084595D01*
X0130873Y0084536D01*
X0130905Y0084479D01*
X0130940Y0084423D01*
X0130978Y0084371D01*
X0131020Y0084320D01*
X0131065Y0084272D01*
X0131112Y0084227D01*
X0131162Y0084185D01*
X0131214Y0084146D01*
X0131269Y0084110D01*
X0131325Y0084077D01*
X0131384Y0084048D01*
X0131444Y0084022D01*
X0131506Y0084000D01*
X0132261Y0085606D02*
X0132221Y0085646D01*
X0132178Y0085683D01*
X0132133Y0085718D01*
X0132085Y0085749D01*
X0132036Y0085778D01*
X0131986Y0085804D01*
X0131933Y0085826D01*
X0131880Y0085845D01*
X0131825Y0085861D01*
X0131770Y0085873D01*
X0131713Y0085882D01*
X0131657Y0085887D01*
X0131600Y0085889D01*
X0131544Y0085887D01*
X0131489Y0085882D01*
X0131434Y0085873D01*
X0131380Y0085860D01*
X0131327Y0085844D01*
X0131275Y0085824D01*
X0131224Y0085801D01*
X0131175Y0085775D01*
X0131128Y0085746D01*
X0131083Y0085713D01*
X0131040Y0085678D01*
X0130999Y0085640D01*
X0130961Y0085599D01*
X0130926Y0085556D01*
X0130893Y0085511D01*
X0130864Y0085464D01*
X0130838Y0085415D01*
X0130815Y0085364D01*
X0130795Y0085312D01*
X0130779Y0085259D01*
X0130766Y0085205D01*
X0130757Y0085150D01*
X0130752Y0085095D01*
X0130750Y0085039D01*
X0134150Y0075889D02*
X0134150Y0074000D01*
X0134150Y0074944D02*
X0130750Y0074944D01*
X0131506Y0074000D01*
X0148550Y0077136D02*
X0148550Y0078647D01*
X0148550Y0077136D02*
X0151950Y0077136D01*
X0150061Y0077136D02*
X0150061Y0078647D01*
X0150061Y0080178D02*
X0150061Y0081689D01*
X0148550Y0081689D02*
X0148550Y0080178D01*
X0151950Y0080178D01*
X0151006Y0075389D02*
X0149494Y0075389D01*
X0149494Y0075388D02*
X0149434Y0075386D01*
X0149373Y0075380D01*
X0149314Y0075371D01*
X0149255Y0075357D01*
X0149197Y0075340D01*
X0149140Y0075319D01*
X0149084Y0075295D01*
X0149031Y0075267D01*
X0148979Y0075235D01*
X0148929Y0075201D01*
X0148882Y0075163D01*
X0148837Y0075122D01*
X0148795Y0075079D01*
X0148756Y0075033D01*
X0148720Y0074984D01*
X0148687Y0074933D01*
X0148657Y0074881D01*
X0148631Y0074826D01*
X0148608Y0074770D01*
X0148589Y0074713D01*
X0148574Y0074654D01*
X0148562Y0074595D01*
X0148554Y0074535D01*
X0148550Y0074474D01*
X0148550Y0074414D01*
X0148554Y0074353D01*
X0148562Y0074293D01*
X0148574Y0074234D01*
X0148589Y0074175D01*
X0148608Y0074118D01*
X0148631Y0074062D01*
X0148657Y0074007D01*
X0148687Y0073955D01*
X0148720Y0073904D01*
X0148756Y0073855D01*
X0148795Y0073809D01*
X0148837Y0073766D01*
X0148882Y0073725D01*
X0148929Y0073687D01*
X0148979Y0073653D01*
X0149031Y0073621D01*
X0149084Y0073593D01*
X0149140Y0073569D01*
X0149197Y0073548D01*
X0149255Y0073531D01*
X0149314Y0073517D01*
X0149373Y0073508D01*
X0149434Y0073502D01*
X0149494Y0073500D01*
X0151006Y0073500D01*
X0151066Y0073502D01*
X0151127Y0073508D01*
X0151186Y0073517D01*
X0151245Y0073531D01*
X0151303Y0073548D01*
X0151360Y0073569D01*
X0151416Y0073593D01*
X0151469Y0073621D01*
X0151521Y0073653D01*
X0151571Y0073687D01*
X0151618Y0073725D01*
X0151663Y0073766D01*
X0151705Y0073809D01*
X0151744Y0073855D01*
X0151780Y0073904D01*
X0151813Y0073955D01*
X0151843Y0074007D01*
X0151869Y0074062D01*
X0151892Y0074118D01*
X0151911Y0074175D01*
X0151926Y0074234D01*
X0151938Y0074293D01*
X0151946Y0074353D01*
X0151950Y0074414D01*
X0151950Y0074474D01*
X0151946Y0074535D01*
X0151938Y0074595D01*
X0151926Y0074654D01*
X0151911Y0074713D01*
X0151892Y0074770D01*
X0151869Y0074826D01*
X0151843Y0074881D01*
X0151813Y0074933D01*
X0151780Y0074984D01*
X0151744Y0075033D01*
X0151705Y0075079D01*
X0151663Y0075122D01*
X0151618Y0075163D01*
X0151571Y0075201D01*
X0151521Y0075235D01*
X0151469Y0075267D01*
X0151416Y0075295D01*
X0151360Y0075319D01*
X0151303Y0075340D01*
X0151245Y0075357D01*
X0151186Y0075371D01*
X0151127Y0075380D01*
X0151066Y0075386D01*
X0151006Y0075388D01*
X0072350Y0022894D02*
X0072350Y0021838D01*
X0072350Y0022366D02*
X0070450Y0022366D01*
X0070872Y0021838D01*
X0070978Y0020662D02*
X0071822Y0020662D01*
X0071866Y0020660D01*
X0071909Y0020655D01*
X0071952Y0020646D01*
X0071993Y0020633D01*
X0072034Y0020618D01*
X0072073Y0020598D01*
X0072111Y0020576D01*
X0072146Y0020551D01*
X0072180Y0020522D01*
X0072210Y0020492D01*
X0072239Y0020458D01*
X0072264Y0020423D01*
X0072286Y0020385D01*
X0072306Y0020346D01*
X0072321Y0020305D01*
X0072334Y0020264D01*
X0072343Y0020221D01*
X0072348Y0020178D01*
X0072350Y0020134D01*
X0072350Y0019606D01*
X0070450Y0019606D01*
X0070450Y0020134D01*
X0070452Y0020178D01*
X0070457Y0020221D01*
X0070466Y0020264D01*
X0070479Y0020305D01*
X0070494Y0020346D01*
X0070514Y0020385D01*
X0070536Y0020423D01*
X0070561Y0020458D01*
X0070590Y0020492D01*
X0070620Y0020522D01*
X0070654Y0020551D01*
X0070689Y0020576D01*
X0070727Y0020598D01*
X0070766Y0020618D01*
X0070807Y0020633D01*
X0070848Y0020646D01*
X0070891Y0020655D01*
X0070934Y0020660D01*
X0070978Y0020662D01*
X0033846Y0046678D02*
X0031946Y0047311D01*
X0032368Y0048299D02*
X0033424Y0048299D01*
X0033463Y0048301D01*
X0033502Y0048306D01*
X0033539Y0048315D01*
X0033576Y0048327D01*
X0033612Y0048343D01*
X0033646Y0048362D01*
X0033678Y0048384D01*
X0033708Y0048409D01*
X0033736Y0048437D01*
X0033761Y0048467D01*
X0033783Y0048499D01*
X0033802Y0048533D01*
X0033818Y0048569D01*
X0033830Y0048606D01*
X0033839Y0048643D01*
X0033844Y0048682D01*
X0033846Y0048721D01*
X0033846Y0049143D01*
X0033424Y0050099D02*
X0032368Y0050099D01*
X0032329Y0050101D01*
X0032290Y0050106D01*
X0032253Y0050115D01*
X0032216Y0050127D01*
X0032180Y0050143D01*
X0032146Y0050162D01*
X0032114Y0050184D01*
X0032084Y0050209D01*
X0032056Y0050237D01*
X0032031Y0050267D01*
X0032009Y0050299D01*
X0031990Y0050333D01*
X0031975Y0050369D01*
X0031962Y0050405D01*
X0031953Y0050443D01*
X0031948Y0050482D01*
X0031946Y0050521D01*
X0031946Y0050943D01*
X0033424Y0050099D02*
X0033463Y0050101D01*
X0033502Y0050106D01*
X0033539Y0050115D01*
X0033576Y0050127D01*
X0033612Y0050143D01*
X0033646Y0050162D01*
X0033678Y0050184D01*
X0033708Y0050209D01*
X0033736Y0050237D01*
X0033761Y0050267D01*
X0033783Y0050299D01*
X0033802Y0050333D01*
X0033818Y0050369D01*
X0033830Y0050406D01*
X0033839Y0050443D01*
X0033844Y0050482D01*
X0033846Y0050521D01*
X0033846Y0050943D01*
X0031946Y0048721D02*
X0031948Y0048682D01*
X0031953Y0048643D01*
X0031962Y0048605D01*
X0031975Y0048569D01*
X0031990Y0048533D01*
X0032009Y0048499D01*
X0032031Y0048467D01*
X0032056Y0048437D01*
X0032084Y0048409D01*
X0032114Y0048384D01*
X0032146Y0048362D01*
X0032180Y0048343D01*
X0032216Y0048327D01*
X0032253Y0048315D01*
X0032290Y0048306D01*
X0032329Y0048301D01*
X0032368Y0048299D01*
X0031946Y0048721D02*
X0031946Y0049143D01*
X0031946Y0046045D02*
X0033846Y0046678D01*
X0033846Y0069813D02*
X0031946Y0069813D01*
X0031946Y0070341D01*
X0031948Y0070386D01*
X0031954Y0070430D01*
X0031963Y0070474D01*
X0031976Y0070517D01*
X0031993Y0070558D01*
X0032013Y0070599D01*
X0032037Y0070637D01*
X0032063Y0070673D01*
X0032093Y0070706D01*
X0032125Y0070737D01*
X0032160Y0070766D01*
X0032197Y0070791D01*
X0032236Y0070812D01*
X0032277Y0070831D01*
X0032319Y0070846D01*
X0032363Y0070857D01*
X0032407Y0070865D01*
X0032452Y0070869D01*
X0032496Y0070869D01*
X0032541Y0070865D01*
X0032585Y0070857D01*
X0032629Y0070846D01*
X0032671Y0070831D01*
X0032712Y0070812D01*
X0032751Y0070791D01*
X0032788Y0070766D01*
X0032823Y0070737D01*
X0032855Y0070706D01*
X0032885Y0070673D01*
X0032911Y0070637D01*
X0032935Y0070599D01*
X0032955Y0070558D01*
X0032972Y0070517D01*
X0032985Y0070474D01*
X0032994Y0070430D01*
X0033000Y0070386D01*
X0033002Y0070341D01*
X0033002Y0069813D01*
X0031946Y0071815D02*
X0033846Y0072237D01*
X0032579Y0072660D01*
X0033846Y0073082D01*
X0031946Y0073504D01*
X0031946Y0074677D02*
X0031946Y0075205D01*
X0031948Y0075250D01*
X0031954Y0075294D01*
X0031963Y0075338D01*
X0031976Y0075381D01*
X0031993Y0075422D01*
X0032013Y0075463D01*
X0032037Y0075501D01*
X0032063Y0075537D01*
X0032093Y0075570D01*
X0032125Y0075601D01*
X0032160Y0075630D01*
X0032197Y0075655D01*
X0032236Y0075676D01*
X0032277Y0075695D01*
X0032319Y0075710D01*
X0032363Y0075721D01*
X0032407Y0075729D01*
X0032452Y0075733D01*
X0032496Y0075733D01*
X0032541Y0075729D01*
X0032585Y0075721D01*
X0032629Y0075710D01*
X0032671Y0075695D01*
X0032712Y0075676D01*
X0032751Y0075655D01*
X0032788Y0075630D01*
X0032823Y0075601D01*
X0032855Y0075570D01*
X0032885Y0075537D01*
X0032911Y0075501D01*
X0032935Y0075463D01*
X0032955Y0075422D01*
X0032972Y0075381D01*
X0032985Y0075338D01*
X0032994Y0075294D01*
X0033000Y0075250D01*
X0033002Y0075205D01*
X0033002Y0074677D01*
X0033002Y0075310D02*
X0033846Y0075732D01*
X0033846Y0074677D02*
X0031946Y0074677D01*
X0032368Y0076812D02*
X0031946Y0077340D01*
X0033846Y0077340D01*
X0033846Y0077867D02*
X0033846Y0076812D01*
X0033846Y0078972D02*
X0033846Y0080027D01*
X0033846Y0078972D02*
X0032791Y0079869D01*
X0031946Y0079552D02*
X0031948Y0079504D01*
X0031954Y0079457D01*
X0031963Y0079410D01*
X0031976Y0079363D01*
X0031992Y0079318D01*
X0032013Y0079275D01*
X0032036Y0079233D01*
X0032063Y0079193D01*
X0032092Y0079156D01*
X0032125Y0079120D01*
X0032160Y0079088D01*
X0032198Y0079058D01*
X0032238Y0079032D01*
X0032280Y0079008D01*
X0032323Y0078988D01*
X0032368Y0078972D01*
X0032790Y0079869D02*
X0032761Y0079897D01*
X0032729Y0079924D01*
X0032695Y0079947D01*
X0032659Y0079968D01*
X0032622Y0079986D01*
X0032583Y0080000D01*
X0032544Y0080012D01*
X0032503Y0080020D01*
X0032462Y0080025D01*
X0032421Y0080027D01*
X0032380Y0080025D01*
X0032339Y0080020D01*
X0032298Y0080011D01*
X0032259Y0079998D01*
X0032220Y0079982D01*
X0032184Y0079963D01*
X0032149Y0079941D01*
X0032116Y0079916D01*
X0032085Y0079888D01*
X0032057Y0079857D01*
X0032032Y0079824D01*
X0032010Y0079790D01*
X0031991Y0079753D01*
X0031975Y0079714D01*
X0031962Y0079675D01*
X0031953Y0079635D01*
X0031948Y0079593D01*
X0031946Y0079552D01*
X0031946Y0081026D02*
X0033846Y0081660D01*
X0031946Y0082293D01*
X0011272Y0200724D02*
X0009372Y0200724D01*
X0009372Y0201252D01*
X0009374Y0201296D01*
X0009379Y0201339D01*
X0009388Y0201382D01*
X0009401Y0201423D01*
X0009416Y0201464D01*
X0009436Y0201503D01*
X0009458Y0201541D01*
X0009483Y0201576D01*
X0009512Y0201610D01*
X0009542Y0201640D01*
X0009576Y0201669D01*
X0009611Y0201694D01*
X0009649Y0201716D01*
X0009688Y0201736D01*
X0009729Y0201751D01*
X0009770Y0201764D01*
X0009813Y0201773D01*
X0009856Y0201778D01*
X0009900Y0201780D01*
X0010744Y0201780D01*
X0010788Y0201778D01*
X0010831Y0201773D01*
X0010874Y0201764D01*
X0010915Y0201751D01*
X0010956Y0201736D01*
X0010995Y0201716D01*
X0011033Y0201694D01*
X0011068Y0201669D01*
X0011102Y0201640D01*
X0011132Y0201610D01*
X0011161Y0201576D01*
X0011186Y0201541D01*
X0011208Y0201503D01*
X0011228Y0201464D01*
X0011243Y0201423D01*
X0011256Y0201382D01*
X0011265Y0201339D01*
X0011270Y0201296D01*
X0011272Y0201252D01*
X0011272Y0200724D01*
X0011272Y0203067D02*
X0009372Y0203067D01*
X0010428Y0203700D01*
X0009372Y0204334D01*
X0011272Y0204334D01*
X0011272Y0205443D02*
X0009372Y0206710D01*
X0009900Y0207708D02*
X0010744Y0207708D01*
X0010789Y0207710D01*
X0010833Y0207716D01*
X0010877Y0207725D01*
X0010920Y0207738D01*
X0010961Y0207755D01*
X0011002Y0207775D01*
X0011040Y0207799D01*
X0011076Y0207825D01*
X0011109Y0207855D01*
X0011140Y0207887D01*
X0011169Y0207922D01*
X0011194Y0207959D01*
X0011215Y0207998D01*
X0011234Y0208039D01*
X0011249Y0208081D01*
X0011260Y0208125D01*
X0011268Y0208169D01*
X0011272Y0208214D01*
X0011272Y0208258D01*
X0011268Y0208303D01*
X0011260Y0208347D01*
X0011249Y0208391D01*
X0011234Y0208433D01*
X0011215Y0208474D01*
X0011194Y0208513D01*
X0011169Y0208550D01*
X0011140Y0208585D01*
X0011109Y0208617D01*
X0011076Y0208647D01*
X0011040Y0208673D01*
X0011002Y0208697D01*
X0010961Y0208717D01*
X0010920Y0208734D01*
X0010877Y0208747D01*
X0010833Y0208756D01*
X0010789Y0208762D01*
X0010744Y0208764D01*
X0009900Y0208764D01*
X0009855Y0208762D01*
X0009811Y0208756D01*
X0009767Y0208747D01*
X0009724Y0208734D01*
X0009683Y0208717D01*
X0009642Y0208697D01*
X0009604Y0208673D01*
X0009568Y0208647D01*
X0009535Y0208617D01*
X0009504Y0208585D01*
X0009475Y0208550D01*
X0009450Y0208513D01*
X0009429Y0208474D01*
X0009410Y0208433D01*
X0009395Y0208391D01*
X0009384Y0208347D01*
X0009376Y0208303D01*
X0009372Y0208258D01*
X0009372Y0208214D01*
X0009376Y0208169D01*
X0009384Y0208125D01*
X0009395Y0208081D01*
X0009410Y0208039D01*
X0009429Y0207998D01*
X0009450Y0207959D01*
X0009475Y0207922D01*
X0009504Y0207887D01*
X0009535Y0207855D01*
X0009568Y0207825D01*
X0009604Y0207799D01*
X0009642Y0207775D01*
X0009683Y0207755D01*
X0009724Y0207738D01*
X0009767Y0207725D01*
X0009811Y0207716D01*
X0009855Y0207710D01*
X0009900Y0207708D01*
X0011272Y0206710D02*
X0009372Y0205443D01*
X0009372Y0209940D02*
X0010744Y0209940D01*
X0010789Y0209942D01*
X0010833Y0209948D01*
X0010877Y0209957D01*
X0010920Y0209970D01*
X0010961Y0209987D01*
X0011002Y0210007D01*
X0011040Y0210031D01*
X0011076Y0210057D01*
X0011109Y0210087D01*
X0011140Y0210119D01*
X0011169Y0210154D01*
X0011194Y0210191D01*
X0011215Y0210230D01*
X0011234Y0210271D01*
X0011249Y0210313D01*
X0011260Y0210357D01*
X0011268Y0210401D01*
X0011272Y0210446D01*
X0011272Y0210490D01*
X0011268Y0210535D01*
X0011260Y0210579D01*
X0011249Y0210623D01*
X0011234Y0210665D01*
X0011215Y0210706D01*
X0011194Y0210745D01*
X0011169Y0210782D01*
X0011140Y0210817D01*
X0011109Y0210849D01*
X0011076Y0210879D01*
X0011040Y0210905D01*
X0011002Y0210929D01*
X0010961Y0210949D01*
X0010920Y0210966D01*
X0010877Y0210979D01*
X0010833Y0210988D01*
X0010789Y0210994D01*
X0010744Y0210996D01*
X0009372Y0210996D01*
X0009372Y0212028D02*
X0009372Y0213084D01*
X0009372Y0212556D02*
X0011272Y0212556D01*
X0011272Y0232220D02*
X0009372Y0232220D01*
X0009372Y0232748D01*
X0009374Y0232792D01*
X0009379Y0232835D01*
X0009388Y0232878D01*
X0009401Y0232919D01*
X0009416Y0232960D01*
X0009436Y0232999D01*
X0009458Y0233037D01*
X0009483Y0233072D01*
X0009512Y0233106D01*
X0009542Y0233136D01*
X0009576Y0233165D01*
X0009611Y0233190D01*
X0009649Y0233212D01*
X0009688Y0233232D01*
X0009729Y0233247D01*
X0009770Y0233260D01*
X0009813Y0233269D01*
X0009856Y0233274D01*
X0009900Y0233276D01*
X0010744Y0233276D01*
X0010788Y0233274D01*
X0010831Y0233269D01*
X0010874Y0233260D01*
X0010915Y0233247D01*
X0010956Y0233232D01*
X0010995Y0233212D01*
X0011033Y0233190D01*
X0011068Y0233165D01*
X0011102Y0233136D01*
X0011132Y0233106D01*
X0011161Y0233072D01*
X0011186Y0233037D01*
X0011208Y0232999D01*
X0011228Y0232960D01*
X0011243Y0232919D01*
X0011256Y0232878D01*
X0011265Y0232835D01*
X0011270Y0232792D01*
X0011272Y0232748D01*
X0011272Y0232220D01*
X0011272Y0234563D02*
X0009372Y0234563D01*
X0010428Y0235196D01*
X0009372Y0235830D01*
X0011272Y0235830D01*
X0011272Y0236939D02*
X0009372Y0238206D01*
X0009372Y0239089D02*
X0009372Y0239511D01*
X0009372Y0239300D02*
X0011272Y0239300D01*
X0011272Y0239089D02*
X0011272Y0239511D01*
X0011272Y0240572D02*
X0009372Y0240572D01*
X0011272Y0241628D01*
X0009372Y0241628D01*
X0011272Y0238206D02*
X0009372Y0236939D01*
X0009372Y0267654D02*
X0009372Y0268498D01*
X0009372Y0267654D02*
X0011272Y0267654D01*
X0010216Y0267654D02*
X0010216Y0268498D01*
X0010428Y0269543D02*
X0010428Y0270071D01*
X0010428Y0270176D02*
X0011272Y0270598D01*
X0011272Y0269543D02*
X0009372Y0269543D01*
X0009372Y0270071D01*
X0009374Y0270116D01*
X0009380Y0270160D01*
X0009389Y0270204D01*
X0009402Y0270247D01*
X0009419Y0270288D01*
X0009439Y0270329D01*
X0009463Y0270367D01*
X0009489Y0270403D01*
X0009519Y0270436D01*
X0009551Y0270467D01*
X0009586Y0270496D01*
X0009623Y0270521D01*
X0009662Y0270542D01*
X0009703Y0270561D01*
X0009745Y0270576D01*
X0009789Y0270587D01*
X0009833Y0270595D01*
X0009878Y0270599D01*
X0009922Y0270599D01*
X0009967Y0270595D01*
X0010011Y0270587D01*
X0010055Y0270576D01*
X0010097Y0270561D01*
X0010138Y0270542D01*
X0010177Y0270521D01*
X0010214Y0270496D01*
X0010249Y0270467D01*
X0010281Y0270436D01*
X0010311Y0270403D01*
X0010337Y0270367D01*
X0010361Y0270329D01*
X0010381Y0270288D01*
X0010398Y0270247D01*
X0010411Y0270204D01*
X0010420Y0270160D01*
X0010426Y0270116D01*
X0010428Y0270071D01*
X0010744Y0271678D02*
X0009900Y0271678D01*
X0009855Y0271680D01*
X0009811Y0271686D01*
X0009767Y0271695D01*
X0009724Y0271708D01*
X0009683Y0271725D01*
X0009642Y0271745D01*
X0009604Y0271769D01*
X0009568Y0271795D01*
X0009535Y0271825D01*
X0009504Y0271857D01*
X0009475Y0271892D01*
X0009450Y0271929D01*
X0009429Y0271968D01*
X0009410Y0272009D01*
X0009395Y0272051D01*
X0009384Y0272095D01*
X0009376Y0272139D01*
X0009372Y0272184D01*
X0009372Y0272228D01*
X0009376Y0272273D01*
X0009384Y0272317D01*
X0009395Y0272361D01*
X0009410Y0272403D01*
X0009429Y0272444D01*
X0009450Y0272483D01*
X0009475Y0272520D01*
X0009504Y0272555D01*
X0009535Y0272587D01*
X0009568Y0272617D01*
X0009604Y0272643D01*
X0009642Y0272667D01*
X0009683Y0272687D01*
X0009724Y0272704D01*
X0009767Y0272717D01*
X0009811Y0272726D01*
X0009855Y0272732D01*
X0009900Y0272734D01*
X0009900Y0272733D02*
X0010744Y0272733D01*
X0010744Y0272734D02*
X0010789Y0272732D01*
X0010833Y0272726D01*
X0010877Y0272717D01*
X0010920Y0272704D01*
X0010961Y0272687D01*
X0011002Y0272667D01*
X0011040Y0272643D01*
X0011076Y0272617D01*
X0011109Y0272587D01*
X0011140Y0272555D01*
X0011169Y0272520D01*
X0011194Y0272483D01*
X0011215Y0272444D01*
X0011234Y0272403D01*
X0011249Y0272361D01*
X0011260Y0272317D01*
X0011268Y0272273D01*
X0011272Y0272228D01*
X0011272Y0272184D01*
X0011268Y0272139D01*
X0011260Y0272095D01*
X0011249Y0272051D01*
X0011234Y0272009D01*
X0011215Y0271968D01*
X0011194Y0271929D01*
X0011169Y0271892D01*
X0011140Y0271857D01*
X0011109Y0271825D01*
X0011076Y0271795D01*
X0011040Y0271769D01*
X0011002Y0271745D01*
X0010961Y0271725D01*
X0010920Y0271708D01*
X0010877Y0271695D01*
X0010833Y0271686D01*
X0010789Y0271680D01*
X0010744Y0271678D01*
X0011272Y0273910D02*
X0009372Y0273910D01*
X0011272Y0274965D01*
X0009372Y0274965D01*
X0009372Y0275998D02*
X0009372Y0277053D01*
X0009372Y0276526D02*
X0011272Y0276526D01*
M02*
